<svg class="round-bti__foreground-svg" viewBox="0 0 3020 1582" fill="none" xmlns="http://www.w3.org/2000/svg">
  <g class="entrance 1">
    <g class="apartment" data-apartment-id="21">
      <g class="room 1">
        <rect x="742" y="1170" width="151" height="82" fill="#9EFF00" fill-opacity="0.6"/>
      </g>
      <g class="room 2">
        <rect width="148" height="266" transform="matrix(-1 0 0 1 979 1252)" fill="#9EFF00" fill-opacity="0.6"/>
      </g>
      <g class="room 3">
        <rect width="134" height="64" transform="matrix(-1 0 0 1 965 1518)" fill="#9EFF00" fill-opacity="0.6"/>
      </g>
      <g class="room 4">
        <rect x="893" y="1103" width="86" height="149" fill="#9EFF00" fill-opacity="0.6"/>
      </g>
      <g class="room 5">
        <rect x="808" y="938" width="171" height="165" fill="#9EFF00" fill-opacity="0.6"/>
        <rect x="808" y="1103" width="85" height="67" fill="#9EFF00" fill-opacity="0.6"/>
      </g>
      <g class="room 6">
        <rect x="670" y="984" width="138" height="186" fill="#9EFF00" fill-opacity="0.6"/>
      </g>
    </g>
    <g class="apartment" data-apartment-id="22">
      <g class="room 1">
        <rect x="640" y="1252" width="50" height="111" fill="#9EFF00" fill-opacity="0.6"/>
        <rect x="690" y="1252" width="25" height="62" fill="#9EFF00" fill-opacity="0.6"/>
      </g>
      <g class="room 2">
        <rect x="553" y="1252" width="87" height="111" fill="#9EFF00" fill-opacity="0.6"/>
      </g>
      <g class="room 3">
        <rect x="553" y="1363" width="137" height="155" fill="#9EFF00" fill-opacity="0.6"/>
      </g>
      <g class="room 4">
        <rect x="690" y="1314" width="141" height="186" fill="#9EFF00" fill-opacity="0.6"/>
        <rect x="715" y="1252" width="116" height="62" fill="#9EFF00" fill-opacity="0.6"/>
      </g>
      <g class="room 5">
        <rect x="690" y="1500" width="141" height="82" fill="#9EFF00" fill-opacity="0.6"/>
      </g>
    </g>
    <g class="apartment" data-apartment-id="23">
      <g class="room 1">
        <rect x="271" y="1252" width="197" height="72" fill="#9EFF00" fill-opacity="0.6"/>
      </g>
      <g class="room 2">
        <rect x="468" y="1252" width="85" height="111" fill="#9EFF00" fill-opacity="0.6"/>
      </g>
      <g class="room 3">
        <rect x="398" y="1363" width="155" height="155" fill="#9EFF00" fill-opacity="0.6"/>
        <rect x="398" y="1324" width="70" height="39" fill="#9EFF00" fill-opacity="0.6"/>
      </g>
      <g class="room 4">
        <rect x="271" y="1324" width="127" height="176" fill="#9EFF00" fill-opacity="0.6"/>
      </g>
      <g class="room 5">
        <rect x="271" y="1500" width="127" height="82" fill="#9EFF00" fill-opacity="0.6"/>
        <rect x="258" y="1518" width="13" height="64" fill="#9EFF00" fill-opacity="0.6"/>
      </g>
      <g class="room 6">
        <rect x="66" y="1338" width="205" height="180" fill="#9EFF00" fill-opacity="0.6"/>
        <rect x="208" y="1252" width="63" height="86" fill="#9EFF00" fill-opacity="0.6"/>
      </g>
    </g>
    <g class="apartment" data-apartment-id="24">
      <g class="room 1">
        <rect x="150" y="1178" width="214" height="74" fill="#9EFF00" fill-opacity="0.6"/>
        <rect x="296" y="1118" width="49" height="60" fill="#9EFF00" fill-opacity="0.6"/>
      </g>
      <g class="room 2">
        <rect x="345" y="1118" width="102" height="60" fill="#9EFF00" fill-opacity="0.6"/>
      </g>
      <g class="room 3">
        <rect x="296" y="938" width="151" height="180" fill="#9EFF00" fill-opacity="0.6"/>
      </g>
      <g class="room 4">
        <rect x="150" y="938" width="146" height="240" fill="#9EFF00" fill-opacity="0.6"/>
      </g>
      <g class="room 5">
        <rect y="1039" width="150" height="230" fill="#9EFF00" fill-opacity="0.6"/>
      </g>
      <g class="room 6">
        <rect y="956" width="150" height="83" fill="#9EFF00" fill-opacity="0.6"/>
      </g>
      <g class="room 7">
        <rect x="66" y="1269" width="142" height="69" fill="#9EFF00" fill-opacity="0.6"/>
        <rect x="150" y="1252" width="58" height="17" fill="#9EFF00" fill-opacity="0.6"/>
      </g>
    </g>
  </g>
  <g class="entrance 2">
    <g class="apartment" data-apartment-id="53">
      <g class="room 1">
        <rect x="1662" y="1149" width="85" height="103" fill="#9EFF00" fill-opacity="0.6"/>
        <rect x="1595" y="1172" width="67" height="80" fill="#9EFF00" fill-opacity="0.6"/>
      </g>
      <g class="room 2">
        <rect x="1684" y="1252" width="156" height="266" fill="#9EFF00" fill-opacity="0.6"/>
      </g>
      <g class="room 3">
        <rect x="1747" y="1196" width="93" height="56" fill="#9EFF00" fill-opacity="0.6"/>
      </g>
      <g class="room 4">
        <rect x="1747" y="1101" width="93" height="95" fill="#9EFF00" fill-opacity="0.6"/>
      </g>
      <g class="room 5">
        <rect x="1662" y="939" width="178" height="162" fill="#9EFF00" fill-opacity="0.6"/>
        <rect x="1662" y="1101" width="85" height="48" fill="#9EFF00" fill-opacity="0.6"/>
      </g>
      <g class="room 6">
        <rect x="1521" y="994" width="141" height="178" fill="#9EFF00" fill-opacity="0.6"/>
        <rect x="1537" y="922" width="125" height="72" fill="#9EFF00" fill-opacity="0.6"/>
      </g>
    </g>
    <g class="apartment" data-apartment-id="54">
      <g class="room 1">
        <rect x="1493" y="1252" width="74" height="62" fill="#9EFF00" fill-opacity="0.6"/>
        <rect x="1493" y="1314" width="49" height="48" fill="#9EFF00" fill-opacity="0.6"/>
      </g>
      <g class="room 2">
        <rect x="1406" y="1252" width="87" height="110" fill="#9EFF00" fill-opacity="0.6"/>
      </g>
      <g class="room 3">
        <rect x="1406" y="1362" width="136" height="156" fill="#9EFF00" fill-opacity="0.6"/>
      </g>
      <g class="room 4">
        <rect x="1567" y="1252" width="117" height="62" fill="#9EFF00" fill-opacity="0.6"/>
        <rect x="1542" y="1314" width="142" height="177" fill="#9EFF00" fill-opacity="0.6"/>
      </g>
      <g class="room 5">
        <rect x="1542" y="1491" width="135" height="91" fill="#9EFF00" fill-opacity="0.6"/>
      </g>
    </g>
    <g class="apartment" data-apartment-id="55">
      <g class="room 1">
        <rect x="1244" y="1252" width="78" height="62" fill="#9EFF00" fill-opacity="0.6"/>
        <rect x="1267" y="1314" width="55" height="48" fill="#9EFF00" fill-opacity="0.6"/>
      </g>
      <g class="room 2">
        <rect x="1322" y="1252" width="84" height="110" fill="#9EFF00" fill-opacity="0.6"/>
      </g>
      <g class="room 3">
        <rect x="1267" y="1362" width="139" height="129" fill="#9EFF00" fill-opacity="0.6"/>
        <rect x="1274" y="1491" width="132" height="27" fill="#9EFF00" fill-opacity="0.6"/>
      </g>
      <g class="room 4">
        <rect x="1125" y="1252" width="119" height="62" fill="#9EFF00" fill-opacity="0.6"/>
        <rect x="1125" y="1314" width="142" height="177" fill="#9EFF00" fill-opacity="0.6"/>
      </g>
      <g class="room 5">
        <rect x="1134" y="1491" width="140" height="91" fill="#9EFF00" fill-opacity="0.6"/>
        <rect x="1125" y="1491" width="9" height="27" fill="#9EFF00" fill-opacity="0.6"/>
      </g>
    </g>
    <g class="apartment" data-apartment-id="56">
      <g class="room 1">
        <rect x="1064" y="1150" width="100" height="102" fill="#9EFF00" fill-opacity="0.6"/>
        <rect x="1164" y="1170" width="62" height="82" fill="#9EFF00" fill-opacity="0.6"/>
      </g>
      <g class="room 2">
        <rect x="979" y="1252" width="146" height="266" fill="#9EFF00" fill-opacity="0.6"/>
      </g>
      <g class="room 3">
        <rect x="979" y="1196" width="85" height="56" fill="#9EFF00" fill-opacity="0.6"/>
      </g>
      <g class="room 4">
        <rect x="979" y="1103" width="85" height="93" fill="#9EFF00" fill-opacity="0.6"/>
      </g>
      <g class="room 5">
        <rect x="979" y="938" width="185" height="165" fill="#9EFF00" fill-opacity="0.6"/>
        <rect x="1064" y="1103" width="100" height="47" fill="#9EFF00" fill-opacity="0.6"/>
      </g>
      <g class="room 6">
        <rect x="1164" y="994" width="131" height="176" fill="#9EFF00" fill-opacity="0.6"/>
        <rect x="1164" y="923" width="125" height="71" fill="#9EFF00" fill-opacity="0.6"/>
      </g>
    </g>
  </g>
  <g class="entrance 3">
    <g class="apartment" data-apartment-id="90">
      <g class="room 1">
        <rect x="2644" y="1094" width="148" height="51" fill="#9EFF00" fill-opacity="0.6"/>
        <rect x="2644" y="1145" width="102" height="107" fill="#9EFF00" fill-opacity="0.6"/>
        <rect x="2691" y="1252" width="55" height="29" fill="#9EFF00" fill-opacity="0.6"/>
      </g>
      <g class="room 2">
        <rect x="2644" y="1011" width="102" height="83" fill="#9EFF00" fill-opacity="0.6"/>
      </g>
      <g class="room 3">
        <rect x="2792" y="1011" width="167" height="134" fill="#9EFF00" fill-opacity="0.6"/>
      </g>
      <g class="room 4">
        <rect x="2746" y="1145" width="213" height="136" fill="#9EFF00" fill-opacity="0.6"/>
      </g>
      <g class="room 5">
        <rect x="2690" y="1281" width="269" height="132" fill="#9EFF00" fill-opacity="0.6"/>
        <rect x="2836" y="1413" width="123" height="26" fill="#9EFF00" fill-opacity="0.6"/>
      </g>
      <g class="room 6">
        <rect x="2746" y="1011" width="46" height="83" fill="#9EFF00" fill-opacity="0.6"/>
      </g>
      <g class="room 7">
        <rect x="2691" y="1413" width="145" height="92" fill="#9EFF00" fill-opacity="0.6"/>
        <rect x="2691" y="1505" width="19" height="13" fill="#9EFF00" fill-opacity="0.6"/>
      </g>
    </g>
    <g class="apartment" data-apartment-id="91">
      <g class="room 1">
        <rect width="79.1103" height="62" transform="matrix(-1 0 0 1 2570.31 1252)" fill="#9EFF00" fill-opacity="0.6"/>
        <rect width="55.7829" height="48" transform="matrix(-1 0 0 1 2546.98 1314)" fill="#9EFF00" fill-opacity="0.6"/>
      </g>
      <g class="room 2">
        <rect width="85.1957" height="110" transform="matrix(-1 0 0 1 2491.2 1252)" fill="#9EFF00" fill-opacity="0.6"/>
      </g>
      <g class="room 3">
        <rect width="140.979" height="129" transform="matrix(-1 0 0 1 2546.98 1362)" fill="#9EFF00" fill-opacity="0.6"/>
        <rect width="133.879" height="27" transform="matrix(-1 0 0 1 2539.88 1491)" fill="#9EFF00" fill-opacity="0.6"/>
      </g>
      <g class="room 4">
        <rect width="120.694" height="62" transform="matrix(-1 0 0 1 2691 1252)" fill="#9EFF00" fill-opacity="0.6"/>
        <rect width="144.021" height="177" transform="matrix(-1 0 0 1 2691 1314)" fill="#9EFF00" fill-opacity="0.6"/>
      </g>
      <g class="room 5">
        <rect width="141.993" height="91" transform="matrix(-1 0 0 1 2681.87 1491)" fill="#9EFF00" fill-opacity="0.6"/>
        <rect width="9.12811" height="27" transform="matrix(-1 0 0 1 2691 1491)" fill="#9EFF00" fill-opacity="0.6"/>
      </g>
    </g>
    <g class="apartment" data-apartment-id="92">
      <g class="room 1">
        <rect x="2244" y="1252" width="78" height="62" fill="#9EFF00" fill-opacity="0.6"/>
        <rect x="2267" y="1314" width="55" height="48" fill="#9EFF00" fill-opacity="0.6"/>
      </g>
      <g class="room 2">
        <rect x="2322" y="1252" width="84" height="110" fill="#9EFF00" fill-opacity="0.6"/>
      </g>
      <g class="room 3">
        <rect x="2267" y="1362" width="139" height="129" fill="#9EFF00" fill-opacity="0.6"/>
        <rect x="2274" y="1491" width="132" height="27" fill="#9EFF00" fill-opacity="0.6"/>
      </g>
      <g class="room 4">
        <rect x="2125" y="1252" width="119" height="62" fill="#9EFF00" fill-opacity="0.6"/>
        <rect x="2125" y="1314" width="142" height="177" fill="#9EFF00" fill-opacity="0.6"/>
      </g>
      <g class="room 5">
        <rect x="2134" y="1491" width="140" height="91" fill="#9EFF00" fill-opacity="0.6"/>
        <rect x="2125" y="1491" width="9" height="27" fill="#9EFF00" fill-opacity="0.6"/>
      </g>
    </g>
    <g class="apartment" data-apartment-id="93">
      <g class="room 1">
        <rect x="1967" y="1252" width="158" height="62" fill="#9EFF00" fill-opacity="0.6"/>
      </g>
      <g class="room 2">
        <rect x="1840" y="1252" width="127" height="84" fill="#9EFF00" fill-opacity="0.6"/>
      </g>
      <g class="room 3">
        <rect x="1840" y="1336" width="127" height="182" fill="#9EFF00" fill-opacity="0.6"/>
      </g>
      <g class="room 4">
        <rect x="1967" y="1314" width="158" height="204" fill="#9EFF00" fill-opacity="0.6"/>
      </g>
    </g>
    <g class="apartment" data-apartment-id="94">
      <g class="room 1">
        <rect x="1963" y="1119" width="83" height="133" fill="#9EFF00" fill-opacity="0.6"/>
        <rect x="2046" y="1119" width="116" height="53" fill="#9EFF00" fill-opacity="0.6"/>
      </g>
      <g class="room 2">
        <rect x="2162" y="988" width="136" height="184" fill="#9EFF00" fill-opacity="0.6"/>
        <rect x="2162" y="922" width="123" height="66" fill="#9EFF00" fill-opacity="0.6"/>
      </g>
      <g class="room 3">
        <rect x="1984" y="939" width="178" height="180" fill="#9EFF00" fill-opacity="0.6"/>
      </g>
      <g class="room 4">
        <rect x="1840" y="939" width="144" height="180" fill="#9EFF00" fill-opacity="0.6"/>
        <rect x="1840" y="1119" width="123" height="48" fill="#9EFF00" fill-opacity="0.6"/>
      </g>
      <g class="room 5">
        <rect x="1840" y="1167" width="123" height="85" fill="#9EFF00" fill-opacity="0.6"/>
      </g>
    </g>
  </g>
  <g class="entrance 4">
    <g class="apartment" data-apartment-id="130">
      <g class="room 1">
        <rect x="2532" y="563" width="86" height="90" fill="#9EFF00" fill-opacity="0.6"/>
      </g>
      <g class="room 2">
        <rect x="2532" y="457" width="86" height="106" fill="#9EFF00" fill-opacity="0.6"/>
      </g>
      <g class="room 3">
        <rect x="2377" y="457" width="155" height="164" fill="#9EFF00" fill-opacity="0.6"/>
      </g>
      <g class="room 4">
        <rect x="2391" y="621" width="141" height="170" fill="#9EFF00" fill-opacity="0.6"/>
        <rect x="2532" y="653" width="86" height="138" fill="#9EFF00" fill-opacity="0.6"/>
      </g>
      <g class="room 5">
        <rect x="2314" y="614" width="63" height="142" fill="#9EFF00" fill-opacity="0.6"/>
        <rect x="2377" y="621" width="14" height="135" fill="#9EFF00" fill-opacity="0.6"/>
      </g>
    </g>
    <g class="apartment" data-apartment-id="131">
      <g class="room 1">
        <rect x="2546" y="32" width="144" height="65" fill="#9EFF00" fill-opacity="0.6"/>
        <rect x="2674" width="16" height="32" fill="#9EFF00" fill-opacity="0.6"/>
        <rect x="2557" y="97" width="133" height="79" fill="#9EFF00" fill-opacity="0.6"/>
        <rect x="2557" y="176" width="72" height="88" fill="#9EFF00" fill-opacity="0.6"/>
        <rect x="2557" y="264" width="61" height="82" fill="#9EFF00" fill-opacity="0.6"/>
        <rect x="2532" y="297" width="25" height="49" fill="#9EFF00" fill-opacity="0.6"/>
      </g>
      <g class="room 2">
        <rect x="2532" y="346" width="86" height="111" fill="#9EFF00" fill-opacity="0.6"/>
      </g>
      <g class="room 3">
        <rect x="2377" y="297" width="155" height="160" fill="#9EFF00" fill-opacity="0.6"/>
      </g>
      <g class="room 4">
        <rect x="2377" y="97" width="180" height="200" fill="#9EFF00" fill-opacity="0.6"/>
      </g>
      <g class="room 5">
        <rect x="2690" width="243" height="183" fill="#9EFF00" fill-opacity="0.6"/>
      </g>
      <g class="room 6">
        <rect x="2629" y="176" width="61" height="88" fill="#9EFF00" fill-opacity="0.6"/>
      </g>
    </g>
    <g class="apartment" data-apartment-id="132">
      <g class="room 1">
        <rect x="2690" y="370.565" width="49.1007" height="111" transform="rotate(-90 2690 370.565)" fill="#9EFF00" fill-opacity="0.6"/>
        <rect x="2690" y="321.464" width="24.5504" height="62" transform="rotate(-90 2690 321.464)" fill="#9EFF00" fill-opacity="0.6"/>
      </g>
      <g class="room 2">
        <rect x="2690" y="456" width="85.4352" height="111" transform="rotate(-90 2690 456)" fill="#9EFF00" fill-opacity="0.6"/>
      </g>
      <g class="room 3">
        <rect x="2801" y="456" width="135" height="155" transform="rotate(-90 2801 456)" fill="#9EFF00" fill-opacity="0.6"/>
      </g>
      <g class="room 4">
        <rect x="2752" y="321" width="138" height="186" transform="rotate(-90 2752 321)" fill="#9EFF00" fill-opacity="0.6"/>
        <rect x="2690" y="296.532" width="113.532" height="62" transform="rotate(-90 2690 296.532)" fill="#9EFF00" fill-opacity="0.6"/>
      </g>
      <g class="room 5">
        <rect x="2938" y="321" width="138" height="82" transform="rotate(-90 2938 321)" fill="#9EFF00" fill-opacity="0.6"/>
      </g>
    </g>
    <g class="apartment" data-apartment-id="133">
      <g class="room 1">
        <rect width="49.8201" height="111" transform="matrix(0 1 1 0 2690 542.687)" fill="#9EFF00" fill-opacity="0.6"/>
        <rect width="24.9101" height="62" transform="matrix(0 1 1 0 2690 592.507)" fill="#9EFF00" fill-opacity="0.6"/>
      </g>
      <g class="room 2">
        <rect width="86.687" height="111" transform="matrix(0 1 1 0 2690 456)" fill="#9EFF00" fill-opacity="0.6"/>
      </g>
      <g class="room 3">
        <rect width="136.507" height="155" transform="matrix(0 1 1 0 2801 456)" fill="#9EFF00" fill-opacity="0.6"/>
      </g>
      <g class="room 4">
        <rect width="140.493" height="186" transform="matrix(0 1 1 0 2752 592.507)" fill="#9EFF00" fill-opacity="0.6"/>
        <rect width="115.583" height="62" transform="matrix(0 1 1 0 2690 617.417)" fill="#9EFF00" fill-opacity="0.6"/>
      </g>
      <g class="room 5">
        <rect width="140.493" height="82" transform="matrix(0 1 1 0 2938 592.507)" fill="#9EFF00" fill-opacity="0.6"/>
      </g>
    </g>
    <g class="apartment" data-apartment-id="134">
      <g class="room 1">
        <rect x="2690" y="924" width="50" height="111" transform="rotate(-90 2690 924)" fill="#9EFF00" fill-opacity="0.6"/>
        <rect x="2690" y="874" width="25" height="62" transform="rotate(-90 2690 874)" fill="#9EFF00" fill-opacity="0.6"/>
      </g>
      <g class="room 2">
        <rect x="2690" y="1011" width="87" height="111" transform="rotate(-90 2690 1011)" fill="#9EFF00" fill-opacity="0.6"/>
      </g>
      <g class="room 3">
        <rect x="2801" y="1011" width="137" height="158" transform="rotate(-90 2801 1011)" fill="#9EFF00" fill-opacity="0.6"/>
      </g>
      <g class="room 4">
        <rect x="2752" y="874" width="141" height="186" transform="rotate(-90 2752 874)" fill="#9EFF00" fill-opacity="0.6"/>
        <rect x="2690" y="849" width="116" height="62" transform="rotate(-90 2690 849)" fill="#9EFF00" fill-opacity="0.6"/>
      </g>
      <g class="room 5">
        <rect x="2938" y="874" width="141" height="82" transform="rotate(-90 2938 874)" fill="#9EFF00" fill-opacity="0.6"/>
      </g>
    </g>
  </g>
<line x1="554.5" y1="1518" x2="554.5" y2="1252" stroke="#9EFF00" stroke-width="7"/>
<line x1="72" y1="1336.5" x2="212" y2="1336.5" stroke="#9EFF00" stroke-width="7"/>
<line x1="210.5" y1="1340" x2="210.5" y2="1252" stroke="#9EFF00" stroke-width="7"/>
<line x1="209" y1="1251.5" x2="369" y2="1251.5" stroke="#9EFF00" stroke-width="7"/>
<line x1="747" y1="1250.5" x2="833" y2="1250.5" stroke="#9EFF00" stroke-width="7"/>
<line x1="833.5" y1="1249" x2="833.5" y2="1582" stroke="#9EFF00" stroke-width="7"/>
<line x1="981.5" y1="938" x2="981.5" y2="1518" stroke="#9EFF00" stroke-width="7"/>
<line x1="1126" y1="1251.5" x2="1228" y2="1251.5" stroke="#9EFF00" stroke-width="7"/>
<line x1="1129.5" y1="1252" x2="1129.5" y2="1518" stroke="#9EFF00" stroke-width="7"/>
<line x1="1408.5" y1="1252" x2="1408.5" y2="1518" stroke="#9EFF00" stroke-width="7"/>
<line x1="1598" y1="1250.5" x2="1684" y2="1250.5" stroke="#9EFF00" stroke-width="7"/>
<line x1="1687.5" y1="1249" x2="1687.5" y2="1518" stroke="#9EFF00" stroke-width="7"/>
<line x1="1842.5" y1="938" x2="1842.5" y2="1517" stroke="#9EFF00" stroke-width="7"/>
<line x1="1846" y1="1250.5" x2="2050" y2="1250.5" stroke="#9EFF00" stroke-width="7"/>
<line x1="2125.5" y1="1254" x2="2125.5" y2="1518" stroke="#9EFF00" stroke-width="7"/>
<line x1="2407.5" y1="1254" x2="2407.5" y2="1520" stroke="#9EFF00" stroke-width="7"/>
<line x1="2642" y1="1250.5" x2="2693" y2="1250.5" stroke="#9EFF00" stroke-width="7"/>
<line x1="2689.5" y1="1502" x2="2689.5" y2="1254" stroke="#9EFF00" stroke-width="7"/>
<line x1="2690" y1="1008.5" x2="2956" y2="1008.5" stroke="#9EFF00" stroke-width="7"/>
<line x1="2691" y1="731.497" x2="3016" y2="731.497" stroke="#9EFF00" stroke-width="7"/>
<line x1="2690" y1="454.5" x2="2956" y2="454.5" stroke="#9EFF00" stroke-width="7"/>
<line x1="2684" y1="175.5" x2="2932" y2="175.5" stroke="#9EFF00" stroke-width="7"/>
<line x1="2687.5" y1="179" x2="2687.5" y2="256" stroke="#9EFF00" stroke-width="7"/>
<line x1="2375" y1="457.5" x2="2611" y2="457.5" stroke="#9EFF00" stroke-width="7"/>
<line x1="2614.5" y1="455" x2="2614.5" y2="795" stroke="#9EFF00" stroke-width="7"/>
<line x1="2378.5" y1="458" x2="2378.5" y2="623" stroke="#9EFF00" stroke-width="7"/>
<line x1="2375" y1="618.5" x2="2313" y2="618.5" stroke="#9EFF00" stroke-width="7"/>
<line x1="2316.5" y1="615" x2="2316.5" y2="760" stroke="#9EFF00" stroke-width="7"/>
<line x1="2313" y1="756.5" x2="2393" y2="756.5" stroke="#9EFF00" stroke-width="7"/>
<line x1="2396.5" y1="753" x2="2396.5" y2="795" stroke="#9EFF00" stroke-width="7"/>
<line x1="2393" y1="791.5" x2="2611" y2="791.5" stroke="#9EFF00" stroke-width="7"/>
<line x1="2380.5" y1="455" x2="2380.5" y2="99" stroke="#9EFF00" stroke-width="7"/>
<line x1="2375" y1="95.5" x2="2545" y2="95.5" stroke="#9EFF00" stroke-width="7"/>
<line x1="2541.5" y1="99" x2="2541.5" y2="35" stroke="#9EFF00" stroke-width="7"/>
<line x1="2545" y1="31.5" x2="2671" y2="31.5" stroke="#9EFF00" stroke-width="7"/>
<line x1="2674.5" x2="2674.5" y2="35" stroke="#9EFF00" stroke-width="7"/>
<line x1="2671" y1="4.5" x2="2932" y2="4.5" stroke="#9EFF00" stroke-width="7"/>
<line x1="2935.5" x2="2935.5" y2="179" stroke="#9EFF00" stroke-width="7"/>
<line x1="2932" y1="175.5" x2="2956" y2="175.5" stroke="#9EFF00" stroke-width="7"/>
<line x1="2959.5" y1="179" x2="2959.5" y2="185" stroke="#9EFF00" stroke-width="7"/>
<line x1="2956" y1="181.5" x2="3018" y2="181.5" stroke="#9EFF00" stroke-width="7"/>
<line x1="3016.5" y1="327.007" x2="3016.5" y2="184.993" stroke="#9EFF00" stroke-width="7"/>
<line x1="2956" y1="323.5" x2="3018" y2="323.5" stroke="#9EFF00" stroke-width="7"/>
<line x1="2959.5" y1="327" x2="2959.5" y2="597" stroke="#9EFF00" stroke-width="7"/>
<line x1="2956" y1="593.5" x2="3018" y2="593.5" stroke="#9EFF00" stroke-width="7"/>
<line x1="3014.5" y1="597" x2="3014.5" y2="871" stroke="#9EFF00" stroke-width="7"/>
<line x1="3018" y1="874.5" x2="2956" y2="874.5" stroke="#9EFF00" stroke-width="7"/>
<line x1="2959.5" y1="871" x2="2959.5" y2="1440" stroke="#9EFF00" stroke-width="7"/>
<line x1="2832.5" y1="1440" x2="2832.5" y2="1506" stroke="#9EFF00" stroke-width="7"/>
<line x1="2687" y1="1502.5" x2="2836" y2="1502.5" stroke="#9EFF00" stroke-width="7"/>
<line x1="2687.5" y1="1502" x2="2687.5" y2="1520" stroke="#9EFF00" stroke-width="7"/>
<line x1="2687" y1="1523.5" x2="2681" y2="1523.5" stroke="#9EFF00" stroke-width="7"/>
<line x1="2684.5" y1="1520" x2="2684.5" y2="1582" stroke="#9EFF00" stroke-width="7"/>
<line x1="2681" y1="1578.5" x2="2539" y2="1578.5" stroke="#9EFF00" stroke-width="7"/>
<line x1="2542.5" y1="1517" x2="2542.5" y2="1582" stroke="#9EFF00" stroke-width="7"/>
<line x1="2545" y1="1517.5" x2="2267" y2="1517.5" stroke="#9EFF00" stroke-width="7"/>
<line x1="2270.5" y1="1519" x2="2270.5" y2="1582" stroke="#9EFF00" stroke-width="7"/>
<line x1="2274" y1="1579.5" x2="2135" y2="1579.5" stroke="#9EFF00" stroke-width="7"/>
<line x1="2135" y1="1521" x2="1675" y2="1521" stroke="#9EFF00" stroke-width="7"/>
<line x1="1673.5" y1="1518" x2="1673.5" y2="1580" stroke="#9EFF00" stroke-width="7"/>
<line x1="1677" y1="1579.5" x2="1542" y2="1579.5" stroke="#9EFF00" stroke-width="7"/>
<line x1="1545.5" y1="1511" x2="1545.5" y2="1576" stroke="#9EFF00" stroke-width="7"/>
<line x1="1550" y1="1514.5" x2="1267" y2="1514.5" stroke="#9EFF00" stroke-width="7"/>
<line x1="1270.5" y1="1518" x2="1270.5" y2="1581" stroke="#9EFF00" stroke-width="7"/>
<line x1="1273.97" y1="1580.5" x2="1134.97" y2="1579.5" stroke="#9EFF00" stroke-width="7"/>
<line x1="1138.5" y1="1517" x2="1138.5" y2="1580" stroke="#9EFF00" stroke-width="7"/>
<line x1="968" y1="1513.5" x2="1135" y2="1513.5" stroke="#9EFF00" stroke-width="7"/>
<line x1="971.5" y1="1517" x2="971.5" y2="1582" stroke="#9EFF00" stroke-width="7"/>
<line x1="698.013" y1="1578.5" x2="968.013" y2="1579.53" stroke="#9EFF00" stroke-width="7"/>
<line x1="701.5" y1="1518" x2="701.5" y2="1582" stroke="#9EFF00" stroke-width="7"/>
<line x1="391" y1="1514.5" x2="698" y2="1514.5" stroke="#9EFF00" stroke-width="7"/>
<line x1="394.5" y1="1582.01" x2="394.5" y2="1518" stroke="#9EFF00" stroke-width="7"/>
<line x1="398" y1="1579.5" x2="258" y2="1579.5" stroke="#9EFF00" stroke-width="7"/>
<line x1="3.5" y1="958" x2="3.5" y2="1270" stroke="#9EFF00" stroke-width="7"/>
<line y1="954.5" x2="146" y2="954.5" stroke="#9EFF00" stroke-width="7"/>
<line x1="149.5" y1="938" x2="149.5" y2="958" stroke="#9EFF00" stroke-width="7"/>
<line x1="146" y1="934.5" x2="440" y2="934.5" stroke="#9EFF00" stroke-width="7"/>
<line x1="443.5" y1="938" x2="443.5" y2="1180" stroke="#9EFF00" stroke-width="7"/>
<line x1="357" y1="1176.5" x2="440" y2="1176.5" stroke="#9EFF00" stroke-width="7"/>
<line x1="360.5" y1="1179" x2="360.5" y2="1251" stroke="#9EFF00" stroke-width="7"/>
<line x1="369" y1="1251.5" x2="747" y2="1251.5" stroke="#9EFF00" stroke-width="7"/>
<line x1="750.5" y1="1171" x2="750.5" y2="1252" stroke="#9EFF00" stroke-width="7"/>
<line x1="747" y1="1174.5" x2="666" y2="1174.5" stroke="#9EFF00" stroke-width="7"/>
<line x1="662.5" y1="1171" x2="662.5" y2="985" stroke="#9EFF00" stroke-width="7"/>
<line x1="785" y1="988.5" x2="666" y2="988.5" stroke="#9EFF00" stroke-width="7"/>
<line x1="781.5" y1="985" x2="781.5" y2="939" stroke="#9EFF00" stroke-width="7"/>
<line x1="785.009" y1="934.5" x2="1176.01" y2="935.5" stroke="#9EFF00" stroke-width="7"/>
<line x1="1172.5" y1="939" x2="1172.5" y2="923" stroke="#9EFF00" stroke-width="7"/>
<line x1="1176" y1="919.5" x2="1290" y2="919.5" stroke="#9EFF00" stroke-width="7"/>
<line x1="1293.5" y1="923" x2="1293.5" y2="995" stroke="#9EFF00" stroke-width="7"/>
<line x1="1290" y1="991.5" x2="1298" y2="991.5" stroke="#9EFF00" stroke-width="7"/>
<line x1="1301.5" y1="995" x2="1301.5" y2="1172" stroke="#9EFF00" stroke-width="7"/>
<line x1="1228" y1="1168.5" x2="1298" y2="1168.5" stroke="#9EFF00" stroke-width="7"/>
<line x1="1231.5" y1="1172" x2="1231.5" y2="1252" stroke="#9EFF00" stroke-width="7"/>
<line x1="1228" y1="1248.52" x2="1598" y2="1248.52" stroke="#9EFF00" stroke-width="7"/>
<line x1="1601.5" y1="1172" x2="1601.5" y2="1252" stroke="#9EFF00" stroke-width="7"/>
<line x1="1598" y1="1175.5" x2="1528" y2="1175.5" stroke="#9EFF00" stroke-width="7"/>
<line x1="1531.5" y1="994.98" x2="1532.5" y2="1171.98" stroke="#9EFF00" stroke-width="7"/>
<line x1="1536" y1="998.5" x2="1528" y2="998.5" stroke="#9EFF00" stroke-width="7"/>
<line x1="1532.5" y1="995" x2="1532.5" y2="923" stroke="#9EFF00" stroke-width="7"/>
<line x1="1536" y1="919.5" x2="1650" y2="919.5" stroke="#9EFF00" stroke-width="7"/>
<line x1="1653.5" y1="923" x2="1653.5" y2="938" stroke="#9EFF00" stroke-width="7"/>
<line x1="1650" y1="935.5" x2="2172" y2="935.512" stroke="#9EFF00" stroke-width="7"/>
<line x1="2175.5" y1="923" x2="2175.5" y2="939" stroke="#9EFF00" stroke-width="7"/>
<line x1="2172" y1="919.5" x2="2285" y2="919.5" stroke="#9EFF00" stroke-width="7"/>
<line x1="2288.5" y1="923" x2="2288.5" y2="1015" stroke="#9EFF00" stroke-width="7"/>
<line x1="2285" y1="1011.5" x2="2296" y2="1011.5" stroke="#9EFF00" stroke-width="7"/>
<line x1="2299.5" y1="1015" x2="2299.5" y2="1175" stroke="#9EFF00" stroke-width="7"/>
<line x1="2050" y1="1171.5" x2="2296" y2="1171.5" stroke="#9EFF00" stroke-width="7"/>
<line x1="2053.5" y1="1175" x2="2053.5" y2="1254" stroke="#9EFF00" stroke-width="7"/>
<line x1="2050" y1="1250.5" x2="2642" y2="1250.5" stroke="#9EFF00" stroke-width="7"/>
<line x1="2638.5" y1="1254" x2="2638.5" y2="1009" stroke="#9EFF00" stroke-width="7"/>
<line x1="2642" y1="1005.5" x2="2690" y2="1005.5" stroke="#9EFF00" stroke-width="7"/>
<line x1="2686.5" y1="1009" x2="2687.37" y2="255.996" stroke="#9EFF00" stroke-width="7"/>
<line x1="2691" y1="259.5" x2="2611" y2="259.5" stroke="#9EFF00" stroke-width="7"/>
<line x1="2614.5" y1="256" x2="2614.5" y2="455" stroke="#9EFF00" stroke-width="7"/>
<line x1="2135.5" y1="1517" x2="2135.5" y2="1583" stroke="#9EFF00" stroke-width="7"/>
<line x1="2829" y1="1436.5" x2="2956" y2="1436.5" stroke="#9EFF00" stroke-width="7"/>
<line x1="5" y1="1266.5" x2="73" y2="1266.5" stroke="#9EFF00" stroke-width="7"/>
<line x1="69.5" y1="1267" x2="69.5" y2="1519" stroke="#9EFF00" stroke-width="7"/>
<line x1="66" y1="1515.5" x2="258" y2="1515.5" stroke="#9EFF00" stroke-width="7"/>
<line x1="261.5" y1="1519" x2="261.5" y2="1583" stroke="#9EFF00" stroke-width="7"/>
</svg>