<svg class="bti-svg" width="1183" height="769" viewBox="0 0 1183 769" fill="none" xmlns="http://www.w3.org/2000/svg">
  <g class="rooms">
    <g class="1">
      <path d="M532.114 253.229C666.05 253.229 799.986 253.229 933.922 253.229C933.922 206.153 933.922 159.076 933.922 112C799.986 112 666.05 112 532.114 112C532.114 159.076 532.114 206.153 532.114 253.229Z" fill="#9EFF00" fill-opacity="0.5"/>
    </g>
    <g class="2">
      <path fill-rule="evenodd" clip-rule="evenodd" d="M933.922 112H1103V330.806H933.922V112Z" fill="#9EFF00" fill-opacity="0.5"/>
    </g>
    <g class="3">
      <path d="M792.693 641.114C896.128 641.114 999.564 641.114 1103 641.114C1103 537.849 1103 434.584 1103 331.318C1046.37 331.318 989.734 331.318 933.1 331.318C933.1 305.289 933.1 279.259 933.1 253.23C886.298 253.23 839.495 253.23 792.693 253.23C792.693 382.524 792.693 511.819 792.693 641.114Z" fill="#9EFF00" fill-opacity="0.5"/>
    </g>
    <g class="4">
      <path d="M532.114 768.419C619.637 768.419 707.159 768.419 794.682 768.419C794.682 596.689 794.682 424.96 794.682 253.23C707.159 253.23 619.637 253.23 532.114 253.23C532.114 424.96 532.114 596.689 532.114 768.419Z" fill="#9EFF00" fill-opacity="0.5"/>
    </g>
    <g class="5">
      <path d="M415.647 279.467C333.728 280.927 251.287 277.675 169.421 279.723C167.506 395.484 168.273 456.571 168.155 609.288C289.475 609.288 410.794 609.288 532.114 609.288C532.114 443.525 532.114 277.763 532.114 112C493.292 112 454.469 112 415.647 112C415.647 167.822 415.647 223.645 415.647 279.467Z" fill="#9EFF00" fill-opacity="0.5"/>
    </g>
    <g class="6">
      <path d="M3 440.21V768.419H267.557H532.114V688.853V609.287H348.913H165.713L167.105 360.644L168.696 112H85.7487H3V440.21Z" fill="#9EFF00" fill-opacity="0.5"/>
    </g>
  </g>
</svg>
