<svg class="choose-round__paths" height="1130" viewBox="0 0 1020 1130" fill="none" xmlns="http://www.w3.org/2000/svg">
<path class="choose-round__path-round" data-round-id="10" fill-rule="evenodd" clip-rule="evenodd" d="M486 0H488C664.987 210.985 842.32 421.651 1020 632V690H1018C841.239 499.735 663.905 309.902 486 120.5C324.416 165.08 162.75 209.58 1 254V253C1.99835 218.837 2.33168 184.504 2 150C163.61 100.572 324.943 50.5723 486 0Z" fill="#ffffff00" fill-opacity="0.6"/>
<path class="choose-round__path-round" data-round-id="9" d="M246.241 185.472C115.512 222.008 6.8057 252.438 4.80373 253.039L1 254.14V306.191C1 355.339 1.1001 358.242 2.80177 357.741C3.70265 357.441 111.909 330.815 243.238 298.583C374.567 266.352 482.673 239.726 483.674 239.425C484.775 239.125 564.053 313.798 751.737 491.973C898.381 631.11 1018.7 745.122 1019.1 745.322C1019.6 745.522 1020 733.51 1020 718.495V691.369L1015.2 686.164C938.72 603.983 489.579 122.711 487.778 121.109C486.476 119.908 485.075 118.907 484.675 119.007C484.274 119.107 376.969 148.936 246.241 185.472Z" fill="#ffffff00" fill-opacity="0.6"/>
<path class="choose-round__path-round" data-round-id="8" d="M245.76 297.842C114.688 330.111 6.2948 356.884 4.79628 357.184L1.99902 357.883V412.829V467.776L4.19686 467.276C16.0852 464.479 482.627 363.778 484.525 363.578C486.523 363.378 540.87 407.734 752.462 581.963C898.419 702.145 1018.1 800.449 1018.4 800.449C1018.7 800.449 1019 788.061 1019 772.976V745.503L1016.3 742.606C1014.7 741.007 897.719 629.916 756.258 495.648C614.797 361.48 496.014 248.791 492.317 245.294C488.721 241.897 485.324 239 484.825 239.1C484.425 239.1 376.831 265.574 245.76 297.842Z" fill="#ffffff00" fill-opacity="0.6"/>
<path class="choose-round__path-round" data-round-id="7" d="M243 415.404C110.2 444.304 1.4 467.904 1.3 467.904C1.1 467.904 1 490.004 1 517.004V566.104L3.3 565.604C4.5 565.304 53.8999 556.204 113 545.404C155.249 537.932 180.809 533.124 225.5 523.904C234.426 531.273 238.846 534.83 244.7 539.804L261 551.904L358.1 534.004L455.199 516.004L492.099 536.504L528.999 557.004L556.999 552.004L584.999 547.004L801.499 701.504C920.499 786.403 1018.2 855.903 1018.5 855.903C1019.3 855.903 1019.1 802.503 1018.2 801.303C1017.6 800.303 503.799 377.104 491.199 367.104C488.199 364.804 485.499 362.904 485.199 363.004C484.799 363.004 375.8 386.604 243 415.404Z" fill="#ffffff00" fill-opacity="0.6"/>
<path class="choose-round__path-round" data-round-id="6" d="M358.249 533.982C305.501 543.773 261.844 551.565 261.344 551.165C260.745 550.866 253.252 545.371 244.761 538.977C239.03 535.094 230.814 528.657 225.921 524.909C220.026 525.908 12.3888 563.953 7.29382 565.052L1.99902 566.051V619.598V673.046L4.79628 672.446C6.2948 672.147 56.6454 663.555 116.686 653.365L225.779 634.883L243.762 644.374L261.644 653.864L360.247 639.479L458.75 624.993L497.213 642.975L535.575 660.958L560.55 657.461L585.526 653.964L801.714 780.74C920.597 850.571 1018.2 907.615 1018.5 907.615C1019.3 907.615 1019.1 857.265 1018.2 856.166C1017.8 855.566 920.896 786.135 802.713 701.917C684.629 617.6 587.424 548.268 586.825 547.869C586.325 547.369 573.138 549.267 557.653 551.965L529.581 556.96L493.316 536.879C473.436 525.79 456.453 516.599 455.653 516.4C454.754 516.3 410.897 524.192 358.249 533.982Z" fill="#ffffff00" fill-opacity="0.6"/>
<path class="choose-round__path-round" data-round-id="5" d="M358.948 639.586L261.744 653.972L243.861 644.481L225.879 634.89L116.686 653.472C56.6453 663.662 6.2948 672.254 4.69637 672.553L1.99902 673.153V717.11V761.066L5.79529 760.467C7.79333 760.167 58.2438 753.774 117.785 746.381L226.079 732.794L242.763 738.389L259.446 743.983L359.548 731.895L459.55 719.907L498.611 737.39L537.573 754.972L563.448 751.875L589.322 748.878L803.712 851.278C921.496 907.622 1018.2 953.677 1018.5 953.677C1018.8 953.677 1019 943.587 1019 931.399C1019 911.319 1018.8 908.921 1017.3 907.523C1016.3 906.723 918.798 849.28 800.615 780.048L585.726 654.072L560.65 657.468L535.575 660.965L497.213 642.982C476.033 633.092 458.151 625.1 457.452 625.1C456.652 625.2 412.296 631.694 358.948 639.586Z" fill="#ffffff00" fill-opacity="0.6"/>
<path class="choose-round__path-round" data-round-id="4" fill-rule="evenodd" clip-rule="evenodd" d="M451.557 720H461.548C485.982 731.38 510.623 742.536 535.475 753.467C552.328 752.705 569.145 751.207 585.925 748.972C589.668 748.796 593.164 749.629 596.415 751.469C737.303 818.917 878.164 886.351 1019 953.77V1015.71H1015C872.428 968.684 729.735 921.73 586.924 874.848C569.54 876.771 552.057 877.603 534.476 877.345C510.5 869.686 486.523 862.027 462.547 854.368C457.219 853.702 451.89 853.702 446.562 854.368C384.966 859.324 323.359 864.152 261.744 868.854C248.907 866.919 236.087 864.921 223.282 862.86C149.197 869.048 75.1037 875.042 1 880.842V879.843C2.33202 840.549 2.33202 801.253 1 761.959V760.96C76.7771 750.655 152.702 741.497 228.776 733.487C239.788 737.27 250.943 740.433 262.243 742.977C325.547 735.751 388.652 728.092 451.557 720Z" fill="#ffffff00" fill-opacity="0.6"/>
<path class="choose-round__path-round" data-round-id="3" fill-rule="evenodd" clip-rule="evenodd" d="M1020 1016V1072H1014C871.941 1040.95 729.774 1009.95 587.5 979C569.434 981.003 551.268 981.837 533 981.5C508.428 976.823 483.928 971.989 459.5 967C391.099 971.305 322.599 974.471 254 976.5C244.411 974.56 234.911 972.394 225.5 970C151.093 974.975 76.5925 979.308 2 983C2.33165 949.163 1.99831 915.496 1 882V881C75.0806 874.313 149.247 867.979 223.5 862C236.483 864.13 249.483 866.13 262.5 868C324.339 863.25 386.173 858.416 448 853.5C453 852.833 458 852.833 463 853.5C488.318 861.273 513.485 869.44 538.5 878C555.902 876.075 573.402 875.242 591 875.5C734.065 922.244 877.065 969.077 1020 1016Z" fill="#ffffff00" fill-opacity="0.6"/>
<path class="choose-round__path-round" data-round-id="2" fill-rule="evenodd" clip-rule="evenodd" d="M439.123 967H463.123C487.539 971.934 512.039 976.934 536.623 982C554.689 979.997 572.855 979.163 591.123 979.5C733.53 1010.19 875.864 1041.02 1018.12 1072V1130H1005.12C822.447 1115.55 639.614 1101.22 456.623 1087C304.478 1089.93 152.312 1092.27 0.122945 1094C-0.206728 1056.76 0.126606 1019.59 1.12294 982.5C77.095 977.639 153.095 973.639 229.123 970.5C238.717 972.418 248.217 974.584 257.623 977C318.219 973.646 378.719 970.312 439.123 967Z" fill="#ffffff00" fill-opacity="0.6"/>
</svg>
