<svg class="choose-round__paths" height="1130" viewBox="0 0 1020 1130" fill="none" xmlns="http://www.w3.org/2000/svg">
<rect x="80.2213" y="671.179" width="134.671" height="45" rx="22.5" transform="rotate(-2.7 80.2213 671.179)" fill="white" stroke="#FFA500" stroke-width="4"/>
<path d="M108.069 708.61C105.94 708.71 104.017 708.401 102.298 707.682C100.578 706.953 99.1903 705.909 98.1344 704.551C97.0892 703.193 96.4919 701.61 96.3428 699.804L102.089 699.533C102.259 700.869 102.891 701.938 103.984 702.739C105.077 703.53 106.364 703.891 107.843 703.821C109.003 703.767 110.022 703.452 110.902 702.877C111.781 702.302 112.459 701.529 112.936 700.558C113.413 699.586 113.617 698.494 113.549 697.281C113.502 696.046 113.189 694.962 112.612 694.03C112.035 693.097 111.271 692.381 110.319 691.882C109.367 691.372 108.29 691.146 107.088 691.203C106.108 691.238 105.154 691.464 104.224 691.882C103.295 692.299 102.567 692.824 102.043 693.456L96.6538 692.83L97.5669 675.894L116.53 674.999L116.764 679.948L102.701 680.611L102.168 689.323L102.359 689.314C102.932 688.572 103.761 687.941 104.846 687.421C105.93 686.89 107.132 686.593 108.451 686.531C110.43 686.438 112.219 686.822 113.817 687.686C115.414 688.538 116.698 689.758 117.669 691.344C118.64 692.93 119.174 694.771 119.273 696.867C119.375 699.027 118.966 700.977 118.045 702.716C117.135 704.444 115.819 705.834 114.098 706.886C112.388 707.926 110.378 708.501 108.069 708.61Z" fill="#FFA500"/>
<path d="M125.196 700.346L124.554 686.725L135.666 686.201L136.308 699.822L133.71 699.945L133.175 688.612L127.243 688.891L127.777 700.225L125.196 700.346ZM145.604 699.659C144.327 699.72 143.198 699.48 142.219 698.939C141.24 698.399 140.462 697.615 139.886 696.587C139.31 695.56 138.989 694.343 138.923 692.935C138.856 691.522 139.061 690.274 139.537 689.191C140.014 688.108 140.714 687.252 141.638 686.622C142.562 685.991 143.663 685.646 144.94 685.586C146.217 685.526 147.345 685.766 148.325 686.306C149.304 686.847 150.082 687.634 150.658 688.667C151.234 689.7 151.555 690.924 151.622 692.337C151.688 693.744 151.483 694.986 151.007 696.063C150.53 697.14 149.83 697.994 148.905 698.624C147.981 699.254 146.881 699.599 145.604 699.659ZM145.507 697.433C146.335 697.394 147.011 697.143 147.534 696.68C148.057 696.217 148.432 695.616 148.658 694.876C148.889 694.136 148.985 693.329 148.943 692.454C148.902 691.585 148.732 690.793 148.431 690.078C148.137 689.358 147.707 688.788 147.142 688.371C146.577 687.953 145.881 687.764 145.053 687.803C144.22 687.842 143.538 688.096 143.01 688.566C142.487 689.035 142.109 689.642 141.878 690.388C141.652 691.127 141.56 691.931 141.601 692.8C141.642 693.675 141.81 694.47 142.104 695.185C142.404 695.9 142.837 696.463 143.401 696.875C143.972 697.286 144.674 697.473 145.507 697.433ZM154.9 698.946L154.257 685.324L159.906 685.058C161.443 684.985 162.677 685.256 163.606 685.87C164.536 686.478 165.027 687.341 165.079 688.458C165.117 689.256 164.893 689.901 164.406 690.392C163.92 690.883 163.261 691.228 162.429 691.427C163.041 691.469 163.608 691.626 164.131 691.898C164.653 692.163 165.079 692.534 165.41 693.011C165.746 693.487 165.93 694.064 165.962 694.744C165.996 695.466 165.84 696.113 165.494 696.686C165.148 697.254 164.627 697.711 163.932 698.057C163.243 698.398 162.402 698.592 161.409 698.639L154.9 698.946ZM157.287 696.611L161.304 696.422C161.961 696.391 162.468 696.21 162.825 695.879C163.183 695.548 163.349 695.113 163.324 694.575C163.294 693.943 163.084 693.455 162.695 693.112C162.305 692.763 161.782 692.604 161.126 692.635L157.109 692.824L157.287 696.611ZM157.017 690.882L160.201 690.732C160.697 690.709 161.12 690.618 161.468 690.459C161.821 690.3 162.087 690.086 162.264 689.817C162.446 689.542 162.529 689.224 162.512 688.863C162.487 688.337 162.252 687.937 161.807 687.661C161.361 687.386 160.763 687.266 160.012 687.302L156.855 687.45L157.017 690.882ZM174.928 698.277C173.586 698.34 172.416 698.108 171.42 697.58C170.429 697.046 169.646 696.268 169.07 695.247C168.5 694.219 168.182 692.998 168.115 691.585C168.05 690.19 168.252 688.948 168.722 687.86C169.198 686.771 169.892 685.905 170.803 685.264C171.721 684.622 172.813 684.272 174.078 684.212C174.846 684.176 175.597 684.268 176.331 684.488C177.064 684.708 177.73 685.077 178.329 685.593C178.928 686.11 179.414 686.795 179.786 687.649C180.158 688.496 180.373 689.538 180.431 690.774L180.475 691.714L169.647 692.224L169.554 690.238L177.783 689.85C177.75 689.152 177.579 688.541 177.27 688.016C176.961 687.486 176.542 687.076 176.012 686.787C175.489 686.498 174.885 686.369 174.199 686.401C173.454 686.437 172.812 686.65 172.274 687.043C171.741 687.43 171.338 687.923 171.064 688.522C170.796 689.116 170.677 689.752 170.709 690.432L170.783 691.984C170.826 692.894 171.022 693.661 171.371 694.285C171.726 694.908 172.202 695.374 172.797 695.684C173.392 695.988 174.077 696.121 174.851 696.085C175.354 696.061 175.808 695.969 176.216 695.807C176.622 695.64 176.97 695.404 177.258 695.1C177.546 694.797 177.759 694.428 177.899 693.995L180.43 694.329C180.264 695.077 179.933 695.742 179.439 696.322C178.951 696.896 178.324 697.355 177.558 697.699C176.798 698.037 175.921 698.23 174.928 698.277ZM183.942 702.695L183.058 683.966L185.648 683.844L185.752 686.052L185.974 686.042C186.114 685.751 186.32 685.412 186.592 685.026C186.865 684.64 187.251 684.296 187.752 683.994C188.253 683.686 188.927 683.512 189.772 683.472C190.872 683.42 191.866 683.651 192.755 684.166C193.645 684.682 194.36 685.451 194.9 686.474C195.446 687.497 195.753 688.745 195.823 690.217C195.892 691.689 195.706 692.962 195.265 694.038C194.824 695.107 194.188 695.946 193.357 696.554C192.527 697.156 191.561 697.483 190.462 697.535C189.634 697.574 188.951 697.467 188.411 697.214C187.878 696.961 187.455 696.655 187.142 696.296C186.828 695.938 186.585 695.617 186.412 695.335L186.252 695.343L186.593 702.57L183.942 702.695ZM185.978 690.654C186.023 691.612 186.202 692.445 186.513 693.153C186.825 693.861 187.254 694.407 187.799 694.79C188.345 695.167 188.998 695.338 189.761 695.302C190.553 695.264 191.206 695.023 191.718 694.579C192.23 694.128 192.605 693.532 192.842 692.792C193.086 692.052 193.186 691.227 193.143 690.316C193.101 689.418 192.927 688.617 192.621 687.915C192.321 687.212 191.893 686.666 191.335 686.278C190.784 685.889 190.109 685.713 189.311 685.751C188.542 685.787 187.901 686.016 187.388 686.437C186.88 686.858 186.507 687.43 186.269 688.152C186.03 688.874 185.933 689.708 185.978 690.654ZM200.027 683.166L203.284 688.327L206.066 682.881L208.966 682.744L205.04 689.755L209.644 696.364L206.744 696.501L203.436 691.555L200.616 696.79L197.708 696.927L201.625 689.916L197.119 683.303L200.027 683.166Z" fill="#FFA500"/>
<rect x="82.8129" y="880.934" width="134.671" height="45" rx="22.5" transform="rotate(-2.7 82.8129 880.934)" fill="white" stroke="#FFA500" stroke-width="4"/>
<path d="M111.027 918.348C108.729 918.456 106.667 918.159 104.842 917.455C103.028 916.752 101.571 915.722 100.473 914.366C99.3744 913.01 98.7498 911.413 98.5992 909.575L104.601 909.292C104.696 910.173 105.025 910.93 105.588 911.565C106.151 912.189 106.882 912.661 107.783 912.981C108.683 913.302 109.681 913.436 110.777 913.384C111.948 913.329 112.976 913.078 113.861 912.631C114.746 912.173 115.427 911.565 115.903 910.807C116.379 910.048 116.589 909.19 116.534 908.233C116.497 907.243 116.201 906.383 115.644 905.652C115.087 904.921 114.303 904.366 113.294 903.987C112.295 903.607 111.103 903.45 109.72 903.515L106.831 903.651L106.615 899.086L109.505 898.95C110.643 898.896 111.629 898.653 112.462 898.219C113.305 897.784 113.955 897.199 114.411 896.463C114.866 895.716 115.066 894.87 115.011 893.923C114.978 892.997 114.732 892.203 114.275 891.542C113.827 890.87 113.211 890.36 112.427 890.013C111.653 889.666 110.755 889.516 109.734 889.564C108.734 889.612 107.816 889.836 106.982 890.238C106.148 890.64 105.486 891.189 104.996 891.884C104.506 892.568 104.266 893.368 104.277 894.285L98.5787 894.554C98.535 892.722 98.9859 891.09 99.9317 889.659C100.888 888.217 102.198 887.067 103.864 886.21C105.53 885.342 107.422 884.858 109.539 884.758C111.721 884.655 113.634 884.976 115.28 885.719C116.935 886.452 118.237 887.484 119.185 888.815C120.133 890.146 120.646 891.641 120.725 893.302C120.822 895.142 120.352 896.711 119.315 898.007C118.288 899.304 116.901 900.185 115.152 900.651L115.164 900.907C117.478 901.118 119.279 901.886 120.568 903.212C121.867 904.526 122.56 906.205 122.645 908.249C122.732 910.079 122.288 911.743 121.313 913.239C120.349 914.724 118.976 915.92 117.195 916.825C115.424 917.73 113.368 918.237 111.027 918.348Z" fill="#FFA500"/>
<path d="M127.788 910.101L127.146 896.48L138.257 895.956L138.9 909.577L136.301 909.7L135.767 898.366L129.834 898.646L130.369 909.98L127.788 910.101ZM148.195 909.414C146.918 909.475 145.79 909.234 144.811 908.694C143.831 908.154 143.054 907.37 142.478 906.342C141.902 905.315 141.581 904.097 141.514 902.69C141.448 901.277 141.653 900.029 142.129 898.946C142.605 897.863 143.305 897.007 144.23 896.376C145.154 895.746 146.255 895.401 147.532 895.341C148.808 895.281 149.937 895.521 150.916 896.061C151.896 896.602 152.673 897.388 153.249 898.422C153.825 899.455 154.147 900.679 154.213 902.091C154.28 903.499 154.075 904.741 153.598 905.818C153.122 906.895 152.421 907.749 151.497 908.379C150.573 909.009 149.472 909.354 148.195 909.414ZM148.099 907.188C148.927 907.149 149.602 906.898 150.126 906.435C150.649 905.972 151.023 905.37 151.249 904.631C151.481 903.891 151.576 903.084 151.535 902.209C151.494 901.34 151.323 900.548 151.023 899.833C150.728 899.113 150.298 898.543 149.734 898.126C149.169 897.708 148.473 897.518 147.645 897.557C146.811 897.597 146.13 897.851 145.601 898.32C145.078 898.789 144.701 899.397 144.469 900.142C144.244 900.882 144.151 901.686 144.192 902.555C144.233 903.43 144.401 904.225 144.696 904.94C144.996 905.655 145.429 906.218 145.993 906.63C146.563 907.041 147.266 907.227 148.099 907.188ZM157.491 908.7L156.849 895.079L162.498 894.813C164.035 894.74 165.268 895.011 166.198 895.625C167.127 896.233 167.618 897.095 167.671 898.213C167.709 899.011 167.484 899.656 166.998 900.147C166.511 900.638 165.852 900.983 165.02 901.182C165.633 901.224 166.2 901.381 166.722 901.653C167.244 901.918 167.671 902.289 168.001 902.766C168.338 903.241 168.522 903.819 168.554 904.499C168.588 905.22 168.432 905.868 168.086 906.441C167.739 907.008 167.219 907.466 166.524 907.812C165.835 908.153 164.994 908.347 164 908.393L157.491 908.7ZM159.879 906.366L163.896 906.176C164.552 906.146 165.059 905.965 165.417 905.634C165.774 905.303 165.941 904.868 165.915 904.33C165.885 903.698 165.676 903.21 165.286 902.867C164.897 902.518 164.374 902.359 163.717 902.39L159.7 902.579L159.879 906.366ZM159.609 900.637L162.792 900.487C163.289 900.464 163.711 900.373 164.059 900.214C164.413 900.055 164.679 899.841 164.855 899.572C165.038 899.297 165.121 898.979 165.104 898.618C165.079 898.092 164.844 897.691 164.398 897.416C163.953 897.141 163.355 897.021 162.604 897.056L159.447 897.205L159.609 900.637ZM177.519 908.031C176.177 908.095 175.008 907.863 174.011 907.335C173.02 906.801 172.237 906.023 171.662 905.001C171.092 903.974 170.774 902.753 170.707 901.34C170.641 899.945 170.843 898.703 171.313 897.614C171.789 896.525 172.483 895.66 173.395 895.019C174.313 894.377 175.404 894.026 176.669 893.967C177.438 893.931 178.189 894.022 178.922 894.243C179.655 894.463 180.322 894.831 180.921 895.348C181.52 895.865 182.005 896.55 182.378 897.404C182.749 898.251 182.964 899.293 183.023 900.528L183.067 901.468L172.239 901.979L172.145 899.993L180.375 899.605C180.342 898.907 180.171 898.296 179.862 897.771C179.552 897.241 179.133 896.831 178.604 896.542C178.081 896.252 177.476 896.124 176.791 896.156C176.046 896.191 175.404 896.405 174.865 896.798C174.333 897.185 173.929 897.678 173.655 898.277C173.387 898.871 173.269 899.507 173.301 900.187L173.374 901.739C173.417 902.649 173.613 903.416 173.963 904.04C174.318 904.663 174.793 905.129 175.389 905.439C175.984 905.743 176.668 905.876 177.443 905.84C177.945 905.816 178.4 905.724 178.807 905.562C179.214 905.395 179.561 905.159 179.849 904.855C180.137 904.551 180.351 904.183 180.49 903.75L183.021 904.084C182.855 904.832 182.525 905.496 182.031 906.077C181.543 906.651 180.915 907.11 180.15 907.454C179.389 907.792 178.513 907.985 177.519 908.031ZM186.533 912.45L185.65 893.721L188.239 893.599L188.344 895.807L188.565 895.797C188.706 895.506 188.912 895.167 189.184 894.781C189.456 894.395 189.843 894.051 190.344 893.748C190.845 893.44 191.518 893.267 192.364 893.227C193.463 893.175 194.458 893.406 195.347 893.921C196.236 894.436 196.951 895.206 197.491 896.229C198.037 897.252 198.345 898.499 198.414 899.971C198.484 901.444 198.298 902.717 197.857 903.793C197.415 904.862 196.78 905.701 195.949 906.309C195.118 906.911 194.153 907.238 193.053 907.29C192.226 907.329 191.542 907.222 191.003 906.969C190.47 906.716 190.046 906.41 189.733 906.051C189.42 905.693 189.177 905.372 189.004 905.09L188.844 905.098L189.185 912.325L186.533 912.45ZM188.57 900.409C188.615 901.367 188.793 902.2 189.105 902.908C189.417 903.616 189.846 904.162 190.391 904.545C190.936 904.922 191.59 905.093 192.353 905.057C193.145 905.019 193.797 904.778 194.309 904.333C194.821 903.883 195.196 903.287 195.434 902.547C195.677 901.807 195.778 900.982 195.735 900.071C195.692 899.173 195.518 898.372 195.213 897.669C194.913 896.967 194.484 896.421 193.927 896.033C193.375 895.644 192.7 895.468 191.902 895.506C191.134 895.542 190.493 895.771 189.979 896.192C189.472 896.613 189.099 897.185 188.86 897.907C188.622 898.629 188.525 899.463 188.57 900.409ZM202.619 892.921L205.875 898.082L208.658 892.636L211.558 892.499L207.631 899.51L212.236 906.119L209.336 906.256L206.027 901.31L203.208 906.544L200.299 906.682L204.217 899.671L199.71 893.058L202.619 892.921Z" fill="#FFA500"/>
<rect x="83.2214" y="770.179" width="134.671" height="45" rx="22.5" transform="rotate(-2.7 83.2214 770.179)" fill="white" stroke="#FFA500" stroke-width="4"/>
<path d="M98.8057 801.661L98.5836 796.952L111.421 774.382L115.348 774.197L115.664 780.901L113.27 781.014L104.63 796.251L104.642 796.507L124.004 795.594L124.234 800.462L98.8057 801.661ZM114.687 806.991L114.333 799.489L114.298 797.379L113.209 774.297L118.796 774.034L120.338 806.725L114.687 806.991Z" fill="#FFA500"/>
<path d="M128.197 799.346L127.554 785.725L138.666 785.201L139.308 798.822L136.71 798.945L136.175 787.612L130.243 787.891L130.777 799.225L128.197 799.346ZM148.604 798.659C147.327 798.72 146.199 798.48 145.219 797.939C144.24 797.399 143.462 796.615 142.886 795.587C142.31 794.56 141.989 793.343 141.923 791.935C141.856 790.522 142.061 789.274 142.537 788.191C143.014 787.108 143.714 786.252 144.638 785.622C145.562 784.991 146.663 784.646 147.94 784.586C149.217 784.526 150.345 784.766 151.325 785.306C152.304 785.847 153.082 786.634 153.658 787.667C154.234 788.7 154.555 789.924 154.622 791.337C154.688 792.744 154.483 793.986 154.007 795.063C153.53 796.14 152.83 796.994 151.906 797.624C150.981 798.254 149.881 798.599 148.604 798.659ZM148.508 796.433C149.335 796.394 150.011 796.143 150.534 795.68C151.057 795.217 151.432 794.616 151.658 793.876C151.889 793.136 151.985 792.329 151.943 791.454C151.902 790.585 151.732 789.793 151.431 789.078C151.137 788.358 150.707 787.788 150.142 787.371C149.577 786.953 148.881 786.764 148.053 786.803C147.22 786.842 146.539 787.096 146.01 787.566C145.487 788.035 145.109 788.642 144.878 789.388C144.652 790.127 144.56 790.931 144.601 791.8C144.642 792.675 144.81 793.47 145.104 794.185C145.405 794.9 145.837 795.463 146.402 795.875C146.972 796.286 147.674 796.473 148.508 796.433ZM157.9 797.946L157.258 784.324L162.906 784.058C164.444 783.985 165.677 784.256 166.606 784.87C167.536 785.478 168.027 786.341 168.079 787.458C168.117 788.256 167.893 788.901 167.406 789.392C166.92 789.883 166.261 790.228 165.429 790.427C166.041 790.469 166.608 790.626 167.131 790.898C167.653 791.163 168.079 791.534 168.41 792.011C168.746 792.487 168.93 793.064 168.963 793.744C168.997 794.466 168.84 795.113 168.494 795.686C168.148 796.254 167.627 796.711 166.932 797.057C166.243 797.398 165.402 797.592 164.409 797.639L157.9 797.946ZM160.287 795.611L164.304 795.422C164.961 795.391 165.468 795.21 165.825 794.879C166.183 794.548 166.349 794.113 166.324 793.575C166.294 792.943 166.084 792.455 165.695 792.112C165.305 791.763 164.782 791.604 164.126 791.635L160.109 791.824L160.287 795.611ZM160.017 789.882L163.201 789.732C163.697 789.709 164.12 789.618 164.468 789.459C164.822 789.3 165.087 789.086 165.264 788.817C165.446 788.542 165.529 788.224 165.512 787.863C165.487 787.337 165.252 786.937 164.807 786.661C164.361 786.386 163.763 786.266 163.012 786.302L159.855 786.45L160.017 789.882ZM177.928 797.277C176.586 797.34 175.417 797.108 174.42 796.58C173.429 796.046 172.646 795.268 172.07 794.247C171.5 793.219 171.182 791.998 171.115 790.585C171.05 789.19 171.252 787.948 171.722 786.86C172.198 785.771 172.892 784.905 173.804 784.264C174.721 783.622 175.813 783.272 177.078 783.212C177.847 783.176 178.597 783.268 179.331 783.488C180.064 783.708 180.73 784.077 181.329 784.593C181.928 785.11 182.414 785.795 182.786 786.649C183.158 787.496 183.373 788.538 183.431 789.774L183.475 790.714L172.648 791.224L172.554 789.238L180.783 788.85C180.751 788.152 180.579 787.541 180.27 787.016C179.961 786.486 179.542 786.076 179.013 785.787C178.489 785.498 177.885 785.369 177.199 785.401C176.454 785.437 175.812 785.65 175.274 786.043C174.741 786.43 174.338 786.923 174.064 787.522C173.796 788.116 173.678 788.752 173.71 789.432L173.783 790.984C173.826 791.894 174.022 792.661 174.371 793.285C174.726 793.908 175.202 794.374 175.797 794.684C176.392 794.988 177.077 795.121 177.851 795.085C178.354 795.061 178.809 794.969 179.216 794.807C179.623 794.64 179.97 794.404 180.258 794.1C180.546 793.797 180.759 793.428 180.899 792.995L183.43 793.329C183.264 794.077 182.934 794.742 182.44 795.322C181.951 795.896 181.324 796.355 180.558 796.699C179.798 797.037 178.921 797.23 177.928 797.277ZM186.942 801.695L186.059 782.966L188.648 782.844L188.752 785.052L188.974 785.042C189.114 784.751 189.32 784.412 189.593 784.026C189.865 783.64 190.251 783.296 190.753 782.994C191.254 782.686 191.927 782.512 192.772 782.472C193.872 782.42 194.866 782.651 195.756 783.166C196.645 783.682 197.36 784.451 197.9 785.474C198.446 786.497 198.753 787.745 198.823 789.217C198.892 790.689 198.706 791.962 198.265 793.038C197.824 794.107 197.188 794.946 196.358 795.554C195.527 796.156 194.562 796.483 193.462 796.535C192.634 796.574 191.951 796.467 191.412 796.214C190.878 795.961 190.455 795.655 190.142 795.296C189.829 794.938 189.585 794.617 189.412 794.335L189.252 794.343L189.593 801.57L186.942 801.695ZM188.978 789.654C189.023 790.612 189.202 791.445 189.514 792.153C189.825 792.861 190.254 793.407 190.8 793.79C191.345 794.167 191.999 794.338 192.761 794.302C193.553 794.264 194.206 794.023 194.718 793.579C195.23 793.128 195.605 792.532 195.842 791.792C196.086 791.052 196.186 790.227 196.143 789.316C196.101 788.418 195.927 787.617 195.621 786.915C195.322 786.212 194.893 785.666 194.335 785.278C193.784 784.889 193.109 784.713 192.311 784.751C191.542 784.787 190.901 785.016 190.388 785.437C189.88 785.858 189.507 786.43 189.269 787.152C189.03 787.874 188.933 788.708 188.978 789.654ZM203.027 782.166L206.284 787.327L209.067 781.881L211.966 781.744L208.04 788.755L212.644 795.364L209.744 795.501L206.436 790.555L203.617 795.79L200.708 795.927L204.626 788.916L200.119 782.303L203.027 782.166Z" fill="#FFA500"/>
<rect x="86.2378" y="994.226" width="134.671" height="45" rx="22.5" transform="rotate(-2.7 86.2378 994.226)" fill="white" stroke="#FFA500" stroke-width="4"/>
<path d="M102.711 1031.78L102.507 1027.5L113.323 1015.83C114.356 1014.69 115.214 1013.67 115.897 1012.78C116.58 1011.9 117.083 1011.05 117.407 1010.23C117.73 1009.42 117.87 1008.56 117.827 1007.65C117.778 1006.62 117.501 1005.75 116.998 1005.04C116.494 1004.31 115.823 1003.77 114.984 1003.4C114.145 1003.04 113.205 1002.88 112.162 1002.93C111.087 1002.98 110.156 1003.25 109.369 1003.74C108.581 1004.21 107.983 1004.86 107.574 1005.69C107.177 1006.52 107.005 1007.5 107.058 1008.61L101.424 1008.88C101.324 1006.81 101.712 1004.98 102.585 1003.41C103.459 1001.83 104.706 1000.58 106.326 999.659C107.956 998.738 109.852 998.226 112.012 998.123C114.204 998.018 116.149 998.336 117.849 999.076C119.548 999.815 120.889 1000.88 121.873 1002.26C122.867 1003.64 123.407 1005.25 123.495 1007.08C123.554 1008.3 123.377 1009.51 122.965 1010.72C122.554 1011.92 121.792 1013.27 120.679 1014.76C119.577 1016.26 118.016 1018.07 115.997 1020.22L110.636 1026.22L110.647 1026.44L124.885 1025.76L125.122 1030.71L102.711 1031.78Z" fill="#FFA500"/>
<path d="M131.22 1023.41L130.568 1009.79L141.679 1009.26L142.331 1022.88L139.733 1023L139.19 1011.67L133.258 1011.95L133.8 1023.29L131.22 1023.41ZM151.626 1022.71C150.349 1022.77 149.221 1022.53 148.241 1021.99C147.261 1021.45 146.483 1020.67 145.907 1019.64C145.33 1018.61 145.008 1017.4 144.941 1015.99C144.873 1014.58 145.077 1013.33 145.553 1012.24C146.028 1011.16 146.728 1010.3 147.652 1009.67C148.576 1009.04 149.676 1008.7 150.953 1008.63C152.23 1008.57 153.358 1008.81 154.338 1009.35C155.318 1009.89 156.096 1010.68 156.673 1011.71C157.25 1012.75 157.572 1013.97 157.64 1015.38C157.707 1016.79 157.503 1018.03 157.027 1019.11C156.551 1020.19 155.851 1021.04 154.927 1021.67C154.004 1022.3 152.903 1022.65 151.626 1022.71ZM151.529 1020.48C152.356 1020.44 153.032 1020.19 153.555 1019.73C154.078 1019.26 154.452 1018.66 154.677 1017.92C154.908 1017.18 155.003 1016.38 154.961 1015.5C154.92 1014.63 154.748 1013.84 154.447 1013.12C154.152 1012.4 153.722 1011.84 153.157 1011.42C152.592 1011 151.896 1010.81 151.068 1010.85C150.234 1010.89 149.553 1011.15 149.025 1011.62C148.502 1012.09 148.125 1012.69 147.894 1013.44C147.669 1014.18 147.577 1014.98 147.619 1015.85C147.661 1016.73 147.829 1017.52 148.124 1018.24C148.425 1018.95 148.857 1019.51 149.422 1019.92C149.993 1020.34 150.695 1020.52 151.529 1020.48ZM160.922 1021.99L160.27 1008.37L165.919 1008.1C167.456 1008.02 168.69 1008.29 169.62 1008.91C170.549 1009.51 171.041 1010.38 171.094 1011.49C171.133 1012.29 170.909 1012.94 170.423 1013.43C169.937 1013.92 169.278 1014.26 168.446 1014.46C169.058 1014.51 169.625 1014.66 170.148 1014.93C170.67 1015.2 171.097 1015.57 171.428 1016.05C171.765 1016.52 171.949 1017.1 171.982 1017.78C172.016 1018.5 171.861 1019.15 171.515 1019.72C171.169 1020.29 170.648 1020.75 169.954 1021.09C169.265 1021.43 168.424 1021.63 167.431 1021.68L160.922 1021.99ZM163.308 1019.65L167.325 1019.46C167.981 1019.43 168.488 1019.25 168.845 1018.92C169.203 1018.58 169.369 1018.15 169.343 1017.61C169.313 1016.98 169.103 1016.49 168.713 1016.15C168.323 1015.8 167.8 1015.64 167.144 1015.67L163.127 1015.86L163.308 1019.65ZM163.034 1013.92L166.217 1013.77C166.714 1013.75 167.136 1013.66 167.484 1013.5C167.838 1013.34 168.103 1013.12 168.28 1012.85C168.462 1012.58 168.545 1012.26 168.527 1011.9C168.502 1011.37 168.267 1010.97 167.821 1010.7C167.375 1010.42 166.777 1010.3 166.026 1010.34L162.87 1010.49L163.034 1013.92ZM180.95 1021.3C179.608 1021.37 178.438 1021.14 177.441 1020.61C176.45 1020.08 175.666 1019.3 175.09 1018.28C174.519 1017.25 174.2 1016.03 174.133 1014.62C174.066 1013.22 174.267 1011.98 174.736 1010.89C175.212 1009.8 175.905 1008.94 176.816 1008.3C177.734 1007.65 178.825 1007.3 180.09 1007.24C180.859 1007.2 181.61 1007.3 182.343 1007.52C183.076 1007.73 183.743 1008.1 184.342 1008.62C184.942 1009.14 185.428 1009.82 185.8 1010.67C186.173 1011.52 186.388 1012.56 186.448 1013.8L186.493 1014.74L175.665 1015.26L175.57 1013.27L183.799 1012.88C183.766 1012.18 183.594 1011.57 183.285 1011.04C182.975 1010.51 182.556 1010.1 182.026 1009.81C181.503 1009.53 180.898 1009.4 180.213 1009.43C179.468 1009.47 178.826 1009.68 178.288 1010.07C177.755 1010.46 177.352 1010.95 177.079 1011.55C176.811 1012.15 176.693 1012.78 176.726 1013.46L176.8 1015.02C176.844 1015.93 177.04 1016.69 177.39 1017.32C177.746 1017.94 178.221 1018.4 178.817 1018.71C179.412 1019.02 180.097 1019.15 180.871 1019.11C181.374 1019.09 181.829 1019 182.236 1018.83C182.642 1018.67 182.99 1018.43 183.277 1018.13C183.565 1017.82 183.778 1017.45 183.918 1017.02L186.449 1017.35C186.283 1018.1 185.954 1018.77 185.46 1019.35C184.972 1019.92 184.345 1020.38 183.579 1020.73C182.819 1021.06 181.943 1021.26 180.95 1021.3ZM189.967 1025.72L189.07 1006.99L191.66 1006.86L191.765 1009.07L191.987 1009.06C192.127 1008.77 192.333 1008.43 192.605 1008.05C192.877 1007.66 193.263 1007.32 193.764 1007.01C194.265 1006.7 194.938 1006.53 195.784 1006.49C196.883 1006.44 197.878 1006.67 198.768 1007.18C199.657 1007.7 200.373 1008.47 200.913 1009.49C201.46 1010.51 201.768 1011.76 201.839 1013.23C201.909 1014.7 201.724 1015.98 201.284 1017.05C200.843 1018.12 200.208 1018.96 199.378 1019.57C198.548 1020.17 197.583 1020.5 196.483 1020.55C195.656 1020.59 194.972 1020.49 194.433 1020.23C193.899 1019.98 193.476 1019.67 193.162 1019.32C192.849 1018.96 192.605 1018.64 192.432 1018.36L192.272 1018.36L192.618 1025.59L189.967 1025.72ZM191.994 1013.67C192.04 1014.63 192.219 1015.47 192.532 1016.17C192.844 1016.88 193.273 1017.43 193.819 1017.81C194.364 1018.19 195.018 1018.36 195.781 1018.32C196.573 1018.28 197.225 1018.04 197.737 1017.6C198.249 1017.14 198.623 1016.55 198.86 1015.81C199.103 1015.07 199.203 1014.24 199.16 1013.33C199.117 1012.43 198.942 1011.63 198.636 1010.93C198.336 1010.23 197.907 1009.68 197.349 1009.29C196.797 1008.91 196.122 1008.73 195.324 1008.77C194.555 1008.81 193.915 1009.04 193.401 1009.46C192.894 1009.88 192.522 1010.45 192.284 1011.17C192.046 1011.89 191.949 1012.73 191.994 1013.67ZM206.039 1006.18L209.299 1011.34L212.078 1005.89L214.977 1005.75L211.056 1012.76L215.665 1019.37L212.765 1019.51L209.453 1014.56L206.637 1019.8L203.729 1019.94L207.642 1012.93L203.13 1006.32L206.039 1006.18Z" fill="#FFA500"/>
<rect x="72.2009" y="136.692" width="154.783" height="45" rx="22.5" transform="rotate(-2.7 72.2009 136.692)" fill="white" stroke="#FFA500" stroke-width="4"/>
<path d="M97.6652 141.459L99.2069 174.15L93.2848 174.429L92.0149 147.501L91.8234 147.51L84.4077 152.755L84.1518 147.328L92.0305 141.725L97.6652 141.459ZM119.62 173.811C116.992 173.935 114.704 173.377 112.758 172.135C110.822 170.883 109.289 169.019 108.159 166.545C107.039 164.059 106.395 161.034 106.227 157.469C106.07 153.904 106.432 150.847 107.315 148.299C108.207 145.74 109.559 143.757 111.369 142.349C113.191 140.94 115.41 140.174 118.028 140.051C120.646 139.927 122.928 140.481 124.874 141.712C126.819 142.943 128.352 144.79 129.47 147.254C130.6 149.718 131.248 152.727 131.416 156.281C131.584 159.857 131.223 162.935 130.331 165.515C129.45 168.085 128.099 170.079 126.278 171.498C124.468 172.916 122.249 173.687 119.62 173.811ZM119.385 168.815C121.428 168.719 122.993 167.637 124.079 165.57C125.175 163.492 125.631 160.49 125.446 156.563C125.323 153.966 124.949 151.798 124.323 150.057C123.697 148.316 122.868 147.022 121.836 146.175C120.804 145.317 119.612 144.92 118.261 144.983C116.228 145.079 114.669 146.166 113.583 148.244C112.497 150.31 112.04 153.292 112.213 157.187C112.325 159.795 112.689 161.974 113.305 163.727C113.932 165.478 114.761 166.783 115.794 167.641C116.825 168.488 118.022 168.879 119.385 168.815Z" fill="#FFA500"/>
<path d="M136.893 163.548L136.25 149.926L147.362 149.402L148.004 163.023L145.406 163.146L144.871 151.813L138.939 152.093L139.473 163.426L136.893 163.548ZM157.3 162.861C156.023 162.921 154.894 162.681 153.915 162.14C152.936 161.6 152.158 160.816 151.582 159.788C151.006 158.761 150.685 157.544 150.619 156.137C150.552 154.724 150.757 153.476 151.233 152.393C151.71 151.31 152.41 150.453 153.334 149.823C154.258 149.193 155.359 148.847 156.636 148.787C157.913 148.727 159.041 148.967 160.021 149.507C161 150.048 161.778 150.835 162.354 151.868C162.93 152.902 163.251 154.125 163.318 155.538C163.384 156.945 163.179 158.187 162.703 159.264C162.226 160.341 161.526 161.195 160.601 161.825C159.677 162.455 158.577 162.8 157.3 162.861ZM157.204 160.634C158.031 160.595 158.707 160.344 159.23 159.881C159.753 159.418 160.128 158.817 160.354 158.077C160.585 157.338 160.681 156.53 160.639 155.655C160.598 154.786 160.428 153.994 160.127 153.28C159.833 152.559 159.403 151.99 158.838 151.572C158.273 151.154 157.577 150.965 156.749 151.004C155.916 151.043 155.235 151.297 154.706 151.767C154.183 152.236 153.805 152.843 153.574 153.589C153.348 154.328 153.256 155.132 153.297 156.001C153.338 156.876 153.506 157.671 153.8 158.386C154.101 159.101 154.533 159.664 155.097 160.076C155.668 160.488 156.37 160.674 157.204 160.634ZM166.596 162.147L165.953 148.526L171.602 148.259C173.139 148.187 174.373 148.457 175.302 149.071C176.232 149.679 176.723 150.542 176.775 151.659C176.813 152.457 176.589 153.102 176.102 153.593C175.616 154.084 174.957 154.429 174.125 154.628C174.737 154.67 175.304 154.827 175.827 155.099C176.349 155.365 176.775 155.736 177.106 156.212C177.442 156.688 177.626 157.266 177.658 157.946C177.692 158.667 177.536 159.314 177.19 159.887C176.844 160.455 176.323 160.912 175.628 161.259C174.939 161.599 174.098 161.793 173.105 161.84L166.596 162.147ZM168.983 159.812L173 159.623C173.657 159.592 174.164 159.411 174.521 159.08C174.879 158.749 175.045 158.315 175.02 157.777C174.99 157.144 174.78 156.656 174.391 156.313C174.001 155.964 173.478 155.805 172.822 155.836L168.805 156.026L168.983 159.812ZM168.713 154.083L171.897 153.933C172.393 153.91 172.816 153.819 173.164 153.66C173.518 153.501 173.783 153.287 173.96 153.018C174.142 152.743 174.225 152.425 174.208 152.065C174.183 151.538 173.948 151.138 173.503 150.862C173.057 150.587 172.459 150.467 171.708 150.503L168.551 150.652L168.713 154.083ZM186.624 161.478C185.282 161.541 184.112 161.309 183.116 160.781C182.125 160.247 181.342 159.469 180.766 158.448C180.196 157.42 179.878 156.2 179.811 154.787C179.746 153.391 179.948 152.149 180.418 151.061C180.894 149.972 181.588 149.107 182.5 148.465C183.417 147.823 184.509 147.473 185.774 147.413C186.542 147.377 187.293 147.469 188.027 147.689C188.76 147.909 189.426 148.278 190.025 148.795C190.624 149.311 191.11 149.997 191.482 150.85C191.854 151.698 192.069 152.739 192.127 153.975L192.171 154.915L181.344 155.425L181.25 153.439L189.479 153.051C189.446 152.353 189.275 151.742 188.966 151.218C188.657 150.687 188.238 150.277 187.708 149.988C187.185 149.699 186.581 149.57 185.895 149.603C185.15 149.638 184.508 149.852 183.97 150.244C183.437 150.631 183.034 151.124 182.76 151.724C182.492 152.317 182.373 152.953 182.406 153.633L182.479 155.185C182.522 156.096 182.718 156.863 183.067 157.486C183.422 158.109 183.898 158.576 184.493 158.885C185.088 159.189 185.773 159.323 186.547 159.286C187.05 159.262 187.504 159.17 187.912 159.008C188.319 158.841 188.666 158.606 188.954 158.302C189.242 157.998 189.455 157.629 189.595 157.196L192.126 157.53C191.96 158.278 191.63 158.943 191.135 159.523C190.647 160.097 190.02 160.556 189.254 160.9C188.494 161.238 187.617 161.431 186.624 161.478ZM195.638 165.896L194.754 147.167L197.344 147.045L197.448 149.253L197.67 149.243C197.81 148.952 198.016 148.613 198.288 148.227C198.561 147.841 198.947 147.497 199.448 147.195C199.949 146.887 200.623 146.713 201.468 146.673C202.568 146.621 203.562 146.853 204.452 147.368C205.341 147.883 206.056 148.652 206.596 149.675C207.142 150.698 207.449 151.946 207.519 153.418C207.588 154.89 207.402 156.164 206.961 157.239C206.52 158.309 205.884 159.147 205.053 159.755C204.223 160.357 203.258 160.684 202.158 160.736C201.33 160.775 200.647 160.668 200.107 160.415C199.574 160.162 199.151 159.856 198.838 159.498C198.525 159.139 198.281 158.819 198.108 158.536L197.948 158.544L198.289 165.771L195.638 165.896ZM197.674 153.855C197.719 154.813 197.898 155.646 198.21 156.354C198.521 157.062 198.95 157.608 199.495 157.991C200.041 158.368 200.694 158.539 201.457 158.503C202.249 158.466 202.902 158.225 203.414 157.78C203.926 157.329 204.301 156.734 204.538 155.994C204.782 155.253 204.882 154.428 204.839 153.517C204.797 152.619 204.623 151.818 204.317 151.116C204.017 150.413 203.589 149.867 203.031 149.479C202.48 149.09 201.805 148.915 201.007 148.952C200.238 148.988 199.597 149.217 199.084 149.638C198.576 150.059 198.203 150.631 197.965 151.353C197.726 152.075 197.629 152.909 197.674 153.855ZM211.723 146.367L214.98 151.528L217.762 146.082L220.662 145.945L216.736 152.956L221.34 159.565L218.44 159.702L215.132 154.756L212.313 159.991L209.404 160.128L213.322 153.117L208.815 146.504L211.723 146.367Z" fill="#FFA500"/>
<rect x="80.2213" y="239.179" width="134.671" height="45" rx="22.5" transform="rotate(-2.7 80.2213 239.179)" fill="white" stroke="#FFA500" stroke-width="4"/>
<path d="M106.469 243.026C108.034 242.963 109.568 243.168 111.073 243.641C112.588 244.103 113.97 244.912 115.219 246.069C116.468 247.215 117.491 248.783 118.289 250.771C119.086 252.76 119.555 255.244 119.696 258.224C119.839 261.033 119.659 263.558 119.157 265.8C118.665 268.031 117.896 269.934 116.851 271.508C115.805 273.083 114.514 274.306 112.976 275.179C111.439 276.051 109.686 276.534 107.717 276.627C105.653 276.724 103.803 276.406 102.169 275.672C100.545 274.938 99.2109 273.892 98.1656 272.534C97.1203 271.175 96.4433 269.597 96.1345 267.798L101.961 267.523C102.32 268.808 102.975 269.811 103.927 270.534C104.888 271.246 106.071 271.569 107.476 271.503C109.742 271.396 111.441 270.329 112.572 268.303C113.703 266.276 114.186 263.513 114.021 260.011L113.797 260.022C113.32 260.983 112.683 261.824 111.885 262.544C111.086 263.253 110.169 263.814 109.132 264.226C108.106 264.636 107.008 264.87 105.838 264.925C103.922 265.015 102.177 264.639 100.601 263.796C99.0363 262.953 97.7692 261.754 96.8 260.2C95.8415 258.645 95.3085 256.841 95.201 254.788C95.1006 252.66 95.5001 250.726 96.3993 248.988C97.3087 247.239 98.6235 245.833 100.344 244.771C102.064 243.698 104.105 243.116 106.469 243.026ZM106.711 247.814C105.561 247.868 104.537 248.199 103.638 248.807C102.749 249.403 102.061 250.193 101.574 251.176C101.097 252.147 100.886 253.219 100.941 254.389C101.007 255.549 101.317 256.59 101.873 257.513C102.439 258.435 103.182 259.152 104.102 259.663C105.032 260.174 106.078 260.402 107.238 260.347C108.1 260.307 108.895 260.104 109.625 259.739C110.354 259.374 110.982 258.886 111.507 258.274C112.043 257.652 112.448 256.955 112.721 256.185C113.004 255.415 113.121 254.609 113.071 253.769C113.018 252.652 112.703 251.632 112.126 250.71C111.56 249.788 110.806 249.061 109.864 248.529C108.932 247.997 107.881 247.759 106.711 247.814Z" fill="#FFA500"/>
<path d="M125.196 268.346L124.554 254.725L135.666 254.201L136.308 267.822L133.71 267.945L133.175 256.612L127.243 256.891L127.777 268.225L125.196 268.346ZM145.604 267.659C144.327 267.72 143.198 267.48 142.219 266.939C141.24 266.399 140.462 265.615 139.886 264.587C139.31 263.56 138.989 262.343 138.923 260.935C138.856 259.522 139.061 258.274 139.537 257.191C140.014 256.108 140.714 255.252 141.638 254.622C142.562 253.991 143.663 253.646 144.94 253.586C146.217 253.526 147.345 253.766 148.325 254.306C149.304 254.847 150.082 255.634 150.658 256.667C151.234 257.7 151.555 258.924 151.622 260.337C151.688 261.744 151.483 262.986 151.007 264.063C150.53 265.14 149.83 265.994 148.905 266.624C147.981 267.254 146.881 267.599 145.604 267.659ZM145.507 265.433C146.335 265.394 147.011 265.143 147.534 264.68C148.057 264.217 148.432 263.616 148.658 262.876C148.889 262.136 148.985 261.329 148.943 260.454C148.902 259.585 148.732 258.793 148.431 258.078C148.137 257.358 147.707 256.788 147.142 256.371C146.577 255.953 145.881 255.764 145.053 255.803C144.22 255.842 143.538 256.096 143.01 256.566C142.487 257.035 142.109 257.642 141.878 258.388C141.652 259.127 141.56 259.931 141.601 260.8C141.642 261.675 141.81 262.47 142.104 263.185C142.404 263.9 142.837 264.463 143.401 264.875C143.972 265.286 144.674 265.473 145.507 265.433ZM154.9 266.946L154.257 253.324L159.906 253.058C161.443 252.985 162.677 253.256 163.606 253.87C164.536 254.478 165.027 255.341 165.079 256.458C165.117 257.256 164.893 257.901 164.406 258.392C163.92 258.883 163.261 259.228 162.429 259.427C163.041 259.469 163.608 259.626 164.131 259.898C164.653 260.163 165.079 260.534 165.41 261.011C165.746 261.487 165.93 262.064 165.962 262.744C165.996 263.466 165.84 264.113 165.494 264.686C165.148 265.254 164.627 265.711 163.932 266.057C163.243 266.398 162.402 266.592 161.409 266.639L154.9 266.946ZM157.287 264.611L161.304 264.422C161.961 264.391 162.468 264.21 162.825 263.879C163.183 263.548 163.349 263.113 163.324 262.575C163.294 261.943 163.084 261.455 162.695 261.112C162.305 260.763 161.782 260.604 161.126 260.635L157.109 260.824L157.287 264.611ZM157.017 258.882L160.201 258.732C160.697 258.709 161.12 258.618 161.468 258.459C161.821 258.3 162.087 258.086 162.264 257.817C162.446 257.542 162.529 257.224 162.512 256.863C162.487 256.337 162.252 255.937 161.807 255.661C161.361 255.386 160.763 255.266 160.012 255.302L156.855 255.45L157.017 258.882ZM174.928 266.277C173.586 266.34 172.416 266.108 171.42 265.58C170.429 265.046 169.646 264.268 169.07 263.247C168.5 262.219 168.182 260.998 168.115 259.585C168.05 258.19 168.252 256.948 168.722 255.86C169.198 254.771 169.892 253.905 170.803 253.264C171.721 252.622 172.813 252.272 174.078 252.212C174.846 252.176 175.597 252.268 176.331 252.488C177.064 252.708 177.73 253.077 178.329 253.593C178.928 254.11 179.414 254.795 179.786 255.649C180.158 256.496 180.373 257.538 180.431 258.774L180.475 259.714L169.647 260.224L169.554 258.238L177.783 257.85C177.75 257.152 177.579 256.541 177.27 256.016C176.961 255.486 176.542 255.076 176.012 254.787C175.489 254.498 174.885 254.369 174.199 254.401C173.454 254.437 172.812 254.65 172.274 255.043C171.741 255.43 171.338 255.923 171.064 256.522C170.796 257.116 170.677 257.752 170.709 258.432L170.783 259.984C170.826 260.894 171.022 261.661 171.371 262.285C171.726 262.908 172.202 263.374 172.797 263.684C173.392 263.988 174.077 264.121 174.851 264.085C175.354 264.061 175.808 263.969 176.216 263.807C176.622 263.64 176.97 263.404 177.258 263.1C177.546 262.797 177.759 262.428 177.899 261.995L180.43 262.329C180.264 263.077 179.933 263.742 179.439 264.322C178.951 264.896 178.324 265.355 177.558 265.699C176.798 266.037 175.921 266.23 174.928 266.277ZM183.942 270.695L183.058 251.966L185.648 251.844L185.752 254.052L185.974 254.042C186.114 253.751 186.32 253.412 186.592 253.026C186.865 252.64 187.251 252.296 187.752 251.994C188.253 251.686 188.927 251.512 189.772 251.472C190.872 251.42 191.866 251.651 192.755 252.166C193.645 252.682 194.36 253.451 194.9 254.474C195.446 255.497 195.753 256.745 195.823 258.217C195.892 259.689 195.706 260.962 195.265 262.038C194.824 263.107 194.188 263.946 193.357 264.554C192.527 265.156 191.561 265.483 190.462 265.535C189.634 265.574 188.951 265.467 188.411 265.214C187.878 264.961 187.455 264.655 187.142 264.296C186.828 263.938 186.585 263.617 186.412 263.335L186.252 263.343L186.593 270.57L183.942 270.695ZM185.978 258.654C186.023 259.612 186.202 260.445 186.513 261.153C186.825 261.861 187.254 262.407 187.799 262.79C188.345 263.167 188.998 263.338 189.761 263.302C190.553 263.264 191.206 263.023 191.718 262.579C192.23 262.128 192.605 261.532 192.842 260.792C193.086 260.052 193.186 259.227 193.143 258.316C193.101 257.418 192.927 256.617 192.621 255.915C192.321 255.212 191.893 254.666 191.335 254.278C190.784 253.889 190.109 253.713 189.311 253.751C188.542 253.787 187.901 254.016 187.388 254.437C186.88 254.858 186.507 255.43 186.269 256.152C186.03 256.874 185.933 257.708 185.978 258.654ZM200.027 251.166L203.284 256.327L206.066 250.881L208.966 250.744L205.04 257.755L209.644 264.364L206.744 264.501L203.436 259.555L200.616 264.79L197.708 264.927L201.625 257.916L197.119 251.303L200.027 251.166Z" fill="#FFA500"/>
<rect x="80.2213" y="348.179" width="134.671" height="45" rx="22.5" transform="rotate(-2.7 80.2213 348.179)" fill="white" stroke="#FFA500" stroke-width="4"/>
<path d="M108.324 385.598C105.951 385.71 103.825 385.41 101.946 384.699C100.078 383.987 98.5902 382.964 97.4821 381.63C96.3841 380.284 95.7988 378.728 95.7261 376.961C95.6508 375.589 95.8893 374.314 96.4416 373.136C96.994 371.958 97.7682 370.962 98.7643 370.147C99.7706 369.321 100.907 368.771 102.174 368.498L102.164 368.275C100.465 367.982 99.0621 367.189 97.956 365.898C96.8601 364.595 96.2757 363.06 96.2031 361.293C96.1131 359.612 96.5106 358.089 97.3955 356.725C98.2804 355.361 99.5297 354.262 101.144 353.429C102.757 352.585 104.622 352.113 106.74 352.013C108.836 351.914 110.722 352.209 112.397 352.898C114.082 353.576 115.429 354.552 116.439 355.827C117.459 357.102 118.008 358.579 118.087 360.261C118.171 362.027 117.718 363.611 116.728 365.012C115.748 366.402 114.442 367.322 112.81 367.773L112.821 367.996C114.108 368.149 115.281 368.589 116.339 369.318C117.407 370.036 118.272 370.955 118.933 372.075C119.604 373.196 119.972 374.442 120.037 375.815C120.12 377.581 119.673 379.186 118.696 380.629C117.718 382.062 116.333 383.221 114.541 384.105C112.759 384.989 110.686 385.487 108.324 385.598ZM108.109 381.033C109.332 380.975 110.387 380.717 111.272 380.26C112.156 379.791 112.83 379.162 113.294 378.373C113.758 377.583 113.972 376.687 113.936 375.687C113.876 374.644 113.561 373.737 112.991 372.964C112.432 372.179 111.684 371.58 110.747 371.166C109.821 370.751 108.778 370.571 107.618 370.625C106.447 370.68 105.415 370.958 104.521 371.459C103.628 371.96 102.934 372.627 102.44 373.461C101.956 374.284 101.744 375.216 101.804 376.259C101.841 377.26 102.127 378.131 102.663 378.874C103.199 379.606 103.929 380.163 104.854 380.546C105.789 380.929 106.874 381.091 108.109 381.033ZM107.406 366.14C108.407 366.093 109.28 365.849 110.027 365.408C110.785 364.967 111.37 364.374 111.783 363.63C112.196 362.885 112.385 362.039 112.351 361.091C112.297 360.155 112.035 359.346 111.565 358.665C111.095 357.972 110.463 357.453 109.668 357.106C108.872 356.749 107.969 356.595 106.958 356.642C105.926 356.691 105.025 356.931 104.257 357.362C103.498 357.781 102.917 358.358 102.514 359.092C102.122 359.814 101.953 360.643 102.008 361.579C102.042 362.527 102.294 363.352 102.764 364.055C103.245 364.747 103.884 365.282 104.68 365.66C105.486 366.028 106.395 366.188 107.406 366.14Z" fill="#FFA500"/>
<path d="M125.196 377.346L124.554 363.725L135.666 363.201L136.308 376.822L133.71 376.945L133.175 365.612L127.243 365.891L127.777 377.225L125.196 377.346ZM145.604 376.659C144.327 376.72 143.198 376.48 142.219 375.939C141.24 375.399 140.462 374.615 139.886 373.587C139.31 372.56 138.989 371.343 138.923 369.935C138.856 368.522 139.061 367.274 139.537 366.191C140.014 365.108 140.714 364.252 141.638 363.622C142.562 362.991 143.663 362.646 144.94 362.586C146.217 362.526 147.345 362.766 148.325 363.306C149.304 363.847 150.082 364.634 150.658 365.667C151.234 366.7 151.555 367.924 151.622 369.337C151.688 370.744 151.483 371.986 151.007 373.063C150.53 374.14 149.83 374.994 148.905 375.624C147.981 376.254 146.881 376.599 145.604 376.659ZM145.507 374.433C146.335 374.394 147.011 374.143 147.534 373.68C148.057 373.217 148.432 372.616 148.658 371.876C148.889 371.136 148.985 370.329 148.943 369.454C148.902 368.585 148.732 367.793 148.431 367.078C148.137 366.358 147.707 365.788 147.142 365.371C146.577 364.953 145.881 364.764 145.053 364.803C144.22 364.842 143.538 365.096 143.01 365.566C142.487 366.035 142.109 366.642 141.878 367.388C141.652 368.127 141.56 368.931 141.601 369.8C141.642 370.675 141.81 371.47 142.104 372.185C142.404 372.9 142.837 373.463 143.401 373.875C143.972 374.286 144.674 374.473 145.507 374.433ZM154.9 375.946L154.257 362.324L159.906 362.058C161.443 361.985 162.677 362.256 163.606 362.87C164.536 363.478 165.027 364.341 165.079 365.458C165.117 366.256 164.893 366.901 164.406 367.392C163.92 367.883 163.261 368.228 162.429 368.427C163.041 368.469 163.608 368.626 164.131 368.898C164.653 369.163 165.079 369.534 165.41 370.011C165.746 370.487 165.93 371.064 165.962 371.744C165.996 372.466 165.84 373.113 165.494 373.686C165.148 374.254 164.627 374.711 163.932 375.057C163.243 375.398 162.402 375.592 161.409 375.639L154.9 375.946ZM157.287 373.611L161.304 373.422C161.961 373.391 162.468 373.21 162.825 372.879C163.183 372.548 163.349 372.113 163.324 371.575C163.294 370.943 163.084 370.455 162.695 370.112C162.305 369.763 161.782 369.604 161.126 369.635L157.109 369.824L157.287 373.611ZM157.017 367.882L160.201 367.732C160.697 367.709 161.12 367.618 161.468 367.459C161.821 367.3 162.087 367.086 162.264 366.817C162.446 366.542 162.529 366.224 162.512 365.863C162.487 365.337 162.252 364.937 161.807 364.661C161.361 364.386 160.763 364.266 160.012 364.302L156.855 364.45L157.017 367.882ZM174.928 375.277C173.586 375.34 172.416 375.108 171.42 374.58C170.429 374.046 169.646 373.268 169.07 372.247C168.5 371.219 168.182 369.998 168.115 368.585C168.05 367.19 168.252 365.948 168.722 364.86C169.198 363.771 169.892 362.905 170.803 362.264C171.721 361.622 172.813 361.272 174.078 361.212C174.846 361.176 175.597 361.268 176.331 361.488C177.064 361.708 177.73 362.077 178.329 362.593C178.928 363.11 179.414 363.795 179.786 364.649C180.158 365.496 180.373 366.538 180.431 367.774L180.475 368.714L169.647 369.224L169.554 367.238L177.783 366.85C177.75 366.152 177.579 365.541 177.27 365.016C176.961 364.486 176.542 364.076 176.012 363.787C175.489 363.498 174.885 363.369 174.199 363.401C173.454 363.437 172.812 363.65 172.274 364.043C171.741 364.43 171.338 364.923 171.064 365.522C170.796 366.116 170.677 366.752 170.709 367.432L170.783 368.984C170.826 369.894 171.022 370.661 171.371 371.285C171.726 371.908 172.202 372.374 172.797 372.684C173.392 372.988 174.077 373.121 174.851 373.085C175.354 373.061 175.808 372.969 176.216 372.807C176.622 372.64 176.97 372.404 177.258 372.1C177.546 371.797 177.759 371.428 177.899 370.995L180.43 371.329C180.264 372.077 179.933 372.742 179.439 373.322C178.951 373.896 178.324 374.355 177.558 374.699C176.798 375.037 175.921 375.23 174.928 375.277ZM183.942 379.695L183.058 360.966L185.648 360.844L185.752 363.052L185.974 363.042C186.114 362.751 186.32 362.412 186.592 362.026C186.865 361.64 187.251 361.296 187.752 360.994C188.253 360.686 188.927 360.512 189.772 360.472C190.872 360.42 191.866 360.651 192.755 361.166C193.645 361.682 194.36 362.451 194.9 363.474C195.446 364.497 195.753 365.745 195.823 367.217C195.892 368.689 195.706 369.962 195.265 371.038C194.824 372.107 194.188 372.946 193.357 373.554C192.527 374.156 191.561 374.483 190.462 374.535C189.634 374.574 188.951 374.467 188.411 374.214C187.878 373.961 187.455 373.655 187.142 373.296C186.828 372.938 186.585 372.617 186.412 372.335L186.252 372.343L186.593 379.57L183.942 379.695ZM185.978 367.654C186.023 368.612 186.202 369.445 186.513 370.153C186.825 370.861 187.254 371.407 187.799 371.79C188.345 372.167 188.998 372.338 189.761 372.302C190.553 372.264 191.206 372.023 191.718 371.579C192.23 371.128 192.605 370.532 192.842 369.792C193.086 369.052 193.186 368.227 193.143 367.316C193.101 366.418 192.927 365.617 192.621 364.915C192.321 364.212 191.893 363.666 191.335 363.278C190.784 362.889 190.109 362.713 189.311 362.751C188.542 362.787 187.901 363.016 187.388 363.437C186.88 363.858 186.507 364.43 186.269 365.152C186.03 365.874 185.933 366.708 185.978 367.654ZM200.027 360.166L203.284 365.327L206.066 359.881L208.966 359.744L205.04 366.755L209.644 373.364L206.744 373.501L203.436 368.555L200.616 373.79L197.708 373.927L201.625 366.916L197.119 360.303L200.027 360.166Z" fill="#FFA500"/>
<rect x="80.2213" y="454.179" width="134.671" height="45" rx="22.5" transform="rotate(-2.7 80.2213 454.179)" fill="white" stroke="#FFA500" stroke-width="4"/>
<path d="M97.8793 491.643L110.485 463.468L110.474 463.244L94.3363 464.005L94.1029 459.057L116.37 458.007L116.609 463.067L104.025 491.353L97.8793 491.643Z" fill="#FFA500"/>
<path d="M125.196 483.346L124.554 469.725L135.666 469.201L136.308 482.822L133.71 482.945L133.175 471.612L127.243 471.891L127.777 483.225L125.196 483.346ZM145.604 482.659C144.327 482.72 143.198 482.48 142.219 481.939C141.24 481.399 140.462 480.615 139.886 479.587C139.31 478.56 138.989 477.343 138.923 475.935C138.856 474.522 139.061 473.274 139.537 472.191C140.014 471.108 140.714 470.252 141.638 469.622C142.562 468.991 143.663 468.646 144.94 468.586C146.217 468.526 147.345 468.766 148.325 469.306C149.304 469.847 150.082 470.634 150.658 471.667C151.234 472.7 151.555 473.924 151.622 475.337C151.688 476.744 151.483 477.986 151.007 479.063C150.53 480.14 149.83 480.994 148.905 481.624C147.981 482.254 146.881 482.599 145.604 482.659ZM145.507 480.433C146.335 480.394 147.011 480.143 147.534 479.68C148.057 479.217 148.432 478.616 148.658 477.876C148.889 477.136 148.985 476.329 148.943 475.454C148.902 474.585 148.732 473.793 148.431 473.078C148.137 472.358 147.707 471.788 147.142 471.371C146.577 470.953 145.881 470.764 145.053 470.803C144.22 470.842 143.538 471.096 143.01 471.566C142.487 472.035 142.109 472.642 141.878 473.388C141.652 474.127 141.56 474.931 141.601 475.8C141.642 476.675 141.81 477.47 142.104 478.185C142.404 478.9 142.837 479.463 143.401 479.875C143.972 480.286 144.674 480.473 145.507 480.433ZM154.9 481.946L154.257 468.324L159.906 468.058C161.443 467.985 162.677 468.256 163.606 468.87C164.536 469.478 165.027 470.341 165.079 471.458C165.117 472.256 164.893 472.901 164.406 473.392C163.92 473.883 163.261 474.228 162.429 474.427C163.041 474.469 163.608 474.626 164.131 474.898C164.653 475.163 165.079 475.534 165.41 476.011C165.746 476.487 165.93 477.064 165.962 477.744C165.996 478.466 165.84 479.113 165.494 479.686C165.148 480.254 164.627 480.711 163.932 481.057C163.243 481.398 162.402 481.592 161.409 481.639L154.9 481.946ZM157.287 479.611L161.304 479.422C161.961 479.391 162.468 479.21 162.825 478.879C163.183 478.548 163.349 478.113 163.324 477.575C163.294 476.943 163.084 476.455 162.695 476.112C162.305 475.763 161.782 475.604 161.126 475.635L157.109 475.824L157.287 479.611ZM157.017 473.882L160.201 473.732C160.697 473.709 161.12 473.618 161.468 473.459C161.821 473.3 162.087 473.086 162.264 472.817C162.446 472.542 162.529 472.224 162.512 471.863C162.487 471.337 162.252 470.937 161.807 470.661C161.361 470.386 160.763 470.266 160.012 470.302L156.855 470.45L157.017 473.882ZM174.928 481.277C173.586 481.34 172.416 481.108 171.42 480.58C170.429 480.046 169.646 479.268 169.07 478.247C168.5 477.219 168.182 475.998 168.115 474.585C168.05 473.19 168.252 471.948 168.722 470.86C169.198 469.771 169.892 468.905 170.803 468.264C171.721 467.622 172.813 467.272 174.078 467.212C174.846 467.176 175.597 467.268 176.331 467.488C177.064 467.708 177.73 468.077 178.329 468.593C178.928 469.11 179.414 469.795 179.786 470.649C180.158 471.496 180.373 472.538 180.431 473.774L180.475 474.714L169.647 475.224L169.554 473.238L177.783 472.85C177.75 472.152 177.579 471.541 177.27 471.016C176.961 470.486 176.542 470.076 176.012 469.787C175.489 469.498 174.885 469.369 174.199 469.401C173.454 469.437 172.812 469.65 172.274 470.043C171.741 470.43 171.338 470.923 171.064 471.522C170.796 472.116 170.677 472.752 170.709 473.432L170.783 474.984C170.826 475.894 171.022 476.661 171.371 477.285C171.726 477.908 172.202 478.374 172.797 478.684C173.392 478.988 174.077 479.121 174.851 479.085C175.354 479.061 175.808 478.969 176.216 478.807C176.622 478.64 176.97 478.404 177.258 478.1C177.546 477.797 177.759 477.428 177.899 476.995L180.43 477.329C180.264 478.077 179.933 478.742 179.439 479.322C178.951 479.896 178.324 480.355 177.558 480.699C176.798 481.037 175.921 481.23 174.928 481.277ZM183.942 485.695L183.058 466.966L185.648 466.844L185.752 469.052L185.974 469.042C186.114 468.751 186.32 468.412 186.592 468.026C186.865 467.64 187.251 467.296 187.752 466.994C188.253 466.686 188.927 466.512 189.772 466.472C190.872 466.42 191.866 466.651 192.755 467.166C193.645 467.682 194.36 468.451 194.9 469.474C195.446 470.497 195.753 471.745 195.823 473.217C195.892 474.689 195.706 475.962 195.265 477.038C194.824 478.107 194.188 478.946 193.357 479.554C192.527 480.156 191.561 480.483 190.462 480.535C189.634 480.574 188.951 480.467 188.411 480.214C187.878 479.961 187.455 479.655 187.142 479.296C186.828 478.938 186.585 478.617 186.412 478.335L186.252 478.343L186.593 485.57L183.942 485.695ZM185.978 473.654C186.023 474.612 186.202 475.445 186.513 476.153C186.825 476.861 187.254 477.407 187.799 477.79C188.345 478.167 188.998 478.338 189.761 478.302C190.553 478.264 191.206 478.023 191.718 477.579C192.23 477.128 192.605 476.532 192.842 475.792C193.086 475.052 193.186 474.227 193.143 473.316C193.101 472.418 192.927 471.617 192.621 470.915C192.321 470.212 191.893 469.666 191.335 469.278C190.784 468.889 190.109 468.713 189.311 468.751C188.542 468.787 187.901 469.016 187.388 469.437C186.88 469.858 186.507 470.43 186.269 471.152C186.03 471.874 185.933 472.708 185.978 473.654ZM200.027 466.166L203.284 471.327L206.066 465.881L208.966 465.744L205.04 472.755L209.644 479.364L206.744 479.501L203.436 474.555L200.616 479.79L197.708 479.927L201.625 472.916L197.119 466.303L200.027 466.166Z" fill="#FFA500"/>
<rect x="80.2213" y="560.179" width="134.671" height="45" rx="22.5" transform="rotate(-2.7 80.2213 560.179)" fill="white" stroke="#FFA500" stroke-width="4"/>
<path d="M108.675 597.581C107.11 597.645 105.57 597.445 104.056 596.983C102.54 596.511 101.158 595.696 99.9088 594.539C98.6592 593.372 97.6356 591.794 96.8379 589.805C96.0397 587.805 95.5752 585.305 95.4443 582.303C95.3123 579.505 95.4926 576.995 95.9851 574.775C96.4777 572.555 97.247 570.663 98.2931 569.099C99.3387 567.524 100.63 566.301 102.167 565.429C103.715 564.556 105.468 564.073 107.427 563.981C109.48 563.884 111.319 564.202 112.943 564.936C114.577 565.67 115.917 566.716 116.962 568.074C118.007 569.422 118.688 570.969 119.005 572.714L113.179 572.988C112.821 571.747 112.162 570.775 111.201 570.074C110.251 569.362 109.073 569.038 107.668 569.105C105.401 569.212 103.703 570.278 102.572 572.305C101.451 574.331 100.967 577.062 101.118 580.5L101.342 580.49C101.819 579.529 102.457 578.693 103.256 577.984C104.054 577.274 104.966 576.714 105.992 576.303C107.028 575.881 108.131 575.642 109.302 575.587C111.217 575.496 112.957 575.873 114.522 576.716C116.098 577.559 117.37 578.763 118.34 580.328C119.309 581.882 119.837 583.691 119.924 585.756C120.036 587.906 119.637 589.86 118.729 591.62C117.819 593.369 116.504 594.775 114.784 595.838C113.064 596.9 111.027 597.481 108.675 597.581ZM108.417 592.794C109.577 592.74 110.602 592.409 111.49 591.801C112.379 591.194 113.066 590.399 113.553 589.416C114.04 588.434 114.25 587.346 114.183 586.155C114.139 584.984 113.834 583.937 113.267 583.015C112.712 582.092 111.969 581.375 111.038 580.864C110.108 580.353 109.062 580.125 107.902 580.18C107.041 580.221 106.245 580.424 105.516 580.789C104.786 581.154 104.159 581.642 103.633 582.253C103.107 582.854 102.702 583.545 102.419 584.326C102.146 585.096 102.024 585.913 102.054 586.775C102.119 587.913 102.434 588.949 103.001 589.882C103.567 590.815 104.322 591.548 105.264 592.079C106.206 592.611 107.257 592.849 108.417 592.794Z" fill="#FFA500"/>
<path d="M125.196 589.346L124.554 575.725L135.666 575.201L136.308 588.822L133.71 588.945L133.175 577.612L127.243 577.891L127.777 589.225L125.196 589.346ZM145.604 588.659C144.327 588.72 143.198 588.48 142.219 587.939C141.24 587.399 140.462 586.615 139.886 585.587C139.31 584.56 138.989 583.343 138.923 581.935C138.856 580.522 139.061 579.274 139.537 578.191C140.014 577.108 140.714 576.252 141.638 575.622C142.562 574.991 143.663 574.646 144.94 574.586C146.217 574.526 147.345 574.766 148.325 575.306C149.304 575.847 150.082 576.634 150.658 577.667C151.234 578.7 151.555 579.924 151.622 581.337C151.688 582.744 151.483 583.986 151.007 585.063C150.53 586.14 149.83 586.994 148.905 587.624C147.981 588.254 146.881 588.599 145.604 588.659ZM145.507 586.433C146.335 586.394 147.011 586.143 147.534 585.68C148.057 585.217 148.432 584.616 148.658 583.876C148.889 583.136 148.985 582.329 148.943 581.454C148.902 580.585 148.732 579.793 148.431 579.078C148.137 578.358 147.707 577.788 147.142 577.371C146.577 576.953 145.881 576.764 145.053 576.803C144.22 576.842 143.538 577.096 143.01 577.566C142.487 578.035 142.109 578.642 141.878 579.388C141.652 580.127 141.56 580.931 141.601 581.8C141.642 582.675 141.81 583.47 142.104 584.185C142.404 584.9 142.837 585.463 143.401 585.875C143.972 586.286 144.674 586.473 145.507 586.433ZM154.9 587.946L154.257 574.324L159.906 574.058C161.443 573.985 162.677 574.256 163.606 574.87C164.536 575.478 165.027 576.341 165.079 577.458C165.117 578.256 164.893 578.901 164.406 579.392C163.92 579.883 163.261 580.228 162.429 580.427C163.041 580.469 163.608 580.626 164.131 580.898C164.653 581.163 165.079 581.534 165.41 582.011C165.746 582.487 165.93 583.064 165.962 583.744C165.996 584.466 165.84 585.113 165.494 585.686C165.148 586.254 164.627 586.711 163.932 587.057C163.243 587.398 162.402 587.592 161.409 587.639L154.9 587.946ZM157.287 585.611L161.304 585.422C161.961 585.391 162.468 585.21 162.825 584.879C163.183 584.548 163.349 584.113 163.324 583.575C163.294 582.943 163.084 582.455 162.695 582.112C162.305 581.763 161.782 581.604 161.126 581.635L157.109 581.824L157.287 585.611ZM157.017 579.882L160.201 579.732C160.697 579.709 161.12 579.618 161.468 579.459C161.821 579.3 162.087 579.086 162.264 578.817C162.446 578.542 162.529 578.224 162.512 577.863C162.487 577.337 162.252 576.937 161.807 576.661C161.361 576.386 160.763 576.266 160.012 576.302L156.855 576.45L157.017 579.882ZM174.928 587.277C173.586 587.34 172.416 587.108 171.42 586.58C170.429 586.046 169.646 585.268 169.07 584.247C168.5 583.219 168.182 581.998 168.115 580.585C168.05 579.19 168.252 577.948 168.722 576.86C169.198 575.771 169.892 574.905 170.803 574.264C171.721 573.622 172.813 573.272 174.078 573.212C174.846 573.176 175.597 573.268 176.331 573.488C177.064 573.708 177.73 574.077 178.329 574.593C178.928 575.11 179.414 575.795 179.786 576.649C180.158 577.496 180.373 578.538 180.431 579.774L180.475 580.714L169.647 581.224L169.554 579.238L177.783 578.85C177.75 578.152 177.579 577.541 177.27 577.016C176.961 576.486 176.542 576.076 176.012 575.787C175.489 575.498 174.885 575.369 174.199 575.401C173.454 575.437 172.812 575.65 172.274 576.043C171.741 576.43 171.338 576.923 171.064 577.522C170.796 578.116 170.677 578.752 170.709 579.432L170.783 580.984C170.826 581.894 171.022 582.661 171.371 583.285C171.726 583.908 172.202 584.374 172.797 584.684C173.392 584.988 174.077 585.121 174.851 585.085C175.354 585.061 175.808 584.969 176.216 584.807C176.622 584.64 176.97 584.404 177.258 584.1C177.546 583.797 177.759 583.428 177.899 582.995L180.43 583.329C180.264 584.077 179.933 584.742 179.439 585.322C178.951 585.896 178.324 586.355 177.558 586.699C176.798 587.037 175.921 587.23 174.928 587.277ZM183.942 591.695L183.058 572.966L185.648 572.844L185.752 575.052L185.974 575.042C186.114 574.751 186.32 574.412 186.592 574.026C186.865 573.64 187.251 573.296 187.752 572.994C188.253 572.686 188.927 572.512 189.772 572.472C190.872 572.42 191.866 572.651 192.755 573.166C193.645 573.682 194.36 574.451 194.9 575.474C195.446 576.497 195.753 577.745 195.823 579.217C195.892 580.689 195.706 581.962 195.265 583.038C194.824 584.107 194.188 584.946 193.357 585.554C192.527 586.156 191.561 586.483 190.462 586.535C189.634 586.574 188.951 586.467 188.411 586.214C187.878 585.961 187.455 585.655 187.142 585.296C186.828 584.938 186.585 584.617 186.412 584.335L186.252 584.343L186.593 591.57L183.942 591.695ZM185.978 579.654C186.023 580.612 186.202 581.445 186.513 582.153C186.825 582.861 187.254 583.407 187.799 583.79C188.345 584.167 188.998 584.338 189.761 584.302C190.553 584.264 191.206 584.023 191.718 583.579C192.23 583.128 192.605 582.532 192.842 581.792C193.086 581.052 193.186 580.227 193.143 579.316C193.101 578.418 192.927 577.617 192.621 576.915C192.321 576.212 191.893 575.666 191.335 575.278C190.784 574.889 190.109 574.713 189.311 574.751C188.542 574.787 187.901 575.016 187.388 575.437C186.88 575.858 186.507 576.43 186.269 577.152C186.03 577.874 185.933 578.708 185.978 579.654ZM200.027 572.166L203.284 577.327L206.066 571.881L208.966 571.744L205.04 578.755L209.644 585.364L206.744 585.501L203.436 580.555L200.616 585.79L197.708 585.927L201.625 578.916L197.119 572.303L200.027 572.166Z" fill="#FFA500"/>
<path class="choose-round__path-round" data-round-id="10" fill-rule="evenodd" clip-rule="evenodd" d="M486 0H488C664.987 210.985 842.32 421.651 1020 632V690H1018C841.239 499.735 663.905 309.902 486 120.5C324.416 165.08 162.75 209.58 1 254V253C1.99835 218.837 2.33168 184.504 2 150C163.61 100.572 324.943 50.5723 486 0Z" fill="#ffffff00" fill-opacity="0.6"/>
<path class="choose-round__path-round" data-round-id="9" d="M246.241 185.472C115.512 222.008 6.8057 252.438 4.80373 253.039L1 254.14V306.191C1 355.339 1.1001 358.242 2.80177 357.741C3.70265 357.441 111.909 330.815 243.238 298.583C374.567 266.352 482.673 239.726 483.674 239.425C484.775 239.125 564.053 313.798 751.737 491.973C898.381 631.11 1018.7 745.122 1019.1 745.322C1019.6 745.522 1020 733.51 1020 718.495V691.369L1015.2 686.164C938.72 603.983 489.579 122.711 487.778 121.109C486.476 119.908 485.075 118.907 484.675 119.007C484.274 119.107 376.969 148.936 246.241 185.472Z" fill="#ffffff00" fill-opacity="0.6"/>
<path class="choose-round__path-round" data-round-id="8" d="M245.76 297.842C114.688 330.111 6.2948 356.884 4.79628 357.184L1.99902 357.883V412.829V467.776L4.19686 467.276C16.0852 464.479 482.627 363.778 484.525 363.578C486.523 363.378 540.87 407.734 752.462 581.963C898.419 702.145 1018.1 800.449 1018.4 800.449C1018.7 800.449 1019 788.061 1019 772.976V745.503L1016.3 742.606C1014.7 741.007 897.719 629.916 756.258 495.648C614.797 361.48 496.014 248.791 492.317 245.294C488.721 241.897 485.324 239 484.825 239.1C484.425 239.1 376.831 265.574 245.76 297.842Z" fill="#ffffff00" fill-opacity="0.6"/>
<path class="choose-round__path-round" data-round-id="7" d="M243 415.404C110.2 444.304 1.4 467.904 1.3 467.904C1.1 467.904 1 490.004 1 517.004V566.104L3.3 565.604C4.5 565.304 53.8999 556.204 113 545.404C155.249 537.932 180.809 533.124 225.5 523.904C234.426 531.273 238.846 534.83 244.7 539.804L261 551.904L358.1 534.004L455.199 516.004L492.099 536.504L528.999 557.004L556.999 552.004L584.999 547.004L801.499 701.504C920.499 786.403 1018.2 855.903 1018.5 855.903C1019.3 855.903 1019.1 802.503 1018.2 801.303C1017.6 800.303 503.799 377.104 491.199 367.104C488.199 364.804 485.499 362.904 485.199 363.004C484.799 363.004 375.8 386.604 243 415.404Z" fill="#ffffff00" fill-opacity="0.6"/>
<path class="choose-round__path-round" data-round-id="6" d="M358.249 533.982C305.501 543.773 261.844 551.565 261.344 551.165C260.745 550.866 253.252 545.371 244.761 538.977C239.03 535.094 230.814 528.657 225.921 524.909C220.026 525.908 12.3888 563.953 7.29382 565.052L1.99902 566.051V619.598V673.046L4.79628 672.446C6.2948 672.147 56.6454 663.555 116.686 653.365L225.779 634.883L243.762 644.374L261.644 653.864L360.247 639.479L458.75 624.993L497.213 642.975L535.575 660.958L560.55 657.461L585.526 653.964L801.714 780.74C920.597 850.571 1018.2 907.615 1018.5 907.615C1019.3 907.615 1019.1 857.265 1018.2 856.166C1017.8 855.566 920.896 786.135 802.713 701.917C684.629 617.6 587.424 548.268 586.825 547.869C586.325 547.369 573.138 549.267 557.653 551.965L529.581 556.96L493.316 536.879C473.436 525.79 456.453 516.599 455.653 516.4C454.754 516.3 410.897 524.192 358.249 533.982Z" fill="#ffffff00" fill-opacity="0.6"/>
<path class="choose-round__path-round" data-round-id="5" d="M358.948 639.586L261.744 653.972L243.861 644.481L225.879 634.89L116.686 653.472C56.6453 663.662 6.2948 672.254 4.69637 672.553L1.99902 673.153V717.11V761.066L5.79529 760.467C7.79333 760.167 58.2438 753.774 117.785 746.381L226.079 732.794L242.763 738.389L259.446 743.983L359.548 731.895L459.55 719.907L498.611 737.39L537.573 754.972L563.448 751.875L589.322 748.878L803.712 851.278C921.496 907.622 1018.2 953.677 1018.5 953.677C1018.8 953.677 1019 943.587 1019 931.399C1019 911.319 1018.8 908.921 1017.3 907.523C1016.3 906.723 918.798 849.28 800.615 780.048L585.726 654.072L560.65 657.468L535.575 660.965L497.213 642.982C476.033 633.092 458.151 625.1 457.452 625.1C456.652 625.2 412.296 631.694 358.948 639.586Z" fill="#ffffff00" fill-opacity="0.6"/>
<path class="choose-round__path-round" data-round-id="4" fill-rule="evenodd" clip-rule="evenodd" d="M451.557 720H461.548C485.982 731.38 510.623 742.536 535.475 753.467C552.328 752.705 569.145 751.207 585.925 748.972C589.668 748.796 593.164 749.629 596.415 751.469C737.303 818.917 878.164 886.351 1019 953.77V1015.71H1015C872.428 968.684 729.735 921.73 586.924 874.848C569.54 876.771 552.057 877.603 534.476 877.345C510.5 869.686 486.523 862.027 462.547 854.368C457.219 853.702 451.89 853.702 446.562 854.368C384.966 859.324 323.359 864.152 261.744 868.854C248.907 866.919 236.087 864.921 223.282 862.86C149.197 869.048 75.1037 875.042 1 880.842V879.843C2.33202 840.549 2.33202 801.253 1 761.959V760.96C76.7771 750.655 152.702 741.497 228.776 733.487C239.788 737.27 250.943 740.433 262.243 742.977C325.547 735.751 388.652 728.092 451.557 720Z" fill="#ffffff00" fill-opacity="0.6"/>
<path class="choose-round__path-round" data-round-id="3" fill-rule="evenodd" clip-rule="evenodd" d="M1020 1016V1072H1014C871.941 1040.95 729.774 1009.95 587.5 979C569.434 981.003 551.268 981.837 533 981.5C508.428 976.823 483.928 971.989 459.5 967C391.099 971.305 322.599 974.471 254 976.5C244.411 974.56 234.911 972.394 225.5 970C151.093 974.975 76.5925 979.308 2 983C2.33165 949.163 1.99831 915.496 1 882V881C75.0806 874.313 149.247 867.979 223.5 862C236.483 864.13 249.483 866.13 262.5 868C324.339 863.25 386.173 858.416 448 853.5C453 852.833 458 852.833 463 853.5C488.318 861.273 513.485 869.44 538.5 878C555.902 876.075 573.402 875.242 591 875.5C734.065 922.244 877.065 969.077 1020 1016Z" fill="#ffffff00" fill-opacity="0.6"/>
<path class="choose-round__path-round" data-round-id="2" fill-rule="evenodd" clip-rule="evenodd" d="M439.123 967H463.123C487.539 971.934 512.039 976.934 536.623 982C554.689 979.997 572.855 979.163 591.123 979.5C733.53 1010.19 875.864 1041.02 1018.12 1072V1130H1005.12C822.447 1115.55 639.614 1101.22 456.623 1087C304.478 1089.93 152.312 1092.27 0.122945 1094C-0.206728 1056.76 0.126606 1019.59 1.12294 982.5C77.095 977.639 153.095 973.639 229.123 970.5C238.717 972.418 248.217 974.584 257.623 977C318.219 973.646 378.719 970.312 439.123 967Z" fill="#ffffff00" fill-opacity="0.6"/>
</svg>