<svg class="bti-svg" width="704" height="788" viewBox="0 0 704 788" fill="none" xmlns="http://www.w3.org/2000/svg">
  <g class="rooms">
    <g class="1">
      <rect width="146.879" height="122.428" transform="matrix(-1 0 0 1 418.085 116)" fill="#9EFF00" fill-opacity="0.5"/>
      <rect width="106.294" height="98.7319" transform="matrix(-1 0 0 1 377.5 238.427)" fill="#9EFF00" fill-opacity="0.5"/>
    </g>
    <g class="2">
      <rect width="165.87" height="221.159" transform="matrix(-1 0 0 1 270.87 116)" fill="#9EFF00" fill-opacity="0.5"/>
    </g>
    <g class="3">
      <rect width="273" height="267" transform="matrix(-1 0 0 1 378 337)" fill="#9EFF00" fill-opacity="0.5"/>
    </g>
    <g class="4">
      <rect width="231.915" height="122.428" transform="matrix(-1 0 0 1 650 116)" fill="#9EFF00" fill-opacity="0.5"/>
      <rect width="273" height="366" transform="matrix(-1 0 0 1 650 238)" fill="#9EFF00" fill-opacity="0.5"/>
      <rect width="503" height="160" transform="matrix(-1 0 0 1 635 604)" fill="#9EFF00" fill-opacity="0.5"/>
    </g>
  </g>
      <line x1="352.5" x2="352.5" y2="788"/>
</svg>
