<?xml version="1.0" encoding="UTF-8"?>
<!DOCTYPE svg PUBLIC "-//W3C//DTD SVG 1.1//EN" "http://www.w3.org/Graphics/SVG/1.1/DTD/svg11.dtd">
<svg xmlns="http://www.w3.org/2000/svg" version="1.1" width="96px" height="96px" style="shape-rendering:geometricPrecision; text-rendering:geometricPrecision; image-rendering:optimizeQuality; fill-rule:evenodd; clip-rule:evenodd" xmlns:xlink="http://www.w3.org/1999/xlink">
<g><path style="opacity:0.963" fill="#FFA500" d="M 21.5,7.5 C 38.8365,7.33339 56.1699,7.50006 73.5,8C 75.286,8.78451 76.786,9.95118 78,11.5C 79.6457,34.7453 79.9791,58.0786 79,81.5C 78.2155,83.286 77.0488,84.786 75.5,86C 57.5907,87.6392 39.5907,87.9726 21.5,87C 19.714,86.2155 18.214,85.0488 17,83.5C 15.3543,60.2547 15.0209,36.9214 16,13.5C 17.3597,10.9774 19.193,8.97739 21.5,7.5 Z M 26.5,13.5 C 40.504,13.3334 54.504,13.5001 68.5,14C 69.7659,14.3095 70.9326,14.8095 72,15.5C 73.1322,26.0978 73.6322,36.7645 73.5,47.5C 73.3333,57.1667 73.1667,66.8333 73,76.5C 72.6905,77.7659 72.1905,78.9326 71.5,80C 63.5732,81.1186 55.5732,81.6186 47.5,81.5C 40.5,81.3333 33.5,81.1667 26.5,81C 25.2341,80.6905 24.0674,80.1905 23,79.5C 21.369,59.2313 21.0356,38.898 22,18.5C 22.3477,15.6576 23.8477,13.991 26.5,13.5 Z M 33.5,27.5 C 42.8333,27.5 52.1667,27.5 61.5,27.5C 61.5,30.8333 61.5,34.1667 61.5,37.5C 52.1667,37.5 42.8333,37.5 33.5,37.5C 33.5,34.1667 33.5,30.8333 33.5,27.5 Z"/></g>
<g><path style="opacity:0.964" fill="#FFA500" d="M 29.5,21.5 C 41.5046,21.3335 53.5046,21.5001 65.5,22C 67.8892,25.042 68.8892,28.542 68.5,32.5C 68.8892,36.458 67.8892,39.958 65.5,43C 53.5,43.6667 41.5,43.6667 29.5,43C 29,42.5 28.5,42 28,41.5C 27.3333,35.5 27.3333,29.5 28,23.5C 28.7172,22.9558 29.2172,22.2891 29.5,21.5 Z M 33.5,27.5 C 33.5,30.8333 33.5,34.1667 33.5,37.5C 42.8333,37.5 52.1667,37.5 61.5,37.5C 61.5,34.1667 61.5,30.8333 61.5,27.5C 52.1667,27.5 42.8333,27.5 33.5,27.5 Z"/></g>
<g><path style="opacity:0.887" fill="#FFA500" d="M 29.5,49.5 C 37.4863,48.998 39.4863,52.1647 35.5,59C 27.424,59.8047 25.424,56.638 29.5,49.5 Z"/></g>
<g><path style="opacity:0.887" fill="#FFA500" d="M 44.5,49.5 C 52.4863,48.998 54.4863,52.1647 50.5,59C 42.424,59.8047 40.424,56.638 44.5,49.5 Z"/></g>
<g><path style="opacity:0.957" fill="#FFA500" d="M 59.5,49.5 C 62.3646,49.0548 64.8646,49.7215 67,51.5C 67.6667,58.1667 67.6667,64.8333 67,71.5C 64,74.1667 61,74.1667 58,71.5C 57.3333,64.8333 57.3333,58.1667 58,51.5C 58.7172,50.9558 59.2172,50.2891 59.5,49.5 Z"/></g>
<g><path style="opacity:0.887" fill="#FFA500" d="M 29.5,63.5 C 37.4863,62.998 39.4863,66.1647 35.5,73C 27.424,73.8047 25.424,70.638 29.5,63.5 Z"/></g>
<g><path style="opacity:0.887" fill="#FFA500" d="M 44.5,63.5 C 52.4863,62.998 54.4863,66.1647 50.5,73C 42.424,73.8047 40.424,70.638 44.5,63.5 Z"/></g>
</svg>
