<?xml version="1.0" standalone="no"?>
<!DOCTYPE svg PUBLIC "-//W3C//DTD SVG 20010904//EN"
 "http://www.w3.org/TR/2001/REC-SVG-20010904/DTD/svg10.dtd">
<svg version="1.0" xmlns="http://www.w3.org/2000/svg"
 width="512.000000pt" height="512.000000pt" viewBox="0 0 512.000000 512.000000"
 preserveAspectRatio="xMidYMid meet">

<g transform="translate(0.000000,512.000000) scale(0.100000,-0.100000)"
fill="#FFA500" stroke="none">
<path d="M1212 5095 l-22 -28 0 -2468 0 -2469 -300 0 -300 0 0 320 c0 297 1
321 17 326 69 23 147 70 187 115 73 81 90 126 90 244 1 88 -2 107 -26 157
-148 316 -608 274 -694 -63 -53 -205 63 -392 284 -455 9 -3 12 -76 12 -323 l0
-320 -211 -3 c-195 -3 -212 -4 -225 -22 -20 -28 -17 -63 6 -86 20 -20 33 -20
2538 -20 2428 0 2520 1 2535 18 25 27 22 78 -5 96 -19 13 -57 16 -220 16
l-198 0 2 321 3 322 42 12 c58 17 137 69 172 114 155 197 94 468 -129 575 -58
28 -75 31 -155 31 -78 0 -98 -4 -152 -29 -73 -33 -154 -113 -184 -181 -96
-217 18 -446 259 -521 9 -2 12 -76 12 -324 l0 -320 -305 0 -305 0 0 2159 0
2160 -30 21 c-50 35 -365 184 -515 243 -595 233 -1289 373 -2006 403 l-155 7
-22 -28z m348 -115 c819 -61 1550 -246 2138 -543 l122 -62 -2 -1330 -3 -1330
-1247 -3 -1248 -2 0 1640 0 1640 53 0 c28 0 113 -5 187 -10z m2260 -4125 l0
-725 -365 0 -365 0 0 353 c0 262 -4 365 -14 402 -38 143 -145 273 -277 337
-161 78 -305 78 -464 -2 -111 -55 -184 -128 -239 -237 -50 -101 -56 -149 -56
-515 l0 -338 -360 0 -360 0 0 725 0 725 1250 0 1250 0 0 -725z m-3195 501 c88
-40 137 -118 138 -216 0 -71 -28 -134 -80 -181 -53 -48 -100 -63 -184 -57 -87
7 -150 48 -191 127 -107 205 107 425 317 327z m4090 5 c86 -39 152 -148 143
-238 -30 -307 -482 -291 -482 17 0 140 100 239 244 239 32 0 71 -7 95 -18z
m-2215 -726 l0 -505 -165 0 -166 0 3 357 c3 351 3 359 27 417 32 80 136 185
212 214 99 38 89 90 89 -483z m238 475 c118 -56 200 -167 222 -300 5 -36 10
-203 10 -372 l0 -308 -170 0 -170 0 0 505 0 505 23 0 c12 0 50 -13 85 -30z"/>
<path d="M1676 4038 c-13 -18 -16 -56 -16 -203 0 -206 6 -225 65 -225 59 0 65
19 65 225 0 206 -6 225 -65 225 -24 0 -39 -7 -49 -22z"/>
<path d="M2113 4052 c-25 -16 -33 -69 -33 -223 0 -191 9 -218 71 -219 54 0 59
18 59 227 0 171 -2 192 -18 206 -19 18 -59 22 -79 9z"/>
<path d="M2527 4042 c-15 -16 -17 -46 -17 -209 0 -171 2 -192 18 -206 19 -18
59 -22 79 -9 25 16 33 69 33 217 0 148 -8 201 -33 217 -22 14 -64 8 -80 -10z"/>
<path d="M2946 4038 c-13 -18 -16 -56 -16 -203 0 -206 6 -225 65 -225 59 0 65
19 65 225 0 206 -6 225 -65 225 -24 0 -39 -7 -49 -22z"/>
<path d="M3367 4042 c-15 -16 -17 -46 -17 -210 0 -210 3 -222 60 -222 57 0 60
12 60 224 0 174 -2 195 -18 209 -24 22 -65 21 -85 -1z"/>
<path d="M1685 3305 c-25 -24 -25 -26 -25 -208 0 -171 1 -185 20 -205 12 -12
32 -22 45 -22 13 0 33 10 45 22 19 20 20 34 20 205 0 182 0 184 -25 208 -13
14 -31 25 -40 25 -9 0 -27 -11 -40 -25z"/>
<path d="M2109 3311 c-24 -19 -24 -22 -24 -209 0 -173 2 -192 19 -211 24 -26
60 -27 86 -1 19 19 20 33 20 208 0 103 -4 192 -8 198 -8 13 -46 34 -60 34 -5
0 -20 -9 -33 -19z"/>
<path d="M2550 3323 c-36 -13 -40 -33 -40 -229 0 -188 1 -193 22 -208 31 -22
61 -20 84 5 17 19 19 38 19 211 0 187 0 190 -24 209 -24 19 -34 22 -61 12z"/>
<path d="M2956 3309 l-26 -20 0 -190 c0 -176 1 -190 20 -209 28 -28 64 -25 89
6 19 25 21 40 21 206 0 177 0 179 -25 203 -29 30 -45 31 -79 4z"/>
<path d="M3390 3323 c-36 -13 -40 -33 -40 -229 0 -188 1 -193 22 -208 30 -21
61 -20 81 2 15 16 17 46 17 208 0 137 -3 195 -12 206 -15 19 -47 28 -68 21z"/>
<path d="M1680 2570 c-19 -19 -20 -33 -20 -204 0 -162 2 -186 18 -206 11 -14
29 -22 47 -22 18 0 36 8 47 22 16 20 18 44 18 206 0 171 -1 185 -20 204 -11
11 -31 20 -45 20 -14 0 -34 -9 -45 -20z"/>
<path d="M2104 2569 c-17 -19 -19 -38 -19 -210 0 -154 3 -191 15 -203 27 -26
55 -28 83 -5 l27 20 0 193 c0 174 -2 195 -18 209 -25 23 -65 21 -88 -4z"/>
<path d="M2527 2572 c-15 -16 -17 -46 -17 -208 0 -104 4 -194 8 -200 15 -23
50 -34 76 -24 39 15 48 64 44 247 -3 141 -5 164 -22 182 -24 26 -67 27 -89 3z"/>
<path d="M2950 2570 c-19 -19 -20 -33 -20 -208 0 -175 1 -190 20 -207 27 -24
70 -22 92 5 16 20 18 43 18 197 0 169 -6 206 -34 225 -20 14 -56 8 -76 -12z"/>
<path d="M3367 2572 c-15 -16 -17 -46 -17 -208 0 -104 4 -194 8 -200 16 -24
51 -35 75 -23 12 7 25 17 29 23 4 6 8 97 8 202 0 172 -2 193 -18 207 -24 22
-65 21 -85 -1z"/>
</g>
</svg>
