<?xml version="1.0" standalone="no"?>
<!DOCTYPE svg PUBLIC "-//W3C//DTD SVG 20010904//EN"
 "http://www.w3.org/TR/2001/REC-SVG-20010904/DTD/svg10.dtd">
<svg version="1.0" xmlns="http://www.w3.org/2000/svg"
 width="512.000000pt" height="512.000000pt" viewBox="0 0 512.000000 512.000000"
 preserveAspectRatio="xMidYMid meet">

<g transform="translate(0.000000,512.000000) scale(0.100000,-0.100000)"
fill="#FFA500" stroke="none">
<path d="M185 4935 l-25 -24 0 -2351 0 -2351 25 -24 24 -25 2136 0 2135 0 0
80 0 80 -880 0 -880 0 0 2295 0 2296 -25 24 -24 25 -1231 0 -1231 0 -24 -25z
m1175 -255 l0 -120 -215 0 c-286 0 -265 19 -265 -240 0 -189 0 -191 25 -215
l24 -25 511 0 511 0 24 25 c25 24 25 26 25 215 0 259 21 240 -265 240 l-215 0
0 120 0 120 520 0 520 0 0 -2240 0 -2240 -520 0 -520 0 0 760 0 760 80 0 80 0
0 80 0 80 -80 0 -80 0 0 120 0 120 -80 0 -80 0 0 -960 0 -960 -520 0 -520 0 0
2240 0 2240 520 0 520 0 0 -120z m480 -360 l0 -80 -400 0 -400 0 0 80 0 80
400 0 400 0 0 -80z"/>
<path d="M1040 3800 l0 -120 80 0 80 0 0 120 0 120 -80 0 -80 0 0 -120z"/>
<path d="M1360 3680 l0 -240 80 0 80 0 0 240 0 240 -80 0 -80 0 0 -240z"/>
<path d="M1680 3800 l0 -120 80 0 80 0 0 120 0 120 -80 0 -80 0 0 -120z"/>
<path d="M1040 3440 l0 -80 80 0 80 0 0 80 0 80 -80 0 -80 0 0 -80z"/>
<path d="M1680 3440 l0 -80 80 0 80 0 0 80 0 80 -80 0 -80 0 0 -80z"/>
<path d="M1360 3200 l0 -80 80 0 80 0 0 80 0 80 -80 0 -80 0 0 -80z"/>
<path d="M3753 4945 c-201 -36 -365 -124 -513 -274 -129 -130 -212 -278 -257
-457 -24 -95 -24 -333 0 -428 96 -384 397 -666 781 -730 l71 -12 3 -82 3 -82
79 0 79 0 3 82 3 82 78 13 c478 80 822 513 794 997 -10 170 -61 326 -153 469
-63 98 -200 231 -303 295 -196 120 -445 168 -668 127z m357 -168 c30 -9 68
-21 84 -27 l30 -11 -297 -297 c-163 -163 -297 -301 -297 -306 0 -10 97 -106
108 -106 4 0 149 141 321 314 299 299 316 314 335 300 52 -36 162 -155 202
-220 232 -372 125 -853 -244 -1095 -309 -203 -726 -159 -991 102 -161 159
-236 340 -236 569 0 174 36 297 125 434 118 180 303 306 520 352 80 17 262 12
340 -9z"/>
<path d="M3902 3937 c-193 -193 -352 -357 -352 -362 0 -13 92 -105 105 -105 6
0 170 160 365 355 l355 355 -55 55 c-30 30 -57 55 -60 55 -3 0 -164 -159 -358
-353z"/>
<path d="M3382 3897 c-39 -40 -72 -77 -72 -83 0 -13 92 -104 106 -104 5 0 43
34 84 75 l74 75 -54 55 c-30 30 -57 55 -60 55 -3 0 -38 -33 -78 -73z"/>
<path d="M3143 2694 c-24 -24 -25 -30 -20 -97 7 -79 33 -166 71 -233 l25 -44
-145 0 c-141 0 -146 -1 -169 -25 l-25 -24 0 -511 0 -511 25 -24 24 -25 991 0
991 0 24 25 25 24 0 511 0 511 -25 24 c-23 24 -28 25 -169 25 l-145 0 25 44
c38 67 64 154 71 233 5 67 4 73 -20 97 l-26 26 -751 0 -751 0 -26 -26z m1407
-146 c0 -30 -62 -139 -102 -182 l-45 -46 -483 0 -483 0 -45 46 c-40 43 -102
152 -102 182 0 9 133 12 630 12 497 0 630 -3 630 -12z m250 -468 l0 -80 -880
0 -880 0 0 80 0 80 880 0 880 0 0 -80z m0 -480 l0 -240 -880 0 -880 0 0 240 0
240 880 0 880 0 0 -240z"/>
<path d="M3680 1600 l0 -80 280 0 280 0 0 80 0 80 -280 0 -280 0 0 -80z"/>
<path d="M4720 240 l0 -80 120 0 120 0 0 80 0 80 -120 0 -120 0 0 -80z"/>
</g>
</svg>
