<?xml version="1.0" standalone="no"?>
<!DOCTYPE svg PUBLIC "-//W3C//DTD SVG 20010904//EN"
 "http://www.w3.org/TR/2001/REC-SVG-20010904/DTD/svg10.dtd">
<svg version="1.0" xmlns="http://www.w3.org/2000/svg"
 width="512.000000pt" height="512.000000pt" viewBox="0 0 512.000000 512.000000"
 preserveAspectRatio="xMidYMid meet">

<g transform="translate(0.000000,512.000000) scale(0.100000,-0.100000)"
fill="#FFA500" stroke="none">
<path d="M1145 4935 l-25 -24 0 -688 0 -687 -102 -253 -103 -253 -48 -16 c-57
-19 -134 -75 -176 -128 -35 -43 -19 -12 -312 -640 l-219 -468 0 -785 0 -784
25 -24 24 -25 576 0 575 0 0 80 0 80 -520 0 -520 0 0 680 0 680 2240 0 2240 0
0 -680 0 -680 -520 0 -520 0 0 -80 0 -80 575 0 576 0 24 25 25 24 0 784 0 785
-219 468 c-120 258 -233 499 -250 535 -56 119 -139 200 -240 234 l-46 15 -102
253 -103 253 0 687 0 688 -25 24 -24 25 -1391 0 -1391 0 -24 -25z m2695 -735
l0 -600 -40 0 -40 0 0 335 0 336 -25 24 -24 25 -511 0 -511 0 -24 -25 -25 -24
0 -336 0 -335 -80 0 -80 0 0 335 0 336 -25 24 -24 25 -511 0 -511 0 -24 -25
-25 -24 0 -336 0 -335 -40 0 -40 0 0 600 0 600 1280 0 1280 0 0 -600z m-1520
-320 l0 -280 -400 0 -400 0 0 280 0 280 400 0 400 0 0 -280z m1280 0 l0 -280
-400 0 -400 0 0 280 0 280 400 0 400 0 0 -280z m347 -637 l81 -198 -734 -3
c-404 -1 -1064 -1 -1468 0 l-734 3 81 198 81 197 1306 0 1306 0 81 -197z m285
-396 c26 -15 58 -42 72 -60 19 -26 446 -927 446 -943 0 -2 -985 -4 -2190 -4
-1204 0 -2190 2 -2190 4 0 12 425 915 442 938 24 34 70 67 117 84 29 11 347
13 1646 11 l1610 -2 47 -28z"/>
<path d="M1520 1347 c-49 -16 -133 -102 -148 -153 -8 -26 -12 -112 -12 -233 0
-190 0 -192 25 -216 13 -14 35 -25 49 -25 28 0 20 23 120 -330 41 -141 62
-200 77 -212 31 -26 227 -26 258 0 15 12 36 71 77 212 30 107 64 225 75 263
l20 67 499 0 499 0 20 -67 c11 -38 45 -156 75 -263 41 -141 62 -200 77 -213
17 -14 41 -17 129 -17 88 0 112 3 129 17 15 13 36 72 77 213 100 353 92 330
120 330 14 0 36 11 49 25 25 24 25 26 25 216 0 119 -4 207 -12 231 -6 22 -31
62 -55 88 -77 85 -2 80 -1137 79 -699 -1 -1012 -4 -1036 -12z m2055 -172 c24
-23 25 -29 25 -160 l0 -135 -1040 0 -1040 0 0 135 c0 131 1 137 25 160 l24 25
991 0 991 0 24 -25z m-1685 -463 c0 -4 -16 -64 -36 -132 -75 -263 -74 -260
-94 -260 -20 0 -19 -3 -94 260 -20 68 -36 128 -36 132 0 4 59 8 130 8 72 0
130 -4 130 -8z m1600 0 c0 -4 -16 -64 -36 -132 -75 -263 -74 -260 -94 -260
-20 0 -19 -3 -94 260 -20 68 -36 128 -36 132 0 4 59 8 130 8 72 0 130 -4 130
-8z"/>
</g>
</svg>
