<?xml version="1.0" standalone="no"?>
<!DOCTYPE svg PUBLIC "-//W3C//DTD SVG 20010904//EN"
 "http://www.w3.org/TR/2001/REC-SVG-20010904/DTD/svg10.dtd">
<svg version="1.0" xmlns="http://www.w3.org/2000/svg"
 width="512.000000pt" height="512.000000pt" viewBox="0 0 512.000000 512.000000"
 preserveAspectRatio="xMidYMid meet">

<g transform="translate(0.000000,512.000000) scale(0.100000,-0.100000)"
fill="#FFA500" stroke="none">
<path d="M1399 4269 c-624 -467 -1139 -860 -1146 -872 -10 -17 -12 -397 -13
-1683 l0 -1661 26 -27 27 -26 2266 0 c1765 1 2270 3 2282 13 9 7 21 22 27 34
17 31 17 3555 0 3586 -23 44 -35 46 -215 47 l-173 0 0 206 c0 208 -4 234 -39
261 -12 9 -103 12 -348 13 l-333 0 0 280 0 280 -80 0 -80 0 0 -280 0 -280
-334 0 -333 0 -27 -26 -26 -27 0 -213 0 -214 -120 0 -120 0 0 695 0 696 -25
24 c-14 15 -36 25 -53 25 -22 0 -272 -183 -1163 -851z m1081 -1749 l0 -2360
-1040 0 -1040 0 0 1580 0 1580 1038 779 c570 429 1038 780 1040 780 1 1 2
-1061 2 -2359z m1840 1320 l0 -160 -640 0 -640 0 0 160 0 160 640 0 640 0 0
-160z m400 -2000 l0 -1680 -1040 0 -1040 0 0 1680 0 1680 1040 0 1040 0 0
-1680z"/>
<path d="M2160 4160 l0 -80 80 0 80 0 0 80 0 80 -80 0 -80 0 0 -80z"/>
<path d="M1920 3920 l0 -80 80 0 80 0 0 80 0 80 -80 0 -80 0 0 -80z"/>
<path d="M2160 3920 l0 -80 80 0 80 0 0 80 0 80 -80 0 -80 0 0 -80z"/>
<path d="M1239 3667 c-36 -27 -39 -52 -39 -307 0 -255 3 -280 39 -307 23 -18
1019 -18 1042 0 36 27 39 52 39 307 0 255 -3 280 -39 307 -23 18 -1019 18
-1042 0z m441 -307 l0 -160 -160 0 -160 0 0 160 0 160 160 0 160 0 0 -160z
m480 0 l0 -160 -160 0 -160 0 0 160 0 160 160 0 160 0 0 -160z"/>
<path d="M599 2867 c-36 -27 -39 -52 -39 -307 0 -255 3 -280 39 -307 23 -18
1659 -18 1682 0 36 27 39 52 39 307 0 255 -3 280 -39 307 -23 18 -1659 18
-1682 0z m761 -307 l0 -160 -320 0 -320 0 0 160 0 160 320 0 320 0 0 -160z
m800 0 l0 -160 -320 0 -320 0 0 160 0 160 320 0 320 0 0 -160z"/>
<path d="M599 2067 c-36 -27 -39 -52 -39 -307 0 -255 3 -280 39 -307 23 -18
1659 -18 1682 0 36 27 39 52 39 307 0 255 -3 280 -39 307 -23 18 -1659 18
-1682 0z m761 -307 l0 -160 -320 0 -320 0 0 160 0 160 320 0 320 0 0 -160z
m800 0 l0 -160 -320 0 -320 0 0 160 0 160 320 0 320 0 0 -160z"/>
<path d="M599 1267 c-36 -27 -39 -52 -39 -307 0 -255 3 -280 39 -307 23 -18
1659 -18 1682 0 36 27 39 52 39 307 0 255 -3 280 -39 307 -23 18 -1659 18
-1682 0z m761 -307 l0 -160 -320 0 -320 0 0 160 0 160 320 0 320 0 0 -160z
m800 0 l0 -160 -320 0 -320 0 0 160 0 160 320 0 320 0 0 -160z"/>
<path d="M560 400 l0 -80 880 0 880 0 0 80 0 80 -880 0 -880 0 0 -80z"/>
<path d="M3200 3840 l0 -80 480 0 480 0 0 80 0 80 -480 0 -480 0 0 -80z"/>
<path d="M2826 3334 l-26 -27 0 -267 0 -267 26 -27 27 -26 826 0 c873 1 844
-1 869 47 17 30 17 516 0 546 -25 48 4 46 -869 47 l-826 0 -27 -26z m774 -294
l0 -160 -320 0 -320 0 0 160 0 160 320 0 320 0 0 -160z m800 0 l0 -160 -320 0
-320 0 0 160 0 160 320 0 320 0 0 -160z"/>
<path d="M2826 2534 l-26 -27 0 -267 0 -267 26 -27 27 -26 826 0 c873 1 844
-1 869 47 17 30 17 516 0 546 -25 48 4 46 -869 47 l-826 0 -27 -26z m774 -294
l0 -160 -320 0 -320 0 0 160 0 160 320 0 320 0 0 -160z m800 0 l0 -160 -320 0
-320 0 0 160 0 160 320 0 320 0 0 -160z"/>
<path d="M2826 1734 l-26 -27 0 -267 0 -267 26 -27 27 -26 826 0 c873 1 844
-1 869 47 17 30 17 516 0 546 -25 48 4 46 -869 47 l-826 0 -27 -26z m774 -294
l0 -160 -320 0 -320 0 0 160 0 160 320 0 320 0 0 -160z m800 0 l0 -160 -320 0
-320 0 0 160 0 160 320 0 320 0 0 -160z"/>
<path d="M2826 934 l-26 -27 0 -267 0 -267 26 -27 27 -26 826 0 c873 1 844 -1
869 47 17 30 17 516 0 546 -25 48 4 46 -869 47 l-826 0 -27 -26z m774 -294 l0
-160 -320 0 -320 0 0 160 0 160 320 0 320 0 0 -160z m800 0 l0 -160 -320 0
-320 0 0 160 0 160 320 0 320 0 0 -160z"/>
</g>
</svg>
