<?xml version="1.0" standalone="no"?>
<!DOCTYPE svg PUBLIC "-//W3C//DTD SVG 20010904//EN"
 "http://www.w3.org/TR/2001/REC-SVG-20010904/DTD/svg10.dtd">
<svg version="1.0" xmlns="http://www.w3.org/2000/svg"
 width="512.000000pt" height="512.000000pt" viewBox="0 0 512.000000 512.000000"
 preserveAspectRatio="xMidYMid meet">

<g transform="translate(0.000000,512.000000) scale(0.100000,-0.100000)"
fill="#FFA500" stroke="none">
<path d="M825 4935 l-25 -24 0 -911 0 -911 25 -24 24 -25 1711 0 1711 0 24 25
25 24 0 911 0 911 -25 24 -24 25 -1711 0 -1711 0 -24 -25z m3335 -935 l0 -800
-1600 0 -1600 0 0 800 0 800 1600 0 1600 0 0 -800z"/>
<path d="M2125 4193 c-390 -195 -712 -357 -714 -359 -5 -4 60 -144 66 -144 4
0 1427 711 1432 716 6 5 -61 144 -68 143 -3 0 -325 -160 -716 -356z"/>
<path d="M2845 4193 c-390 -195 -712 -357 -714 -359 -5 -4 60 -144 66 -144 4
0 1427 711 1432 716 6 5 -61 144 -68 143 -3 0 -325 -160 -716 -356z"/>
<path d="M2480 3360 l0 -80 80 0 80 0 0 80 0 80 -80 0 -80 0 0 -80z"/>
<path d="M160 2800 l0 -80 80 0 80 0 0 -160 0 -160 -55 0 c-46 0 -60 -4 -80
-25 l-25 -24 0 -1071 0 -1071 25 -24 24 -25 2351 0 2351 0 24 25 25 24 0 1071
0 1071 -25 24 c-20 21 -34 25 -80 25 l-55 0 0 160 0 160 80 0 80 0 0 80 0 80
-2400 0 -2400 0 0 -80z m1360 -240 l0 -160 -520 0 -520 0 0 160 0 160 520 0
520 0 0 -160z m1920 0 l0 -160 -880 0 -880 0 0 160 0 160 880 0 880 0 0 -160z
m1200 0 l0 -160 -520 0 -520 0 0 160 0 160 520 0 520 0 0 -160z m-4000 -400
l0 -80 -160 0 -160 0 0 80 0 80 160 0 160 0 0 -80z m3680 -880 l0 -960 -1760
0 -1760 0 0 960 0 960 1760 0 1760 0 0 -960z m480 880 l0 -80 -160 0 -160 0 0
80 0 80 160 0 160 0 0 -80z m-4160 -1040 l0 -800 -160 0 -160 0 0 800 0 800
160 0 160 0 0 -800z m4160 0 l0 -800 -160 0 -160 0 0 800 0 800 160 0 160 0 0
-800z"/>
<path d="M985 2055 l-25 -24 0 -751 0 -751 25 -24 24 -25 1551 0 1551 0 24 25
25 24 0 751 0 751 -25 24 -24 25 -1551 0 -1551 0 -24 -25z m3015 -775 l0 -640
-446 0 -446 0 40 41 c114 113 123 290 23 417 -53 66 -61 85 -61 135 0 35 9 58
45 113 25 39 45 81 45 97 0 33 -40 77 -70 77 -33 0 -300 -69 -345 -89 -22 -10
-61 -37 -87 -60 l-48 -42 -20 33 c-49 81 -63 137 -69 291 -6 141 -7 150 -30
168 -40 33 -71 24 -162 -44 -151 -115 -199 -186 -207 -313 l-4 -71 -24 24
c-39 38 -68 30 -202 -59 -204 -135 -257 -215 -250 -378 6 -142 72 -245 198
-310 l55 -29 -407 -1 -408 0 0 640 0 640 1440 0 1440 0 0 -640z m-1570 133
c29 -87 143 -274 175 -287 45 -17 67 -5 154 78 68 66 97 87 132 96 24 6 49 12
54 14 7 2 9 -21 7 -64 -5 -85 16 -153 67 -218 51 -64 61 -85 61 -127 0 -50
-22 -98 -56 -122 -16 -11 -112 -48 -214 -82 -137 -45 -199 -61 -240 -61 -73 0
-228 25 -313 49 -91 27 -304 118 -345 148 -74 55 -97 183 -46 258 28 41 63 74
79 74 6 0 19 -19 31 -42 54 -109 203 -144 307 -71 83 59 108 165 63 271 -41
97 -34 169 22 243 l26 34 12 -76 c7 -42 17 -93 24 -115z m-223 -181 c7 -29
-13 -52 -46 -52 -30 0 -51 16 -51 40 0 8 12 42 27 75 l28 60 18 -50 c10 -27
21 -60 24 -73z"/>
<path d="M2880 1760 l0 -80 80 0 80 0 0 80 0 80 -80 0 -80 0 0 -80z"/>
<path d="M3360 1520 l0 -80 80 0 80 0 0 80 0 80 -80 0 -80 0 0 -80z"/>
</g>
</svg>
