<?xml version="1.0" standalone="no"?>
<!DOCTYPE svg PUBLIC "-//W3C//DTD SVG 20010904//EN"
 "http://www.w3.org/TR/2001/REC-SVG-20010904/DTD/svg10.dtd">
<svg version="1.0" xmlns="http://www.w3.org/2000/svg"
 width="512.000000pt" height="512.000000pt" viewBox="0 0 512.000000 512.000000"
 preserveAspectRatio="xMidYMid meet">

<g transform="translate(0.000000,512.000000) scale(0.100000,-0.100000)"
fill="#FFA500" stroke="none">
<path d="M185 4215 l-25 -24 0 -1631 0 -1631 25 -24 24 -25 2351 0 2351 0 24
25 25 24 0 1631 0 1631 -25 24 -24 25 -2351 0 -2351 0 -24 -25z m4420 -215
l-80 -80 -1965 0 -1965 0 -80 80 -80 80 2125 0 2125 0 -80 -80z m-4125 -1440
l0 -1245 -80 -80 -80 -80 0 1405 0 1405 80 -80 80 -80 0 -1245z m4320 -2 l0
-1403 -80 80 -80 80 0 1245 0 1245 77 77 c43 43 79 78 80 78 2 0 3 -631 3
-1402z m-320 2 l0 -1200 -280 0 -280 0 0 393 c0 438 -5 477 -64 600 -48 100
-118 182 -208 247 l-77 54 53 56 c103 107 142 223 133 390 -18 340 -170 500
-477 500 -307 0 -459 -160 -477 -500 -9 -168 30 -283 133 -391 l54 -56 -41
-27 c-40 -27 -42 -27 -109 -15 -98 17 -242 8 -307 -21 -97 -41 -175 -149 -198
-272 l-7 -35 -71 27 c-40 15 -80 30 -91 34 -16 6 -13 12 27 55 94 101 133 219
124 381 -18 340 -170 500 -477 500 -296 0 -445 -146 -476 -467 -6 -70 -8 -74
-91 -190 -144 -200 -190 -326 -180 -490 6 -90 42 -210 82 -273 25 -39 25 -41
25 -270 l0 -230 -280 0 -280 0 0 1200 0 1200 1920 0 1920 0 0 -1200z m-1045
856 c55 -23 93 -62 121 -121 22 -47 31 -85 19 -85 -3 0 -29 16 -58 35 -28 19
-62 35 -76 35 -13 0 -49 -15 -80 -34 -58 -36 -134 -69 -211 -92 -55 -16 -170
-35 -180 -29 -11 7 9 113 31 165 47 109 135 153 294 147 64 -3 114 -10 140
-21z m-1440 -320 c55 -23 93 -62 121 -121 22 -47 31 -85 19 -85 -3 0 -29 16
-58 35 -28 19 -62 35 -76 35 -13 0 -49 -15 -80 -34 -58 -36 -134 -69 -211 -92
-55 -16 -170 -35 -180 -29 -11 7 9 113 31 165 47 109 135 153 294 147 64 -3
114 -10 140 -21z m1526 -47 l77 -50 -10 -37 c-26 -93 -83 -163 -171 -209 -45
-24 -64 -28 -137 -28 -73 0 -92 4 -137 28 -68 35 -120 88 -149 151 l-24 51 23
6 c12 4 57 12 100 18 92 15 189 46 272 89 33 17 64 31 69 32 6 0 45 -23 87
-51z m-1440 -320 l77 -50 -10 -37 c-26 -93 -83 -163 -171 -209 -45 -24 -64
-28 -137 -28 -73 0 -92 4 -137 28 -29 15 -69 43 -89 63 -35 36 -87 131 -79
144 3 4 35 10 73 13 91 9 226 49 310 92 37 19 71 34 76 35 6 0 45 -23 87 -51z
m1119 -374 l0 -195 80 0 80 0 0 196 0 197 33 -7 c110 -22 249 -129 306 -235
58 -110 61 -136 61 -563 l0 -388 -243 0 -243 0 -12 59 c-28 135 -140 291 -263
367 l-58 36 55 53 c78 77 115 160 121 273 6 103 -14 210 -53 290 -14 29 -24
56 -21 58 10 11 122 54 140 54 16 0 17 -16 17 -195z m-1779 133 c7 -17 39 -59
71 -93 l57 -62 -70 -48 c-73 -50 -131 -109 -176 -181 -16 -24 -31 -44 -34 -44
-12 0 -21 111 -14 163 4 29 16 77 28 107 20 55 103 190 117 190 4 0 13 -14 21
-32z m1429 -50 c63 -32 98 -103 107 -215 8 -115 -7 -164 -71 -228 -102 -101
-230 -101 -332 0 -64 64 -79 113 -71 228 9 112 44 183 107 215 36 18 61 22
130 22 69 0 94 -4 130 -22z m-840 -217 c19 -5 54 -15 78 -21 23 -6 42 -16 42
-23 0 -6 -23 -67 -51 -134 l-52 -123 -186 0 -186 0 -39 108 c-21 59 -41 112
-43 119 -6 14 78 58 150 78 56 16 222 14 287 -4z m306 -109 c6 -4 14 -23 18
-42 12 -64 55 -141 110 -195 l55 -53 -58 -36 c-123 -76 -235 -232 -263 -367
l-12 -59 -403 0 -403 0 0 228 c0 246 7 298 56 393 14 28 27 49 28 47 2 -1 22
-55 45 -118 23 -64 51 -123 62 -132 19 -16 49 -18 288 -18 211 0 271 3 286 14
11 8 51 87 89 180 39 91 75 166 80 166 6 0 16 -4 22 -8z m516 -418 c72 -37
126 -73 158 -105 46 -46 102 -143 116 -201 l6 -28 -392 0 -392 0 6 28 c14 59
70 155 118 202 32 31 88 69 156 104 59 31 108 55 110 56 2 0 53 -25 114 -56z
m1773 -574 l80 -80 -2125 0 -2125 0 80 80 80 80 1965 0 1965 0 80 -80z"/>
</g>
</svg>
