<?xml version="1.0" standalone="no"?>
<!DOCTYPE svg PUBLIC "-//W3C//DTD SVG 20010904//EN"
 "http://www.w3.org/TR/2001/REC-SVG-20010904/DTD/svg10.dtd">
<svg version="1.0" xmlns="http://www.w3.org/2000/svg"
 width="512.000000pt" height="512.000000pt" viewBox="0 0 512.000000 512.000000"
 preserveAspectRatio="xMidYMid meet">

<g transform="translate(0.000000,512.000000) scale(0.100000,-0.100000)"
fill="#FFA500" stroke="none">
<path d="M585 4935 l-25 -24 0 -2111 0 -2111 25 -24 c20 -21 34 -25 84 -25 48
0 61 -3 65 -17 2 -10 19 -108 37 -218 28 -168 36 -203 56 -222 21 -22 28 -23
213 -23 185 0 192 1 213 23 20 19 28 54 56 222 18 110 35 208 37 218 5 16 71
17 1214 17 1143 0 1209 -1 1214 -17 2 -10 19 -108 37 -218 28 -168 36 -203 56
-222 21 -22 28 -23 213 -23 185 0 192 1 213 23 20 19 28 54 56 222 18 110 35
208 37 218 4 14 17 17 65 17 50 0 64 4 84 25 l25 24 0 2111 0 2111 -25 24 -24
25 -1951 0 -1951 0 -24 -25z m3815 -2135 l0 -2000 -1840 0 -1840 0 0 2000 0
2000 1840 0 1840 0 0 -2000z m-3220 -2176 c0 -17 -36 -240 -45 -281 -5 -22
-10 -23 -95 -23 -85 0 -90 1 -95 23 -9 41 -45 264 -45 281 0 14 17 16 140 16
123 0 140 -2 140 -16z m3040 0 c0 -17 -36 -240 -45 -281 -5 -22 -10 -23 -95
-23 -85 0 -90 1 -95 23 -9 41 -45 264 -45 281 0 14 17 16 140 16 123 0 140 -2
140 -16z"/>
<path d="M905 4615 l-25 -24 0 -511 0 -511 25 -24 24 -25 1631 0 1631 0 24 25
25 24 0 511 0 511 -25 24 -24 25 -1631 0 -1631 0 -24 -25z m3175 -535 l0 -400
-1520 0 -1520 0 0 400 0 400 1520 0 1520 0 0 -400z"/>
<path d="M2160 4240 l0 -80 400 0 400 0 0 80 0 80 -400 0 -400 0 0 -80z"/>
<path d="M905 3335 l-25 -24 0 -511 0 -511 25 -24 24 -25 1631 0 1631 0 24 25
25 24 0 511 0 511 -25 24 -24 25 -1631 0 -1631 0 -24 -25z m3175 -535 l0 -400
-1520 0 -1520 0 0 400 0 400 1520 0 1520 0 0 -400z"/>
<path d="M2160 2960 l0 -80 400 0 400 0 0 80 0 80 -400 0 -400 0 0 -80z"/>
<path d="M905 2055 l-25 -24 0 -511 0 -511 25 -24 24 -25 1631 0 1631 0 24 25
25 24 0 511 0 511 -25 24 -24 25 -1631 0 -1631 0 -24 -25z m3175 -535 l0 -400
-1520 0 -1520 0 0 400 0 400 1520 0 1520 0 0 -400z"/>
<path d="M2160 1680 l0 -80 400 0 400 0 0 80 0 80 -400 0 -400 0 0 -80z"/>
</g>
</svg>
