<?xml version="1.0" encoding="UTF-8"?>
<!--Generator: Apple Native CoreSVG 175.5-->
<!DOCTYPE svg
PUBLIC "-//W3C//DTD SVG 1.1//EN"
       "http://www.w3.org/Graphics/SVG/1.1/DTD/svg11.dtd">
<svg version="1.1" xmlns="http://www.w3.org/2000/svg" xmlns:xlink="http://www.w3.org/1999/xlink" width="109.204" height="114.307">
 <g>
  <rect height="114.307" opacity="0" width="109.204" x="0" y="0"/>
  <path d="M33.667 21.1182C33.667 30.6396 39.8926 38.6475 48.5352 41.2598L48.5352 71.7529C48.5352 83.0811 52.2705 91.8701 54.6631 91.8701C57.0801 91.8701 60.7666 83.1299 60.7666 71.7529L60.7666 41.2598C69.4336 38.6963 75.708 30.6396 75.708 21.1182C75.708 9.49707 66.3574 0 54.6631 0C43.0176 0 33.667 9.49707 33.667 21.1182ZM48.7549 22.3633C44.9463 22.3633 41.5771 19.0186 41.5771 15.1123C41.5771 11.2305 44.9463 7.93457 48.7549 7.93457C52.71 7.93457 55.957 11.2305 55.957 15.1123C55.957 19.0186 52.71 22.3633 48.7549 22.3633ZM54.6143 113.184C88.1592 113.184 109.204 102.319 109.204 88.3545C109.204 74.8291 89.5264 65.4785 69.5801 64.0137L69.5801 75.1221C82.6416 76.1475 96.0938 81.0547 96.0938 87.6953C96.0938 96.0938 78.7354 101.758 54.6143 101.758C30.4443 101.758 13.1348 96.1426 13.1348 87.6953C13.1348 81.0547 26.5625 76.1475 39.624 75.1221L39.624 64.0137C19.6777 65.4785 0 74.8291 0 88.3545C0 102.319 21.0693 113.184 54.6143 113.184Z" fill="#FFA500" fill-opacity="0.85"/>
 </g>
</svg>
