<?xml version="1.0" encoding="UTF-8"?>
<!--Generator: Apple Native CoreSVG 175.5-->
<!DOCTYPE svg
PUBLIC "-//W3C//DTD SVG 1.1//EN"
       "http://www.w3.org/Graphics/SVG/1.1/DTD/svg11.dtd">
<svg version="1.1" xmlns="http://www.w3.org/2000/svg" xmlns:xlink="http://www.w3.org/1999/xlink" width="104.199" height="100.781">
 <g>
  <rect height="100.781" opacity="0" width="104.199" x="0" y="0"/>
  <path d="M8.30078 99.3652C10.4736 99.3652 12.3047 98.584 14.7949 97.1924L36.8896 85.2295L61.1816 98.7549C63.623 100.122 66.1621 100.781 68.6768 100.781C71.167 100.781 73.6816 100.122 76.001 98.8037L98.3154 86.2549C102.441 83.9844 104.199 80.7861 104.199 76.3428L104.199 11.084C104.199 6.15234 100.952 2.97852 95.8984 2.97852C93.7256 2.97852 91.9189 3.88184 89.3799 5.27344L66.626 17.8955L42.3828 3.6377C40.0391 2.31934 37.5244 1.66016 34.9854 1.66016C32.6172 1.66016 30.249 2.27051 28.1738 3.4668L5.85938 15.9912C1.75781 18.3105 0 21.3135 0 25.7324L0 91.333C0 96.2891 3.24707 99.3652 8.30078 99.3652ZM30.5908 75L13.5254 84.3994C13.0859 84.6191 12.6953 84.7656 12.3779 84.7656C11.5967 84.7656 11.1816 84.1309 11.1816 83.2031L11.1816 29.1992C11.1816 27.4658 11.6943 26.6602 13.2568 25.7568L29.248 16.6016C29.7363 16.333 30.127 16.1133 30.5908 15.8447ZM42.1143 74.4141L42.1143 17.2607C42.6025 17.5293 43.1641 17.8467 43.6523 18.1152L62.085 28.9551L62.085 85.5469C61.499 85.2295 60.8887 84.9121 60.2783 84.5947ZM73.6084 86.0107L73.6084 27.4658L90.625 18.1396C90.9668 17.9443 91.3086 17.8467 91.6016 17.8467C92.4316 17.8467 93.0176 18.4814 93.0176 19.3115L93.0176 72.6562C93.0176 74.3896 92.4561 75.2441 90.9424 76.0986L75.8545 84.7412C75.1221 85.1807 74.3408 85.6201 73.6084 86.0107Z" fill="#FFA500" fill-opacity="0.85"/>
 </g>
</svg>
