<?xml version="1.0" standalone="no"?>
<!DOCTYPE svg PUBLIC "-//W3C//DTD SVG 20010904//EN"
 "http://www.w3.org/TR/2001/REC-SVG-20010904/DTD/svg10.dtd">
<svg version="1.0" xmlns="http://www.w3.org/2000/svg"
 width="512.000000pt" height="512.000000pt" viewBox="0 0 512.000000 512.000000"
 preserveAspectRatio="xMidYMid meet">

<g transform="translate(0.000000,512.000000) scale(0.100000,-0.100000)"
fill="#FFA500" stroke="none">
<path d="M2603 4865 c-88 -24 -155 -64 -225 -136 l-66 -67 -63 25 c-121 49
-266 41 -391 -23 -117 -59 -220 -196 -248 -329 -7 -36 -16 -54 -23 -51 -140
59 -276 38 -372 -59 -65 -65 -89 -125 -89 -225 0 -73 4 -92 26 -136 39 -75 70
-107 140 -145 l63 -34 418 -3 c389 -3 418 -4 412 -20 -3 -9 -54 -121 -112
-248 l-106 -231 -36 8 c-90 21 -214 3 -309 -45 l-48 -24 -32 63 c-39 75 -126
162 -200 199 -190 96 -400 65 -554 -82 -62 -59 -123 -165 -134 -231 l-6 -36
-92 0 c-86 0 -97 -2 -168 -37 -91 -45 -147 -103 -191 -196 -29 -61 -32 -76
-32 -163 0 -90 2 -99 37 -171 45 -91 103 -147 196 -191 l67 -32 703 -3 c626
-2 734 0 822 20 12 2 15 -7 13 -42 -5 -100 -17 -116 -317 -417 l-280 -283
-319 0 c-222 0 -332 -4 -361 -12 -55 -16 -138 -99 -154 -154 -28 -94 -8 -169
63 -239 58 -58 102 -75 197 -75 l64 0 37 -167 c48 -218 82 -290 180 -388 49
-49 93 -82 138 -103 134 -64 83 -62 1310 -62 1079 0 1118 1 1193 20 107 27
169 63 252 145 99 98 134 173 181 388 l37 167 64 0 c95 0 139 17 197 75 98 97
101 222 8 325 -70 78 -82 80 -470 80 -314 0 -334 1 -329 18 2 9 12 75 22 145
l17 128 171 102 c94 56 189 120 212 143 93 93 124 185 124 375 l0 127 168 3
168 4 76 37 c91 45 147 103 191 196 29 61 32 76 32 163 0 90 -2 99 -37 171
-45 91 -103 147 -196 191 -62 29 -75 32 -171 32 l-103 0 -18 35 c-35 69 -98
128 -178 167 -72 36 -81 38 -172 38 -90 0 -101 -2 -168 -36 l-72 -35 -72 35
c-67 34 -78 36 -167 36 -87 0 -102 -3 -163 -32 -37 -17 -87 -50 -112 -73 -58
-54 -113 -161 -122 -239 l-6 -58 -51 -23 c-63 -29 -125 -90 -157 -155 -20 -41
-25 -65 -24 -135 0 -72 4 -93 26 -136 39 -75 70 -107 140 -145 l63 -34 313 -3
c246 -3 312 -6 312 -16 0 -23 -57 -92 -94 -115 -19 -12 -93 -42 -164 -65
l-130 -44 -363 249 c-200 138 -376 264 -391 281 -43 50 -69 115 -71 177 -1 37
20 159 62 354 l64 297 422 0 c346 0 431 3 480 15 256 67 415 329 350 578 -67
258 -329 417 -578 352 -32 -8 -79 -26 -105 -39 l-48 -24 -32 63 c-99 190 -335
295 -539 240z m267 -186 c97 -52 155 -139 167 -251 7 -73 34 -108 83 -108 24
0 43 12 81 50 28 28 74 62 102 77 44 23 64 27 137 27 78 1 90 -2 148 -33 70
-38 100 -70 140 -145 22 -43 26 -64 26 -136 0 -72 -4 -93 -26 -136 -39 -75
-70 -107 -140 -145 l-63 -34 -1072 0 c-1067 0 -1072 0 -1099 21 -53 39 -69 71
-69 134 0 97 58 155 154 155 52 0 63 -4 106 -37 42 -33 55 -38 101 -38 63 0
101 15 111 44 4 12 7 62 8 111 1 73 5 99 25 140 89 182 308 237 479 120 82
-57 119 -48 161 36 35 69 84 121 143 150 66 34 87 39 164 35 57 -4 85 -11 133
-37z m-385 -1021 c-26 -114 -114 -533 -119 -569 -17 -113 42 -275 131 -360 49
-48 779 -554 821 -570 30 -12 336 87 402 129 86 55 143 125 176 220 l19 52 82
0 83 0 0 -122 c0 -221 -13 -239 -280 -400 -107 -65 -203 -127 -212 -139 -11
-13 -18 -38 -18 -65 0 -38 -18 -178 -35 -281 l-6 -33 -198 0 -198 0 -5 108
c-9 172 -62 304 -182 453 l-49 60 -44 -43 c-69 -67 -70 -70 -19 -132 86 -106
136 -243 136 -373 l0 -73 -667 0 -667 0 226 228 c190 192 230 237 256 292 40
84 56 176 44 255 l-10 60 43 46 c174 186 163 484 -25 663 l-57 54 122 265 c67
145 125 272 128 281 5 12 20 16 67 16 57 0 60 -1 55 -22z m1125 -239 c25 -11
60 -34 78 -52 48 -47 94 -44 155 9 95 84 217 85 311 3 43 -38 67 -81 86 -157
9 -36 17 -46 46 -58 31 -13 38 -12 94 11 105 44 186 29 265 -50 71 -70 91
-145 63 -239 -17 -58 -99 -138 -158 -154 -34 -10 -209 -12 -727 -10 -670 3
-682 3 -709 24 -53 39 -69 71 -69 134 0 92 50 146 150 159 83 11 99 33 90 122
-9 93 7 142 70 204 75 76 165 95 255 54z m-2352 -173 c27 -14 63 -36 79 -50
46 -39 92 -134 100 -207 7 -74 34 -109 83 -109 23 0 43 12 83 51 82 80 135
103 237 103 78 1 90 -2 148 -33 70 -38 100 -70 140 -145 22 -43 26 -64 26
-136 0 -72 -4 -93 -26 -136 -39 -75 -70 -107 -140 -145 l-63 -34 -695 -3
c-530 -2 -706 0 -740 9 -59 17 -141 97 -158 155 -28 94 -8 169 63 239 79 79
160 94 265 50 104 -44 135 -20 143 110 10 156 98 269 242 306 54 15 159 2 213
-25z m3117 -1911 c33 -32 33 -78 0 -110 l-24 -25 -1791 0 -1791 0 -24 25 c-16
15 -25 36 -25 55 0 19 9 40 25 55 l24 25 1791 0 1791 0 24 -25z m-320 -317
c-3 -13 -17 -75 -31 -138 -40 -181 -80 -254 -173 -321 -30 -22 -84 -48 -119
-59 -62 -19 -96 -20 -1172 -20 -1076 0 -1110 1 -1172 20 -35 11 -89 37 -119
59 -93 67 -133 140 -173 321 -14 63 -28 125 -31 138 l-5 22 1500 0 1500 0 -5
-22z"/>
<path d="M2560 2319 c-44 -51 -50 -63 -39 -73 8 -7 44 -38 80 -69 l66 -57 53
61 c44 51 50 63 39 73 -8 7 -44 38 -80 69 l-66 57 -53 -61z"/>
</g>
</svg>
