<?xml version="1.0" standalone="no"?>
<!DOCTYPE svg PUBLIC "-//W3C//DTD SVG 20010904//EN"
 "http://www.w3.org/TR/2001/REC-SVG-20010904/DTD/svg10.dtd">
<svg version="1.0" xmlns="http://www.w3.org/2000/svg"
 width="512.000000pt" height="512.000000pt" viewBox="0 0 512.000000 512.000000"
 preserveAspectRatio="xMidYMid meet">

<g transform="translate(0.000000,512.000000) scale(0.100000,-0.100000)"
fill="#FFA500" stroke="none">
<path d="M2383 4817 c-116 -116 -143 -148 -143 -171 0 -18 33 -83 89 -177 l90
-148 -279 -3 c-263 -3 -280 -4 -306 -24 -55 -41 -69 -70 -72 -153 -2 -45 1
-87 7 -99 6 -11 49 -38 95 -61 145 -70 245 -192 281 -342 8 -36 15 -111 15
-171 l0 -108 -398 0 c-382 0 -399 -1 -419 -20 -59 -54 -39 -97 83 -180 53 -36
102 -76 109 -90 7 -14 15 -52 19 -85 9 -80 37 -135 98 -190 73 -65 115 -75
330 -75 l178 0 0 -160 0 -160 -575 0 -576 0 -24 -25 c-26 -25 -32 -63 -16 -94
6 -10 52 -45 103 -79 51 -34 99 -71 106 -83 8 -12 18 -51 23 -87 12 -83 37
-137 85 -186 80 -80 86 -81 466 -84 l338 -3 5 -22 c17 -78 35 -211 35 -263 0
-87 -22 -139 -95 -229 -77 -95 -109 -152 -130 -230 -28 -108 -16 -226 33 -322
12 -23 22 -45 22 -48 0 -3 -394 -5 -875 -5 l-876 0 -24 -25 c-25 -24 -25 -26
-25 -215 0 -189 0 -191 25 -215 l24 -25 2351 0 2351 0 24 25 c25 24 25 26 25
215 0 189 0 191 -25 215 l-24 25 -876 0 c-481 0 -875 2 -875 5 0 3 10 25 22
48 49 96 61 214 33 322 -21 78 -53 135 -130 230 -73 90 -95 142 -95 229 0 52
18 185 35 263 l5 22 338 3 c319 3 340 4 383 24 94 44 151 128 168 246 5 36 15
75 23 87 7 12 55 49 106 83 51 34 97 69 103 79 16 31 10 69 -16 94 l-24 25
-576 0 -575 0 0 160 0 160 178 0 c215 0 257 10 330 75 59 53 89 113 98 192 4
32 12 69 19 83 7 14 56 54 109 90 122 82 142 126 83 180 -20 19 -37 20 -419
20 l-398 0 0 108 c0 60 7 135 15 171 36 150 136 272 281 342 46 23 89 50 95
61 6 12 9 54 7 99 -3 83 -17 112 -72 153 -26 20 -43 21 -306 24 l-279 3 90
148 c56 94 89 159 89 177 0 23 -27 55 -143 171 -128 128 -146 143 -177 143
-31 0 -49 -15 -177 -143z m249 -124 l67 -68 -67 -112 c-37 -62 -69 -112 -72
-112 -3 0 -35 50 -72 112 l-67 112 67 68 c37 37 69 67 72 67 3 0 35 -30 72
-67z m568 -545 c0 -7 -28 -28 -63 -47 -81 -45 -204 -168 -249 -251 -61 -110
-80 -186 -86 -347 l-5 -143 -237 0 -237 0 -5 143 c-6 160 -25 236 -85 347 -46
83 -178 215 -255 255 -32 17 -58 36 -58 43 0 9 135 12 640 12 505 0 640 -3
640 -12z m266 -967 c-25 -28 -56 -115 -56 -159 0 -51 -30 -103 -71 -124 -31
-17 -89 -18 -779 -18 -690 0 -748 1 -779 18 -41 21 -71 73 -71 124 0 44 -31
131 -56 159 -17 19 2 19 906 19 904 0 923 0 906 -19z m-666 -621 l0 -160 -240
0 -240 0 0 160 0 160 240 0 240 0 0 -160z m1005 -358 c-14 -21 -30 -65 -36
-98 -17 -97 -32 -136 -62 -158 -28 -21 -30 -21 -1133 -24 -1217 -3 -1154 -6
-1194 60 -11 18 -20 49 -20 69 0 48 -23 121 -49 158 l-22 31 1270 0 1271 0
-25 -38z m-945 -458 c0 -9 -7 -59 -16 -111 -10 -60 -15 -129 -12 -187 5 -114
36 -188 124 -297 95 -116 109 -148 109 -249 0 -100 -20 -153 -82 -218 l-40
-42 -383 0 -383 0 -40 42 c-62 65 -82 118 -82 218 0 101 14 133 109 249 88
109 119 183 124 297 3 58 -2 127 -12 187 -9 52 -16 102 -16 111 0 14 30 16
300 16 270 0 300 -2 300 -16z m1940 -1344 l0 -80 -2240 0 -2240 0 0 80 0 80
2240 0 2240 0 0 -80z"/>
<path d="M1721 4624 c-169 -45 -301 -180 -346 -351 -8 -31 -15 -70 -15 -85 l0
-28 79 0 79 0 7 47 c15 103 85 197 180 242 42 21 70 25 173 29 l122 4 0 79 0
79 -112 -1 c-65 0 -136 -6 -167 -15z"/>
<path d="M3120 4561 l0 -79 123 -4 c107 -4 128 -8 173 -31 28 -14 65 -37 81
-51 39 -33 90 -129 98 -188 l7 -48 79 0 79 0 0 28 c0 91 -59 221 -137 303
-100 105 -217 149 -395 149 l-108 0 0 -79z"/>
<path d="M1360 3920 l0 -80 80 0 80 0 0 80 0 80 -80 0 -80 0 0 -80z"/>
<path d="M3600 3920 l0 -80 80 0 80 0 0 80 0 80 -80 0 -80 0 0 -80z"/>
<path d="M1285 3591 c-90 -22 -173 -90 -215 -176 -24 -48 -25 -59 -30 -322 -5
-254 -6 -273 -26 -299 -37 -50 -67 -65 -148 -75 -133 -17 -223 -77 -276 -184
l-25 -50 -3 -602 -3 -603 80 0 81 0 2 589 c3 578 3 590 24 617 37 50 67 65
150 75 55 7 96 19 137 41 65 35 96 67 135 142 27 51 27 52 32 323 6 299 5 296
74 347 26 20 43 21 297 24 l269 3 0 79 0 80 -262 -1 c-145 -1 -276 -4 -293 -8z"/>
<path d="M3280 3521 l0 -80 269 -3 c254 -3 271 -4 297 -24 69 -51 68 -48 74
-347 5 -271 5 -272 32 -323 39 -75 70 -107 135 -142 41 -22 82 -34 137 -41 83
-10 113 -25 150 -75 21 -27 21 -39 24 -617 l2 -589 81 0 80 0 -3 603 -3 602
-34 63 c-56 103 -136 155 -266 171 -82 10 -112 25 -149 75 -20 26 -21 45 -26
299 -5 271 -5 272 -32 323 -40 76 -70 107 -140 145 l-63 34 -282 3 -283 3 0
-80z"/>
<path d="M960 1600 l0 -320 80 0 80 0 0 320 0 320 -80 0 -80 0 0 -320z"/>
<path d="M4000 1600 l0 -320 80 0 80 0 0 320 0 320 -80 0 -80 0 0 -320z"/>
<path d="M560 1000 l0 -120 80 0 80 0 0 120 0 120 -80 0 -80 0 0 -120z"/>
<path d="M960 1000 l0 -120 80 0 80 0 0 120 0 120 -80 0 -80 0 0 -120z"/>
<path d="M4000 1000 l0 -120 80 0 80 0 0 120 0 120 -80 0 -80 0 0 -120z"/>
<path d="M4400 1000 l0 -120 80 0 80 0 0 120 0 120 -80 0 -80 0 0 -120z"/>
</g>
</svg>
