<?xml version="1.0" standalone="no"?>
<!DOCTYPE svg PUBLIC "-//W3C//DTD SVG 20010904//EN"
 "http://www.w3.org/TR/2001/REC-SVG-20010904/DTD/svg10.dtd">
<svg version="1.0" xmlns="http://www.w3.org/2000/svg"
 width="512.000000pt" height="512.000000pt" viewBox="0 0 512.000000 512.000000"
 preserveAspectRatio="xMidYMid meet">

<g transform="translate(0.000000,512.000000) scale(0.100000,-0.100000)"
fill="#FFA500" stroke="none">
<path d="M2480 4831 l0 -129 -30 -12 c-42 -17 -104 -90 -118 -138 -7 -22 -12
-64 -12 -93 l0 -55 -112 -12 c-140 -15 -236 -41 -356 -97 -239 -113 -418 -287
-536 -522 -92 -185 -116 -318 -116 -658 0 -137 -9 -544 -21 -905 -23 -709 -21
-824 12 -975 116 -536 531 -942 1076 -1052 136 -27 472 -25 610 5 402 87 736
339 924 697 95 179 145 359 155 555 3 63 -4 410 -15 770 -12 361 -21 766 -21
900 0 163 -5 277 -15 340 -35 235 -144 449 -315 620 -98 98 -191 163 -322 225
-119 56 -215 82 -355 97 l-113 12 0 55 c0 29 -5 71 -12 93 -14 48 -76 121
-118 138 l-30 12 0 129 0 129 -80 0 -80 0 0 -129z m135 -296 c21 -20 25 -34
25 -80 l0 -55 -80 0 -80 0 0 55 c0 67 29 105 80 105 19 0 40 -9 55 -25z m416
-322 c180 -50 318 -130 445 -257 127 -127 206 -263 257 -445 21 -74 22 -93 25
-827 3 -841 2 -867 -64 -1064 -52 -158 -39 -149 -178 -117 -231 55 -279 50
-587 -54 -342 -115 -396 -115 -738 0 -306 104 -359 109 -582 55 -60 -14 -115
-24 -122 -21 -17 7 -71 149 -100 262 -22 90 -22 94 -22 885 0 879 -3 837 66
1009 47 117 114 217 213 317 157 156 315 235 556 278 14 2 189 3 390 2 337 -2
371 -4 441 -23z m-1554 -3032 c196 -261 502 -452 831 -518 120 -24 384 -24
504 0 399 80 732 322 937 682 35 62 50 81 47 60 -3 -16 -10 -61 -16 -98 -56
-355 -309 -693 -645 -860 -177 -88 -353 -127 -575 -127 -366 0 -672 126 -906
372 -166 175 -280 397 -314 615 -6 37 -13 82 -16 98 -3 21 12 2 47 -60 28 -49
76 -123 106 -164z m636 125 c279 -95 302 -100 447 -100 144 0 168 5 445 99
232 79 277 85 416 55 57 -12 110 -25 117 -29 28 -16 -127 -188 -257 -287 -143
-107 -300 -179 -483 -221 -102 -23 -374 -23 -477 0 -230 53 -423 155 -592 314
-72 68 -164 182 -154 191 3 3 49 16 103 29 147 35 201 28 435 -51z"/>
<path d="M2405 4070 c-401 -63 -750 -338 -854 -673 -11 -37 -23 -97 -27 -132
l-7 -65 79 0 79 0 13 77 c8 53 26 106 58 173 41 83 59 107 148 195 112 111
203 169 339 217 270 96 561 70 813 -73 55 -31 109 -74 180 -144 85 -84 107
-114 142 -185 43 -87 72 -182 72 -232 l0 -28 81 0 82 0 -7 65 c-36 356 -363
681 -789 786 -95 23 -309 33 -402 19z"/>
<path d="M1878 2982 c-100 -17 -163 -33 -174 -43 -8 -9 -20 -34 -24 -55 -14
-58 -11 -250 4 -322 13 -62 12 -67 -16 -147 -42 -124 -59 -252 -65 -522 l-6
-241 26 -26 c26 -26 27 -26 194 -26 137 0 206 6 373 31 347 52 550 51 837 -6
101 -20 155 -25 284 -25 156 0 160 1 184 25 24 23 25 30 25 137 0 195 -39 389
-107 539 l-34 75 32 95 c35 104 48 246 34 374 -11 103 -16 106 -225 140 -190
30 -308 30 -420 1 -159 -42 -303 -44 -455 -6 -135 34 -282 35 -467 2z m429
-158 c47 -11 69 -22 66 -30 -3 -9 47 -125 62 -142 1 -1 80 36 176 82 239 117
325 133 529 101 168 -27 150 -14 150 -111 0 -114 -22 -205 -76 -310 -24 -48
-44 -88 -44 -89 0 -1 18 -15 41 -31 22 -15 49 -44 59 -63 44 -89 90 -298 90
-418 l0 -53 -98 0 c-63 0 -138 8 -217 24 -280 57 -516 59 -865 7 -131 -20
-244 -31 -312 -31 l-108 0 0 113 c0 114 15 315 28 376 l7 34 28 -42 c31 -47
34 -47 107 18 39 34 43 42 33 58 -92 136 -133 260 -133 399 l0 93 33 6 c17 3
66 12 107 20 94 18 242 13 337 -11z"/>
<path d="M2825 2564 c-130 -205 -346 -374 -585 -455 -52 -18 -99 -35 -103 -39
-5 -5 1 -40 14 -79 27 -82 14 -81 178 -20 162 60 300 146 433 268 63 58 180
204 227 283 l22 37 -23 14 c-13 8 -44 26 -69 40 l-46 26 -48 -75z"/>
</g>
</svg>
