<?xml version="1.0" standalone="no"?>
<!DOCTYPE svg PUBLIC "-//W3C//DTD SVG 20010904//EN"
 "http://www.w3.org/TR/2001/REC-SVG-20010904/DTD/svg10.dtd">
<svg version="1.0" xmlns="http://www.w3.org/2000/svg"
 width="512.000000pt" height="512.000000pt" viewBox="0 0 512.000000 512.000000"
 preserveAspectRatio="xMidYMid meet">

<g transform="translate(0.000000,512.000000) scale(0.100000,-0.100000)"
fill="#FFA500" stroke="none">
<path d="M185 4695 l-25 -24 0 -271 0 -271 25 -24 c20 -21 34 -25 80 -25 l55
0 0 -1520 0 -1520 -55 0 c-46 0 -60 -4 -80 -25 l-25 -24 0 -271 0 -271 25 -24
24 -25 2351 0 2351 0 24 25 25 24 0 271 0 271 -25 24 c-20 21 -34 25 -80 25
l-55 0 0 1520 0 1520 55 0 c46 0 60 4 80 25 l25 24 0 271 0 271 -25 24 -24 25
-2351 0 -2351 0 -24 -25z m4615 -295 l0 -160 -2240 0 -2240 0 0 160 0 160
2240 0 2240 0 0 -160z m-160 -1440 l0 -1120 -370 0 -370 0 -240 -120 -240
-120 -200 0 -200 0 -83 -41 c-45 -23 -84 -43 -86 -45 -5 -4 60 -144 66 -144 2
0 35 16 73 35 l70 35 200 0 200 0 240 120 240 120 350 0 350 0 0 -320 0 -320
-434 0 -434 0 -584 156 -583 156 -167 166 -167 165 -176 -6 c-96 -3 -175 -2
-175 1 0 4 65 84 145 177 175 206 200 250 199 355 -1 65 -7 91 -47 193 -47
117 -55 164 -38 209 5 13 39 59 76 103 108 128 141 225 115 334 -12 51 -236
437 -283 490 -51 56 -165 78 -230 45 -18 -10 -65 -44 -105 -77 l-73 -61 -59
66 c-65 72 -114 98 -183 98 -81 0 -119 -30 -293 -232 -185 -215 -207 -254
-207 -363 0 -81 11 -111 85 -233 47 -77 53 -93 53 -142 0 -50 -6 -65 -66 -165
-37 -60 -72 -128 -78 -150 -24 -87 -8 -182 43 -263 15 -24 25 -46 23 -48 -2
-3 -120 41 -261 97 l-256 103 0 933 0 933 2080 0 2080 0 0 -1120z m-3030 319
c80 -94 151 -182 159 -197 28 -52 18 -104 -34 -194 -76 -129 -86 -153 -92
-217 -8 -85 8 -137 85 -264 61 -102 67 -117 67 -167 0 -53 -5 -64 -135 -279
l-135 -225 -3 652 -2 652 -80 0 -80 0 -2 -652 -3 -652 -135 225 c-130 215
-135 226 -135 279 0 48 6 65 51 140 83 136 97 169 101 240 6 80 -6 117 -82
251 -63 109 -73 157 -44 211 8 15 79 103 159 197 116 136 150 170 170 170 20
0 54 -34 170 -170z m362 144 c29 -34 230 -374 240 -407 18 -58 3 -95 -80 -198
-97 -118 -114 -154 -120 -243 -5 -74 -5 -71 74 -286 41 -111 39 -114 -177
-370 -191 -226 -236 -276 -243 -268 -2 2 56 104 129 226 143 238 165 286 165
363 0 69 -21 125 -93 243 -56 92 -62 107 -62 157 0 49 6 65 53 142 74 121 85
152 85 233 0 88 -23 143 -98 235 -30 37 -55 70 -55 73 0 13 132 117 149 117
10 0 25 -8 33 -17z m-1152 -1516 l325 -132 70 -114 c88 -144 123 -174 209
-179 46 -3 72 0 96 13 28 14 39 15 76 5 24 -7 61 -9 86 -6 24 4 150 11 282 17
l238 11 157 -155 c132 -132 163 -157 201 -167 25 -7 167 -45 315 -86 l270 -73
-1332 0 -1333 -1 0 500 c0 275 3 500 8 499 4 0 153 -60 332 -132z m3980 -1187
l0 -160 -2240 0 -2240 0 0 160 0 160 2240 0 2240 0 0 -160z"/>
<path d="M3360 3987 c-49 -16 -133 -102 -148 -153 -28 -94 -8 -169 63 -239 51
-52 102 -75 165 -75 63 0 114 23 165 75 98 97 101 222 8 325 -65 72 -158 97
-253 67z m135 -172 c16 -15 25 -36 25 -55 0 -19 -9 -40 -25 -55 -15 -16 -36
-25 -55 -25 -19 0 -40 9 -55 25 -16 15 -25 36 -25 55 0 19 9 40 25 55 15 16
36 25 55 25 19 0 40 -9 55 -25z"/>
<path d="M2640 3747 c-49 -16 -133 -102 -148 -153 -28 -94 -8 -169 63 -239 51
-52 102 -75 165 -75 63 0 114 23 165 75 98 97 101 222 8 325 -65 72 -158 97
-253 67z m135 -172 c16 -15 25 -36 25 -55 0 -19 -9 -40 -25 -55 -15 -16 -36
-25 -55 -25 -19 0 -40 9 -55 25 -16 15 -25 36 -25 55 0 19 9 40 25 55 15 16
36 25 55 25 19 0 40 -9 55 -25z"/>
<path d="M3455 3339 c-22 -5 -128 -38 -235 -74 -107 -35 -220 -67 -250 -71
-217 -26 -392 -175 -466 -394 -26 -76 -26 -244 0 -320 45 -135 137 -255 241
-316 64 -37 158 -70 225 -78 30 -4 152 -39 270 -79 184 -61 225 -71 285 -71
87 0 145 24 214 89 73 68 94 124 99 265 4 107 6 117 30 143 14 15 28 27 32 27
3 0 14 -16 25 -36 29 -54 144 -155 219 -192 100 -49 150 -63 266 -69 97 -5
107 -4 133 17 49 39 40 70 -84 276 l-110 184 110 184 c124 205 133 237 85 275
-22 17 -41 21 -103 21 -104 0 -195 -21 -286 -67 -86 -42 -199 -139 -230 -197
-11 -20 -22 -36 -25 -36 -4 0 -18 12 -32 28 -24 25 -26 35 -30 142 -3 92 -9
125 -27 167 -27 61 -103 136 -164 163 -53 23 -140 32 -192 19z m135 -171 c49
-25 90 -84 90 -130 0 -16 -2 -28 -4 -28 -3 0 -27 14 -54 31 -27 16 -91 48
-143 69 -99 41 -99 40 -17 65 60 19 78 18 128 -7z m-542 -219 c55 -110 72
-181 72 -304 0 -123 -24 -218 -83 -327 -40 -74 -43 -76 -72 -71 -54 9 -153 61
-199 104 -29 26 -60 70 -84 117 -35 72 -37 81 -37 171 0 87 3 102 32 163 40
85 97 147 172 186 55 30 124 52 146 48 6 -1 29 -40 53 -87z m312 36 c104 -35
216 -98 305 -169 80 -64 165 -155 165 -176 0 -21 -85 -112 -165 -176 -121 -98
-289 -177 -427 -203 -27 -4 -48 -7 -48 -6 0 1 13 34 29 72 84 204 84 452 1
640 -11 25 -20 48 -20 50 0 10 91 -9 160 -32z m980 -41 c0 -3 -36 -66 -80
-139 -56 -93 -80 -143 -80 -165 0 -22 25 -73 81 -167 45 -74 79 -137 76 -140
-11 -10 -109 30 -167 68 -195 131 -203 330 -18 465 67 49 188 99 188 78z
m-660 -699 c0 -34 -34 -100 -62 -120 -45 -31 -94 -37 -159 -19 -33 9 -61 20
-64 24 -2 4 33 21 78 38 45 18 107 47 137 66 67 42 70 42 70 11z"/>
<path d="M2896 2778 c-22 -32 -20 -91 4 -119 l20 -24 20 24 c12 14 20 38 20
60 0 36 -22 81 -40 81 -5 0 -16 -10 -24 -22z"/>
<path d="M4160 1280 l0 -80 80 0 80 0 0 80 0 80 -80 0 -80 0 0 -80z"/>
<path d="M640 1600 l0 -80 80 0 80 0 0 80 0 80 -80 0 -80 0 0 -80z"/>
<path d="M1840 1280 l0 -80 80 0 80 0 0 80 0 80 -80 0 -80 0 0 -80z"/>
<path d="M960 1200 l0 -80 80 0 80 0 0 80 0 80 -80 0 -80 0 0 -80z"/>
</g>
</svg>
