<?xml version="1.0" standalone="no"?>
<!DOCTYPE svg PUBLIC "-//W3C//DTD SVG 20010904//EN"
 "http://www.w3.org/TR/2001/REC-SVG-20010904/DTD/svg10.dtd">
<svg version="1.0" xmlns="http://www.w3.org/2000/svg"
 width="512.000000pt" height="512.000000pt" viewBox="0 0 512.000000 512.000000"
 preserveAspectRatio="xMidYMid meet">

<g transform="translate(0.000000,512.000000) scale(0.100000,-0.100000)"
fill="#FFA500" stroke="none">
<path d="M1359 4070 c-646 -490 -1180 -898 -1186 -907 -10 -13 -13 -326 -13
-1485 l0 -1469 25 -24 24 -25 2351 0 2351 0 24 25 25 24 0 1469 c0 1385 -1
1471 -18 1490 -9 11 -543 419 -1186 906 -887 673 -1175 886 -1196 886 -20 0
-309 -214 -1201 -890z m2242 -80 l1035 -785 -304 -3 -304 -2 -716 557 c-635
494 -721 558 -752 558 -31 0 -117 -64 -752 -558 l-716 -557 -304 2 -303 3
1035 787 c569 432 1038 785 1041 785 3 -1 471 -355 1040 -787z m-356 -383
l670 -523 3 -942 2 -942 -160 0 -160 0 0 -80 0 -80 183 0 182 0 360 -360 360
-360 -2125 0 -2125 0 360 360 360 360 182 0 183 0 0 80 0 80 -160 0 -160 0 2
942 3 942 670 523 c369 287 677 522 685 522 8 0 317 -235 685 -522z m-2205
-1510 l0 -942 -360 -360 -360 -360 0 1303 0 1302 360 0 360 0 0 -943z m3760
-359 l0 -1303 -360 360 -360 360 0 942 0 943 360 0 360 0 0 -1302z"/>
<path d="M2485 3615 c-41 -19 -49 -26 -149 -142 -48 -57 -93 -103 -100 -103
-6 0 -41 30 -76 66 -97 99 -165 123 -248 89 -103 -44 -132 -121 -113 -297 13
-119 49 -233 98 -317 51 -86 160 -202 239 -252 35 -23 64 -44 64 -46 0 -2 -30
-18 -66 -35 -62 -29 -70 -30 -162 -26 -107 5 -172 27 -218 73 l-26 26 -64 -42
c-35 -23 -64 -44 -64 -48 0 -15 88 -91 133 -115 26 -13 73 -30 105 -37 31 -7
58 -13 60 -15 2 -1 -17 -30 -43 -65 -98 -133 -148 -277 -165 -474 -6 -66 -29
-295 -52 -510 -22 -214 -40 -417 -40 -450 3 -143 101 -298 231 -364 96 -50
117 -51 723 -51 379 0 585 4 620 11 210 44 364 247 345 453 -3 33 -22 214 -41
401 -20 187 -43 412 -52 500 -11 121 -22 182 -45 250 -24 72 -64 158 -85 184
-4 4 -122 -67 -129 -78 -3 -5 6 -28 19 -52 44 -80 66 -166 81 -317 13 -133 80
-781 92 -893 9 -78 -20 -153 -81 -215 -88 -87 -68 -85 -742 -82 -575 3 -579 3
-620 25 -97 52 -153 134 -155 228 -1 28 17 226 40 440 22 215 45 443 51 507
16 185 67 317 172 442 73 87 119 116 215 137 48 11 131 34 183 51 52 18 98 33
102 33 3 0 29 -26 57 -58 77 -88 157 -154 234 -192 38 -19 75 -35 82 -35 11 0
45 107 45 139 0 6 -24 22 -53 37 -66 32 -156 108 -117 99 61 -15 189 -87 247
-139 33 -31 65 -56 70 -56 4 1 33 23 63 50 l55 49 -30 32 c-43 46 -146 122
-208 154 l-54 28 73 49 c80 53 159 134 212 217 34 53 82 153 82 170 0 5 -33
20 -72 33 l-73 25 -39 -81 c-48 -100 -158 -214 -254 -265 -35 -18 -66 -31 -68
-28 -3 3 4 23 14 44 25 48 49 131 57 201 l7 52 -80 0 -80 0 -12 -67 c-15 -86
-50 -160 -105 -220 l-43 -48 -52 50 c-74 72 -113 157 -114 248 l-1 71 -70 17
c-38 10 -72 16 -76 14 -13 -9 -18 -113 -8 -175 6 -36 19 -84 29 -108 l19 -43
-31 18 c-49 28 -150 134 -186 194 -47 81 -73 162 -85 272 -9 87 -8 100 6 114
15 16 22 12 91 -55 79 -77 124 -102 180 -102 73 0 110 26 212 146 54 63 103
114 110 114 7 0 54 -47 104 -105 106 -122 137 -146 195 -152 69 -8 113 13 197
95 100 96 111 94 106 -23 -3 -96 -12 -86 96 -101 36 -5 50 -3 57 7 5 8 9 56 9
108 0 112 -20 164 -78 204 -91 62 -168 46 -281 -59 -43 -41 -83 -74 -88 -74
-4 0 -51 50 -103 112 -102 119 -143 148 -215 147 -22 0 -53 -6 -70 -14z"/>
<path d="M2480 2078 l0 -83 -43 -18 c-149 -61 -215 -234 -144 -380 48 -96 126
-145 247 -156 90 -8 125 -27 147 -79 13 -32 14 -42 2 -77 -46 -131 -258 -101
-285 40 l-6 35 -80 0 -81 0 6 -45 c14 -100 89 -199 184 -242 l53 -24 0 -85 0
-84 80 0 80 0 0 83 0 82 47 19 c144 59 209 236 140 379 -48 96 -126 145 -247
156 -90 8 -125 27 -147 79 -13 32 -14 42 -2 77 46 131 258 101 285 -40 l6 -35
80 0 81 0 -6 45 c-14 100 -89 199 -184 242 l-53 24 0 85 0 84 -80 0 -80 0 0
-82z"/>
</g>
</svg>
