<?xml version="1.0" standalone="no"?>
<!DOCTYPE svg PUBLIC "-//W3C//DTD SVG 20010904//EN"
 "http://www.w3.org/TR/2001/REC-SVG-20010904/DTD/svg10.dtd">
<svg version="1.0" xmlns="http://www.w3.org/2000/svg"
 width="512.000000pt" height="512.000000pt" viewBox="0 0 512.000000 512.000000"
 preserveAspectRatio="xMidYMid meet">

<g transform="translate(0.000000,512.000000) scale(0.100000,-0.100000)"
fill="#FFA500" stroke="none">
<path d="M947 5030 c-174 -27 -332 -144 -411 -305 -43 -86 -57 -148 -58 -247
-2 -262 175 -487 430 -548 67 -16 186 -16 254 0 192 44 358 203 414 395 23 80
23 221 0 300 -55 186 -205 338 -386 389 -73 20 -172 26 -243 16z m192 -111
c73 -17 152 -61 212 -119 256 -250 141 -674 -208 -765 -238 -62 -484 87 -548
330 -61 237 84 483 325 551 55 15 160 17 219 3z"/>
<path d="M2495 5034 c-128 -20 -239 -76 -331 -168 -119 -119 -173 -262 -161
-429 28 -403 454 -640 818 -457 116 59 226 187 271 317 33 97 33 259 0 355
-60 174 -212 318 -383 363 -59 16 -169 25 -214 19z m180 -119 c84 -22 147 -60
210 -126 318 -333 -4 -873 -447 -751 -169 47 -303 199 -327 372 -44 321 252
586 564 505z"/>
<path d="M4000 5030 c-274 -43 -471 -272 -473 -550 -1 -162 54 -294 169 -406
198 -192 504 -210 727 -43 268 200 295 599 58 838 -127 128 -307 188 -481 161z
m195 -114 c245 -65 392 -311 330 -551 -22 -82 -61 -151 -120 -210 -249 -249
-670 -133 -761 210 -63 235 84 483 326 551 60 17 163 17 225 0z"/>
<path d="M775 3869 c-191 -29 -362 -117 -496 -256 -107 -110 -168 -215 -216
-370 l-28 -88 0 -595 0 -595 22 -41 c63 -119 200 -165 320 -109 l53 24 5 -22
c3 -12 52 -371 110 -797 114 -836 114 -835 181 -886 80 -61 180 -65 262 -10
l47 31 47 -31 c81 -55 182 -51 262 10 68 51 68 51 181 877 57 420 107 778 110
796 l6 32 56 -26 c47 -22 65 -25 119 -20 39 3 77 13 100 26 20 12 38 21 39 19
2 -2 50 -354 109 -783 58 -429 111 -797 116 -818 20 -71 98 -136 181 -152 49
-9 116 10 162 46 l37 30 38 -30 c45 -36 112 -55 161 -46 83 16 161 82 180 152
6 21 58 389 117 818 58 429 107 781 109 783 1 2 19 -7 39 -19 25 -14 60 -23
104 -26 57 -4 74 -1 117 21 27 14 51 23 53 21 3 -2 53 -360 113 -796 117 -856
117 -853 185 -905 80 -61 181 -65 262 -10 l47 31 47 -31 c82 -55 182 -51 262
10 67 51 67 50 181 886 58 426 107 785 110 797 l5 22 53 -24 c120 -56 257 -10
320 109 l22 41 0 595 0 595 -28 88 c-50 161 -121 280 -234 388 -113 109 -233
178 -388 221 -73 20 -102 22 -350 22 -248 0 -277 -2 -350 -22 -138 -38 -298
-125 -369 -201 -17 -17 -34 -31 -39 -31 -5 0 -32 20 -60 43 -116 98 -216 150
-359 189 -77 21 -103 23 -348 23 -245 0 -271 -2 -348 -23 -143 -39 -243 -91
-359 -189 -28 -23 -55 -43 -60 -43 -5 0 -22 14 -39 31 -72 76 -233 164 -369
200 -69 19 -112 22 -315 25 -129 1 -262 -1 -295 -7z m633 -133 c94 -33 175
-78 262 -150 l60 -48 -20 -32 c-37 -54 -109 -209 -127 -271 -15 -53 -18 -132
-23 -650 l-6 -590 -117 -855 c-64 -470 -122 -868 -129 -884 -23 -57 -99 -82
-158 -51 -63 32 -60 -10 -60 931 0 784 -1 859 -17 876 -22 25 -59 23 -77 -4
-14 -20 -16 -121 -16 -885 l0 -863 -27 -30 c-54 -60 -157 -47 -188 23 -8 18
-66 415 -130 888 l-115 855 0 615 c0 474 -3 620 -13 639 -15 31 -52 37 -78 14
-18 -16 -19 -39 -19 -635 0 -413 -4 -627 -11 -646 -36 -95 -153 -118 -224 -43
l-30 31 -3 572 c-2 544 -2 574 18 651 59 239 232 436 460 526 111 44 160 49
440 47 263 -3 266 -3 348 -31z m1450 18 c229 -47 434 -212 532 -427 65 -143
63 -129 67 -737 3 -305 1 -569 -2 -587 -20 -110 -158 -144 -234 -58 l-31 36 0
622 c0 480 -3 628 -13 647 -15 31 -52 37 -78 14 -18 -16 -19 -39 -19 -628 l0
-611 -115 -850 c-63 -467 -117 -865 -121 -884 -3 -20 -20 -49 -39 -68 -47 -47
-100 -47 -153 1 l-37 34 -3 873 c-2 619 -6 876 -13 886 -6 7 -24 13 -39 13
-15 0 -33 -6 -39 -13 -7 -10 -11 -267 -13 -886 l-3 -873 -37 -34 c-53 -48
-106 -48 -153 -1 -19 19 -36 48 -39 68 -4 19 -58 413 -121 875 l-115 842 0
619 c0 598 -1 621 -19 637 -26 23 -63 17 -78 -14 -10 -19 -13 -166 -13 -643 0
-683 3 -653 -63 -692 -73 -43 -174 -6 -197 73 -8 26 -10 208 -8 597 4 500 6
566 22 620 66 222 204 389 401 485 141 69 196 78 468 79 172 1 247 -3 305 -15z
m1605 -21 c237 -84 399 -248 484 -488 l28 -80 0 -597 0 -597 -29 -30 c-72 -76
-189 -54 -225 42 -7 19 -11 233 -11 646 0 596 -1 619 -19 635 -26 23 -63 17
-78 -14 -10 -19 -13 -165 -13 -639 l0 -614 -115 -856 c-64 -472 -122 -870
-130 -888 -31 -70 -134 -83 -187 -23 l-28 30 0 863 c0 764 -2 865 -16 885 -18
26 -50 28 -76 5 -17 -15 -18 -56 -18 -875 0 -943 3 -901 -60 -933 -59 -31
-135 -6 -158 51 -7 16 -66 429 -132 918 l-120 888 0 533 c0 529 0 533 -24 627
-24 96 -78 216 -124 277 l-25 34 44 39 c69 60 146 109 222 141 123 51 167 56
457 54 l265 -2 88 -32z"/>
</g>
</svg>
