<?xml version="1.0" standalone="no"?>
<!DOCTYPE svg PUBLIC "-//W3C//DTD SVG 20010904//EN"
 "http://www.w3.org/TR/2001/REC-SVG-20010904/DTD/svg10.dtd">
<svg version="1.0" xmlns="http://www.w3.org/2000/svg"
 width="512.000000pt" height="512.000000pt" viewBox="0 0 512.000000 512.000000"
 preserveAspectRatio="xMidYMid meet">

<g transform="translate(0.000000,512.000000) scale(0.100000,-0.100000)"
fill="#FFA500" stroke="none">
<path d="M475 5088 c-11 -6 -22 -13 -25 -15 -3 -3 -7 -1108 -10 -2456 l-5
-2452 -203 -5 c-187 -5 -205 -7 -218 -24 -19 -27 -18 -59 5 -87 l19 -24 2522
0 2522 0 19 24 c23 28 24 60 5 87 -13 17 -31 19 -218 24 l-203 5 -3 1498 c-1
1108 1 1497 9 1497 6 0 42 -22 79 -50 79 -59 117 -65 149 -24 27 35 26 48 -6
83 -16 17 -264 201 -552 411 -354 257 -531 380 -548 380 -17 0 -142 -85 -377
-255 l-351 -255 -5 807 c-3 445 -6 809 -8 810 -1 1 -15 9 -32 18 -26 13 -179
15 -1287 15 -907 -1 -1264 -4 -1278 -12z m2465 -2528 l0 -2400 -370 0 -370 0
0 644 0 645 -26 20 c-26 20 -37 21 -421 21 l-394 0 -24 -25 -25 -24 0 -641 0
-640 -370 0 -370 0 0 2400 0 2400 1185 0 1185 0 0 -2400z m1245 976 l360 -263
3 -1556 2 -1557 -735 0 -735 0 0 1558 0 1557 362 263 c199 144 367 262 373
262 5 -1 172 -119 370 -264z m-2125 -2781 l0 -595 -305 0 -305 0 0 595 0 595
305 0 305 0 0 -595z"/>
<path d="M895 4615 l-25 -24 0 -1341 0 -1341 25 -24 24 -25 834 0 c829 0 834
0 861 21 l26 20 0 1348 0 1348 -23 21 -23 22 -838 0 -837 0 -24 -25z m1605
-235 l0 -120 -745 0 -745 0 0 120 0 120 745 0 745 0 0 -120z m0 -375 l0 -115
-745 0 -745 0 0 115 0 115 745 0 745 0 0 -115z m0 -375 l0 -120 -745 0 -745 0
0 120 0 120 745 0 745 0 0 -120z m0 -380 l0 -120 -745 0 -745 0 0 120 0 120
745 0 745 0 0 -120z m0 -380 l0 -120 -745 0 -745 0 0 120 0 120 745 0 745 0 0
-120z m0 -370 l0 -120 -745 0 -745 0 0 120 0 120 745 0 745 0 0 -120z m0 -380
l0 -120 -745 0 -745 0 0 120 0 120 745 0 745 0 0 -120z"/>
<path d="M3314 3109 c-18 -20 -19 -54 -19 -1171 l0 -1150 24 -19 c22 -18 45
-19 493 -19 l469 0 24 25 25 24 0 1144 0 1144 -23 21 c-23 22 -24 22 -499 22
-470 0 -475 0 -494 -21z m426 -274 l0 -155 -155 0 -155 0 0 155 0 155 155 0
155 0 0 -155z m450 0 l0 -155 -155 0 -155 0 0 155 0 155 155 0 155 0 0 -155z
m-450 -450 l0 -156 -152 3 -153 3 -3 153 -3 152 156 0 155 0 0 -155z m450 0
l0 -156 -152 3 -153 3 -3 153 -3 152 156 0 155 0 0 -155z m-450 -440 l0 -155
-155 0 -155 0 0 148 c0 82 3 152 7 155 3 4 73 7 155 7 l148 0 0 -155z m450 0
l0 -155 -155 0 -155 0 0 155 0 155 155 0 155 0 0 -155z m-450 -450 l0 -155
-155 0 -155 0 0 155 0 155 155 0 155 0 0 -155z m450 0 l0 -155 -155 0 -155 0
0 155 0 155 155 0 155 0 0 -155z m-450 -450 l0 -155 -155 0 -155 0 0 155 0
155 155 0 155 0 0 -155z m450 0 l0 -155 -155 0 -155 0 0 155 0 155 155 0 155
0 0 -155z"/>
</g>
</svg>
