<?xml version="1.0" standalone="no"?>
<!DOCTYPE svg PUBLIC "-//W3C//DTD SVG 20010904//EN"
 "http://www.w3.org/TR/2001/REC-SVG-20010904/DTD/svg10.dtd">
<svg version="1.0" xmlns="http://www.w3.org/2000/svg"
 width="512.000000pt" height="512.000000pt" viewBox="0 0 512.000000 512.000000"
 preserveAspectRatio="xMidYMid meet">

<g transform="translate(0.000000,512.000000) scale(0.100000,-0.100000)"
fill="#FFA500" stroke="none">
<path d="M2461 5106 c-42 -23 -50 -53 -51 -174 0 -98 -2 -113 -17 -118 -79
-27 -151 -70 -201 -122 -89 -90 -131 -193 -132 -318 l0 -61 -52 -6 c-42 -5
-59 -13 -80 -37 l-28 -30 0 -210 0 -210 -77 0 c-46 -1 -84 -6 -93 -13 -46 -37
-45 -18 -50 -610 l-5 -561 -64 88 c-35 48 -74 92 -88 97 -39 14 -903 11 -930
-4 -20 -11 -95 -109 -286 -376 l-67 -93 0 -1134 c0 -857 3 -1139 12 -1159 27
-59 -130 -55 2308 -55 2438 0 2281 -4 2308 55 9 20 12 302 12 1160 l0 1135
-29 32 -29 33 -121 3 -120 4 -3 432 -3 432 -243 311 c-133 172 -254 321 -268
332 -30 24 -61 26 -98 9 -22 -9 -476 -579 -513 -642 -9 -16 -12 -132 -13 -448
l0 -428 -50 0 -50 0 0 654 c0 384 -4 665 -9 679 -20 53 -48 67 -133 67 l-78 0
0 210 0 210 -27 30 c-22 24 -39 32 -79 37 l-51 5 -5 89 c-5 75 -11 100 -41
164 -57 120 -154 203 -289 249 -16 5 -18 19 -18 115 0 64 -5 121 -12 136 -22
48 -88 68 -137 41z m169 -512 c84 -46 130 -127 130 -230 l0 -54 -251 0 -251 0
4 68 c5 88 37 154 95 196 89 63 182 70 273 20z m290 -629 l0 -145 -410 0 -410
0 0 145 0 145 410 0 410 0 0 -145z m1223 -449 c70 -90 127 -167 127 -170 0 -3
-117 -6 -261 -6 -219 0 -260 2 -256 14 8 20 247 326 256 326 3 0 64 -74 134
-164z m-1003 -787 l0 -891 29 -29 c53 -52 135 -33 162 38 5 13 9 103 9 199 l0
174 670 0 670 0 0 -1010 0 -1010 -160 0 -160 0 0 488 c0 369 -3 493 -13 512
-7 14 -28 33 -47 43 -31 16 -63 17 -308 15 l-274 -3 -29 -33 -29 -32 0 -495 0
-495 -160 0 -160 0 0 315 c0 357 -3 375 -65 401 -43 17 -76 11 -110 -23 l-25
-26 0 -333 0 -334 -630 0 -630 0 0 1710 0 1710 630 0 630 0 0 -891z m1240 51
l0 -360 -370 0 -370 0 0 360 0 360 370 0 370 0 0 -360z m-2872 -253 l73 -102
-260 -3 c-144 -1 -378 -1 -520 0 l-259 3 75 103 74 102 372 0 372 -1 73 -102z
m172 -1317 l0 -1010 -620 0 -620 0 0 1010 0 1010 620 0 620 0 0 -1010z m2480
-580 l0 -430 -150 0 -150 0 0 430 0 430 150 0 150 0 0 -430z"/>
<path d="M2250 2959 c-65 -26 -81 -110 -31 -160 l29 -29 206 0 206 0 0 -1040
0 -1040 -135 0 -135 0 0 686 c0 599 -2 690 -15 719 -30 61 -107 74 -156 26
l-29 -29 0 -772 0 -772 29 -29 29 -29 271 0 271 0 32 29 33 29 3 1169 c2 1153
2 1168 -18 1201 -11 18 -32 37 -46 42 -33 13 -511 12 -544 -1z"/>
<path d="M3169 1461 c-54 -54 -32 -140 40 -162 50 -15 97 8 117 57 18 44 10
77 -28 109 -42 35 -91 34 -129 -4z"/>
<path d="M628 1945 c-54 -30 -58 -52 -58 -317 0 -223 2 -246 20 -275 32 -52
53 -55 498 -51 l404 3 29 33 29 32 0 260 0 260 -29 32 -29 33 -419 2 c-356 2
-422 0 -445 -12z m722 -315 l0 -130 -287 2 -288 3 -3 128 -3 127 291 0 290 0
0 -130z"/>
<path d="M607 1016 c-14 -13 -28 -39 -32 -57 -3 -19 -5 -141 -3 -272 l3 -239
33 -29 32 -29 415 0 c300 0 421 3 440 12 51 23 55 45 55 323 l0 257 -29 29
-29 29 -430 0 -429 0 -26 -24z m743 -301 l0 -125 -290 0 -290 0 0 125 0 125
290 0 290 0 0 -125z"/>
</g>
</svg>
