<?xml version="1.0" standalone="no"?>
<!DOCTYPE svg PUBLIC "-//W3C//DTD SVG 20010904//EN"
 "http://www.w3.org/TR/2001/REC-SVG-20010904/DTD/svg10.dtd">
<svg version="1.0" xmlns="http://www.w3.org/2000/svg"
 width="512.000000pt" height="512.000000pt" viewBox="0 0 512.000000 512.000000"
 preserveAspectRatio="xMidYMid meet">

<g transform="translate(0.000000,512.000000) scale(0.100000,-0.100000)"
fill="#FFA500" stroke="none">
<path d="M1389 4492 c-86 -45 -136 -146 -119 -241 18 -102 103 -180 204 -189
104 -8 189 40 232 132 31 65 31 126 0 191 -58 125 -195 171 -317 107z"/>
<path d="M3535 4501 c-142 -65 -180 -241 -78 -360 139 -163 403 -65 403 149 0
94 -57 179 -142 214 -50 21 -134 20 -183 -3z"/>
<path d="M2449 4426 c-175 -67 -263 -259 -197 -433 29 -80 112 -162 193 -192
167 -63 361 27 425 197 28 74 24 184 -10 255 -30 63 -93 127 -155 157 -61 30
-197 38 -256 16z"/>
<path d="M1226 3848 c-130 -132 -206 -307 -206 -473 1 -170 97 -241 361 -266
91 -9 148 -9 232 0 159 16 150 11 176 94 27 87 87 216 129 276 l30 45 -23 61
c-32 86 -56 131 -108 202 -42 56 -137 143 -157 143 -4 0 -27 -7 -51 -16 -57
-20 -172 -20 -229 0 -25 9 -51 16 -59 16 -8 0 -51 -37 -95 -82z"/>
<path d="M3366 3848 c-78 -78 -149 -188 -181 -281 l-19 -56 26 -39 c43 -64 99
-182 128 -267 l27 -80 54 -12 c84 -17 365 -16 456 3 178 37 243 105 243 256 0
181 -110 403 -257 517 l-44 34 -53 -16 c-66 -21 -170 -22 -226 -2 -23 8 -51
15 -61 15 -11 0 -52 -33 -93 -72z"/>
<path d="M2290 3626 c-158 -116 -290 -313 -357 -536 -37 -120 -39 -281 -4
-357 44 -100 137 -162 296 -199 67 -16 120 -19 335 -19 282 1 351 10 465 63
82 39 129 82 162 150 26 52 28 66 27 167 -1 135 -24 227 -92 369 -74 153 -168
273 -279 352 l-61 44 -75 -25 c-101 -34 -192 -34 -293 0 -41 14 -75 25 -77 25
-1 0 -22 -15 -47 -34z"/>
<path d="M366 3608 c-27 -22 -33 -48 -133 -543 -96 -478 -104 -529 -104 -635
-1 -130 16 -221 61 -339 39 -100 72 -150 274 -419 179 -238 208 -288 236 -396
l18 -71 38 3 c87 8 665 80 668 83 2 2 -7 99 -21 214 -35 307 -77 424 -199 549
-45 46 -551 422 -612 455 -28 15 -66 -1 -95 -40 -41 -56 -30 -68 264 -299 149
-117 277 -223 286 -236 43 -66 -47 -153 -113 -109 -75 49 -556 430 -572 453
-85 122 -31 319 100 364 l28 10 3 366 c4 598 5 559 -18 582 -33 32 -77 36
-109 8z"/>
<path d="M4635 3585 l-25 -24 0 -393 c0 -419 5 -528 25 -528 22 0 94 -59 120
-98 49 -75 50 -189 1 -263 -21 -30 -368 -310 -545 -437 -77 -56 -151 -31 -151
49 0 44 -3 41 291 267 129 100 246 193 259 207 33 35 31 81 -4 112 -15 12 -38
23 -51 23 -34 0 -574 -393 -651 -474 -69 -74 -127 -180 -149 -276 -13 -52 -66
-471 -61 -476 3 -5 680 -93 683 -90 3 2 11 32 19 66 24 104 57 157 260 426
265 351 310 448 321 694 l5 115 -108 540 c-93 465 -111 543 -130 562 -31 31
-78 30 -109 -2z"/>
<path d="M1110 1077 c-305 -33 -556 -60 -557 -61 -5 -4 44 -406 49 -412 7 -6
1138 113 1146 121 3 2 -5 91 -17 197 -11 106 -21 199 -21 206 0 16 42 19 -600
-51z"/>
<path d="M3417 1103 c-13 -88 -41 -373 -36 -377 8 -8 1130 -128 1137 -122 5 6
54 408 49 412 -1 1 -240 27 -532 58 -291 31 -548 59 -571 62 l-41 6 -6 -39z"/>
</g>
</svg>
