<?xml version="1.0" standalone="no"?>
<!DOCTYPE svg PUBLIC "-//W3C//DTD SVG 20010904//EN"
 "http://www.w3.org/TR/2001/REC-SVG-20010904/DTD/svg10.dtd">
<svg version="1.0" xmlns="http://www.w3.org/2000/svg"
 width="512.000000pt" height="512.000000pt" viewBox="0 0 512.000000 512.000000"
 preserveAspectRatio="xMidYMid meet">

<g transform="translate(0.000000,512.000000) scale(0.100000,-0.100000)"
fill="#FFA500" stroke="none">
<path d="M2567 4685 c-46 -47 -39 -122 16 -156 80 -50 177 25 147 115 -15 46
-44 66 -96 66 -31 0 -48 -6 -67 -25z"/>
<path d="M1379 4634 c-22 -24 -24 -33 -23 -122 3 -370 303 -662 679 -662 92 0
125 21 125 79 0 56 -22 71 -106 71 -163 1 -303 58 -404 167 -100 106 -140 209
-140 355 0 81 -2 91 -25 113 -32 33 -74 33 -106 -1z"/>
<path d="M4013 4373 c-7 -2 -29 -36 -49 -74 -92 -175 -269 -277 -463 -267 -95
6 -162 25 -234 69 -83 51 -147 32 -147 -44 0 -29 6 -41 33 -61 52 -40 151 -85
224 -102 94 -22 265 -15 351 15 152 52 293 172 366 310 42 80 44 98 15 135
-20 25 -61 34 -96 19z"/>
<path d="M4461 3786 c-69 -38 -64 -146 8 -176 71 -29 141 17 141 92 0 76 -81
122 -149 84z"/>
<path d="M1956 3479 l-26 -20 0 -235 0 -234 -535 0 -536 0 -24 -25 -25 -24 0
-1066 0 -1066 25 -24 24 -25 1674 0 c1634 0 1675 0 1698 19 l24 19 3 1071 2
1072 -24 24 -25 25 -561 0 -560 0 0 230 0 231 -25 24 -24 25 -529 0 c-520 0
-530 0 -556 -21z m984 -309 l0 -180 -430 0 -430 0 0 180 0 180 430 0 430 0 0
-180z m1170 -735 l0 -405 -611 -2 -611 -3 -19 -24 c-12 -14 -19 -39 -19 -65
-1 -91 -67 -205 -147 -256 -208 -132 -473 -6 -504 240 -6 52 -13 69 -34 87
l-26 23 -590 0 -589 0 0 405 0 405 1575 0 1575 0 0 -405z m-2051 -601 c33
-132 130 -250 251 -308 145 -70 284 -70 426 -1 119 58 227 192 252 312 l8 38
554 0 555 0 0 -480 0 -480 -1572 -3 -1573 -2 0 478 c0 263 3 482 7 485 3 4
248 7 543 7 l538 0 11 -46z"/>
<path d="M413 3435 c-39 -17 -53 -42 -53 -93 0 -97 130 -132 180 -49 11 18 20
40 20 50 0 31 -29 76 -60 92 -35 18 -46 18 -87 0z"/>
</g>
</svg>
