<?xml version="1.0" standalone="no"?>
<!DOCTYPE svg PUBLIC "-//W3C//DTD SVG 20010904//EN"
 "http://www.w3.org/TR/2001/REC-SVG-20010904/DTD/svg10.dtd">
<svg version="1.0" xmlns="http://www.w3.org/2000/svg"
 width="512.000000pt" height="512.000000pt" viewBox="0 0 512.000000 512.000000"
 preserveAspectRatio="xMidYMid meet">

<g transform="translate(0.000000,512.000000) scale(0.100000,-0.100000)"
fill="#FFA500" stroke="none">
<path d="M1933 4534 c-52 -26 -63 -63 -63 -218 l0 -136 -163 0 c-134 0 -167
-3 -186 -16 -51 -36 -51 -34 -51 -744 l0 -660 -341 0 -341 0 -29 -29 -29 -29
0 -815 0 -814 -72 -5 c-65 -5 -75 -9 -100 -37 l-28 -31 0 -180 0 -180 29 -32
29 -33 1972 0 1972 0 29 33 29 32 0 180 0 180 -28 31 c-25 28 -35 32 -100 37
l-72 5 0 814 0 815 -29 29 -29 29 -341 0 -341 0 0 660 c0 710 0 708 -51 744
-20 13 -54 16 -211 16 l-188 0 0 143 c0 160 -7 183 -60 209 -32 17 -82 18
-605 18 -497 0 -574 -2 -602 -16z m1057 -279 l0 -75 -450 0 -450 0 0 75 0 75
450 0 450 0 0 -75z m440 -375 l0 -90 -870 0 -870 0 0 90 0 90 870 0 870 0 0
-90z m-1330 -450 l0 -150 -200 0 -200 0 0 150 0 150 200 0 200 0 0 -150z m685
0 l0 -145 -232 -3 -233 -2 0 150 0 150 233 -2 232 -3 0 -145z m635 0 l0 -150
-210 0 -210 0 0 150 0 150 210 0 210 0 0 -150z m10 -435 l0 -75 -870 0 -870 0
0 75 0 75 870 0 870 0 0 -75z m-1330 -440 l0 -145 -200 0 -200 0 0 145 0 145
200 0 200 0 0 -145z m690 0 l0 -145 -235 0 -235 0 0 145 0 145 235 0 235 0 0
-145z m630 0 l0 -145 -210 0 -210 0 0 145 0 145 210 0 210 0 0 -145z m-1950
-105 l0 -100 -265 0 -265 0 0 100 0 100 265 0 265 0 0 -100z m2710 0 l0 -100
-265 0 -265 0 0 100 0 100 265 0 265 0 0 -100z m-750 -815 l0 -565 -115 0
-115 0 0 415 c0 451 -1 458 -55 483 -37 17 -1133 17 -1170 0 -54 -25 -55 -32
-55 -483 l0 -415 -115 0 -115 0 0 565 0 565 870 0 870 0 0 -565z m-1960 395
l0 -110 -265 0 -265 0 0 110 0 110 265 0 265 0 0 -110z m2710 0 l0 -110 -265
0 -265 0 0 110 0 110 265 0 265 0 0 -110z m-1190 -610 l0 -350 -430 0 -430 0
0 350 0 350 430 0 430 0 0 -350z m-1520 170 l0 -110 -265 0 -265 0 0 110 0
110 265 0 265 0 0 -110z m2710 0 l0 -110 -265 0 -265 0 0 110 0 110 265 0 265
0 0 -110z m-2710 -420 l0 -100 -265 0 -265 0 0 100 0 100 265 0 265 0 0 -100z
m2710 0 l0 -100 -265 0 -265 0 0 100 0 100 265 0 265 0 0 -100z m200 -350 l0
-30 -1820 0 -1820 0 0 30 0 30 1820 0 1820 0 0 -30z"/>
</g>
</svg>
