<?xml version="1.0" encoding="UTF-8"?>
<!--Generator: Apple Native CoreSVG 175.5-->
<!DOCTYPE svg
PUBLIC "-//W3C//DTD SVG 1.1//EN"
       "http://www.w3.org/Graphics/SVG/1.1/DTD/svg11.dtd">
<svg version="1.1" xmlns="http://www.w3.org/2000/svg" xmlns:xlink="http://www.w3.org/1999/xlink" width="42.7808" height="35.4419">
 <g>
  <rect height="29" opacity="0" width="35" x="0" y="0"/>
  <path d="M42.7808 17.644C42.7808 16.7761 42.4182 15.8862 41.814 15.293L27.5098 1.02173C26.8286 0.32959 26.0486 0 25.2686 0C23.4009 0 22.1375 1.29639 22.1375 3.02124C22.1375 3.97705 22.5439 4.71313 23.1372 5.29541L28.0591 10.2393L35.332 16.9299L36.6724 14.9194L28.136 14.458L3.2959 14.458C1.31836 14.458 0 15.7434 0 17.644C0 19.5447 1.31836 20.8301 3.2959 20.8301L28.136 20.8301L36.6724 20.3687L35.332 18.3801L28.0591 25.0488L23.1372 29.9817C22.5439 30.542 22.1375 31.3 22.1375 32.2559C22.1375 33.9807 23.4009 35.2771 25.2686 35.2771C26.0486 35.2771 26.8286 34.9365 27.4878 34.2773L41.814 19.9951C42.4182 19.4019 42.7808 18.512 42.7808 17.644Z" fill="#FFA500" fill-opacity="0.85"/>
 </g>
</svg>
