<?xml version="1.0" encoding="UTF-8"?>
<!--Generator: Apple Native CoreSVG 175.5-->
<!DOCTYPE svg
PUBLIC "-//W3C//DTD SVG 1.1//EN"
       "http://www.w3.org/Graphics/SVG/1.1/DTD/svg11.dtd">
<svg version="1.1" xmlns="http://www.w3.org/2000/svg" xmlns:xlink="http://www.w3.org/1999/xlink" width="23.7671" height="19.6899">
 <g>
  <rect height="19.6899" opacity="0" width="23.7671" x="0" y="0"/>
  <path d="M23.7671 9.80225C23.7671 9.32007 23.5657 8.82568 23.23 8.49609L15.2832 0.567627C14.9048 0.183105 14.4714 0 14.0381 0C13.0005 0 12.2986 0.720215 12.2986 1.67847C12.2986 2.20947 12.5244 2.61841 12.854 2.94189L15.5884 5.68848L19.6289 9.40552L20.3735 8.28857L15.6311 8.03223L1.83105 8.03223C0.732422 8.03223 0 8.74634 0 9.80225C0 10.8582 0.732422 11.5723 1.83105 11.5723L15.6311 11.5723L20.3735 11.3159L19.6289 10.2112L15.5884 13.916L12.854 16.6565C12.5244 16.9678 12.2986 17.3889 12.2986 17.9199C12.2986 18.8782 13.0005 19.5984 14.0381 19.5984C14.4714 19.5984 14.9048 19.4092 15.271 19.043L23.23 11.1084C23.5657 10.7788 23.7671 10.2844 23.7671 9.80225Z" fill="#6495ed" fill-opacity="0.85"/>
 </g>
</svg>
