<svg version="1.1" id="Layer_1" xmlns="http://www.w3.org/2000/svg" xmlns:xlink="http://www.w3.org/1999/xlink" x="0px" y="0px"
	 width="100%" viewBox="0 0 532 380" enable-background="new 0 0 532 380" xml:space="preserve">
<path fill="#A4CBCC" opacity="1.000000" stroke="none" 
	d="
M329.618378,221.409088 
	C317.503906,211.987091 308.854370,199.990646 299.986511,188.135422 
	C294.719788,181.094467 289.367889,173.983749 283.152527,167.812653 
	C268.609558,153.373245 261.791046,154.146744 247.301941,167.708374 
	C238.785904,175.679260 232.130753,185.703598 225.020844,195.093735 
	C217.477951,205.055725 210.187836,215.227844 199.832504,222.517853 
	C193.323883,227.099823 186.264542,230.341049 177.929337,227.836746 
	C169.907242,225.426498 167.537720,218.800980 172.400375,211.990906 
	C173.729446,210.129562 175.473206,208.537659 177.155136,206.958969 
	C196.775955,188.542358 215.160126,169.058594 226.657150,144.341019 
	C229.657928,137.889603 231.125458,130.460342 231.960907,123.323753 
	C233.511826,110.075310 226.266953,101.375977 215.326843,95.153038 
	C203.735184,88.559479 192.478699,81.506828 183.207443,71.722763 
	C178.161819,66.398056 176.651596,61.854195 178.936615,58.560104 
	C181.294388,55.161114 187.443130,54.858284 193.682236,57.804420 
	C204.793076,63.051014 215.559769,69.285744 227.094482,73.325005 
	C257.479706,83.965401 287.596405,81.348877 316.944397,68.774277 
	C322.860229,66.239548 328.222015,62.431801 334.082428,59.740528 
	C337.912018,57.981865 342.123383,56.440826 346.265289,56.122005 
	C352.241699,55.661980 355.404297,61.340752 351.901306,66.329102 
	C348.688354,70.904465 344.834076,75.292107 340.448273,78.721275 
	C333.399017,84.232956 326.070435,89.638351 318.165161,93.754417 
	C298.860260,103.806000 295.085541,119.833664 301.929352,138.750885 
	C307.977356,155.468369 318.597565,169.405457 330.199097,182.499573 
	C338.451752,191.813934 347.634430,200.307617 356.459442,209.110046 
	C360.407715,213.048218 362.302521,219.042831 360.531128,222.639313 
	C358.716064,226.324463 351.439758,230.162338 346.688080,228.736908 
	C340.905487,227.002197 335.490387,224.042343 329.618378,221.409088 
z"/>
<path fill="#C49DC9" opacity="1.000000" stroke="none" 
	d="
M310.000000,338.968262 
	C323.332611,339.020782 336.169464,338.879639 348.996857,339.164490 
	C371.953491,339.674225 394.916748,340.162659 417.854095,341.181183 
	C438.934448,342.117310 460.008820,343.441864 481.038269,345.172943 
	C493.420227,346.192200 505.723969,348.238495 518.029114,350.052032 
	C520.698242,350.445404 523.222839,351.819427 525.813965,352.741821 
	C525.869080,353.239807 525.924133,353.737823 525.979187,354.235809 
	C524.043518,355.152496 522.188232,356.584167 520.158936,356.901001 
	C508.365631,358.742249 496.578949,360.915558 484.701141,361.866028 
	C459.530884,363.880219 434.305939,365.211273 409.103119,366.817627 
	C408.272125,366.870605 407.437927,366.878845 406.604980,366.894897 
	C385.297028,367.305603 363.990631,367.909271 342.680725,368.083710 
	C297.204407,368.456055 251.725449,368.880341 206.249222,368.742096 
	C179.626541,368.661194 152.995758,367.827423 126.389496,366.794739 
	C103.639046,365.911774 80.885384,364.665161 58.196247,362.808289 
	C43.510792,361.606445 28.929705,359.080750 14.326300,356.978455 
	C12.189170,356.670776 10.188106,355.417908 8.124080,354.602386 
	C8.092962,354.074188 8.061845,353.546021 8.030727,353.017822 
	C10.674506,351.999542 13.240534,350.461304 15.975428,350.052368 
	C28.276836,348.212982 40.581352,346.005585 52.967312,345.199371 
	C81.001106,343.374756 109.070114,341.612762 137.149094,341.060974 
	C194.590942,339.932129 252.048752,339.616821 310.000000,338.968262 
z"/>
<path fill="#A4CA52" opacity="1.000000" stroke="none" 
	d="
M420.052368,250.792923 
	C419.943665,250.661606 419.834991,250.530289 419.364227,250.032852 
	C417.424988,248.693466 415.847900,247.720215 414.270782,246.746948 
	C414.270782,246.746948 414.222809,246.761292 414.014893,246.481064 
	C412.186829,245.543533 410.566650,244.886230 408.946503,244.228912 
	C407.895172,244.147491 406.843842,244.066071 405.031616,243.992950 
	C402.109039,245.253845 399.947296,246.506454 397.785553,247.759033 
	C397.785553,247.759033 397.905762,248.011627 397.520996,247.944977 
	C396.105988,248.929214 395.075684,249.980118 394.045380,251.031036 
	C394.045380,251.031021 394.000122,250.999969 393.696594,251.138550 
	C392.505859,252.798660 391.618683,254.320190 390.731506,255.841721 
	C383.594391,264.834320 376.555176,273.907257 369.276581,282.783844 
	C365.912872,286.886017 362.081726,290.604889 357.972870,294.801270 
	C357.263885,295.372345 357.044525,295.639679 356.825134,295.907013 
	C356.327881,296.128387 355.830627,296.349762 354.802246,296.833008 
	C349.443787,299.761719 344.468964,301.212067 339.042999,298.940704 
	C339.042999,298.940704 338.995544,298.989960 338.927979,298.743073 
	C338.570618,298.340851 338.280762,298.185486 337.990936,298.030151 
	C337.990936,298.030151 338.002441,297.997711 337.922699,297.752441 
	C337.597015,297.273376 337.351074,297.039520 337.105164,296.805664 
	C337.105164,296.805664 337.040405,296.377136 336.959381,295.733093 
	C337.594788,290.392242 338.311218,285.695435 339.027649,280.998596 
	C339.027649,280.998596 339.221558,280.754822 339.516418,280.421570 
	C340.526917,278.717255 341.242523,277.346191 341.958130,275.975098 
	C341.958130,275.975098 342.001953,275.997803 342.288971,275.830231 
	C343.216431,274.360840 343.856842,273.059021 344.497284,271.757202 
	C344.497284,271.757202 344.607605,271.605743 344.946320,271.494568 
	C346.202698,270.261902 347.120331,269.140442 348.037964,268.018982 
	C363.438904,248.517426 376.100311,227.620193 380.295349,202.638855 
	C382.529785,189.332932 381.795624,176.111908 376.989716,163.370117 
	C374.234924,156.066360 371.063477,148.919769 367.919800,141.004730 
	C365.860321,135.530945 363.960693,130.754837 362.061096,125.978714 
	C362.036041,125.541229 362.010986,125.103752 361.950562,123.954887 
	C362.300446,119.512024 362.685699,115.780540 363.070923,112.049057 
	C363.070923,112.049057 363.015137,111.993179 363.410889,111.877075 
	C369.505585,108.777634 373.723022,111.918480 377.912872,115.173393 
	C377.951904,115.476173 378.085358,115.729126 378.619263,116.379059 
	C382.219788,122.711853 385.514313,128.597855 388.837189,134.828644 
	C391.885925,141.122025 394.906311,147.070602 398.000977,153.302124 
	C398.342010,153.863724 398.608795,154.142380 398.874512,154.581451 
	C398.873505,154.741867 399.068512,154.996628 399.083679,155.313995 
	C399.710205,156.449951 400.321503,157.268524 400.962280,158.056549 
	C400.991699,158.026016 400.907867,158.039047 400.989807,158.305664 
	C401.349182,158.813828 401.626587,159.055359 401.977509,159.619125 
	C410.530945,171.309814 422.302856,172.125381 434.287079,168.460281 
	C444.651215,165.290665 454.513824,160.369736 464.409576,155.813461 
	C473.077728,151.822388 481.483795,147.262054 490.005615,142.953186 
	C490.450348,142.997238 490.895081,143.041275 491.917419,143.253204 
	C493.957275,143.964279 495.419556,144.507462 496.971527,145.302155 
	C497.361115,145.719009 497.660980,145.884308 497.960876,146.049622 
	C497.960876,146.049622 497.957947,145.987610 497.954956,146.336578 
	C498.230988,147.265533 498.509979,147.845520 498.788971,148.425507 
	C498.737213,148.756454 498.685425,149.087418 498.488159,149.924316 
	C498.208221,151.278381 498.073761,152.126495 497.939331,152.974594 
	C497.359894,153.820892 496.780426,154.667191 495.918579,155.879639 
	C495.369812,156.423553 495.274323,156.668045 495.349823,156.979294 
	C495.349823,156.979294 495.055450,157.329224 494.733826,157.664764 
	C494.237183,158.312775 494.062164,158.625244 493.887146,158.937714 
	C493.887146,158.937714 493.956696,158.983856 493.691772,159.033264 
	C493.245239,159.392624 493.063599,159.702560 492.881958,160.012497 
	C492.881958,160.012497 492.655853,160.152222 492.457764,160.354523 
	C492.259705,160.556824 492.034973,160.857071 491.777344,160.962769 
	C491.318634,161.371582 491.117554,161.674728 490.698669,162.050171 
	C490.200317,162.284927 490.018097,162.522736 489.607605,162.937134 
	C485.748535,165.970963 482.216034,168.903519 478.683533,171.836090 
	C477.215973,172.959198 475.748444,174.082306 473.709534,175.501328 
	C470.349915,177.494232 467.561646,179.191223 464.773346,180.888214 
	C464.773346,180.888214 464.370697,180.940613 463.859375,181.098190 
	C460.946442,182.862946 458.544830,184.470139 456.143188,186.077316 
	C456.143188,186.077316 456.049744,186.049866 455.798828,186.135162 
	C455.335510,186.469620 455.123169,186.718765 454.910828,186.967896 
	C454.910797,186.967896 454.455872,187.072449 453.968323,187.304626 
	C452.011749,189.373596 450.542786,191.210403 449.073792,193.047180 
	C449.073792,193.047180 448.994965,193.026459 448.726959,193.222946 
	C447.302063,196.278793 446.145142,199.138138 444.988251,201.997498 
	C444.884247,202.335999 444.780243,202.674515 444.502197,203.475159 
	C444.276917,204.293274 444.225739,204.649231 444.174561,205.005188 
	C444.120087,205.450684 444.065613,205.896179 443.820068,206.975403 
	C443.462494,215.334686 444.546082,222.772507 448.669769,229.510620 
	C448.728729,229.846298 448.787689,230.181961 448.970825,231.108063 
	C451.046356,235.140045 452.997772,238.581604 454.949158,242.023163 
	C455.165283,242.554413 455.381409,243.085663 455.850616,244.107819 
	C456.713928,245.426285 457.324127,246.253876 457.934357,247.081467 
	C460.394135,250.615753 462.853912,254.150055 465.667755,258.210846 
	C469.304230,262.542969 472.586578,266.348633 475.868958,270.154266 
	C475.868958,270.154266 475.969635,270.015137 475.973328,270.371704 
	C476.685486,271.416901 477.393951,272.105530 478.102386,272.794189 
	C478.102386,272.794189 478.088165,272.910797 478.237183,273.221466 
	C487.229553,282.386658 496.072937,291.241180 504.916321,300.095703 
	C504.916321,300.095703 504.966339,299.992218 504.990814,300.433777 
	C507.790497,308.853119 504.690155,314.265961 496.425842,315.780090 
	C494.961487,316.048340 493.455231,316.087891 491.968323,316.233063 
	C491.223175,316.153229 490.478058,316.073364 489.103394,315.787598 
	C486.043732,314.656219 483.613617,313.730743 481.183502,312.805267 
	C481.183502,312.805267 481.092896,312.809235 481.017700,312.602325 
	C480.627289,312.278351 480.312073,312.161316 479.996857,312.044281 
	C479.996857,312.044281 479.742065,311.840942 479.420898,311.517273 
	C477.428986,310.041565 475.758240,308.889557 474.087463,307.737518 
	C472.930847,306.574127 471.774231,305.410706 470.208038,303.805420 
	C467.875732,301.562103 465.952972,299.760681 464.030243,297.959229 
	C464.030243,297.959229 464.000000,298.000000 463.903748,297.685852 
	C462.563019,296.218781 461.318512,295.065887 460.074005,293.912964 
	C460.074005,293.912964 460.024689,294.007416 459.992798,293.640137 
	C457.970154,291.188080 455.979401,289.103302 453.988647,287.018524 
	C453.988647,287.018524 454.001221,287.000000 453.899109,286.681183 
	C451.224854,283.543976 448.652679,280.725616 446.080505,277.907227 
	C446.080505,277.907227 446.033295,278.009216 446.014709,277.663849 
	C445.301697,276.616791 444.607239,275.915100 443.912781,275.213440 
	C443.734467,274.906311 443.556152,274.599152 443.089905,273.916687 
	C442.621704,273.225586 442.350037,273.057678 441.986938,273.037628 
	C441.986938,273.037628 442.001221,272.998779 441.872437,272.692444 
	C438.165344,268.585785 434.587036,264.785431 431.008759,260.985077 
	C430.932922,260.650970 430.755005,260.385132 430.166016,259.846497 
	C429.580139,259.312134 429.303253,259.118835 429.026398,258.925537 
	C428.977783,258.588745 428.813141,258.324188 428.170837,257.749603 
	C426.531891,256.259796 425.254547,255.152237 423.977203,254.044678 
	C423.260864,253.383972 422.544556,252.723282 421.417786,251.713013 
	C420.689026,251.173264 420.370697,250.983093 420.052368,250.792923 
z"/>
<path fill="#EA729A" opacity="1.000000" stroke="none" 
	d="
M37.038090,315.843292 
	C36.176876,315.746460 35.315662,315.649628 34.088638,315.011108 
	C32.755119,314.049500 31.787416,313.629578 30.819714,313.209656 
	C30.819715,313.209656 30.803885,313.113861 30.751207,312.789368 
	C25.340855,303.887726 28.436510,303.925751 32.691719,297.833527 
	C34.348618,295.461334 36.185638,293.214966 37.940605,290.911285 
	C37.940601,290.911285 37.991413,290.988708 38.287422,290.947174 
	C39.050095,290.249939 39.516762,289.594238 39.983433,288.938538 
	C40.057659,288.618317 40.228565,288.362732 41.061729,288.055267 
	C46.021664,283.225952 50.416019,278.513153 54.810371,273.800385 
	C54.810375,273.800385 54.965580,274.009338 55.251698,273.945679 
	C56.982346,271.870453 58.426876,269.858917 59.871399,267.847382 
	C59.871399,267.847382 59.977345,267.966583 60.261627,267.922424 
	C60.960098,267.183014 61.374287,266.487823 61.788475,265.792603 
	C61.788475,265.792603 61.908787,265.817169 62.184578,265.760315 
	C62.946129,264.765228 63.431885,263.827057 63.917641,262.888855 
	C63.917641,262.888855 63.983772,262.945953 64.187546,262.852692 
	C64.565178,262.462677 64.739029,262.165924 64.912888,261.869202 
	C64.912895,261.869202 64.867943,261.941895 65.228516,261.914062 
	C66.354813,260.546417 67.120544,259.206635 67.886276,257.866852 
	C67.886276,257.866852 67.968910,257.910431 68.173058,257.828369 
	C68.540596,257.444000 68.703995,257.141724 68.867386,256.839417 
	C68.867386,256.839417 68.888786,256.948120 69.136581,256.804535 
	C69.580551,256.097015 69.776726,255.533112 69.972916,254.969193 
	C69.972916,254.969193 69.996735,255.002151 70.332565,254.946640 
	C71.098534,253.908524 71.528671,252.925919 71.958809,251.943314 
	C71.958809,251.943314 71.995285,252.001038 72.306198,251.950867 
	C73.016037,251.205627 73.414963,250.510544 73.813896,249.815475 
	C73.813896,249.815475 73.906593,249.853775 74.155991,249.751678 
	C74.590897,249.063843 74.776390,248.478088 74.961891,247.892334 
	C79.399284,237.569916 84.805092,227.539566 88.028717,216.851089 
	C92.050629,203.515793 85.842323,190.878723 73.635689,183.833786 
	C61.068863,176.580963 48.610973,169.185669 38.759026,158.261429 
	C35.846500,155.031921 32.916290,151.661041 35.251278,146.211792 
	C37.403625,144.776291 39.190659,143.853622 40.977692,142.930954 
	C41.741394,142.963287 42.505096,142.995605 43.902092,143.222580 
	C47.696972,144.593933 50.858566,145.770645 54.020157,146.947342 
	C54.463165,147.314896 54.906174,147.682449 55.830006,148.381378 
	C60.832264,151.240723 65.353699,153.768677 69.875137,156.296631 
	C70.993927,156.931931 72.112717,157.567215 73.765968,158.530487 
	C83.713623,162.419418 92.919304,166.754089 102.591766,169.348465 
	C115.096420,172.702484 126.291351,168.263153 132.314423,157.716080 
	C139.118546,145.801376 144.881241,133.291946 151.096832,121.041145 
	C151.419144,120.574821 151.741455,120.108490 152.379593,119.166977 
	C154.994659,116.365250 156.943375,113.449860 159.663620,111.830612 
	C165.983002,108.068962 171.272568,111.353607 171.129425,118.735153 
	C171.072540,121.667747 170.555420,124.670410 169.734283,127.491699 
	C168.306396,132.397507 166.479691,137.187241 164.820190,142.025635 
	C164.820190,142.025635 164.567810,142.368271 164.299133,142.813934 
	C160.799622,151.514587 157.568802,159.769592 154.337997,168.024582 
	C154.229797,168.457794 154.121613,168.891022 153.731201,169.910858 
	C153.034332,173.005936 152.619690,175.514389 152.205048,178.022827 
	C152.139023,178.462158 152.072998,178.901489 151.790253,180.001587 
	C150.399323,191.687256 151.105637,202.512177 155.012390,212.996719 
	C155.045288,213.463394 155.078186,213.930069 155.222504,214.955688 
	C155.445129,215.816803 155.645706,216.037979 155.935684,216.178146 
	C161.240051,227.548813 165.942383,239.255890 172.046417,250.179733 
	C176.622620,258.369324 183.373581,265.314423 188.445175,273.267120 
	C191.670380,278.324493 194.730850,283.994476 195.836060,289.777557 
	C197.500488,298.486755 191.941284,302.371643 183.374298,299.528137 
	C181.499817,298.905945 179.764343,297.864929 177.418182,296.678467 
	C175.317627,295.200531 173.763763,294.060913 172.020081,292.659973 
	C170.590073,291.250916 169.349869,290.103241 168.109680,288.955566 
	C168.048294,288.626434 167.891739,288.351471 167.333374,287.705627 
	C166.027786,286.182098 165.028870,285.083588 163.964050,283.650940 
	C162.475388,281.514740 161.052628,279.712738 159.595123,277.745789 
	C159.423080,277.372742 159.229691,277.273773 158.877457,277.013794 
	C158.481522,276.505646 158.188339,276.267792 157.895172,276.029938 
	C157.325775,275.189301 156.756378,274.348663 155.902893,272.959686 
	C154.168472,270.864014 152.718170,269.316650 151.267853,267.769318 
	C151.267853,267.769318 151.049408,267.789764 151.117126,267.421570 
	C147.695709,262.594421 144.206604,258.135437 140.717484,253.676437 
	C140.717484,253.676437 140.533569,253.253479 140.272522,252.773941 
	C138.390762,250.805450 136.770050,249.316498 135.149353,247.827545 
	C135.149353,247.827545 135.079651,247.819717 134.949219,247.521454 
	C130.946304,243.400238 126.188568,242.662689 121.619957,244.941559 
	C117.449608,247.021774 113.865784,250.277817 110.023460,253.015625 
	C103.560493,259.577240 97.097534,266.138824 89.989311,272.903687 
	C88.910416,274.085114 88.476784,275.063293 88.043152,276.041443 
	C88.043152,276.041443 88.007454,276.000000 87.680847,276.034851 
	C86.233253,277.373840 85.112274,278.677948 83.996628,279.990692 
	C84.001968,279.999329 83.983109,279.994812 83.760300,280.104401 
	C83.259888,280.424255 83.087982,280.700348 83.010559,281.021088 
	C82.999329,280.999908 83.042580,281.020630 82.807541,281.125000 
	C82.399841,281.517517 82.227173,281.805695 82.036385,282.054626 
	C82.018272,282.015442 82.095886,282.053314 81.851654,282.146271 
	C81.425201,282.526703 81.242996,282.814178 81.041756,283.060120 
	C81.022728,283.018585 81.103661,283.060974 80.858894,283.151733 
	C80.437935,283.532135 80.261742,283.821808 80.080627,284.063354 
	C80.075691,284.015228 80.146019,284.081726 79.872086,284.199707 
	C79.384956,284.854034 79.171753,285.390381 78.975006,285.960571 
	C78.991455,285.994446 78.924477,285.960022 78.609108,286.015381 
	C77.869453,286.725311 77.445168,287.379852 77.008705,288.018494 
	C76.996536,288.002563 77.035072,288.012787 76.796585,288.128937 
	C76.387535,288.547058 76.216972,288.849030 75.961960,289.352264 
	C75.705368,289.804626 75.472931,289.971954 74.921631,290.135559 
	C74.460548,290.502716 74.258018,290.789795 74.074814,291.051025 
	C74.094139,291.025177 74.109184,291.087921 73.762962,291.100403 
	C73.009048,291.813080 72.601349,292.513275 72.193657,293.213440 
	C72.193657,293.213440 72.110054,293.178650 71.853302,293.258240 
	C71.443581,293.702423 71.290611,294.067078 71.137642,294.431702 
	C71.137642,294.431702 71.092522,294.744415 70.634560,294.860962 
	C65.702003,292.515289 65.608253,297.959290 63.084373,298.876709 
	C59.958282,300.012970 60.092686,301.863220 61.312336,304.247406 
	C61.312336,304.247406 61.232140,304.252441 60.947933,304.269043 
	C60.496284,304.587494 60.328842,304.889374 60.161392,305.191223 
	C60.161392,305.191223 60.007961,305.091492 59.831192,305.184021 
	C59.480530,305.575623 59.306641,305.874695 59.132755,306.173798 
	C59.132759,306.173798 59.198948,306.154663 58.857399,306.096375 
	C55.792660,305.528931 51.791763,308.876587 51.162529,312.190765 
	C51.162529,312.190765 51.012573,312.153229 50.698891,312.134247 
	C45.936169,313.357941 41.487129,314.600616 37.038090,315.843292 
z"/>
<path fill="#A4CBCC" opacity="1.000000" stroke="none" 
	d="
M233.598083,52.210690 
	C224.020691,28.776020 243.666794,6.192588 263.481445,6.697164 
	C277.435211,7.052493 287.448242,12.747713 293.845428,24.746492 
	C302.214050,40.443039 295.629944,60.959866 280.005463,68.997314 
	C263.354065,77.563026 243.507874,71.497772 235.065353,55.257244 
	C234.605423,54.372505 234.200775,53.459023 233.598083,52.210690 
z"/>
<path fill="#EB729A" opacity="1.000000" stroke="none" 
	d="
M91.183327,97.423241 
	C98.478561,95.265884 105.806297,94.577644 113.834610,97.199265 
	C119.389145,100.752022 124.310516,104.041595 129.231888,107.331169 
	C129.588959,107.782364 129.946030,108.233566 130.568146,109.236221 
	C131.860321,111.535347 132.887436,113.283012 133.914566,115.030670 
	C134.381241,116.544388 134.847900,118.058105 135.546082,120.265213 
	C135.815536,125.574196 136.531326,130.304001 135.776108,134.785965 
	C132.175308,156.155746 108.251701,168.114594 88.856155,158.511475 
	C78.928772,153.596222 73.373947,145.260376 70.358719,134.928177 
	C70.563141,130.229370 70.767563,125.530563 71.222244,120.170898 
	C74.465866,108.955650 81.870110,102.337639 91.183327,97.423241 
z"/>
<path fill="#A4CA52" opacity="1.000000" stroke="none" 
	d="
M458.112000,146.014252 
	C458.112000,146.014252 457.880493,146.299698 457.586121,146.687454 
	C449.982849,156.905670 440.170258,161.865646 427.579712,162.047607 
	C422.479736,160.596771 417.756744,159.253113 412.890198,157.685211 
	C412.256897,157.277313 411.767120,157.093674 411.128601,156.677414 
	C410.654327,156.291794 410.328796,156.138763 409.876556,155.763168 
	C409.306183,155.302811 408.862579,155.065048 408.248474,154.528931 
	C407.151398,153.603821 406.224762,152.977066 405.224670,152.047760 
	C404.096832,150.496658 403.042480,149.248108 401.920105,147.738602 
	C401.595886,147.231781 401.339661,146.985916 401.043213,146.430008 
	C400.371033,145.070618 399.739014,144.021286 399.032867,142.668213 
	C398.685272,142.059021 398.411835,141.753586 398.240326,141.347839 
	C398.342285,141.247528 398.226349,140.986023 398.204071,140.603333 
	C397.507233,138.309158 396.832642,136.397705 396.239258,134.119995 
	C396.234955,132.510147 396.149506,131.266541 396.219055,129.847198 
	C396.269867,129.106628 396.165619,128.541824 396.141296,127.616241 
	C396.350830,125.799744 396.480438,124.344025 396.743164,122.546364 
	C396.935303,121.473610 396.994324,120.742798 397.269470,119.820915 
	C397.604919,119.079590 397.724274,118.529320 397.939758,117.742569 
	C398.024292,117.336296 398.012665,117.166512 398.001007,116.996727 
	C398.001007,116.996727 398.156586,116.677399 398.360229,116.336815 
	C398.660645,115.666191 398.757355,115.336159 398.854095,115.006119 
	C398.854095,115.006119 399.068817,114.632111 399.325012,114.291595 
	C399.710571,113.630264 399.839905,113.309441 400.219910,112.771370 
	C412.408142,91.102585 443.159760,90.002434 456.689697,109.914940 
	C461.082916,116.380600 462.357758,123.562111 462.742828,131.083679 
	C462.561768,132.141876 462.380676,133.200058 462.103058,135.005875 
	C460.708344,139.173752 459.410156,142.593994 458.112000,146.014252 
z"/>
<path fill="#F9F5F8" opacity="1.000000" stroke="none" 
	d="
M69.963287,134.992432 
	C73.373947,145.260376 78.928772,153.596222 88.856155,158.511475 
	C108.251701,168.114594 132.175308,156.155746 135.776108,134.785965 
	C136.531326,130.304001 135.815536,125.574196 135.747803,120.536720 
	C144.111618,119.047318 139.483307,126.326416 141.814011,129.670334 
	C144.467468,126.494331 144.465042,120.675331 150.702667,121.028549 
	C144.881241,133.291946 139.118546,145.801376 132.314423,157.716080 
	C126.291351,168.263153 115.096420,172.702484 102.591766,169.348465 
	C92.919304,166.754089 83.713623,162.419418 74.079987,158.616974 
	C75.822601,153.686981 75.067055,149.753738 70.847389,146.582016 
	C69.116890,145.281281 68.347145,136.914291 69.963287,134.992432 
z"/>
<path fill="#F8FCEE" opacity="1.000000" stroke="none" 
	d="
M398.226349,140.986023 
	C398.226349,140.986023 398.342285,141.247528 398.282898,141.670197 
	C398.518005,142.385895 398.812500,142.678940 399.106995,142.971970 
	C399.739014,144.021286 400.371033,145.070618 401.099426,146.699951 
	C401.459900,147.519821 401.724030,147.759689 401.988129,147.999557 
	C403.042480,149.248108 404.096832,150.496658 405.131683,152.428986 
	C404.857086,154.153976 404.601929,155.195221 404.253906,156.615509 
	C405.928619,155.896500 407.173798,155.361893 408.418976,154.827271 
	C408.862579,155.065048 409.306183,155.302811 410.015411,156.003967 
	C410.613129,156.614899 410.945251,156.762466 411.277374,156.910034 
	C411.767120,157.093674 412.256897,157.277313 412.917786,158.065231 
	C417.214813,163.372070 422.679504,162.363358 427.956635,162.154770 
	C440.170258,161.865646 449.982849,156.905670 457.565796,146.870071 
	C459.555969,148.680130 461.272125,150.695328 463.714905,153.563721 
	C470.428284,149.844162 477.981171,145.659454 486.103180,141.159409 
	C484.601196,140.360855 483.568390,139.811737 481.092041,138.495117 
	C487.069824,137.792374 491.702301,137.247772 497.077026,136.615906 
	C494.454712,138.694336 492.240753,140.449112 490.016235,142.578537 
	C481.483795,147.262054 473.077728,151.822388 464.409576,155.813461 
	C454.513824,160.369736 444.651215,165.290665 434.287079,168.460281 
	C422.302856,172.125381 410.530945,171.309814 401.916077,159.337311 
	C401.490021,158.501846 401.198944,158.270447 400.907867,158.039047 
	C400.907867,158.039047 400.991699,158.026016 400.981201,157.698944 
	C400.336639,156.580124 399.702576,155.788376 399.068512,154.996628 
	C399.068512,154.996628 398.873505,154.741867 398.829651,154.279480 
	C398.499451,153.551117 398.213104,153.285141 397.926727,153.019165 
	C394.906311,147.070602 391.885925,141.122025 388.897827,134.454620 
	C388.957397,133.486237 388.984650,133.236664 389.011871,132.987091 
	C393.647614,132.958374 393.218262,130.341385 392.459839,126.976013 
	C391.887634,124.436996 391.891754,121.626862 392.362762,119.070709 
	C392.527283,118.177910 394.853394,117.683411 396.685120,117.209633 
	C397.337555,117.674286 397.559479,117.863220 397.843658,117.979057 
	C397.724274,118.529320 397.604919,119.079590 397.020813,119.971146 
	C396.574066,121.171059 396.592041,122.029686 396.610046,122.888306 
	C396.480438,124.344025 396.350830,125.799744 395.904236,127.762894 
	C395.746155,128.854538 395.905090,129.438736 396.064026,130.022949 
	C396.149506,131.266541 396.234955,132.510147 396.197754,134.581055 
	C396.792206,137.267593 397.509277,139.126801 398.226349,140.986023 
z"/>
<path fill="#F8FCEE" opacity="1.000000" stroke="none" 
	d="
M463.097046,131.094498 
	C462.357758,123.562111 461.082916,116.380600 456.689697,109.914940 
	C443.159760,90.002434 412.408142,91.102585 399.975769,112.774048 
	C399.480988,112.993965 398.992340,112.992821 398.992340,112.992821 
	C399.178406,110.919739 399.364471,108.846657 399.500031,107.335976 
	C402.194427,105.319725 404.684601,103.456306 407.174774,101.592888 
	C406.897034,101.165504 406.619324,100.738129 406.341583,100.310753 
	C404.920074,101.079788 403.498566,101.848824 401.513000,102.923019 
	C401.329773,101.369186 401.176514,100.069603 401.045349,98.957245 
	C405.328003,97.897865 409.167480,97.003731 412.974457,95.987747 
	C415.725342,95.253601 418.563873,94.644615 421.132599,93.473686 
	C426.411713,91.067261 431.417023,92.646484 436.463379,94.034584 
	C437.549164,94.333252 438.598297,95.719490 439.501617,95.576569 
	C446.888306,94.407822 450.290894,99.998177 454.665253,104.076393 
	C455.922394,105.248375 457.703613,105.858223 458.481812,107.235451 
	C459.755096,109.119171 460.916565,111.091866 462.327942,112.865685 
	C464.427582,115.504410 467.362885,117.436180 464.566071,121.777641 
	C463.514557,123.409897 465.151855,126.833122 465.686493,129.414337 
	C466.456879,133.133865 467.339630,136.830124 468.174408,140.536301 
	C467.390045,140.661407 466.605652,140.786514 465.821259,140.911621 
	C465.548340,139.363724 465.354675,137.796417 464.981567,136.273071 
	C464.554657,134.530106 463.968323,132.826202 463.097046,131.094498 
z"/>
<path fill="#F9F5F8" opacity="1.000000" stroke="none" 
	d="
M165.158844,141.897644 
	C166.479691,137.187241 168.306396,132.397507 169.734283,127.491699 
	C170.555420,124.670410 171.072540,121.667747 171.129425,118.735153 
	C171.272568,111.353607 165.983002,108.068962 159.663620,111.830612 
	C156.943375,113.449860 154.994659,116.365250 152.425262,118.879921 
	C151.890015,116.621658 151.624954,114.175278 151.398895,112.088753 
	C155.700592,109.978195 159.647690,107.731697 163.826462,106.066589 
	C169.585632,103.771744 170.391495,111.165993 175.336044,112.566017 
	C174.386490,117.438835 171.551102,123.175774 172.734299,127.907906 
	C174.686157,135.714142 169.223572,137.902573 165.158844,141.897644 
z"/>
<path fill="#F5FBE6" opacity="1.000000" stroke="none" 
	d="
M504.947479,299.721558 
	C496.072937,291.241180 487.229553,282.386658 478.295441,273.214172 
	C482.782928,272.850800 487.378235,272.212311 489.225403,278.392670 
	C489.735168,280.098236 492.937012,280.999207 494.598083,282.593964 
	C493.064087,282.668182 491.835571,282.417786 490.607086,282.167389 
	C490.434021,282.578583 490.260956,282.989746 490.087891,283.400940 
	C491.411804,284.532288 492.735687,285.663666 494.669006,287.315826 
	C494.833008,285.204956 494.918518,284.104401 495.004028,283.003845 
	C495.621490,283.204742 496.582886,283.221436 496.804108,283.634491 
	C499.591064,288.838867 502.271210,294.100464 504.947479,299.721558 
z"/>
<path fill="#F9F5F8" opacity="1.000000" stroke="none" 
	d="
M90.958054,97.076416 
	C81.870110,102.337639 74.465866,108.955650 71.217010,119.750626 
	C68.402260,116.853363 68.588409,111.712494 72.024017,110.479599 
	C75.479927,109.239410 74.667488,107.072723 75.069450,104.764481 
	C75.596161,101.739937 76.601730,98.798775 77.401329,95.821747 
	C77.986206,95.970551 78.571091,96.119347 79.155968,96.268143 
	C78.890427,97.337212 78.624893,98.406273 78.448402,99.116798 
	C82.664742,98.297447 86.698761,97.513519 90.958054,97.076416 
z"/>
<path fill="#F9F5F8" opacity="1.000000" stroke="none" 
	d="
M154.668869,167.960571 
	C157.568802,159.769592 160.799622,151.514587 164.255814,143.022263 
	C164.986343,144.409653 166.334564,146.356232 165.857483,147.606003 
	C163.109634,154.804367 163.309891,163.674530 154.668869,167.960571 
z"/>
<path fill="#F9F5F8" opacity="1.000000" stroke="none" 
	d="
M155.261780,212.802124 
	C151.105637,202.512177 150.399323,191.687256 151.821259,180.334274 
	C156.170685,180.661743 154.858505,183.858444 154.917252,186.290054 
	C155.067200,192.497940 155.048370,198.709702 155.154175,204.918930 
	C155.197876,207.483078 155.387756,210.044739 155.261780,212.802124 
z"/>
<path fill="#F8F0F4" opacity="1.000000" stroke="none" 
	d="
M110.343109,253.153259 
	C113.865784,250.277817 117.449608,247.021774 121.619957,244.941559 
	C126.188568,242.662689 130.946304,243.400238 134.978302,247.538910 
	C132.827530,247.901077 130.503952,248.127197 128.209686,247.957275 
	C123.137527,247.581589 118.524887,248.051361 114.928368,252.373337 
	C114.196243,253.253143 112.119598,253.014130 110.343109,253.153259 
z"/>
<path fill="#F5FBE6" opacity="1.000000" stroke="none" 
	d="
M492.026917,316.565979 
	C493.455231,316.087891 494.961487,316.048340 496.425842,315.780090 
	C504.690155,314.265961 507.790497,308.853119 504.952423,300.476624 
	C510.703918,301.568115 511.836334,304.989502 508.229095,309.819611 
	C505.098572,314.011383 501.351257,317.291473 496.003906,318.012238 
	C494.770172,318.178497 493.395355,317.297791 492.026917,316.565979 
z"/>
<path fill="#F5FBE5" opacity="1.000000" stroke="none" 
	d="
M377.942261,114.767975 
	C373.723022,111.918480 369.505585,108.777634 363.428528,111.912155 
	C363.012634,105.823479 366.006897,103.796318 371.339203,107.109665 
	C374.017975,108.774170 375.789734,111.898438 377.942261,114.767975 
z"/>
<path fill="#F5FBE5" opacity="1.000000" stroke="none" 
	d="
M430.865723,261.303650 
	C434.587036,264.785431 438.165344,268.585785 441.854492,272.702759 
	C435.904205,274.752930 434.009827,268.602478 430.006317,266.449738 
	C429.520325,266.188416 430.449432,263.295502 430.865723,261.303650 
z"/>
<path fill="#F7EEF3" opacity="1.000000" stroke="none" 
	d="
M129.613556,107.142517 
	C124.310516,104.041595 119.389145,100.752022 114.239899,97.203079 
	C115.472038,96.935806 117.073486,96.534286 118.364021,96.998009 
	C121.517746,98.131233 124.537155,99.643944 127.592621,101.043213 
	C130.223770,102.248161 132.214722,103.756966 129.613556,107.142517 
z"/>
<path fill="#DF7FA0" opacity="1.000000" stroke="none" 
	d="
M37.613014,290.992065 
	C36.185638,293.214966 34.348618,295.461334 32.691719,297.833527 
	C28.436510,303.925751 25.340855,303.887726 30.781937,312.826935 
	C25.974167,310.413300 24.311981,305.798645 27.486359,301.378021 
	C30.225107,297.564087 33.979843,294.479706 37.613014,290.992065 
z"/>
<path fill="#F5FBE5" opacity="1.000000" stroke="none" 
	d="
M388.969849,132.627747 
	C388.984650,133.236664 388.957397,133.486237 388.869476,134.109833 
	C385.514313,128.597855 382.219788,122.711853 378.809814,116.485428 
	C383.813049,120.435699 390.038574,124.023903 388.969849,132.627747 
z"/>
<path fill="#F2FADA" opacity="1.000000" stroke="none" 
	d="
M448.764099,229.078857 
	C444.546082,222.772507 443.462494,215.334686 443.852997,207.311615 
	C448.161743,213.674545 447.138855,221.463898 448.764099,229.078857 
z"/>
<path fill="#F6FBE3" opacity="1.000000" stroke="none" 
	d="
M338.703339,281.144165 
	C338.311218,285.695435 337.594788,290.392242 336.859619,295.540741 
	C330.718048,292.262756 331.336609,286.350128 338.703339,281.144165 
z"/>
<path fill="#F9F5F8" opacity="1.000000" stroke="none" 
	d="
M69.909866,155.893768 
	C65.353699,153.768677 60.832264,151.240723 56.120701,148.439896 
	C62.563938,146.771179 67.869179,149.543747 69.909866,155.893768 
z"/>
<path fill="#F5F0F4" opacity="1.000000" stroke="none" 
	d="
M75.180176,290.055450 
	C75.472931,289.971954 75.705368,289.804626 76.194901,289.229034 
	C76.686554,288.607269 76.860809,288.310028 77.035065,288.012787 
	C77.035072,288.012787 76.996536,288.002563 77.271027,287.892517 
	C78.005173,287.174957 78.464828,286.567505 78.924477,285.960022 
	C78.924477,285.960022 78.991455,285.994446 79.237076,285.826813 
	C79.703804,285.133362 79.924911,284.607544 80.146027,284.081726 
	C80.146019,284.081726 80.075691,284.015228 80.328331,283.978394 
	C80.755203,283.648010 80.929436,283.354492 81.103668,283.060974 
	C81.103661,283.060974 81.022728,283.018585 81.287994,282.969788 
	C81.734146,282.631775 81.915016,282.342560 82.095886,282.053314 
	C82.095886,282.053314 82.018272,282.015442 82.275696,281.956116 
	C82.702950,281.604706 82.872765,281.312683 83.042580,281.020630 
	C83.042580,281.020630 82.999329,280.999908 83.238419,280.917480 
	C83.646049,280.554962 83.814575,280.274872 83.983109,279.994812 
	C83.983109,279.994812 84.001968,279.999329 84.255173,279.992035 
	C84.677177,280.019592 84.845970,280.054413 85.014763,280.089203 
	C84.932922,283.113647 85.842026,286.578186 81.368683,287.541565 
	C80.824974,287.658691 80.147141,288.800446 80.136574,289.476776 
	C80.070816,293.686707 77.739517,293.484955 74.489044,291.962830 
	C74.133011,291.559418 74.109184,291.087921 74.109184,291.087921 
	C74.109184,291.087921 74.094139,291.025177 74.330147,290.969635 
	C74.770828,290.627869 74.975502,290.341675 75.180176,290.055450 
z"/>
<path fill="#F8F0F4" opacity="1.000000" stroke="none" 
	d="
M140.381683,253.834473 
	C144.206604,258.135437 147.695709,262.594421 151.222549,267.391235 
	C148.357834,265.161682 145.219543,262.806000 142.648254,259.941376 
	C141.275482,258.411957 140.881561,256.003967 140.381683,253.834473 
z"/>
<path fill="#F5FBE6" opacity="1.000000" stroke="none" 
	d="
M481.079041,313.172546 
	C483.613617,313.730743 486.043732,314.656219 488.728943,315.818115 
	C482.165344,319.358032 475.159210,318.132477 474.716339,314.246124 
	C476.806824,314.010193 478.890717,313.775024 481.079041,313.172546 
z"/>
<path fill="#F7F2F5" opacity="1.000000" stroke="none" 
	d="
M157.595825,276.195557 
	C158.188339,276.267792 158.481522,276.505646 158.968002,277.136169 
	C159.288269,277.691956 159.444458,277.819275 159.629868,277.910706 
	C161.052628,279.712738 162.475388,281.514740 163.687439,283.879547 
	C163.319046,285.619659 163.161362,286.797028 163.003662,287.974365 
	C161.041168,284.132843 154.549835,282.516937 157.595825,276.195557 
z"/>
<path fill="#DF7FA0" opacity="1.000000" stroke="none" 
	d="
M61.638809,304.184631 
	C60.092686,301.863220 59.958282,300.012970 63.084373,298.876709 
	C65.608253,297.959290 65.702003,292.515289 70.531029,294.980255 
	C67.912064,298.029327 64.938675,301.075592 61.638809,304.184631 
z"/>
<path fill="#F8FCEE" opacity="1.000000" stroke="none" 
	d="
M492.034973,160.857071 
	C492.034973,160.857071 492.259705,160.556824 492.430817,160.484650 
	C493.707245,160.503967 494.985535,160.984756 495.874725,160.589737 
	C497.021362,160.080322 497.856567,158.869919 498.825897,157.961395 
	C499.316467,158.377640 499.807037,158.793884 500.297607,159.210114 
	C498.308502,161.661377 496.457611,164.254227 494.213684,166.444366 
	C493.765015,166.882263 491.817261,165.784225 490.276123,164.832489 
	C489.972443,163.792343 489.953308,163.314117 489.934174,162.835876 
	C490.018097,162.522736 490.200317,162.284927 490.952148,161.940796 
	C491.627289,161.458450 491.831146,161.157761 492.034973,160.857071 
z"/>
<path fill="#F9F5F8" opacity="1.000000" stroke="none" 
	d="
M54.015408,146.548157 
	C50.858566,145.770645 47.696972,144.593933 44.281467,143.169922 
	C50.693359,138.929932 53.395237,139.803116 54.015408,146.548157 
z"/>
<path fill="#DF7FA0" opacity="1.000000" stroke="none" 
	d="
M54.485199,273.875122 
	C50.416019,278.513153 46.021664,283.225952 41.275307,287.957947 
	C45.335545,283.301392 49.747787,278.625641 54.485199,273.875122 
z"/>
<path fill="#F6FAE9" opacity="1.000000" stroke="none" 
	d="
M465.201599,180.934814 
	C467.561646,179.191223 470.349915,177.494232 473.499237,175.751251 
	C474.129944,182.801208 473.970795,182.903229 465.201599,180.934814 
z"/>
<path fill="#F5FBE5" opacity="1.000000" stroke="none" 
	d="
M362.698059,112.063507 
	C362.685699,115.780540 362.300446,119.512024 361.855286,123.639275 
	C357.663635,123.335114 356.664673,118.887833 359.701569,114.066879 
	C360.248993,113.197853 361.434357,112.730667 362.698059,112.063507 
z"/>
<path fill="#F5FBE5" opacity="1.000000" stroke="none" 
	d="
M361.775024,126.222443 
	C363.960693,130.754837 365.860321,135.530945 367.759583,140.670898 
	C366.592987,139.627747 364.962891,138.394424 364.357513,136.777451 
	C363.111359,133.448914 362.412842,129.915359 361.775024,126.222443 
z"/>
<path fill="#F5FBE6" opacity="1.000000" stroke="none" 
	d="
M475.884705,269.786377 
	C472.586578,266.348633 469.304230,262.542969 465.939514,258.401611 
	C469.204956,261.850067 472.552704,265.634277 475.884705,269.786377 
z"/>
<path fill="#F7FBE6" opacity="1.000000" stroke="none" 
	d="
M489.607605,162.937134 
	C489.953308,163.314117 489.972443,163.792343 489.992737,164.628983 
	C486.486725,167.303024 482.979584,169.618683 479.077942,171.885208 
	C482.216034,168.903519 485.748535,165.970963 489.607605,162.937134 
z"/>
<path fill="#F6FAE9" opacity="1.000000" stroke="none" 
	d="
M456.519409,186.069550 
	C458.544830,184.470139 460.946442,182.862946 463.686768,181.205017 
	C464.206696,182.443970 464.387970,183.733643 464.715179,186.061798 
	C462.026184,186.061798 459.460907,186.061798 456.519409,186.069550 
z"/>
<path fill="#F0FAD5" opacity="1.000000" stroke="none" 
	d="
M339.064758,299.307495 
	C344.468964,301.212067 349.443787,299.761719 354.639648,297.056671 
	C352.961945,298.342957 350.816162,300.878418 348.891846,300.720215 
	C345.659576,300.454468 341.865540,303.691742 339.064758,299.307495 
z"/>
<path fill="#F5FBE5" opacity="1.000000" stroke="none" 
	d="
M446.052887,278.281281 
	C448.652679,280.725616 451.224854,283.543976 453.889709,286.686401 
	C452.560547,287.194794 451.138702,287.379181 450.379639,287.477600 
	C448.832977,284.343994 447.429138,281.499664 446.052887,278.281281 
z"/>
<path fill="#DF7FA0" opacity="1.000000" stroke="none" 
	d="
M51.510429,312.151306 
	C51.791763,308.876587 55.792660,305.528931 58.859001,306.130768 
	C56.754211,308.186249 54.306271,310.149048 51.510429,312.151306 
z"/>
<path fill="#F8FCEE" opacity="1.000000" stroke="none" 
	d="
M458.493500,146.006439 
	C459.410156,142.593994 460.708344,139.173752 462.152344,135.411957 
	C463.211884,139.356781 463.901337,143.572922 458.493500,146.006439 
z"/>
<path fill="#F9F5F8" opacity="1.000000" stroke="none" 
	d="
M152.577896,178.006699 
	C152.619690,175.514389 153.034332,173.005936 153.721222,170.246429 
	C156.074890,172.977219 158.379456,175.988174 152.577896,178.006699 
z"/>
<path fill="#F2FADA" opacity="1.000000" stroke="none" 
	d="
M455.204346,241.830338 
	C452.997772,238.581604 451.046356,235.140045 449.086517,231.337677 
	C451.205231,234.530411 453.332367,238.083969 455.204346,241.830338 
z"/>
<path fill="#DF7FA0" opacity="1.000000" stroke="none" 
	d="
M37.474800,315.930359 
	C41.487129,314.600616 45.936169,313.357941 50.776157,312.133545 
	C47.585552,316.310486 42.746517,316.157043 37.474800,315.930359 
z"/>
<path fill="#F5FBE5" opacity="1.000000" stroke="none" 
	d="
M453.987976,287.390625 
	C455.979401,289.103302 457.970154,291.188080 460.029053,293.600891 
	C456.325653,293.592590 454.427856,291.399658 453.987976,287.390625 
z"/>
<path fill="#F8FCEE" opacity="1.000000" stroke="none" 
	d="
M496.881836,145.050629 
	C495.419556,144.507462 493.957275,143.964279 492.249817,143.200958 
	C493.954834,142.277130 495.904999,141.573471 498.530762,140.626053 
	C498.323730,142.281662 498.198029,143.286743 497.757599,144.649338 
	C497.255859,145.021439 497.068848,145.036026 496.881836,145.050629 
z"/>
<path fill="#F8F0F4" opacity="1.000000" stroke="none" 
	d="
M172.209885,292.921326 
	C173.763763,294.060913 175.317627,295.200531 177.065002,296.607605 
	C174.715652,296.782715 171.447800,298.158356 171.309189,293.382172 
	C171.805023,292.955353 172.007462,292.938324 172.209885,292.921326 
z"/>
<path fill="#F8F0F4" opacity="1.000000" stroke="none" 
	d="
M151.180359,268.199097 
	C152.718170,269.316650 154.168472,270.864014 155.705368,272.722473 
	C152.545868,273.357300 150.227646,272.691162 151.180359,268.199097 
z"/>
<path fill="#F7F2F5" opacity="1.000000" stroke="none" 
	d="
M172.020081,292.659973 
	C172.007462,292.938324 171.805023,292.955353 171.298141,292.987427 
	C165.405273,292.909302 165.405273,292.909302 167.780075,289.118469 
	C169.349869,290.103241 170.590073,291.250916 172.020081,292.659973 
z"/>
<path fill="#EFF8D9" opacity="1.000000" stroke="none" 
	d="
M414.197937,247.126526 
	C415.847900,247.720215 417.424988,248.693466 419.131470,249.927017 
	C416.900818,251.930466 415.450867,251.173477 414.197937,247.126526 
z"/>
<path fill="#F2FADA" opacity="1.000000" stroke="none" 
	d="
M445.348175,201.938446 
	C446.145142,199.138138 447.302063,196.278793 448.757446,193.250000 
	C447.940033,196.013504 446.824066,198.946457 445.348175,201.938446 
z"/>
<path fill="#F2FADA" opacity="1.000000" stroke="none" 
	d="
M449.442444,193.030151 
	C450.542786,191.210403 452.011749,189.373596 453.784302,187.448212 
	C454.140869,190.362656 453.223694,192.631805 449.442444,193.030151 
z"/>
<path fill="#F5FBE5" opacity="1.000000" stroke="none" 
	d="
M464.018066,298.339111 
	C465.952972,299.760681 467.875732,301.562103 469.925781,303.668823 
	C466.126495,304.421295 464.636383,302.064758 464.018066,298.339111 
z"/>
<path fill="#F9F5F8" opacity="1.000000" stroke="none" 
	d="
M40.795715,142.701385 
	C39.190659,143.853622 37.403625,144.776291 35.301048,145.838135 
	C33.857212,139.985229 38.425777,143.139572 40.795715,142.701385 
z"/>
<path fill="#F7EEF3" opacity="1.000000" stroke="none" 
	d="
M134.198792,114.810112 
	C132.887436,113.283012 131.860321,111.535347 130.763000,109.448807 
	C134.030930,109.501381 135.666809,111.070297 134.198792,114.810112 
z"/>
<path fill="#F8F0F4" opacity="1.000000" stroke="none" 
	d="
M135.132370,248.205444 
	C136.770050,249.316498 138.390762,250.805450 140.096863,252.624542 
	C136.845810,253.407196 135.766541,251.243393 135.132370,248.205444 
z"/>
<path fill="#DF7FA0" opacity="1.000000" stroke="none" 
	d="
M59.551758,267.935059 
	C58.426876,269.858917 56.982346,271.870453 55.166504,273.846802 
	C56.274166,271.881958 57.753139,269.952332 59.551758,267.935059 
z"/>
<path fill="#EFF8D9" opacity="1.000000" stroke="none" 
	d="
M398.161682,247.829712 
	C399.947296,246.506454 402.109039,245.253845 404.639587,244.058258 
	C402.851532,245.376953 400.694641,246.638672 398.161682,247.829712 
z"/>
<path fill="#F2FBE0" opacity="1.000000" stroke="none" 
	d="
M344.157104,271.524567 
	C343.856842,273.059021 343.216431,274.360840 342.273621,275.810791 
	C341.494690,274.294586 341.018158,272.630280 340.358398,270.326080 
	C341.658142,270.689056 342.737549,270.990509 344.157104,271.524567 
z"/>
<path fill="#F8F0F4" opacity="1.000000" stroke="none" 
	d="
M163.423584,287.980713 
	C163.161362,286.797028 163.319046,285.619659 163.753326,284.213715 
	C165.028870,285.083588 166.027786,286.182098 167.121964,287.590271 
	C166.092651,287.929016 164.968063,287.958038 163.423584,287.980713 
z"/>
<path fill="#F5FBE5" opacity="1.000000" stroke="none" 
	d="
M474.085022,308.125732 
	C475.758240,308.889557 477.428986,310.041565 479.259644,311.493713 
	C477.640503,310.700531 475.861542,309.607239 474.085022,308.125732 
z"/>
<path fill="#F5FBE5" opacity="1.000000" stroke="none" 
	d="
M441.547974,280.650330 
	C442.484589,281.096893 443.169952,281.810150 443.855316,282.523376 
	C443.293030,282.918823 442.730743,283.314270 442.168457,283.709747 
	C441.877899,282.778839 441.587280,281.847931 441.547974,280.650330 
z"/>
<path fill="#EFF8D9" opacity="1.000000" stroke="none" 
	d="
M408.979065,244.606705 
	C410.566650,244.886230 412.186829,245.543533 413.991211,246.472992 
	C412.454132,246.158264 410.732880,245.571365 408.979065,244.606705 
z"/>
<path fill="#EFF8D9" opacity="1.000000" stroke="none" 
	d="
M391.114563,255.848236 
	C391.618683,254.320190 392.505859,252.798660 393.712128,251.161072 
	C393.186676,252.648285 392.342133,254.251526 391.114563,255.848236 
z"/>
<path fill="#F5FBE5" opacity="1.000000" stroke="none" 
	d="
M460.046814,294.317810 
	C461.318512,295.065887 462.563019,296.218781 463.924133,297.670715 
	C461.660767,298.174805 459.640228,297.934723 460.046814,294.317810 
z"/>
<path fill="#DF7FA0" opacity="1.000000" stroke="none" 
	d="
M85.301018,279.915649 
	C84.845970,280.054413 84.677177,280.019592 84.249832,279.983398 
	C85.112274,278.677948 86.233253,277.373840 87.702065,276.055420 
	C87.229019,277.274780 86.408150,278.508423 85.301018,279.915649 
z"/>
<path fill="#F2FBE0" opacity="1.000000" stroke="none" 
	d="
M347.629150,268.015472 
	C347.120331,269.140442 346.202698,270.261902 345.001343,271.418701 
	C343.255798,268.637299 344.770630,267.984802 347.629150,268.015472 
z"/>
<path fill="#F2FBE0" opacity="1.000000" stroke="none" 
	d="
M341.586731,276.023376 
	C341.242523,277.346191 340.526917,278.717255 339.525879,280.266113 
	C339.898773,278.986511 340.557068,277.529083 341.586731,276.023376 
z"/>
<path fill="#EFF8D9" opacity="1.000000" stroke="none" 
	d="
M423.982300,254.420578 
	C425.254547,255.152237 426.531891,256.259796 427.950989,257.655090 
	C426.724304,256.894073 425.355865,255.845261 423.982300,254.420578 
z"/>
<path fill="#DF7FA0" opacity="1.000000" stroke="none" 
	d="
M67.577667,257.970154 
	C67.120544,259.206635 66.354813,260.546417 65.211807,261.874695 
	C65.646042,260.599945 66.457542,259.336700 67.577667,257.970154 
z"/>
<path fill="#EFF8D9" opacity="1.000000" stroke="none" 
	d="
M394.413391,251.024933 
	C395.075684,249.980118 396.105988,248.929214 397.450623,247.823486 
	C396.770508,248.852051 395.775970,249.935425 394.413391,251.024933 
z"/>
<path fill="#F2FADA" opacity="1.000000" stroke="none" 
	d="
M458.075134,246.779419 
	C457.324127,246.253876 456.713928,245.426285 456.080383,244.285583 
	C456.776642,244.807434 457.496277,245.642395 458.075134,246.779419 
z"/>
<path fill="#F7FBE6" opacity="1.000000" stroke="none" 
	d="
M498.282928,152.943390 
	C498.073761,152.126495 498.208221,151.278381 498.536469,150.173325 
	C498.695679,150.914978 498.661102,151.913574 498.282928,152.943390 
z"/>
<path fill="#F9F5F8" opacity="1.000000" stroke="none" 
	d="
M67.795776,145.807983 
	C67.235382,146.052780 66.736237,145.999207 66.237091,145.945648 
	C66.350670,145.497467 66.464241,145.049301 66.577820,144.601120 
	C67.004227,144.903961 67.430634,145.206802 67.795776,145.807983 
z"/>
<path fill="#DF7FA0" opacity="1.000000" stroke="none" 
	d="
M88.338486,275.907959 
	C88.476784,275.063293 88.910416,274.085114 89.696152,273.059875 
	C89.576767,273.933319 89.105286,274.853882 88.338486,275.907959 
z"/>
<path fill="#F5FBE6" opacity="1.000000" stroke="none" 
	d="
M478.071594,272.449585 
	C477.393951,272.105530 476.685486,271.416901 475.909180,270.428772 
	C476.574493,270.787872 477.307617,271.446411 478.071594,272.449585 
z"/>
<path fill="#F5FBE5" opacity="1.000000" stroke="none" 
	d="
M443.937073,275.555298 
	C444.607239,275.915100 445.301697,276.616791 446.050964,277.620789 
	C445.390991,277.247772 444.676208,276.572449 443.937073,275.555298 
z"/>
<path fill="#DF7FA0" opacity="1.000000" stroke="none" 
	d="
M63.606808,262.993378 
	C63.431885,263.827057 62.946129,264.765228 62.126926,265.781433 
	C62.294312,264.938904 62.795143,264.018402 63.606808,262.993378 
z"/>
<path fill="#DF7FA0" opacity="1.000000" stroke="none" 
	d="
M71.690666,252.105438 
	C71.528671,252.925919 71.098534,253.908524 70.316429,254.932739 
	C70.450478,254.072098 70.936501,253.169830 71.690666,252.105438 
z"/>
<path fill="#DF7FA0" opacity="1.000000" stroke="none" 
	d="
M30.925936,313.518433 
	C31.787416,313.629578 32.755119,314.049500 33.850082,314.785126 
	C32.995613,314.676300 32.013885,314.251770 30.925936,313.518433 
z"/>
<path fill="#DF7FA0" opacity="1.000000" stroke="none" 
	d="
M39.684799,289.018616 
	C39.516762,289.594238 39.050095,290.249939 38.247463,290.923767 
	C38.403057,290.327515 38.894611,289.713135 39.684799,289.018616 
z"/>
<path fill="#DF7FA0" opacity="1.000000" stroke="none" 
	d="
M73.762962,291.100403 
	C74.109184,291.087921 74.133011,291.559418 74.149979,291.795044 
	C73.699348,292.385101 73.231735,292.739532 72.478889,293.153687 
	C72.601349,292.513275 73.009048,291.813080 73.762962,291.100403 
z"/>
<path fill="#F6FBE3" opacity="1.000000" stroke="none" 
	d="
M333.463440,296.610046 
	C333.347839,297.057037 333.066681,297.330872 332.767670,297.583588 
	C332.760040,297.590027 332.556396,297.364594 332.444153,297.247314 
	C332.727966,296.976257 333.011749,296.705200 333.463440,296.610046 
z"/>
<path fill="#DF7FA0" opacity="1.000000" stroke="none" 
	d="
M61.488659,265.861084 
	C61.374287,266.487823 60.960098,267.183014 60.194702,267.879059 
	C60.291943,267.229767 60.740391,266.579651 61.488659,265.861084 
z"/>
<path fill="#DF7FA0" opacity="1.000000" stroke="none" 
	d="
M73.516808,249.893921 
	C73.414963,250.510544 73.016037,251.205627 72.277580,251.932205 
	C72.365273,251.299942 72.792496,250.636154 73.516808,249.893921 
z"/>
<path fill="#F5FBE5" opacity="1.000000" stroke="none" 
	d="
M358.401245,126.723541 
	C358.559448,126.849785 358.581940,127.068863 358.604462,127.287933 
	C358.491516,127.130745 358.378540,126.973557 358.401245,126.723541 
z"/>
<path fill="#F7FBE6" opacity="1.000000" stroke="none" 
	d="
M498.846436,148.073120 
	C498.509979,147.845520 498.230988,147.265533 497.933197,146.358688 
	C498.244202,146.594788 498.574036,147.157745 498.846436,148.073120 
z"/>
<path fill="#DF7FA0" opacity="1.000000" stroke="none" 
	d="
M74.705124,248.061432 
	C74.776390,248.478088 74.590897,249.063843 74.110878,249.773590 
	C74.027031,249.341888 74.237701,248.786209 74.705124,248.061432 
z"/>
<path fill="#DF7FA0" opacity="1.000000" stroke="none" 
	d="
M69.710747,255.114380 
	C69.776726,255.533112 69.580551,256.097015 69.092171,256.771423 
	C69.016174,256.341125 69.232376,255.800339 69.710747,255.114380 
z"/>
<path fill="#DF7FA0" opacity="1.000000" stroke="none" 
	d="
M59.396500,306.112549 
	C59.306641,305.874695 59.480530,305.575623 59.917400,305.214661 
	C60.007004,305.452301 59.833626,305.751801 59.396500,306.112549 
z"/>
<path fill="#F0FAD5" opacity="1.000000" stroke="none" 
	d="
M357.090240,295.853943 
	C357.044525,295.639679 357.263885,295.372345 357.737915,295.033386 
	C357.780212,295.241486 357.567780,295.521179 357.090240,295.853943 
z"/>
<path fill="#F0FAD5" opacity="1.000000" stroke="none" 
	d="
M337.141052,297.071350 
	C337.351074,297.039520 337.597015,297.273376 337.906372,297.757874 
	C337.705505,297.784668 337.441223,297.560852 337.141052,297.071350 
z"/>
<path fill="#F7FBE6" opacity="1.000000" stroke="none" 
	d="
M495.507782,156.875580 
	C495.274323,156.668045 495.369812,156.423553 495.835815,156.182465 
	C495.977631,156.373825 495.854401,156.591385 495.507782,156.875580 
z"/>
<path fill="#F0FAD5" opacity="1.000000" stroke="none" 
	d="
M338.091492,298.261841 
	C338.280762,298.185486 338.570618,298.340851 338.959106,298.729187 
	C338.769196,298.806000 338.480621,298.649780 338.091492,298.261841 
z"/>
<path fill="#DF7FA0" opacity="1.000000" stroke="none" 
	d="
M60.427353,305.136780 
	C60.328842,304.889374 60.496284,304.587494 60.929691,304.233246 
	C61.028210,304.481354 60.860760,304.781860 60.427353,305.136780 
z"/>
<path fill="#F8FCEE" opacity="1.000000" stroke="none" 
	d="
M493.132416,159.906021 
	C493.063599,159.702560 493.245239,159.392624 493.688141,158.991699 
	C493.760559,159.200333 493.571716,159.499939 493.132416,159.906021 
z"/>
<path fill="#F7FBE6" opacity="1.000000" stroke="none" 
	d="
M496.971527,145.302155 
	C497.068848,145.036026 497.255859,145.021439 497.724365,145.000732 
	C498.005463,145.170425 498.005096,145.346237 497.982788,145.785828 
	C497.660980,145.884308 497.361115,145.719009 496.971527,145.302155 
z"/>
<path fill="#F5FBE5" opacity="1.000000" stroke="none" 
	d="
M480.121368,312.266632 
	C480.312073,312.161316 480.627289,312.278351 481.053833,312.629761 
	C480.858704,312.739044 480.552307,312.614014 480.121368,312.266632 
z"/>
<path fill="#F5FBE5" opacity="1.000000" stroke="none" 
	d="
M397.939758,117.742569 
	C397.559479,117.863220 397.337555,117.674286 397.090607,117.208282 
	C397.003357,117.004311 397.502136,116.994553 397.751587,116.995636 
	C398.012665,117.166512 398.024292,117.336296 397.939758,117.742569 
z"/>
<path fill="#DF7FA0" opacity="1.000000" stroke="none" 
	d="
M64.656258,261.950867 
	C64.739029,262.165924 64.565178,262.462677 64.143936,262.855103 
	C64.064240,262.644684 64.231934,262.338593 64.656258,261.950867 
z"/>
<path fill="#F5FBE5" opacity="1.000000" stroke="none" 
	d="
M442.077454,273.254333 
	C442.350037,273.057678 442.621704,273.225586 442.854431,273.784027 
	C442.595581,273.927887 442.349274,273.742645 442.077454,273.254333 
z"/>
<path fill="#EFF8D9" opacity="1.000000" stroke="none" 
	d="
M420.150085,251.072281 
	C420.370697,250.983093 420.689026,251.173264 421.136841,251.615662 
	C420.926819,251.695816 420.587311,251.523727 420.150085,251.072281 
z"/>
<path fill="#F5FBE5" opacity="1.000000" stroke="none" 
	d="
M399.003601,113.297134 
	C398.992340,112.992821 399.480988,112.993965 399.725128,112.991287 
	C399.839905,113.309441 399.710571,113.630264 399.346008,114.076988 
	C399.078827,114.002411 399.046844,113.801926 399.003601,113.297134 
z"/>
<path fill="#DF7FA0" opacity="1.000000" stroke="none" 
	d="
M68.610214,256.917969 
	C68.703995,257.141724 68.540596,257.444000 68.127724,257.839661 
	C68.036507,257.620819 68.194771,257.308655 68.610214,256.917969 
z"/>
<path fill="#F5FBE5" opacity="1.000000" stroke="none" 
	d="
M429.111145,259.170074 
	C429.303253,259.118835 429.580139,259.312134 429.942322,259.748352 
	C429.750397,259.799072 429.473145,259.606842 429.111145,259.170074 
z"/>
<path fill="#F5FBE5" opacity="1.000000" stroke="none" 
	d="
M398.639221,115.162292 
	C398.757355,115.336159 398.660645,115.666191 398.352783,116.159370 
	C398.235870,115.987831 398.330078,115.653152 398.639221,115.162292 
z"/>
<path fill="#F7FBE6" opacity="1.000000" stroke="none" 
	d="
M494.149292,158.836304 
	C494.062164,158.625244 494.237183,158.312775 494.660034,157.881165 
	C494.742401,158.086319 494.576935,158.410614 494.149292,158.836304 
z"/>
<path fill="#F2FADA" opacity="1.000000" stroke="none" 
	d="
M458.454346,241.530579 
	C458.425415,241.479843 458.483307,241.581329 458.454346,241.530579 
z"/>
<path fill="#F9F5F8" opacity="1.000000" stroke="none" 
	d="
M155.906219,215.959137 
	C155.645706,216.037979 155.445129,215.816803 155.339417,215.287903 
	C155.604568,215.222900 155.781860,215.449203 155.906219,215.959137 
z"/>
<path fill="#F2FADA" opacity="1.000000" stroke="none" 
	d="
M444.382446,204.818298 
	C444.225739,204.649231 444.276917,204.293274 444.525543,203.741440 
	C444.678772,203.907516 444.634552,204.269455 444.382446,204.818298 
z"/>
<path fill="#F6FAE9" opacity="1.000000" stroke="none" 
	d="
M455.147217,186.906067 
	C455.123169,186.718765 455.335510,186.469620 455.795746,186.183777 
	C455.906555,186.457947 455.686554,186.690338 455.147217,186.906067 
z"/>
<path fill="#DF7FA0" opacity="1.000000" stroke="none" 
	d="
M71.385719,294.274048 
	C71.290611,294.067078 71.443581,293.702423 71.877884,293.220215 
	C71.984077,293.440552 71.808937,293.778473 71.385719,294.274048 
z"/>
<path fill="#F5FBE5" opacity="1.000000" stroke="none" 
	d="
M399.083679,155.313995 
	C399.702576,155.788376 400.336639,156.580124 400.951782,157.729477 
	C400.321503,157.268524 399.710205,156.449951 399.083679,155.313995 
z"/>
<path fill="#F5FBE5" opacity="1.000000" stroke="none" 
	d="
M400.989807,158.305664 
	C401.198944,158.270447 401.490021,158.501846 401.842529,159.015076 
	C401.626587,159.055359 401.349182,158.813828 400.989807,158.305664 
z"/>
<path fill="#F5FBE5" opacity="1.000000" stroke="none" 
	d="
M398.000977,153.302124 
	C398.213104,153.285141 398.499451,153.551117 398.830688,154.119064 
	C398.608795,154.142380 398.342010,153.863724 398.000977,153.302124 
z"/>
<path fill="#F7FBE6" opacity="1.000000" stroke="none" 
	d="
M491.777344,160.962769 
	C491.831146,161.157761 491.627289,161.458450 491.169952,161.868500 
	C491.117554,161.674728 491.318634,161.371582 491.777344,160.962769 
z"/>
<path fill="#DF7FA0" opacity="1.000000" stroke="none" 
	d="
M78.609108,286.015381 
	C78.464828,286.567505 78.005173,287.174957 77.283203,287.908417 
	C77.445168,287.379852 77.869453,286.725311 78.609108,286.015381 
z"/>
<path fill="#DF7FA0" opacity="1.000000" stroke="none" 
	d="
M79.872086,284.199707 
	C79.924911,284.607544 79.703804,285.133362 79.220627,285.792938 
	C79.171753,285.390381 79.384956,284.854034 79.872086,284.199707 
z"/>
<path fill="#F8F0F4" opacity="1.000000" stroke="none" 
	d="
M159.595123,277.745789 
	C159.444458,277.819275 159.288269,277.691956 159.070770,277.406403 
	C159.229691,277.273773 159.423080,277.372742 159.595123,277.745789 
z"/>
<path fill="#DF7FA0" opacity="1.000000" stroke="none" 
	d="
M76.796585,288.128937 
	C76.860809,288.310028 76.686554,288.607269 76.279358,289.027771 
	C76.216972,288.849030 76.387535,288.547058 76.796585,288.128937 
z"/>
<path fill="#DF7FA0" opacity="1.000000" stroke="none" 
	d="
M81.851654,282.146271 
	C81.915016,282.342560 81.734146,282.631775 81.307022,283.011353 
	C81.242996,282.814178 81.425201,282.526703 81.851654,282.146271 
z"/>
<path fill="#DF7FA0" opacity="1.000000" stroke="none" 
	d="
M80.858902,283.151733 
	C80.929436,283.354492 80.755203,283.648010 80.333267,284.026520 
	C80.261742,283.821808 80.437935,283.532135 80.858902,283.151733 
z"/>
<path fill="#DF7FA0" opacity="1.000000" stroke="none" 
	d="
M83.760300,280.104401 
	C83.814575,280.274872 83.646049,280.554962 83.249649,280.938660 
	C83.087982,280.700348 83.259888,280.424255 83.760300,280.104401 
z"/>
<path fill="#DF7FA0" opacity="1.000000" stroke="none" 
	d="
M74.921631,290.135559 
	C74.975502,290.341675 74.770828,290.627869 74.310822,290.995483 
	C74.258018,290.789795 74.460548,290.502716 74.921631,290.135559 
z"/>
<path fill="#DF7FA0" opacity="1.000000" stroke="none" 
	d="
M82.807541,281.125000 
	C82.872765,281.312683 82.702950,281.604706 82.293808,281.995300 
	C82.227173,281.805695 82.399841,281.517517 82.807541,281.125000 
z"/>
<path fill="#F5FBE5" opacity="1.000000" stroke="none" 
	d="
M427.579712,162.047607 
	C422.679504,162.363358 417.214813,163.372070 413.061340,158.289490 
	C417.756744,159.253113 422.479736,160.596771 427.579712,162.047607 
z"/>
<path fill="#F5FBE5" opacity="1.000000" stroke="none" 
	d="
M408.248474,154.528931 
	C407.173798,155.361893 405.928619,155.896500 404.253906,156.615509 
	C404.601929,155.195221 404.857086,154.153976 405.205200,152.731522 
	C406.224762,152.977066 407.151398,153.603821 408.248474,154.528931 
z"/>
<path fill="#F5FBE5" opacity="1.000000" stroke="none" 
	d="
M398.204071,140.603333 
	C397.509277,139.126801 396.792206,137.267593 396.116577,134.947296 
	C396.832642,136.397705 397.507233,138.309158 398.204071,140.603333 
z"/>
<path fill="#F5FBE5" opacity="1.000000" stroke="none" 
	d="
M396.219055,129.847198 
	C395.905090,129.438736 395.746155,128.854538 395.824310,128.123672 
	C396.165619,128.541824 396.269867,129.106628 396.219055,129.847198 
z"/>
<path fill="#F5FBE5" opacity="1.000000" stroke="none" 
	d="
M396.743164,122.546364 
	C396.592041,122.029686 396.574066,121.171059 396.804718,120.162209 
	C396.994324,120.742798 396.935303,121.473610 396.743164,122.546364 
z"/>
<path fill="#F5FBE5" opacity="1.000000" stroke="none" 
	d="
M411.128601,156.677429 
	C410.945251,156.762466 410.613129,156.614899 410.142151,156.226532 
	C410.328796,156.138763 410.654327,156.291794 411.128601,156.677429 
z"/>
<path fill="#F5FBE5" opacity="1.000000" stroke="none" 
	d="
M401.920105,147.738602 
	C401.724030,147.759689 401.459900,147.519821 401.139618,147.010010 
	C401.339661,146.985916 401.595886,147.231781 401.920105,147.738602 
z"/>
<path fill="#F5FBE5" opacity="1.000000" stroke="none" 
	d="
M399.032867,142.668213 
	C398.812500,142.678940 398.518005,142.385895 398.180939,141.770508 
	C398.411835,141.753586 398.685272,142.059021 399.032867,142.668213 
z"/>
<path fill="#FEFEFE" opacity="1.000000" stroke="none" 
	d="
M495.002014,283.001923 
	C494.918518,284.104401 494.833008,285.204956 494.669006,287.315826 
	C492.735687,285.663666 491.411804,284.532288 490.087891,283.400940 
	C490.260956,282.989746 490.434021,282.578583 490.607086,282.167389 
	C491.835571,282.417786 493.064087,282.668182 494.644440,282.957001 
	C494.996307,282.995453 495.000000,283.000000 495.002014,283.001923 
z"/>
</svg>