<svg fill="#000000" height="800px" width="800px" version="1.1" xmlns="http://www.w3.org/2000/svg" viewBox="0 0 324.667 324.667" xmlns:xlink="http://www.w3.org/1999/xlink" enable-background="new 0 0 324.667 324.667">
  <g>
    <path d="m168.333,69.539v-2.739h2.738c3.313,0 6-2.687 6-6s-2.687-6-6-6h-2.738v-2.738c0-3.313-2.687-6-6-6s-6,2.687-6,6v2.738h-2.738c-3.313,0-6,2.687-6,6s2.687,6 6,6h2.738v2.738c0,3.313 2.687,6 6,6s6-2.686 6-5.999z"/>
    <path d="m54.919,199.478c3.313,0 6-2.687 6-6v-8.614c0-3.313-2.687-6-6-6s-6,2.687-6,6v8.614c0,3.313 2.687,6 6,6z"/>
    <path d="m78.748,199.478c3.313,0 6-2.687 6-6v-8.614c0-3.313-2.687-6-6-6s-6,2.687-6,6v8.614c0,3.313 2.686,6 6,6z"/>
    <path d="m54.919,229.12c3.313,0 6-2.687 6-6v-8.614c0-3.313-2.687-6-6-6s-6,2.687-6,6v8.614c0,3.313 2.687,6 6,6z"/>
    <path d="m78.748,229.12c3.313,0 6-2.687 6-6v-8.614c0-3.313-2.687-6-6-6s-6,2.687-6,6v8.614c0,3.313 2.686,6 6,6z"/>
    <path d="m54.919,258.762c3.313,0 6-2.687 6-6v-8.614c0-3.313-2.687-6-6-6s-6,2.687-6,6v8.614c0,3.314 2.687,6 6,6z"/>
    <path d="m78.748,258.762c3.313,0 6-2.687 6-6v-8.614c0-3.313-2.687-6-6-6s-6,2.687-6,6v8.614c0,3.314 2.686,6 6,6z"/>
    <path d="m245.919,199.478c3.313,0 6-2.687 6-6v-8.614c0-3.313-2.687-6-6-6s-6,2.687-6,6v8.614c0,3.313 2.687,6 6,6z"/>
    <path d="m269.748,199.478c3.313,0 6-2.687 6-6v-8.614c0-3.313-2.687-6-6-6s-6,2.687-6,6v8.614c0,3.313 2.686,6 6,6z"/>
    <path d="m245.919,229.12c3.313,0 6-2.687 6-6v-8.614c0-3.313-2.687-6-6-6s-6,2.687-6,6v8.614c0,3.313 2.687,6 6,6z"/>
    <path d="m269.748,229.12c3.313,0 6-2.687 6-6v-8.614c0-3.313-2.687-6-6-6s-6,2.687-6,6v8.614c0,3.313 2.686,6 6,6z"/>
    <path d="m245.919,258.762c3.313,0 6-2.687 6-6v-8.614c0-3.313-2.687-6-6-6s-6,2.687-6,6v8.614c0,3.314 2.687,6 6,6z"/>
    <path d="m269.748,258.762c3.313,0 6-2.687 6-6v-8.614c0-3.313-2.687-6-6-6s-6,2.687-6,6v8.614c0,3.314 2.686,6 6,6z"/>
    <path d="m144.419,155.221v8.614c0,3.313 2.687,6 6,6s6-2.687 6-6v-8.614c0-3.313-2.687-6-6-6s-6,2.687-6,6z"/>
    <path d="m168.248,155.221v8.614c0,3.313 2.687,6 6,6s6-2.687 6-6v-8.614c0-3.313-2.687-6-6-6s-6,2.687-6,6z"/>
    <path d="m150.419,178.864c-3.313,0-6,2.687-6,6v8.614c0,3.313 2.687,6 6,6s6-2.687 6-6v-8.614c0-3.314-2.686-6-6-6z"/>
    <path d="m174.248,178.864c-3.313,0-6,2.687-6,6v8.614c0,3.313 2.687,6 6,6s6-2.687 6-6v-8.614c0-3.314-2.687-6-6-6z"/>
    <path d="m150.419,208.506c-3.313,0-6,2.687-6,6v8.614c0,3.313 2.687,6 6,6s6-2.687 6-6v-8.614c0-3.314-2.686-6-6-6z"/>
    <path d="m174.248,208.506c-3.313,0-6,2.687-6,6v8.614c0,3.313 2.687,6 6,6s6-2.687 6-6v-8.614c0-3.314-2.687-6-6-6z"/>
    <path d="m318.667,284.144h-12.611v-127.376c0-3.314-2.687-6-6-6h-78v-42.943c0-3.313-2.687-6-6-6h-47.723v-8.747h20.277c3.313,0 6-2.687 6-6v-52.555c0-3.313-2.687-6-6-6h-52.555c-3.313,0-6,2.687-6,6v52.555c0,3.313 2.687,6 6,6h20.277v8.747h-47.723c-3.313,0-6,2.687-6,6v42.943h-78c-3.313,0-6,2.686-6,6v127.376h-12.609c-3.313,0-6,2.687-6,6s2.687,6 6,6h312.667c3.313,0 6-2.687 6-6s-2.687-6-6-6zm-108.611-170.319v170.319h-10.056v-26.374c0-3.313-2.687-6-6-6h-63.333c-3.313,0-6,2.687-6,6v26.375h-10.056v-170.32h95.445zm-22.056,170.319h-51.333v-20.374h51.333v20.374zm106.056,0h-72v-121.376h72v121.376zm-191.445,0h-72v-121.376h72v121.376zm39.445-243.621h40.555v40.555h-40.555v-40.555z"/>
  </g>
</svg>