<svg version="1.0" xmlns="http://www.w3.org/2000/svg"
 width="50.000000pt" height="50.000000pt" viewBox="0 0 50.000000 50.000000"
 preserveAspectRatio="xMidYMid meet">

<g transform="translate(0.000000,50.000000) scale(0.100000,-0.100000)"
fill="#000000" stroke="none">
<path d="M182 448 c-32 -32 8 -80 48 -58 34 18 19 70 -20 70 -9 0 -21 -5 -28
-12z"/>
<path d="M325 435 c-31 -30 -32 -66 -2 -101 33 -37 81 -37 114 0 12 15 23 38
23 52 0 35 -42 74 -80 74 -19 0 -40 -9 -55 -25z m65 -33 c0 -10 6 -24 13 -31
10 -10 8 -12 -8 -9 -21 3 -36 58 -16 58 6 0 11 -8 11 -18z"/>
<path d="M128 339 c-53 -27 -97 -119 -58 -119 4 0 17 16 29 35 28 48 45 46 36
-5 -6 -38 -4 -44 33 -84 24 -26 42 -57 46 -80 7 -39 30 -56 48 -38 15 15 -7
97 -36 134 -22 29 -23 31 -7 94 13 57 13 66 1 74 -23 15 -51 11 -92 -11z"/>
<path d="M247 304 c-19 -20 -6 -50 28 -63 59 -21 79 10 21 34 -19 8 -36 19
-38 25 -2 6 -7 8 -11 4z"/>
<path d="M120 168 c0 -8 -14 -34 -31 -57 -51 -72 -15 -101 40 -32 36 45 38 61
11 86 -16 15 -20 15 -20 3z"/>
</g>
</svg>
