<svg width="2691" height="2497" viewBox="0 0 2691 2497" fill="none" xmlns="http://www.w3.org/2000/svg">
<path d="M1549.33 2.3334C1476.67 10.7334 1422.53 34.3335 1378.8 76.8668C1358.27 96.8668 1341.2 119.8 1328 145C1324.93 150.867 1321.33 157.4 1320.13 159.667C1315.73 167.133 1302.8 201.667 1294 229.667C1281.6 269.267 1270 326.067 1262.67 383.667C1260.8 398.333 1257.6 417 1256 422.333C1255.33 424.467 1253.33 432.6 1251.47 440.333C1249.6 448.067 1246.8 457.533 1245.33 461.533C1226 511.533 1179.07 549.667 1120.13 563.133C1104.53 566.733 1036.27 569.133 1008 567C953.599 563 918.399 559.533 911.999 557.8C909.466 557 901.066 555.8 893.332 555.133C867.599 552.733 724.399 533.133 691.332 527.667C679.332 525.667 645.999 521.4 602.666 516.333C589.866 514.867 572.132 512.467 563.332 511.133C527.199 505.133 513.599 504.333 466.666 504.867C429.732 505.267 419.332 505.8 406.532 508.067C377.599 513 354.666 520.467 337.066 530.333C317.332 541.4 311.066 549.133 307.332 566.867C302.532 590.067 307.332 616.734 323.466 655.934C326.132 662.334 328.799 668.334 329.466 669.134C330.132 669.934 332.399 673.8 334.399 677.534L338.132 684.334L334.399 695.534C329.866 709.267 328.399 726.2 330.532 740.2C332.666 754.067 339.199 770.2 351.332 792.334L361.732 811.4L359.599 817.534C354.532 832.467 352.666 849.8 354.666 862.734C356.132 871.534 363.599 891.267 367.999 897.667C372.666 904.333 375.066 917.4 374.799 934.334C373.999 980.2 385.332 1020.87 403.732 1038.47C409.999 1044.33 410.532 1045.4 408.799 1046.87C405.332 1049.8 400.266 1068.33 399.332 1081.8C398.399 1095.4 401.199 1121.27 404.932 1132.33C408.266 1142.33 412.932 1150.47 417.466 1154.2C422.532 1158.47 424.532 1158.07 425.066 1152.87C428.132 1117.27 445.332 1086.73 470.132 1072.87C489.332 1062.07 524.532 1054.2 567.866 1050.87C577.066 1050.2 589.732 1049.13 595.999 1048.47C609.599 1047 677.599 1047.93 692.666 1049.8C698.532 1050.47 723.999 1051.4 749.332 1051.8C791.999 1052.47 814.266 1053.67 928.666 1061.67C962.532 1064.07 1014.4 1067.4 1073.33 1071C1085.47 1071.67 1106.4 1073.13 1120 1073.93C1171.6 1077.53 1193.07 1075 1214.4 1063.13C1228.93 1055.13 1239.6 1045.4 1248.53 1031.93C1262.13 1011.27 1272.27 987.534 1284 948.334C1288.53 933.534 1293.2 918.333 1294.67 914.6C1296 910.733 1297.87 905 1298.67 901.667C1301.47 890.867 1311.6 871.934 1320.4 861C1342.93 833 1368.27 812.2 1394.93 799.8C1441.47 778.067 1498.53 768.2 1578.67 768.2C1635.6 768.2 1676.8 771.8 1722.67 780.6C1730.4 782.067 1738.53 783.534 1740.67 783.8C1750.67 785.4 1774.93 790.067 1784.8 792.467C1790.67 793.8 1802.67 796.467 1811.47 798.2C1833.2 802.6 1843.73 805.134 1850.27 807.534C1855.6 809.4 1883.6 816.467 1913.87 823.667C1921.73 825.534 1938.27 830.2 1950.53 834.2C1962.67 838.2 1989.07 846.6 2009.07 853C2053.2 866.867 2084.93 878.2 2116 891C2128.8 896.333 2149.6 904.733 2162 909.667C2190.8 921 2226.13 936.734 2249.33 948.334C2280.4 963.934 2322.67 982.2 2324.27 980.6C2324.93 979.934 2325.33 977.934 2325.07 976.2C2324.4 971.534 2312.4 965 2226.67 922.334C2148.67 883.533 2143.47 881 2106 864.2C2094.27 859 2075.33 850.467 2064 845.4C2052.67 840.334 2027.73 829.8 2008.67 822.2C1989.6 814.6 1971.33 807.134 1968 805.667C1958.53 801.534 1902 781.4 1869.07 770.467C1842.8 761.667 1805.6 750.467 1784 744.734C1707.73 724.6 1650 714.067 1592.93 709.667C1569.73 707.934 1518.4 707.934 1498.27 709.667C1458.13 713.134 1423.73 722.067 1391.33 737.534C1354.53 755.134 1323.2 786.334 1306.67 822.334C1303.6 829 1299.73 837.267 1298 841C1293.47 850.867 1284.67 878.2 1273.33 917C1269.07 931.934 1258.13 955.267 1249.73 967.534C1247.2 971.267 1239.07 980.867 1231.6 988.867C1198.93 1023.67 1171.33 1034.33 1105.87 1037.8C1071.87 1039.53 1069.33 1039.4 1024 1035.13C991.332 1031.93 718.132 1008.87 686.666 1006.6C642.666 1003.27 532.799 1005.27 505.332 1009.8C475.466 1014.73 458.266 1019.13 443.866 1025.67C435.599 1029.27 427.866 1033.27 426.666 1034.33C425.466 1035.4 423.732 1036.33 422.932 1036.33C420.132 1036.33 418.266 1025.4 419.066 1012.87C420.266 992.467 429.599 974.467 445.066 962.467C460.399 950.734 473.332 946.467 503.999 943C549.199 937.934 572.932 937 659.332 937C747.599 937 786.532 938.467 845.999 944.334C853.332 945 867.199 946.2 876.666 947C886.266 947.667 911.732 949.8 933.332 951.667C954.932 953.534 987.732 956.2 1006 957.667C1056.93 961.8 1069.2 962.734 1097.33 965.267C1131.6 968.334 1173.33 968.334 1185.87 965.267C1200.53 961.667 1217.2 952.2 1228.4 941.134C1246.53 923.4 1258.13 902.2 1272.27 860.467C1277.33 845.267 1283.2 828.2 1285.33 822.334C1287.33 816.467 1294 797.267 1300 779.667C1318.67 725 1324.8 713.267 1346.13 691.667C1370.53 666.867 1401.87 648.467 1441.2 635.8C1485.2 621.534 1526 616.067 1588 615.934C1657.47 615.8 1722.13 623.667 1805.33 642.467C1826.93 647.267 1863.47 656.734 1872.67 659.667C1875.6 660.6 1887.6 664.2 1899.33 667.667C1959.73 685.134 1987.87 694.6 2029.33 711.534C2042.93 717 2068.4 727.267 2086 734.2C2145.6 757.667 2255.6 809.667 2292.67 831.667C2310.4 842.2 2338.13 856.334 2339.07 855.4C2339.6 855 2340 853.267 2340 851.8C2340 849.667 2336.53 846.867 2326.4 840.334C2318.8 835.667 2306.4 827.667 2298.8 822.734C2291.2 817.8 2284.8 813.667 2284.53 813.667C2284.27 813.667 2276.13 808.867 2266.67 803C2153.2 733.534 2035.2 673.267 1930 631C1806.67 581.533 1699.6 553.667 1600.4 545.533C1575.6 543.533 1513.6 544.733 1494.67 547.533C1439.73 555.8 1402 569.933 1368.53 594.467C1347.73 609.667 1335.07 623.667 1318.67 649.667C1300.13 678.734 1292.93 695.4 1282.13 733.667C1272.4 768.6 1269.33 778.734 1264.53 794.067C1262 802.067 1258.13 815.534 1255.87 824.067C1246.8 857.934 1238.13 870.467 1206.27 895.933C1186.93 911.533 1176.53 915.667 1145.33 920.867C1110.8 926.467 1092.8 927.667 1038.67 927.534C992.799 927.4 981.466 927 950.666 923.934C931.199 922.067 909.066 920.2 901.332 919.667C893.599 919.267 881.599 918.067 874.666 917C851.866 913.4 781.999 905 752.666 902.333C747.599 901.8 728.932 899.4 711.332 897C651.732 888.467 614.132 885.667 563.599 885.667C525.732 885.667 506.932 886.867 477.999 891C448.532 895.267 423.466 903.133 409.866 912.2L405.732 915L401.999 906.733C389.466 878.733 410.666 841.4 446.799 827.8C471.866 818.467 560.666 812.467 617.332 816.2C642.799 817.934 820.532 829 855.332 831C882.532 832.6 917.332 835.534 936.666 837.667C970.399 841.667 1108.27 856.467 1123.6 857.8C1154.4 860.6 1174.8 857 1200 844.334C1222.27 833.134 1231.87 823.534 1245.2 798.6C1262.67 765.934 1273.2 736.734 1282.67 694.334C1286.67 676.734 1292.53 656.6 1303.07 624.334C1309.73 604.067 1330.27 563.133 1344.4 541.667C1356.27 523.8 1373.47 505.533 1390.13 493.533C1400.13 486.2 1422.13 474.733 1439.33 467.8C1531.73 430.6 1673.73 436.467 1839.33 484.333C1863.87 491.4 1885.73 498.333 1890 500.333C1891.47 501 1897.47 503 1903.33 504.733C1909.2 506.6 1917.33 509.4 1921.33 511C1925.33 512.467 1932.53 515 1937.2 516.6C1942 518.067 1952.13 521.933 1959.87 525.267C1967.6 528.6 1977.2 532.467 1981.2 533.933C1999.73 540.6 2030.27 553.267 2046.67 561C2056.53 565.667 2073.33 573.4 2084 578.333C2094.67 583.133 2110.53 591 2119.33 595.533C2176.13 625 2218.27 647.667 2237.33 659C2290 690.067 2310.93 702.6 2325.2 711.934C2339.6 721.4 2340.67 721.8 2342.4 719.4C2344 717.267 2343.47 716.334 2337.07 710.6C2325.2 699.8 2293.87 675.134 2271.33 658.867C2111.6 543.8 1929.73 452.867 1763.33 405.133C1682.8 381.933 1617.2 371.667 1550 371.667C1526.13 371.667 1516.27 372.2 1505.33 374.067C1465.47 381.133 1434.13 392.733 1400.93 412.867C1351.73 442.867 1315.2 488.467 1299.2 540.333C1296.53 548.733 1293.07 559.533 1291.33 564.333C1287.07 576.467 1278.13 609.934 1274 629C1265.33 669.134 1251.6 714.2 1242 734.467C1225.6 768.734 1204.4 787.134 1168 798.734C1142 807 1122.67 810.334 1086 812.467C1058.27 814.067 1068.67 814.734 959.332 804.334C879.066 796.6 847.199 793.667 831.999 792.467C823.599 791.8 805.332 789.667 791.332 787.8C739.066 780.6 667.866 773.934 604.666 770.2C559.066 767.534 469.332 768.2 443.332 771.4C407.066 775.934 386.399 781.934 382.132 789.4C380.266 792.6 375.999 773.934 375.999 762.734C375.999 751.8 380.799 737.667 387.999 727C393.732 718.6 404.266 708.334 410.399 705.134C425.466 697.4 483.332 691.534 557.999 690.2C611.466 689.267 625.999 690.067 733.332 700.334C811.732 707.667 887.732 714.334 918.666 716.334C929.332 717 953.066 719.667 971.332 722.2C1054.67 733.8 1069.47 735.4 1110.67 737.8C1137.33 739.267 1148.27 738.6 1171.6 734.334C1195.07 729.934 1220.13 711.267 1239.6 683.4C1247.87 671.667 1255.2 651.4 1266.8 609C1268.93 600.867 1274.93 580.067 1280.13 562.733C1285.2 545.267 1290.4 526.333 1291.47 520.733C1292.67 515 1298.27 497.133 1304 481C1309.6 464.867 1315.6 447.4 1317.33 442.333C1323.6 423 1339.87 394.067 1356.13 373.667C1365.33 362.067 1383.6 343.4 1396.67 332.6C1436.4 299.267 1490.27 275.533 1544.13 267.533C1563.87 264.733 1611.2 263.667 1635.47 265.533C1769.73 276.333 1938.13 334.2 2119.33 431.667C2134 439.533 2153.87 450.2 2163.33 455.267C2203.2 476.733 2276.53 523.533 2328.67 560.867C2342.67 570.733 2355.07 579 2356.4 579C2360.8 579 2358.53 574.6 2349.73 566.067C2222.13 443.533 2003.6 310.333 1819.87 243.267C1799.73 235.8 1742.13 217.133 1734 215.133C1731.07 214.467 1720.27 211.8 1710 209.267C1634.4 189.933 1564.13 186.6 1499.33 199.133C1428.13 212.867 1368.53 249.933 1332.27 303C1316.8 325.533 1308.93 342.733 1296.8 380.067C1289.33 402.6 1286.27 415.267 1277.87 457.4C1262.27 535.933 1249.2 587.8 1241.73 601.667C1228.13 626.6 1208.8 650.467 1190.93 664.334C1178.67 673.667 1154.8 681.8 1119.33 688.6C1105.6 691.267 1099.07 691.667 1073.33 691.667C1043.47 691.667 979.999 687.667 946.399 683.8C937.332 682.734 922.799 681.134 913.999 680.334C905.199 679.534 892.932 678.2 886.666 677.4C880.399 676.734 870.266 675.534 863.999 675C845.066 673.134 829.199 671.134 818.666 669C808.266 666.867 783.866 664.067 756.666 661.667C747.866 660.867 734.132 659.134 725.999 657.667C717.999 656.334 705.999 654.867 699.332 654.334C692.799 653.934 681.599 653 674.666 652.334C667.732 651.534 655.066 650.467 646.666 649.667C638.266 648.867 625.332 647.4 617.999 646.334C610.666 645.267 594.399 643.8 581.866 643C569.199 642.2 555.466 641 551.199 640.334C523.466 635.934 454.799 636.2 427.332 640.867C414.399 643.134 375.066 654.6 367.866 658.334C363.599 660.6 363.466 660.6 361.199 657.8C355.599 651 353.332 641 353.332 623.934C353.332 608.867 353.599 607 356.932 600.467C361.066 591.933 372.532 580.2 380.266 576.2C399.732 566.333 418.399 563.4 479.999 560.867C503.866 559.933 596.266 562.2 621.999 564.467C630.799 565.267 648.266 566.733 660.666 567.667C673.199 568.733 693.599 570.733 705.999 572.333C718.532 573.8 734.666 575.667 741.999 576.333C749.332 577 759.866 578.2 765.332 579C775.732 580.333 792.132 582.2 812.666 584.333C819.332 585 829.732 586.2 835.999 586.867C881.332 592.067 910.799 595 1008 603.667C1036.93 606.2 1069.33 609.267 1080 610.467C1106.4 613.267 1144 615.134 1155.33 614.2C1186.67 611.534 1217.47 589.933 1237.33 556.867C1249.6 536.467 1256.67 521.933 1262.67 504.867C1267.6 490.733 1268.93 485.133 1276.53 447C1285.33 402.733 1289.6 385.933 1300.13 354.333C1302.4 347.667 1306 336.333 1308.13 329C1327.73 264.333 1332.4 251.667 1346.93 223.667C1368.27 182.733 1415.47 140.467 1472 111.667C1505.07 94.8668 1531.73 86.0668 1572.4 78.3335C1595.73 74.0668 1599.47 73.6668 1623.07 73.6668C1650.8 73.6668 1687.73 77.5335 1712 83.0001C1802.8 103.133 1891.73 135.267 2000.67 187.133C2072.8 221.533 2086.93 229.267 2147.33 268.067C2155.47 273.267 2172.93 284.2 2186.13 292.333C2199.47 300.6 2217.47 312.467 2226.13 318.733C2234.93 325 2248.4 334.467 2256.13 339.667C2276 353.267 2315.07 382.467 2329.33 394.733C2352.93 414.6 2357.33 418.467 2369.87 428.6C2376.67 434.333 2382.67 439 2383.2 439C2383.6 439 2384 437.667 2384 435.933C2384 433.8 2376.67 425.667 2358.53 407.667C2327.47 376.867 2331.87 381 2304.67 357.533C2260.27 319.533 2239.73 303.8 2118 215C1982.67 116.333 1857.2 52.8667 1731.33 19.6667C1709.2 13.8001 1668.27 5.40007 1652 3.5334C1628.93 0.733403 1569.73 0.0667365 1549.33 2.3334Z" fill="#FFA500"/>
<path d="M1504 859.801C1462.93 862.601 1431.33 868.867 1392.67 881.801C1373.87 888.201 1347.6 905.934 1329.33 924.734C1317.6 936.734 1299.33 963.801 1290.53 982.334C1285.87 992.201 1280.27 1007.27 1276 1021.67C1264.4 1060.47 1257.2 1076.33 1243.87 1092.33C1225.47 1114.47 1206.8 1127 1182.27 1133.4C1152.53 1141.27 1123.73 1145.67 1101.87 1145.67C1072.53 1145.67 999.866 1142.07 927.332 1136.87C860.799 1132.2 858.666 1132.07 805.999 1125.13C737.466 1116.07 695.332 1113.67 628.666 1115.13C570.532 1116.47 550.799 1117.93 499.332 1125.13C474.799 1128.47 463.999 1132.6 447.999 1144.33C428.532 1158.73 420.132 1172.07 417.999 1192.07C416.399 1206.2 424.266 1229.13 433.332 1236.87C438.666 1241.27 441.066 1241.27 442.132 1236.6C443.866 1228.47 447.199 1221.13 452.932 1213.67C464.932 1197.53 479.332 1187.8 504.932 1178.33C518.399 1173.4 524.266 1172.07 542.132 1169.8C589.599 1163.8 590.932 1163.8 708.666 1164.07C823.599 1164.33 849.066 1164.73 893.332 1167C906.932 1167.8 932.132 1169 949.332 1169.67C966.532 1170.47 983.999 1171.67 987.999 1172.33C995.332 1173.53 1063.2 1179.13 1103.33 1181.67C1115.07 1182.47 1137.6 1183.13 1153.47 1183.13C1178.4 1183.27 1183.73 1182.87 1194.13 1180.47C1226.8 1172.6 1235.73 1166.47 1254.53 1139C1262.93 1126.73 1266.93 1118.47 1274.27 1099C1291.07 1054.07 1326.67 995.267 1352.27 970.067C1378.53 944.334 1416 931.267 1485.33 924.067C1510.53 921.401 1598.93 921.934 1632.67 924.734C1754.8 935.267 1878 958.734 2018.67 998.467C2091.6 1019 2187.07 1051 2235.33 1071C2245.6 1075.13 2261.2 1081.27 2270 1084.33C2278.8 1087.4 2289.47 1091.4 2293.6 1093.13C2302.93 1097 2307.47 1097.13 2309.33 1093.8C2310.53 1091.53 2309.47 1090.73 2299.6 1086.2C2293.6 1083.4 2284.53 1078.87 2279.33 1076.2C2266 1069.27 2250.4 1061 2247.33 1059.4C2244 1057.53 2227.73 1049.93 2202.67 1038.33C2192 1033.4 2180.67 1027.93 2177.33 1026.2C2174 1024.47 2158.4 1017.53 2142.67 1010.87C1938.27 924.734 1760.8 876.067 1597.33 861.667C1581.33 860.201 1516.67 858.867 1504 859.801Z" fill="#FFA500"/>
<path d="M1492 1007C1471.73 1008.07 1448.27 1010.47 1441.33 1012.33C1438.8 1013.13 1435.07 1013.67 1433.07 1013.67C1431.2 1013.67 1420.4 1016.33 1409.07 1019.8C1351.6 1036.87 1317.47 1065.53 1290.4 1119.67C1286 1128.47 1277.47 1144.07 1271.47 1154.33C1265.47 1164.6 1257.07 1179.27 1252.8 1187C1241.73 1207 1235.07 1214.87 1221.33 1224.07C1208.4 1232.87 1200.27 1236.33 1181.47 1241.13C1157.6 1247.27 1138.67 1248.33 1071.33 1247.53C999.599 1246.73 948.532 1243.93 891.332 1237.8C884.799 1237 861.332 1235.53 839.332 1234.33C817.332 1233.13 789.199 1231.67 776.665 1231C713.599 1227.53 695.332 1226.87 648.665 1226.6C617.199 1226.47 590.932 1227 579.332 1227.93C569.065 1228.87 555.865 1229.93 549.999 1230.33C539.065 1231 512.132 1234.47 507.332 1235.8C500.932 1237.67 478.665 1247.67 471.865 1251.8C462.399 1257.53 449.065 1271.53 444.399 1280.73C441.332 1286.73 440.932 1289.4 440.799 1300.33C440.665 1312.07 443.999 1331.13 446.665 1334.07C447.065 1334.6 453.199 1329.53 460.132 1322.6C488.532 1294.33 514.932 1281.93 569.332 1270.87C606.799 1263.13 671.599 1259.93 725.599 1263C738.265 1263.67 761.865 1264.87 777.999 1265.67C927.732 1272.47 951.199 1273.53 1001.33 1275.53C1056.4 1277.93 1095.73 1280.07 1111.33 1281.67C1126.53 1283.27 1180.4 1283.27 1190.67 1281.67C1203.73 1279.53 1222.93 1272.73 1231.6 1267.13C1240.4 1261.4 1252.4 1249.27 1257.87 1240.47C1260 1237.27 1269.87 1218.33 1279.87 1198.47C1313.33 1132.07 1320 1122.87 1348.13 1104.33C1380.53 1082.87 1417.73 1072.2 1484 1065.4C1506 1063.13 1605.07 1063.13 1634.67 1065.4C1762.67 1075.27 1898.4 1098.87 2038.67 1135.8C2118.53 1156.87 2165.47 1170.6 2220.67 1189C2256 1200.87 2300.27 1213 2303.47 1211.8C2309.6 1209.4 2302.93 1205.27 2277.33 1195C2270.4 1192.2 2260.8 1188.2 2256 1185.93C2246.4 1181.53 2209.2 1166.73 2173.33 1153C2081.87 1117.93 1982.67 1085.93 1894 1063C1859.73 1054.07 1797.73 1039 1792 1038.2C1789.47 1037.8 1779.6 1035.93 1770 1034.2C1760.53 1032.33 1744.53 1029.4 1734.67 1027.67C1724.8 1025.93 1712.53 1023.53 1707.33 1022.33C1702.27 1021.27 1696.53 1020.33 1694.8 1020.33C1692.93 1020.33 1689.73 1019.8 1687.47 1019.13C1682.4 1017.53 1666.27 1015.27 1649.33 1013.67C1642.4 1013 1630.13 1011.53 1622 1010.47C1588.4 1005.8 1542.13 1004.6 1492 1007Z" fill="#FFA500"/>
<path d="M1483.33 1146.6C1402.67 1151.53 1348.93 1169.27 1321.33 1199.93C1313.73 1208.47 1301.2 1227 1291.33 1244.33C1255.33 1307.67 1238.8 1324.73 1202.67 1335.4C1163.73 1346.87 1134.4 1349.27 1058 1346.87C1038.93 1346.33 1012.27 1345.13 998.666 1344.47C943.866 1341.27 925.599 1340.07 916.666 1339C911.599 1338.33 894.399 1337.13 878.666 1336.33C862.933 1335.53 841.333 1334.33 830.666 1333.67C752.799 1328.33 643.733 1326.33 613.999 1329.53C579.199 1333.27 573.599 1333.93 567.333 1335.13C563.733 1335.93 551.999 1337.93 541.333 1339.8C495.066 1347.8 461.066 1371.27 454.666 1399.4C453.599 1404.2 453.866 1407.4 455.999 1415.67C458.799 1426.33 463.599 1435.93 465.333 1434.07C465.866 1433.53 467.066 1430.87 467.866 1428.33C469.466 1423.13 474.266 1417.67 482.933 1410.73C495.333 1400.73 506.933 1395.93 544.799 1385.13C582.399 1374.47 588.133 1373.67 657.866 1370.33C739.733 1366.47 895.999 1366.47 951.333 1370.33C955.733 1370.6 966.266 1371.27 974.666 1371.67C1011.6 1373.4 1115.33 1380.33 1128.67 1381.93C1136.8 1382.87 1154.13 1383.67 1167.33 1383.53C1186.93 1383.53 1193.6 1383 1204 1380.6C1222.93 1376.33 1236.93 1368.87 1249.33 1356.47C1261.87 1344.07 1267.2 1336.33 1281.2 1309.8C1291.33 1290.6 1307.07 1265 1311.47 1260.73C1312.53 1259.67 1313.33 1258.47 1313.33 1257.93C1313.33 1257.4 1316.13 1253.93 1319.6 1250.33C1325.33 1244.07 1327.6 1242.33 1338.67 1235.67C1341.07 1234.2 1344.53 1231.67 1346.53 1230.07C1352 1225.67 1374.4 1216.87 1389.6 1213.13C1427.87 1203.67 1490.93 1197.67 1550 1197.67C1616.4 1197.67 1722.53 1205.8 1797.6 1216.47C1808.13 1217.93 1823.33 1220.07 1831.33 1221.13C1848.13 1223.4 1898.53 1231.4 1913.33 1234.2C1925.47 1236.6 1946.53 1240.33 1982 1246.33C2025.87 1253.8 2076.67 1264.33 2106 1272.2C2149.6 1283.93 2160 1286.87 2172.8 1290.73C2180 1293 2190.53 1295.8 2196 1296.87C2212.4 1300.2 2247.33 1309.27 2259.73 1313.53C2279.47 1320.2 2290.67 1323 2290.67 1321.27C2290.67 1320.33 2291.07 1318.33 2291.47 1316.87C2292.13 1314.33 2291.07 1313.53 2282.4 1310.33C2277.07 1308.2 2264.27 1303.27 2254 1299.4C2038.4 1216.07 1792.67 1159.27 1594.67 1147C1574.93 1145.8 1500.4 1145.53 1483.33 1146.6Z" fill="#FFA500"/>
<path d="M1452.67 1278.34C1398.8 1283 1363.87 1292.34 1340.67 1308.34C1337.6 1310.47 1328.53 1318.47 1320.67 1325.94C1305.07 1340.74 1300.13 1346.74 1283.73 1370.47C1275.07 1383 1255.87 1404.87 1246.13 1413.4C1225.73 1431.14 1197.47 1439.94 1152 1443.14C1119.73 1445.27 1061.47 1445 1026 1442.47C1009.2 1441.27 978.533 1439.8 958 1439C911.467 1437.4 855.6 1434.34 832 1432.07C809.333 1429.94 687.2 1429.94 652.667 1432.2C639.467 1433.14 619.067 1434.34 607.333 1435C581.467 1436.47 554.133 1440.47 538 1445C522.8 1449.27 496.133 1462.6 485.867 1470.74C477.2 1477.8 470.133 1488.2 468.8 1495.94C468.4 1498.74 468 1505.27 468 1510.47C468 1518.07 468.533 1520.74 470.8 1523.54C472.267 1525.4 474 1527 474.533 1527C475.067 1527 477.333 1524.34 479.733 1521C484.267 1514.47 500 1503.4 515.6 1495.8C539.6 1484.07 579.067 1475.14 628 1470.34C664.4 1466.87 985.333 1469.4 1065.33 1473.8C1100.27 1475.8 1198.4 1475.67 1214 1473.67C1235.33 1470.87 1254.13 1457.8 1266.4 1436.87C1273.47 1425 1317.33 1374.87 1326.8 1367.67C1344.4 1354.6 1358 1348.2 1381.47 1342.34C1411.73 1334.6 1450.27 1329.8 1503.87 1326.87C1536.67 1325.14 1652 1326.07 1682.67 1328.34C1693.33 1329.14 1714.27 1330.6 1729.33 1331.67C1744.4 1332.74 1758 1333.94 1759.73 1334.2C1761.33 1334.6 1771.2 1335.8 1781.73 1337C1802.67 1339.27 1808.4 1340.07 1813.33 1341C1815.2 1341.4 1822.93 1342.34 1830.67 1343.14C1838.4 1343.8 1845.6 1344.74 1846.67 1344.87C1847.73 1345 1852.53 1345.67 1857.33 1346.2C1862.13 1346.74 1869.07 1347.94 1872.67 1349C1876.4 1349.94 1885.6 1351.4 1893.33 1352.34C1901.07 1353.14 1910 1354.47 1913.33 1355C1916.67 1355.67 1922.4 1356.6 1926 1357.14C1932.93 1357.94 1996.93 1368.47 2012 1371.14C2016.8 1371.94 2025.2 1373.4 2030.67 1374.34C2036.13 1375.27 2043.33 1376.6 2046.67 1377.4C2059.33 1380.47 2072.8 1383 2076 1383C2077.87 1383 2085.33 1384.47 2092.67 1386.2C2100 1387.94 2113.47 1390.74 2122.67 1392.34C2131.87 1393.94 2141.73 1395.8 2144.67 1396.47C2154.4 1399 2165.87 1401.27 2182 1404.2C2190.8 1405.8 2202.27 1408.2 2207.33 1409.67C2212.53 1411.14 2223.33 1413.4 2231.33 1415C2239.47 1416.47 2251.73 1419.27 2258.67 1421.14C2278 1426.34 2279.47 1426.47 2280.4 1422.87C2280.93 1421.14 2280.8 1419.4 2280.27 1418.87C2279.33 1418.2 2265.33 1413.8 2218.67 1399.54C2188.8 1390.34 2182.4 1388.6 2176.67 1387.54C2173.73 1387.14 2164.8 1385 2156.67 1382.87C2148.67 1380.74 2136 1377.54 2128.67 1375.67C2121.33 1373.8 2108.4 1370.34 2100 1368.07C2091.6 1365.8 2081.07 1363.14 2076.67 1362.2C2072.27 1361.27 2063.87 1359.27 2058 1357.67C2052.13 1356.07 2042.53 1353.67 2036.67 1352.2C2030.8 1350.87 2019.47 1348.34 2011.33 1346.47C1994.27 1342.47 1977.2 1338.74 1961.33 1335.54C1955.07 1334.34 1942.8 1331.67 1934 1329.54C1925.2 1327.54 1911.07 1324.6 1902.67 1323.14C1894.27 1321.54 1882.8 1319.4 1877.33 1318.34C1849.2 1312.87 1830.4 1309.27 1822 1307.67C1816.93 1306.74 1809.33 1305.27 1805.33 1304.6C1772 1298.2 1758.93 1296.2 1730 1292.87C1719.73 1291.67 1704.13 1289.94 1695.33 1288.87C1673.07 1286.34 1616.4 1280.74 1594 1278.87C1566 1276.6 1476.8 1276.2 1452.67 1278.34Z" fill="#FFA500"/>
<path d="M1468 1403.8C1430.13 1406.6 1402.67 1410.47 1384 1415.93C1370.4 1419.8 1340.67 1433.93 1326 1443.53C1313.47 1451.67 1305.47 1458.73 1276.67 1487.13C1260.93 1502.73 1252.4 1509.93 1244.27 1514.87C1215.6 1532.07 1203.07 1534.33 1133.33 1534.33C1059.33 1534.33 1028 1533.8 980.666 1531.53C915.332 1528.47 849.599 1526.2 811.332 1525.53C750.932 1524.6 680.932 1525.13 667.866 1526.73C660.932 1527.67 644.799 1529.27 631.999 1530.33C551.866 1537.4 501.999 1554.47 487.332 1579.67C482.266 1588.33 481.066 1594.6 482.932 1602.6C483.732 1606.47 485.066 1609.67 485.866 1609.67C486.666 1609.67 489.332 1607.53 491.866 1605C501.332 1595.53 529.732 1584.33 557.866 1579C630.666 1565.27 659.999 1562.6 767.332 1560.47C866.266 1558.47 1077.47 1561.13 1105.33 1564.73C1113.47 1565.8 1135.33 1566.33 1166.67 1566.2C1221.87 1566.07 1228 1565.13 1244.67 1555.4C1255.73 1548.87 1282.8 1524.33 1296.13 1508.73C1306.93 1496.2 1321.07 1483.8 1329.33 1479.67C1331.87 1478.33 1334.93 1476.6 1336 1475.67C1341.6 1470.87 1387.47 1457.53 1406.67 1455C1477.6 1445.67 1551.2 1445 1679.33 1452.33C1740 1455.93 1849.87 1465.67 1910 1473C1918.8 1474.07 1936.53 1476.2 1949.33 1477.67C2019.87 1486.07 2123.33 1501 2216 1516.2C2233.2 1519.13 2252.27 1521.8 2258.4 1522.33L2269.33 1523.13V1519.67C2269.33 1517.8 2268.53 1516.07 2267.73 1515.8C2264.93 1515 2216.67 1503.4 2198 1499C2188.53 1496.73 2177.07 1494.07 2172.67 1493C2141.87 1485.4 2042 1464.73 1985.87 1454.47C1908.4 1440.2 1825.73 1427.27 1771.47 1421C1689.73 1411.4 1650.4 1407.93 1587.33 1404.47C1568.13 1403.4 1480.4 1403 1468 1403.8Z" fill="#FFA500"/>
<path d="M1506.53 1524.6C1427.87 1526.87 1377.33 1533.8 1343.07 1547C1332.93 1550.87 1308.67 1565.13 1301.33 1571.67C1299.47 1573.27 1293.87 1577.4 1288.67 1581C1283.6 1584.47 1277.2 1589.4 1274.67 1591.8C1266 1599.8 1246.8 1610.87 1234.13 1614.87C1221.47 1619 1202.8 1622.07 1182 1623.8C1175.47 1624.33 1167.87 1624.87 1165.33 1625.13C1162.8 1625.27 1097.07 1624.87 1019.33 1624.2C823.199 1622.47 700.532 1622.47 665.999 1624.2C599.599 1627.53 553.865 1636.07 522.265 1651C512.399 1655.67 493.332 1672.87 493.332 1677C493.465 1682.73 495.199 1683.67 502.932 1681.93C506.799 1681 517.199 1679.13 525.999 1677.67C534.799 1676.2 547.465 1673.8 553.999 1672.33C560.665 1670.87 581.332 1667.93 599.999 1665.8C701.865 1653.93 737.199 1652.47 930.665 1652.6C1013.2 1652.6 1097.73 1653.13 1118.67 1653.8C1199.73 1656.2 1220.27 1655.4 1240.13 1649.13C1253.47 1644.87 1263.2 1639.27 1278.67 1627C1304.93 1606.33 1337.2 1587.53 1358.67 1580.6C1368.67 1577.27 1395.33 1572.87 1412.67 1571.67C1419.33 1571.27 1427.07 1570.6 1430 1570.33C1436.13 1569.8 1457.6 1568.6 1475.87 1567.67C1538.93 1564.73 1687.47 1565.93 1788 1570.33C1865.47 1573.67 1881.73 1574.73 1926.67 1579.8C1937.33 1581 1951.07 1582.47 1957.33 1583.13C1963.6 1583.67 1975.33 1584.87 1983.33 1585.67C1991.47 1586.47 2004.8 1587.67 2012.93 1588.33C2021.2 1589 2028.4 1589.8 2028.93 1590.07C2029.6 1590.47 2038.13 1591.4 2048 1592.2C2057.87 1593.13 2072.67 1594.6 2080.67 1595.67C2088.8 1596.73 2102 1598.2 2110 1599C2134.4 1601.4 2136.53 1601.67 2141.33 1603C2143.87 1603.67 2152.67 1604.87 2160.67 1605.67C2168.8 1606.47 2179.6 1607.8 2184.67 1608.47C2200.4 1610.73 2210.8 1612.07 2224.67 1613.53C2232 1614.33 2242.13 1616.07 2247.07 1617.53C2254.93 1619.67 2256.4 1619.8 2258 1618.07C2260.53 1615.67 2260.53 1612.33 2258.13 1612.33C2257.07 1612.33 2256 1611.93 2255.73 1611.27C2255.33 1610.33 2244.8 1608.07 2184 1595.67C2047.07 1567.93 1877.6 1543.67 1746 1533.13C1732.13 1531.93 1716.8 1530.73 1712 1530.33C1686.53 1528.33 1633.87 1525.67 1603.33 1525C1546.4 1523.67 1539.33 1523.67 1506.53 1524.6Z" fill="#FFA500"/>
<path d="M1502.67 1638.47C1443.73 1640.33 1390.93 1645.27 1359.33 1651.8C1332.93 1657.27 1307.2 1667.27 1263.33 1689C1232.53 1704.2 1216 1709.93 1194.93 1712.33C1186.8 1713.27 1121.87 1713.8 1002.93 1713.8C837.999 1713.8 685.466 1715.27 645.999 1717C596.399 1719.4 556.532 1727.53 525.866 1741.67C509.466 1749.27 499.332 1759.67 505.999 1762.2C508.399 1763 557.732 1759.8 581.332 1757.13C641.599 1750.33 696.799 1747 748.666 1747C791.732 1747 895.066 1745.13 1043.33 1741.67C1076.4 1740.87 1134 1740.47 1171.33 1740.6L1239.33 1741L1251.33 1737.27C1258.27 1735 1272.4 1728.6 1284.93 1721.93C1330.13 1697.67 1342.67 1692.33 1359.33 1690.33C1363.07 1689.93 1369.87 1688.6 1374.67 1687.53C1392.53 1683.67 1435.33 1678.87 1478.67 1676.07C1513.6 1673.8 1683.47 1673.93 1743.33 1676.2C1875.2 1681.13 1990.13 1687.93 2106 1697.67C2135.2 1700.2 2147.2 1701.27 2180.67 1704.33C2188.8 1705 2205.33 1706.6 2217.47 1707.67C2229.6 1708.73 2240.53 1709.93 2241.87 1710.47C2244.53 1711.53 2250.67 1708.6 2250.67 1706.47C2250.67 1705.67 2249.47 1704.2 2248 1703.27C2245.2 1701.53 2121.87 1683.53 2054 1675C1912 1657.27 1777.87 1645.53 1658.93 1640.33C1625.87 1639 1526 1637.67 1502.67 1638.47Z" fill="#FFA500"/>
<path d="M1508 1749.67C1483.47 1750.33 1455.6 1751.53 1446 1752.2C1413.6 1755 1386 1757.53 1376.67 1758.87C1371.6 1759.67 1362.93 1760.2 1357.73 1760.33C1346.27 1760.33 1305.73 1765.93 1288.67 1769.8C1282.13 1771.4 1264.93 1776.33 1250.67 1781C1224.8 1789.4 1209.33 1792.73 1188.67 1794.2C1182.8 1794.6 1142.67 1795.27 1099.33 1795.67C1056.13 1796.07 999.732 1796.6 973.999 1797C948.399 1797.4 892.799 1797.93 850.666 1798.33C808.532 1798.87 765.599 1799.4 755.332 1799.67C745.066 1800.07 717.466 1800.87 693.999 1801.67C647.199 1803.13 625.332 1805.13 587.999 1811.13C551.066 1817.13 535.332 1821.67 523.599 1830.07C519.066 1833.13 517.066 1837.67 518.932 1839.93C521.866 1843.53 614.266 1840.73 678.932 1835C697.732 1833.4 762.132 1832.33 895.999 1831.67C959.199 1831.4 1028.4 1830.2 1058.67 1829.13C1087.6 1827.93 1131.2 1826.73 1155.33 1826.47C1194.27 1825.93 1245.47 1823 1250.8 1821C1251.87 1820.6 1258.93 1819.13 1266.67 1817.67C1274.4 1816.2 1289.07 1813.27 1299.33 1811.13C1309.6 1809 1325.47 1805.8 1334.67 1803.8C1354.13 1799.8 1382.27 1795.4 1394.67 1794.33C1458.67 1789.27 1482.8 1787.67 1524 1785.67C1539.73 1785 1559.6 1784.07 1568 1783.67C1681.47 1778.33 1872.53 1777.93 1980.67 1783C1993.87 1783.67 2015.2 1784.47 2028 1785C2040.8 1785.4 2056.4 1786.33 2062.67 1787C2068.93 1787.8 2081.47 1788.33 2090.67 1788.33C2099.87 1788.33 2122.4 1789.27 2140.67 1790.33C2159.07 1791.27 2183.33 1792.6 2194.67 1793C2206 1793.4 2218.53 1794.47 2222.53 1795.27C2231.2 1796.87 2241.33 1795.67 2241.33 1793C2241.33 1790.6 2239.6 1790.2 2218.67 1787.67C2160.67 1780.87 2072.8 1772.73 2000 1767.67C1984.27 1766.6 1962.67 1765.13 1952 1764.33C1941.33 1763.67 1913.47 1762.07 1890 1761C1866.53 1759.93 1844 1758.73 1840 1758.33C1836 1757.93 1821.87 1757 1808.67 1756.33C1795.47 1755.53 1775.07 1754.47 1763.33 1753.67C1709.47 1750.33 1570.93 1748.07 1508 1749.67Z" fill="#FFA500"/>
<path d="M2321.16 2045.69C2295.03 2048.36 2270.23 2057.82 2253.83 2071.42C2237.16 2085.16 2229.56 2110.22 2235.3 2132.09C2239.56 2148.89 2249.56 2163.16 2263.83 2172.76C2273.43 2179.29 2281.3 2182.36 2295.16 2185.42C2301.03 2186.62 2307.7 2188.22 2309.83 2188.89C2312.1 2189.56 2324.63 2192.76 2337.83 2196.09C2379.7 2206.49 2390.9 2211.69 2398.5 2224.09C2401.3 2228.49 2401.7 2231.02 2401.7 2240.76C2401.7 2259.42 2395.43 2269.96 2380.23 2276.89C2368.5 2282.22 2358.1 2283.82 2335.83 2283.96C2321.16 2284.09 2314.36 2283.56 2307.83 2281.69C2288.5 2276.49 2271.16 2264.76 2262.5 2251.02C2259.83 2246.89 2256.63 2243.42 2255.03 2243.16C2251.96 2242.49 2238.76 2244.22 2228.5 2246.76L2221.83 2248.36L2222.1 2253.82C2222.63 2267.42 2238.1 2287.16 2256.9 2298.49C2277.03 2310.62 2301.43 2316.76 2329.96 2316.76C2366.5 2316.76 2402.5 2305.56 2419.16 2289.02C2437.83 2270.22 2444.36 2247.02 2437.83 2221.82C2433.56 2205.56 2427.43 2196.22 2415.03 2187.69C2395.83 2174.09 2376.63 2167.16 2339.16 2160.22C2325.7 2157.69 2313.43 2154.89 2311.96 2154.22C2310.5 2153.42 2308.1 2152.76 2306.5 2152.76C2301.43 2152.76 2284.23 2143.56 2280.9 2139.02C2271.03 2125.96 2270.63 2103.29 2279.96 2093.29C2288.23 2084.49 2312.76 2078.76 2337.16 2079.82C2363.3 2081.02 2380.23 2089.69 2393.3 2108.36C2396.63 2113.16 2398.1 2114.09 2401.56 2114.09C2407.03 2114.09 2428.76 2110.49 2430.63 2109.29C2433.03 2107.82 2431.16 2096.22 2427.43 2088.49C2413.7 2060.49 2365.56 2041.02 2321.16 2045.69Z" fill="#FFA500"/>
<path d="M118.496 2046.89C93.1631 2049.29 64.7631 2059.02 49.8298 2070.49C25.6964 2089.16 15.2964 2104.49 6.62976 2134.09C1.16309 2153.02 -0.703577 2168.62 0.229756 2188.76C2.22976 2230.76 19.5631 2266.89 48.4964 2289.02C55.1631 2294.09 62.6298 2299.16 65.1631 2300.22C79.1631 2306.36 92.4964 2310.09 108.23 2312.09C117.696 2313.29 126.23 2314.62 127.296 2315.02C130.896 2316.36 172.496 2310.22 185.163 2306.36C198.896 2302.22 199.43 2301.96 209.563 2297.16C220.63 2291.82 233.03 2283.16 240.23 2275.82L245.296 2270.49L244.896 2225.82C244.63 2201.16 244.096 2180.62 243.696 2180.22C242.496 2179.02 136.896 2179.16 135.83 2180.36C134.363 2181.96 132.896 2209.16 134.23 2211.02C135.03 2212.36 144.896 2212.76 173.163 2213.02L211.163 2213.42L211.563 2234.62C211.963 2259.02 212.363 2257.96 197.963 2267.69C180.63 2279.69 161.83 2284.09 133.83 2283.02C102.896 2281.82 81.5631 2275.02 67.2964 2261.42C54.7631 2249.69 47.1631 2235.16 40.8964 2210.76C36.8964 2195.02 36.4964 2164.76 40.2298 2147.42C46.8964 2116.22 66.8964 2094.09 97.8298 2083.82C107.03 2080.76 110.763 2080.22 125.163 2080.22C144.763 2080.22 153.563 2082.09 170.496 2090.49C179.43 2094.89 184.363 2098.49 194.363 2108.22L206.763 2120.36L218.896 2115.82C233.563 2110.22 238.496 2107.82 238.496 2105.96C238.496 2102.49 225.83 2085.82 217.563 2078.36C204.763 2066.76 204.896 2066.76 197.696 2063.02C175.696 2051.29 143.163 2044.76 118.496 2046.89Z" fill="#FFA500"/>
<path d="M1761.16 2049.96C1719.56 2059.16 1692.36 2079.29 1674.5 2114.09C1663.96 2134.76 1661.83 2143.96 1661.83 2170.76C1661.83 2195.42 1664.63 2220.49 1669.03 2232.89C1680.5 2266.22 1703.03 2291.16 1735.16 2306.22C1751.03 2313.69 1766.5 2317.02 1785.16 2317.16C1806.63 2317.16 1822.36 2313.69 1843.03 2304.22C1848.76 2301.56 1853.96 2299.42 1854.63 2299.42C1857.83 2299.42 1880.36 2281.56 1885.96 2274.62C1910.63 2243.69 1917.96 2219.56 1916.9 2173.82C1916.23 2148.76 1915.7 2145.69 1907.83 2123.42C1902.9 2109.42 1888.63 2090.49 1872.23 2076.22C1860.76 2066.36 1840.23 2056.36 1821.96 2051.82C1803.43 2047.16 1777.3 2046.36 1761.16 2049.96ZM1813.83 2080.36C1831.3 2084.62 1850.5 2096.76 1861.3 2110.36C1864.36 2114.22 1869.43 2122.49 1872.36 2128.76L1877.83 2140.09V2179.42C1877.83 2222.22 1877.3 2226.09 1869.56 2239.29C1854.5 2265.42 1831.3 2281.02 1803.83 2283.69C1772.9 2286.76 1752.63 2281.42 1732.5 2264.62C1717.83 2252.49 1704.36 2231.56 1701.03 2215.69C1698.76 2204.76 1700.1 2141.69 1702.76 2134.76C1713.7 2106.49 1733.16 2087.82 1758.63 2081.29C1776.76 2076.62 1797.16 2076.22 1813.83 2080.36Z" fill="#FFA500"/>
<path d="M302.762 2052.49C301.429 2053.42 301.162 2080.09 301.429 2181.56L301.829 2309.42L318.362 2309.82C329.296 2310.09 335.429 2309.69 336.629 2308.62C338.229 2307.42 338.496 2297.96 338.496 2255.96C338.496 2227.96 338.896 2204.76 339.562 2204.49C340.096 2204.22 357.562 2204.36 378.496 2204.76L416.362 2205.42L425.029 2219.42C429.829 2227.16 443.962 2249.56 456.496 2269.42C469.029 2289.16 479.696 2306.49 480.229 2307.82C481.562 2311.29 485.696 2312.36 503.962 2313.29C521.029 2314.09 525.162 2313.69 525.162 2311.02C525.162 2309.16 510.362 2285.56 479.562 2238.36C466.496 2218.36 455.829 2201.02 455.829 2200.09C455.829 2199.02 457.429 2197.82 459.562 2197.42C480.362 2192.89 499.696 2177.56 507.962 2158.76C517.429 2137.42 516.629 2110.76 506.096 2090.76C500.362 2079.96 486.629 2065.69 476.629 2060.09C460.629 2051.29 461.962 2051.42 379.296 2051.42C338.096 2051.42 303.696 2051.96 302.762 2052.49ZM455.829 2087.56C464.362 2091.69 470.896 2097.69 474.896 2105.29C477.296 2109.96 477.696 2112.62 477.429 2123.82C476.762 2147.96 468.096 2162.22 449.162 2169.96C445.429 2171.42 433.162 2171.96 391.562 2172.36L338.496 2173.02V2128.09V2083.29L393.562 2083.69L448.496 2084.09L455.829 2087.56Z" fill="#FFA500"/>
<path d="M603.829 2052.62L573.829 2053.42L573.429 2180.22C573.162 2297.29 573.296 2307.16 575.296 2308.89C577.162 2310.49 593.562 2310.76 670.362 2311.02C721.429 2311.16 766.496 2310.76 770.496 2310.36L777.829 2309.42L778.229 2297.82C778.896 2278.76 789.029 2280.76 693.162 2280.76H610.496L610.362 2277.69C609.829 2268.89 610.762 2194.76 611.296 2193.82C611.696 2193.29 643.562 2192.76 682.229 2192.76C736.096 2192.76 753.296 2192.36 755.829 2191.02C758.896 2189.56 759.162 2188.49 759.562 2180.09C759.829 2174.89 759.562 2168.76 759.162 2166.49L758.362 2162.09L684.096 2161.82L609.829 2161.42V2122.09V2082.76L688.496 2082.09C731.829 2081.69 767.962 2080.89 768.896 2080.36C769.962 2079.56 770.496 2075.42 770.496 2067.56C770.496 2058.22 770.096 2055.42 768.229 2053.96C766.496 2052.49 753.962 2052.09 699.962 2051.96C663.562 2051.96 620.362 2052.22 603.829 2052.62Z" fill="#FFA500"/>
<path d="M1047.7 2052.89C1045.43 2054.23 1044.36 2076.36 1046.36 2079.43C1047.56 2081.16 1054.63 2081.56 1091.43 2082.09L1135.16 2082.76L1135.83 2196.76L1136.5 2310.76L1152.1 2311.96C1170.5 2313.29 1174.36 2312.63 1174.23 2308.36C1174.1 2306.76 1174.1 2255.16 1174.23 2193.69L1174.5 2082.09H1216.36C1248.23 2082.09 1258.5 2081.69 1259.43 2080.36C1260.1 2079.56 1260.23 2073.03 1259.83 2066.09L1259.16 2053.43L1253.83 2052.49C1246.36 2051.16 1049.96 2051.43 1047.7 2052.89Z" fill="#FFA500"/>
<path d="M1402.23 2052.23C1400.9 2053.56 1400.9 2308.49 1402.23 2309.29C1402.9 2309.69 1411.03 2310.49 1420.23 2310.89C1433.03 2311.56 1437.56 2311.43 1439.16 2310.09C1440.23 2309.16 1440.76 2307.69 1440.23 2306.89C1439.56 2306.09 1439.3 2279.83 1439.56 2248.49L1439.96 2191.43L1506.63 2191.69C1554.1 2191.96 1573.7 2192.49 1574.5 2193.56C1575.3 2194.36 1575.96 2219.29 1576.1 2252.23L1576.5 2309.43L1595.56 2309.83C1611.83 2310.09 1614.5 2309.83 1614.5 2308.09C1614.5 2307.03 1613.96 2306.09 1613.16 2306.09C1612.36 2306.09 1611.7 2262.49 1611.56 2179.69L1611.16 2053.43H1593.83H1576.5L1575.83 2105.43C1575.43 2133.96 1574.63 2158.23 1574.1 2159.03C1573.3 2160.36 1558.23 2160.76 1506.5 2160.76H1439.96L1439.56 2142.36C1439.3 2132.36 1438.9 2108.23 1438.76 2088.89C1438.63 2069.56 1438.1 2053.16 1437.7 2052.63C1436.9 2051.29 1403.43 2051.03 1402.23 2052.23Z" fill="#FFA500"/>
<path d="M2143.16 2052.62L2139.16 2053.42L2138.5 2146.76L2137.83 2240.09L2134.23 2246.89C2123.3 2267.69 2101.16 2280.89 2073.83 2282.89C2044.9 2285.02 2014.63 2268.89 2003.03 2245.29L1999.16 2237.42L1998.5 2145.42C1998.1 2094.76 1997.56 2053.29 1997.43 2053.02C1997.3 2052.89 1988.9 2052.89 1978.9 2053.02L1960.5 2053.42L1960.1 2142.76C1959.83 2228.49 1959.96 2232.49 1962.36 2240.76C1969.3 2263.69 1978.9 2277.29 1997.83 2291.69C2020.9 2309.16 2041.43 2316.22 2069.16 2315.96C2089.43 2315.69 2101.16 2312.89 2119.56 2303.82C2129.3 2298.89 2134.9 2295.02 2143.43 2287.02C2156.5 2274.49 2163.3 2264.76 2169.3 2249.82L2173.7 2238.76L2174.23 2147.02C2174.63 2076.22 2174.36 2054.89 2173.16 2053.42C2171.96 2051.96 2168.5 2051.42 2159.3 2051.56C2152.63 2051.69 2145.43 2052.09 2143.16 2052.62Z" fill="#FFA500"/>
<path d="M2581.83 2052.76L2485.83 2053.42V2181.16C2485.83 2293.16 2486.1 2309.02 2487.83 2310.09C2491.03 2312.09 2686.9 2311.82 2688.9 2309.82C2689.96 2308.76 2690.5 2303.42 2690.5 2294.62C2690.5 2283.42 2690.1 2280.89 2688.36 2280.22C2687.16 2279.82 2649.43 2279.42 2604.36 2279.42H2522.5L2522.76 2236.36L2523.16 2193.42L2595.83 2192.76C2635.83 2192.36 2669.3 2191.56 2670.23 2191.02C2671.3 2190.22 2671.83 2186.22 2671.7 2178.36C2671.56 2165.16 2670.63 2161.56 2667.03 2161.29C2665.7 2161.29 2632.5 2161.16 2593.56 2161.02L2522.5 2160.76V2121.42V2082.09H2599.56C2641.83 2082.09 2677.83 2081.69 2679.56 2081.29C2682.36 2080.49 2682.5 2079.82 2682.5 2066.76C2682.5 2055.42 2682.1 2052.89 2680.36 2052.22C2679.16 2051.82 2678.23 2051.56 2678.1 2051.69C2677.96 2051.96 2634.63 2052.36 2581.83 2052.76Z" fill="#FFA500"/>
<path d="M893.563 2054.36C892.896 2055.29 891.029 2059.69 889.296 2064.09C887.563 2068.49 883.829 2077.42 881.163 2084.09C878.496 2090.62 873.696 2102.36 870.496 2110.09C867.429 2117.82 862.496 2129.42 859.696 2136.09C847.029 2165.96 801.563 2275.02 795.696 2289.96C791.963 2299.02 789.296 2307.29 789.696 2308.22C790.629 2310.76 825.829 2310.89 827.429 2308.49C827.963 2307.56 834.629 2291.16 842.096 2272.09L855.696 2237.42L914.096 2237.16L972.496 2236.76L977.696 2250.49C980.496 2257.96 987.029 2274.62 991.963 2287.42L1001.03 2310.76L1018.76 2310.36C1028.5 2310.09 1036.9 2309.42 1037.43 2308.89C1038.76 2307.69 939.029 2058.89 935.429 2054.36C934.496 2053.29 928.629 2052.76 914.496 2052.76C900.363 2052.76 894.496 2053.16 893.563 2054.36ZM920.763 2102.09C928.363 2122.89 930.629 2129.16 933.296 2135.42C934.629 2138.76 937.296 2145.56 939.163 2150.76C941.163 2155.82 943.563 2161.96 944.629 2164.36C945.696 2166.62 946.496 2169.16 946.496 2169.96C946.496 2170.76 947.696 2173.96 949.029 2177.02C954.363 2188.76 959.829 2203.69 959.029 2204.89C958.229 2206.36 871.829 2206.49 869.696 2205.02C868.763 2204.36 870.096 2199.56 873.963 2189.82C879.696 2175.29 883.963 2164.22 887.296 2154.76C888.363 2151.82 890.096 2147.56 891.163 2145.16C892.229 2142.89 893.163 2140.36 893.163 2139.56C893.163 2138.76 894.363 2135.82 895.829 2133.16C897.296 2130.36 898.496 2126.89 898.496 2125.42C898.496 2123.96 899.296 2121.42 900.363 2119.96C901.429 2118.49 902.896 2114.62 903.829 2111.42C904.763 2108.22 906.229 2104.36 907.296 2102.89C908.363 2101.42 909.163 2099.16 909.163 2097.82C909.163 2096.62 909.829 2093.96 910.496 2092.09C912.896 2085.82 915.696 2088.62 920.763 2102.09Z" fill="#FFA500"/>
<path d="M1952 2177.8C1952 2178.6 1952.67 2180.33 1953.33 2181.8C1956.13 2186.87 1968 2183.67 1968 2177.93C1968 2175.53 1966 2176.07 1963.33 2179C1962 2180.47 1960.4 2181.67 1959.73 2181.67C1959.2 2181.67 1957.6 2180.47 1956.4 2179C1953.87 2176.07 1952 2175.53 1952 2177.8Z" fill="#FFA500"/>
<path d="M2657.7 2371.03C2656.1 2371.29 2653.7 2372.76 2652.36 2374.36C2649.96 2376.89 2649.83 2380.63 2649.43 2430.23C2649.03 2487.56 2649.43 2492.63 2655.16 2495.16C2660.76 2497.69 2666.23 2497.03 2669.83 2493.43C2673.16 2490.23 2673.16 2489.83 2673.16 2467.03C2673.16 2454.36 2672.76 2443.43 2672.23 2443.03C2671.83 2442.49 2670.63 2442.76 2669.56 2443.56C2668.23 2444.76 2667.83 2450.36 2667.83 2467.56C2667.83 2488.76 2667.7 2490.09 2665.16 2491.43C2662.23 2493.03 2657.16 2491.96 2655.56 2489.56C2655.03 2488.76 2654.5 2463.43 2654.5 2433.29C2654.5 2392.49 2654.9 2378.23 2656.1 2377.03C2658.23 2374.89 2664.5 2375.03 2666.36 2377.16C2667.16 2378.23 2667.96 2387.83 2668.1 2402.23C2668.5 2423.03 2668.76 2425.43 2670.9 2425.83C2673.03 2426.23 2673.16 2424.49 2673.16 2402.23C2673.16 2379.16 2673.03 2378.09 2670.23 2375.03C2667.03 2371.56 2662.5 2370.09 2657.7 2371.03Z" fill="#FFA500"/>
<path d="M1734.63 2374.89C1731.96 2378.36 1731.83 2379.82 1731.83 2434.36V2490.22L1735.16 2493.42C1739.3 2497.69 1747.96 2497.96 1751.83 2494.09C1754.36 2491.56 1754.5 2489.69 1754.5 2434.36C1754.5 2368.89 1754.9 2371.42 1743.83 2371.42C1738.36 2371.42 1736.9 2371.96 1734.63 2374.89ZM1748.9 2377.02C1750.1 2378.22 1750.5 2392.62 1750.5 2433.56C1750.5 2481.82 1750.23 2488.89 1748.36 2490.62C1745.96 2493.16 1743.3 2493.29 1739.7 2491.42C1737.3 2490.09 1737.16 2487.96 1737.16 2434.36C1737.16 2392.76 1737.56 2378.22 1738.76 2377.02C1739.7 2376.09 1741.96 2375.42 1743.83 2375.42C1745.7 2375.42 1747.96 2376.09 1748.9 2377.02Z" fill="#FFA500"/>
<path d="M2181.16 2375.03C2178.5 2378.49 2178.36 2379.43 2178.76 2435.16L2179.16 2491.69L2182.36 2494.23C2186.63 2497.69 2195.03 2497.56 2198.5 2494.09C2201.03 2491.56 2201.16 2489.69 2201.16 2434.36C2201.16 2368.89 2201.56 2371.43 2190.5 2371.43C2185.03 2371.43 2183.56 2371.96 2181.16 2375.03ZM2195.56 2377.03C2196.76 2378.23 2197.16 2392.63 2197.16 2433.56C2197.16 2481.83 2196.9 2488.89 2195.03 2490.63C2192.63 2493.16 2189.96 2493.29 2186.36 2491.43C2183.96 2490.09 2183.83 2487.96 2183.83 2434.36C2183.83 2392.76 2184.23 2378.23 2185.43 2377.03C2186.36 2376.09 2188.63 2375.43 2190.5 2375.43C2192.36 2375.43 2194.63 2376.09 2195.56 2377.03Z" fill="#FFA500"/>
<path d="M1403.83 2374.36C1403.83 2375.29 1406.23 2388.76 1409.3 2404.36L1414.9 2432.62L1409.16 2463.42C1405.96 2480.22 1403.83 2494.49 1404.36 2495.02C1406.63 2497.29 1408.5 2491.16 1413.43 2465.29C1416.23 2449.96 1419.16 2436.89 1419.83 2436.22C1420.5 2435.56 1421.96 2435.42 1423.03 2435.82C1424.9 2436.62 1425.16 2440.62 1425.16 2466.09C1425.16 2490.22 1425.43 2495.42 1427.03 2495.42C1429.96 2495.42 1430.5 2490.89 1430.5 2462.36C1430.5 2436.62 1430.63 2435.42 1433.03 2435.42C1434.5 2435.42 1435.96 2436.49 1436.36 2437.69C1436.9 2439.82 1443.96 2477.02 1446.1 2489.82C1446.76 2493.96 1449.56 2496.76 1451.3 2495.02C1451.7 2494.76 1449.3 2480.49 1445.96 2463.56L1439.96 2432.76L1445.83 2403.82C1449.16 2387.82 1451.83 2374.36 1451.83 2373.69C1451.83 2372.49 1448.23 2372.49 1447.3 2373.82C1447.03 2374.36 1444.5 2386.49 1441.83 2400.76C1435.96 2432.22 1436.23 2431.42 1433.16 2431.42C1430.63 2431.42 1430.5 2429.96 1430.23 2402.36C1429.83 2377.69 1429.56 2373.42 1427.83 2373.42C1426.1 2373.42 1425.83 2377.69 1425.43 2402.49L1425.16 2431.56L1422.1 2431.16C1419.43 2430.76 1418.76 2428.89 1414.1 2404.76C1411.3 2390.49 1408.76 2377.42 1408.36 2375.69C1407.7 2372.62 1403.83 2371.56 1403.83 2374.36Z" fill="#FFA500"/>
<path d="M1503.43 2373.56C1501.83 2375.29 1502.36 2493.82 1503.96 2494.89C1507.56 2497.02 1507.7 2496.09 1516.76 2436.09L1520.5 2410.76L1521.16 2452.76C1521.56 2475.82 1522.1 2494.89 1522.23 2495.02C1522.36 2495.29 1523.43 2495.42 1524.5 2495.42C1526.23 2495.42 1526.5 2487.69 1526.5 2434.09C1526.5 2381.16 1526.23 2372.76 1524.5 2372.76C1521.83 2372.76 1520.63 2378.22 1515.96 2410.09C1507.96 2464.76 1508.63 2464.36 1507.83 2416.22C1507.16 2375.82 1506.63 2370.36 1503.43 2373.56Z" fill="#FFA500"/>
<path d="M1577.16 2374.62C1577.16 2375.82 1578.76 2376.76 1581.56 2377.02L1585.83 2377.42L1586.5 2436.09C1587.03 2487.02 1587.43 2494.76 1589.16 2494.76C1590.9 2494.76 1591.16 2487.16 1591.56 2435.69L1591.83 2376.76H1596.5C1599.7 2376.76 1601.16 2376.09 1601.16 2374.76C1601.16 2373.16 1598.9 2372.76 1589.16 2372.76C1579.56 2372.76 1577.16 2373.16 1577.16 2374.62Z" fill="#FFA500"/>
<path d="M1654.23 2431.03L1653.83 2489.43L1650.9 2490.76C1646.63 2492.63 1647.03 2495.43 1651.7 2495.43C1659.16 2495.43 1659.16 2496.09 1659.56 2433.83L1659.96 2376.76H1666.5H1673.16L1673.43 2435.69C1673.83 2487.16 1674.1 2494.76 1675.83 2494.76C1677.56 2494.76 1677.83 2487.16 1677.83 2434.09V2373.43L1666.23 2373.03L1654.5 2372.63L1654.23 2431.03Z" fill="#FFA500"/>
<path d="M1809.16 2434.09V2495.43H1817.03C1822.9 2495.43 1825.7 2494.76 1828.36 2492.63L1831.96 2489.83L1831.3 2462.23C1830.63 2429.03 1830.63 2435.96 1831.3 2404.49C1831.96 2379.43 1831.83 2378.09 1829.16 2375.43C1827.03 2373.29 1824.76 2372.76 1817.83 2372.76H1809.16V2434.09ZM1824.9 2378.89C1827.7 2380.89 1827.83 2381.69 1827.83 2402.49C1827.83 2427.83 1826.9 2430.49 1818.76 2429.83L1813.83 2429.43L1813.43 2404.76C1813.3 2391.29 1813.43 2379.43 1813.7 2378.49C1814.63 2376.09 1821.3 2376.36 1824.9 2378.89ZM1825.7 2438.36C1827.43 2440.76 1827.83 2445.56 1827.83 2463.16C1827.83 2475.56 1827.3 2486.09 1826.5 2487.56C1825.43 2489.43 1823.7 2490.09 1819.16 2490.09H1813.16V2463.69C1813.16 2449.16 1813.56 2436.76 1814.1 2436.36C1816.23 2434.23 1823.7 2435.56 1825.7 2438.36Z" fill="#FFA500"/>
<path d="M1887.83 2434.09C1887.83 2493.83 1888.36 2500.89 1891.83 2492.36C1892.5 2490.76 1895.16 2475.03 1897.83 2457.43C1900.36 2439.83 1903.03 2422.36 1903.7 2418.76C1904.5 2414.23 1904.9 2424.49 1905.03 2450.76C1905.16 2471.96 1905.56 2490.76 1905.96 2492.36C1906.5 2494.09 1907.7 2495.43 1908.63 2495.43C1910.23 2495.43 1910.5 2485.43 1910.5 2434.09C1910.5 2382.49 1910.23 2372.76 1908.63 2372.76C1906.1 2372.76 1905.7 2374.09 1902.5 2395.69C1896.63 2435.03 1893.3 2455.83 1892.5 2456.49C1892.1 2456.89 1891.83 2438.23 1891.83 2415.03C1891.83 2378.36 1891.56 2372.76 1889.83 2372.76C1888.1 2372.76 1887.83 2380.49 1887.83 2434.09Z" fill="#FFA500"/>
<path d="M1965.16 2434.09C1965.16 2474.89 1965.56 2495.43 1966.5 2495.43C1969.56 2495.43 1969.96 2493.03 1980.1 2422.89C1981.03 2416.76 1981.96 2413.29 1982.5 2414.63C1982.9 2415.96 1983.16 2433.69 1983.16 2453.96C1983.03 2488.76 1983.56 2495.43 1986.5 2495.43C1987.3 2495.43 1987.83 2472.63 1987.83 2434.09C1987.83 2382.49 1987.56 2372.76 1985.96 2372.76C1983.03 2372.76 1983.43 2370.49 1973.83 2434.63C1971.96 2447.03 1970.23 2457.56 1969.83 2457.83C1969.43 2458.23 1969.16 2439.29 1969.16 2415.69C1969.16 2378.36 1968.9 2372.76 1967.16 2372.76C1965.43 2372.76 1965.16 2380.49 1965.16 2434.09Z" fill="#FFA500"/>
<path d="M2099.83 2434.09C2099.83 2491.96 2099.96 2495.56 2102.23 2495.16C2104.23 2494.76 2104.5 2492.09 2104.9 2465.02L2105.16 2435.29L2108.1 2435.69C2110.9 2436.09 2111.43 2438.22 2116.5 2464.36C2121.43 2490.36 2123.56 2497.42 2125.96 2495.02C2126.5 2494.49 2124.36 2481.29 2121.43 2465.56C2118.36 2449.82 2115.83 2435.29 2115.83 2433.16C2115.83 2431.02 2118.23 2417.29 2121.16 2402.76C2127.16 2372.76 2127.16 2372.76 2124.5 2372.76C2122.23 2372.76 2122.36 2371.96 2115.96 2404.76C2111.43 2428.49 2110.76 2430.76 2108.1 2431.16C2105.16 2431.56 2105.16 2431.42 2104.9 2402.49C2104.5 2376.09 2104.23 2373.42 2102.23 2373.02C2099.96 2372.62 2099.83 2376.22 2099.83 2434.09Z" fill="#FFA500"/>
<path d="M2257.16 2434.23C2257.16 2482.76 2257.56 2495.56 2258.9 2495.16C2260.1 2494.63 2260.63 2484.49 2261.16 2452.63C2261.83 2406.63 2262.23 2407.03 2266.5 2457.43C2269.83 2495.43 2269.83 2495.43 2273.16 2495.43C2276.5 2495.43 2276.5 2495.69 2279.83 2456.76C2283.96 2407.96 2284.36 2407.69 2285.16 2453.29C2285.7 2484.63 2286.23 2494.63 2287.56 2495.16C2288.76 2495.56 2289.16 2482.76 2289.16 2434.23V2372.76H2285.96C2281.83 2372.76 2282.1 2371.03 2277.7 2427.03C2275.56 2452.23 2273.56 2472.36 2273.03 2471.69C2272.63 2471.16 2270.63 2451.29 2268.63 2427.43C2263.96 2370.49 2264.23 2372.76 2260.36 2372.76H2257.16V2434.23Z" fill="#FFA500"/>
<path d="M2343.83 2434.09C2343.83 2485.69 2344.1 2495.43 2345.7 2495.43C2346.76 2495.43 2347.96 2494.49 2348.36 2493.29C2348.76 2492.09 2349.16 2465.43 2349.16 2433.96V2376.63L2355.56 2377.03L2361.83 2377.43L2362.5 2435.96C2363.03 2481.16 2363.56 2494.63 2364.9 2495.16C2366.1 2495.56 2366.5 2482.76 2366.5 2434.23V2372.76H2355.16H2343.83V2434.09Z" fill="#FFA500"/>
<path d="M2423.7 2428.36C2423.56 2459.03 2423.16 2485.56 2422.63 2487.43C2422.1 2489.56 2420.63 2490.89 2418.76 2491.16C2414.76 2491.83 2415.7 2494.63 2420.1 2495.16C2422.5 2495.43 2424.23 2494.63 2425.7 2492.49C2427.56 2489.83 2427.83 2482.63 2427.83 2433.16V2376.76H2434.5H2441.16V2434.49C2441.16 2491.69 2441.43 2495.43 2445.43 2495.43C2445.96 2495.43 2446.5 2467.83 2446.5 2434.09V2372.76H2435.16H2423.83L2423.7 2428.36Z" fill="#FFA500"/>
<path d="M2500.5 2374.36C2500.1 2375.29 2499.96 2402.76 2500.1 2435.43L2500.5 2494.76L2510.23 2495.16C2517.83 2495.43 2519.83 2495.16 2519.83 2493.69C2519.83 2491.16 2516.9 2490.09 2510.36 2490.09H2505.16V2463.56V2436.89L2512.23 2436.49C2520.76 2435.96 2520.76 2433.69 2512.23 2432.76L2505.83 2432.09L2505.43 2404.36L2505.16 2376.76H2512.5C2518.1 2376.76 2519.83 2376.36 2519.83 2374.76C2519.83 2373.16 2517.96 2372.76 2510.5 2372.76C2504.23 2372.76 2500.9 2373.29 2500.5 2374.36Z" fill="#FFA500"/>
<path d="M2571.83 2434.22C2571.83 2482.76 2572.23 2495.56 2573.56 2495.16C2574.76 2494.62 2575.3 2487.02 2575.83 2465.29C2576.5 2436.22 2576.5 2436.09 2579.56 2435.69C2581.16 2435.42 2582.5 2435.69 2582.5 2436.36C2582.5 2440.76 2593.16 2493.29 2594.23 2494.36C2597.96 2498.09 2597.56 2491.82 2592.1 2463.56L2586.1 2432.76L2592.1 2403.42C2595.83 2384.89 2597.56 2373.69 2596.76 2373.16C2594.76 2371.96 2592.23 2376.09 2591.3 2382.49C2590.76 2385.56 2588.63 2397.82 2586.36 2409.69C2582.36 2430.62 2582.1 2431.42 2579.03 2431.42H2575.83V2402.09C2575.83 2376.89 2575.56 2372.76 2573.83 2372.76C2572.1 2372.76 2571.83 2380.49 2571.83 2434.22Z" fill="#FFA500"/>
</svg>
