<?xml version="1.0" standalone="no"?>
<!DOCTYPE svg PUBLIC "-//W3C//DTD SVG 20010904//EN"
 "http://www.w3.org/TR/2001/REC-SVG-20010904/DTD/svg10.dtd">
<svg version="1.0" xmlns="http://www.w3.org/2000/svg"
 width="90" height="62" viewBox="0 0 1710.000000 1178.000000"
 preserveAspectRatio="xMidYMid meet">

<g transform="translate(0.000000,1178.000000) scale(0.100000,-0.100000)"
fill="#FFA500" stroke="none">
<path d="M9901 11684 c-410 -60 -750 -242 -967 -520 -68 -87 -144 -210 -207
-334 -49 -97 -147 -393 -196 -590 -38 -152 -94 -462 -106 -590 -15 -157 -67
-372 -116 -478 -117 -253 -340 -430 -636 -504 -81 -20 -114 -22 -398 -22 -301
-1 -590 17 -745 45 -30 5 -163 23 -295 39 -132 16 -395 52 -585 80 -380 56
-562 80 -826 110 -97 11 -179 22 -183 24 -3 2 -71 12 -150 21 -182 22 -573 17
-716 -9 -184 -34 -352 -99 -430 -167 -75 -67 -107 -184 -86 -322 19 -128 75
-285 154 -433 16 -28 15 -33 -3 -81 -28 -75 -35 -183 -16 -273 14 -68 70 -194
140 -317 23 -41 23 -41 6 -95 -40 -118 -31 -239 26 -357 53 -112 67 -166 60
-233 -7 -73 10 -250 35 -346 23 -92 83 -206 125 -240 32 -25 32 -26 17 -56
-56 -109 -57 -325 -2 -473 22 -58 71 -119 88 -109 4 3 11 33 15 66 24 212 158
379 351 439 235 73 691 100 1190 71 94 -5 241 -10 327 -10 86 0 381 -16 655
-35 479 -33 644 -44 1222 -81 250 -16 267 -16 350 1 178 37 307 135 392 300
54 104 101 230 189 505 75 235 89 264 183 377 208 250 434 365 848 433 366 60
868 47 1324 -35 229 -41 257 -47 318 -62 32 -7 90 -20 130 -27 40 -8 106 -24
147 -35 41 -12 179 -48 305 -80 340 -86 912 -271 1190 -387 83 -34 231 -94
330 -134 99 -40 281 -121 405 -180 295 -140 375 -174 394 -167 27 10 18 26
-31 58 -68 44 -933 474 -1088 541 -71 31 -200 88 -285 127 -135 61 -362 154
-580 238 -133 52 -620 216 -765 258 -421 124 -854 209 -1188 236 -184 14 -538
6 -662 -15 -325 -57 -569 -174 -737 -354 -56 -60 -136 -179 -161 -242 -10 -25
-27 -63 -37 -85 -20 -42 -85 -235 -140 -415 -37 -121 -97 -245 -148 -310 -69
-86 -187 -195 -252 -233 -140 -81 -309 -116 -585 -119 -163 -3 -280 5 -830 54
-1477 132 -1467 132 -1885 125 -309 -5 -432 -16 -612 -56 -79 -17 -206 -66
-256 -99 -35 -23 -46 -4 -46 86 0 211 138 353 379 392 256 41 926 61 1365 41
246 -11 538 -32 725 -51 103 -11 625 -54 1095 -90 558 -43 669 -23 828 144 85
90 141 193 199 366 25 74 67 194 93 265 26 72 68 191 93 265 88 261 125 328
254 451 194 188 506 317 888 369 131 18 514 24 690 11 421 -31 913 -128 1400
-276 121 -37 247 -75 280 -85 126 -38 245 -80 375 -135 74 -31 212 -86 305
-122 94 -36 256 -105 360 -153 105 -48 255 -117 335 -154 136 -62 328 -162
587 -304 62 -34 115 -62 118 -62 4 0 5 10 3 22 -3 25 -91 83 -463 307 -307
184 -399 237 -669 381 -682 363 -1362 643 -1970 809 -414 114 -917 182 -1226
166 -472 -23 -782 -133 -1024 -364 -116 -112 -251 -335 -315 -521 -24 -69
-134 -443 -182 -620 -43 -158 -77 -217 -182 -316 -108 -102 -192 -159 -261
-179 -251 -72 -760 -91 -1231 -47 -126 12 -277 26 -335 32 -58 5 -181 19 -275
30 -93 11 -251 29 -350 40 -99 11 -225 27 -279 36 -265 41 -447 56 -737 61
-432 8 -683 -24 -867 -112 -41 -19 -78 -33 -82 -30 -19 12 -42 108 -36 152 15
109 116 241 221 289 68 31 159 48 377 69 211 20 442 20 728 1 124 -9 495 -32
825 -51 330 -19 656 -42 725 -50 550 -66 1050 -117 1140 -117 124 1 192 17
309 72 202 97 328 322 450 805 68 270 141 479 222 633 85 161 154 267 223 340
233 247 671 392 1186 392 478 0 1109 -119 1670 -315 74 -26 167 -57 205 -70
249 -81 811 -328 1120 -492 409 -217 502 -267 537 -289 20 -13 104 -63 185
-110 81 -48 197 -118 256 -157 85 -55 111 -67 120 -58 13 14 -19 46 -143 146
-484 388 -1201 824 -1840 1120 -468 217 -999 406 -1415 505 -271 64 -636 110
-882 110 -399 0 -792 -156 -1049 -418 -93 -95 -178 -211 -228 -311 -49 -98
-152 -405 -192 -573 -92 -390 -145 -571 -196 -673 -60 -119 -153 -218 -258
-274 -195 -104 -536 -159 -824 -132 -72 6 -340 32 -596 56 -256 24 -494 47
-530 50 -36 4 -150 17 -255 30 -383 49 -882 89 -1260 101 -418 13 -868 -39
-909 -105 -4 -6 -11 -11 -15 -11 -14 0 -34 146 -26 187 17 95 96 215 170 259
80 47 319 76 740 90 224 7 518 -6 885 -41 337 -31 1027 -92 1145 -100 50 -3
167 -17 260 -30 515 -72 534 -74 744 -85 337 -16 464 20 621 179 126 126 170
219 246 520 13 51 49 175 79 276 30 101 55 190 55 198 0 39 163 496 205 575
237 441 682 733 1220 798 322 39 722 -8 1249 -148 410 -108 916 -305 1411
-548 432 -213 841 -439 1065 -590 30 -20 107 -71 170 -112 63 -41 182 -123
265 -181 147 -105 175 -120 175 -94 0 15 -152 158 -300 283 -655 554 -1615
1125 -2435 1449 -693 273 -1230 380 -1686 335 -498 -49 -847 -227 -1099 -561
-138 -184 -228 -431 -319 -879 -70 -345 -123 -579 -153 -670 -35 -109 -122
-244 -223 -346 -125 -127 -196 -162 -433 -210 -190 -39 -413 -37 -862 7 -337
33 -412 41 -575 59 -55 6 -152 19 -215 30 -63 10 -191 26 -285 35 -93 9 -189
20 -212 26 -40 8 -117 16 -393 40 -69 6 -165 17 -215 25 -49 7 -118 14 -151
14 -34 0 -126 7 -205 16 -187 20 -501 20 -636 0 -96 -14 -308 -72 -352 -96
-29 -15 -30 -14 -56 43 -32 68 -35 199 -6 264 23 50 87 115 138 141 133 67
443 90 961 73 174 -6 338 -13 364 -16 26 -3 123 -12 215 -20 92 -8 224 -22
293 -30 234 -28 465 -54 530 -60 36 -3 115 -13 175 -20 61 -8 256 -28 435 -45
179 -16 453 -42 610 -56 537 -51 629 -49 761 13 145 68 240 176 352 398 51
103 89 219 112 350 24 130 83 393 99 440 8 22 37 114 64 205 28 91 71 233 97
315 47 155 133 345 202 447 131 195 370 388 648 523 332 162 659 220 1010 181
451 -51 1089 -260 1750 -573 99 -47 212 -100 250 -118 120 -55 292 -152 493
-278 106 -67 252 -158 323 -202 71 -44 166 -107 212 -139 45 -33 116 -82 157
-110 100 -66 370 -270 446 -337 83 -73 209 -179 234 -196 18 -13 20 -12 20 4
0 22 -277 299 -425 425 -235 200 -538 430 -1090 827 -684 491 -1367 832 -1995
994 -199 51 -371 85 -495 97 -150 14 -460 11 -574 -6z"/>
<path d="M9570 7045 c-213 -27 -415 -81 -535 -143 -77 -40 -211 -143 -263
-200 -110 -124 -213 -309 -268 -483 -89 -286 -107 -325 -197 -430 -114 -133
-234 -197 -437 -233 -52 -9 -119 -21 -149 -26 -30 -6 -119 -10 -197 -10 -245
0 -1175 55 -1364 80 -550 74 -661 83 -1049 82 -178 -1 -379 -6 -445 -12 -219
-20 -435 -50 -500 -70 -77 -24 -196 -106 -243 -168 -81 -107 -83 -270 -3 -380
31 -43 70 -57 70 -26 0 27 59 128 98 169 89 93 250 164 427 189 233 34 371 38
1075 33 765 -5 1014 -16 1575 -66 298 -27 657 -45 769 -38 104 6 199 28 269
64 106 53 215 206 284 398 87 241 315 605 451 718 129 108 333 179 614 214
193 23 659 23 918 0 821 -75 1785 -291 2705 -605 176 -60 367 -128 425 -151
317 -128 443 -173 463 -165 9 3 17 10 17 15 0 5 -53 35 -117 68 -65 33 -149
75 -188 95 -632 324 -1472 645 -2189 837 -536 143 -898 209 -1361 249 -163 13
-526 11 -655 -5z"/>
<path d="M9795 6270 c-312 -9 -444 -27 -620 -85 -285 -93 -454 -240 -595 -515
-24 -47 -61 -112 -81 -146 -20 -33 -64 -112 -99 -175 -83 -153 -121 -202 -191
-250 -164 -111 -353 -142 -824 -134 -377 7 -472 11 -785 40 -151 13 -363 29
-470 35 -107 5 -265 14 -350 19 -560 34 -1145 25 -1394 -20 -88 -16 -235 -88
-296 -145 -81 -76 -104 -124 -105 -214 0 -77 20 -180 36 -180 4 0 29 23 55 50
91 98 224 182 372 235 144 52 557 105 817 105 66 0 190 -4 275 -10 140 -9 347
-18 1125 -50 242 -10 706 -32 1065 -50 298 -15 434 11 562 108 63 48 111 118
195 287 186 373 250 467 373 549 221 149 481 214 938 236 612 29 1563 -87
2452 -300 322 -77 648 -163 855 -226 105 -31 242 -72 305 -91 63 -19 174 -54
245 -78 206 -71 383 -115 396 -99 13 16 -11 29 -211 112 -964 401 -1930 701
-2760 857 -102 19 -220 41 -262 49 -155 31 -305 50 -573 76 -169 16 -202 17
-450 10z"/>
<path d="M9545 5509 c-60 -5 -163 -18 -229 -29 -334 -59 -516 -156 -643 -340
-32 -48 -123 -199 -123 -206 0 -12 -121 -198 -163 -251 -113 -142 -281 -214
-576 -248 -205 -24 -700 -8 -1351 44 -279 23 -1051 58 -1250 58 -207 0 -469
-27 -693 -71 -269 -53 -457 -197 -457 -351 0 -44 35 -155 49 -155 4 0 15 18
24 39 43 97 189 169 509 250 190 49 597 71 1310 71 490 0 770 -11 1358 -52
698 -50 771 -48 917 23 117 56 189 138 293 334 59 112 169 285 209 329 35 38
142 107 224 145 299 135 992 171 1832 95 178 -16 517 -57 620 -74 33 -6 128
-20 210 -31 414 -56 1255 -218 1495 -289 36 -10 110 -32 165 -49 55 -16 168
-46 250 -66 83 -19 193 -48 245 -64 187 -58 201 -61 207 -45 9 23 -4 41 -34
48 -15 4 -118 43 -228 85 -187 73 -712 252 -940 320 -440 131 -944 251 -1410
335 -725 132 -1343 181 -1820 145z"/>
<path d="M9585 4809 c-282 -11 -511 -53 -649 -119 -116 -55 -229 -156 -341
-305 -32 -44 -77 -104 -100 -134 -22 -30 -76 -91 -120 -136 -115 -118 -219
-165 -435 -196 -194 -28 -803 -15 -1565 34 -587 38 -1455 24 -1749 -28 -245
-43 -454 -166 -486 -284 -16 -59 -9 -161 11 -174 13 -8 24 -2 54 31 114 127
360 214 730 258 118 14 241 16 790 16 700 -1 1467 -15 1765 -32 196 -12 608
-5 700 11 101 17 193 90 260 204 35 61 261 316 322 364 171 137 455 197 1047
223 414 17 1016 -7 1391 -56 63 -9 193 -25 289 -36 96 -11 191 -24 210 -30 31
-8 200 -34 461 -70 36 -5 104 -16 153 -25 48 -8 129 -22 180 -30 50 -9 108
-20 127 -25 19 -5 89 -18 155 -30 66 -11 131 -24 145 -29 14 -5 70 -16 125
-26 55 -9 123 -23 150 -30 28 -8 82 -19 120 -26 39 -6 102 -18 140 -26 39 -8
115 -23 170 -33 56 -11 137 -30 181 -43 87 -25 104 -25 104 2 0 19 -5 21 -215
81 -55 16 -147 43 -205 60 -58 17 -125 36 -150 41 -25 5 -79 18 -120 30 -41
11 -100 27 -130 35 -30 8 -89 23 -130 34 -107 28 -508 124 -620 148 -52 12
-138 31 -190 42 -198 45 -280 61 -446 90 -94 16 -205 37 -245 46 -41 8 -96 19
-124 24 -27 4 -102 17 -165 28 -63 11 -144 23 -180 26 -36 4 -112 13 -170 21
-421 59 -893 87 -1245 74z"/>
<path d="M9570 4124 c-313 -18 -481 -49 -618 -115 -194 -95 -243 -131 -442
-325 -171 -166 -258 -219 -415 -252 -68 -14 -147 -16 -525 -15 -245 1 -531 6
-635 12 -398 22 -805 34 -1225 35 -383 1 -462 -2 -662 -22 -447 -44 -648 -102
-769 -222 -64 -63 -85 -119 -67 -173 15 -44 13 -43 53 -8 83 73 186 107 489
160 261 47 377 57 831 72 375 13 1651 5 1885 -11 244 -18 551 -23 660 -12 167
17 212 45 429 262 191 190 228 217 377 270 224 79 435 101 969 101 589 -1
1030 -27 1775 -106 513 -55 1266 -157 1737 -235 166 -27 334 -53 373 -56 65
-6 70 -5 70 13 0 17 -24 25 -192 66 -1127 275 -2379 484 -3253 542 -221 14
-724 26 -845 19z"/>
<path d="M9815 3473 c-471 -11 -848 -65 -1008 -145 -51 -25 -155 -95 -257
-173 -157 -119 -201 -147 -268 -169 -173 -59 -315 -64 -1330 -54 -1052 12
-1791 6 -1987 -16 -244 -26 -420 -68 -535 -126 -70 -35 -160 -118 -160 -147 0
-30 9 -33 55 -22 104 24 388 70 545 88 565 65 756 72 1969 64 1360 -7 1327 -8
1396 7 93 19 189 70 319 168 202 153 340 218 521 247 465 73 1935 66 2840 -15
289 -26 520 -48 625 -60 47 -5 135 -14 195 -20 61 -6 121 -13 135 -15 14 -3
84 -12 155 -20 72 -8 198 -24 280 -35 83 -12 204 -27 270 -35 66 -8 141 -21
167 -29 41 -12 49 -12 59 1 27 31 14 35 -411 122 -381 79 -1164 205 -1620 261
-664 81 -1490 133 -1955 123z"/>
<path d="M9620 2854 c-617 -34 -805 -77 -1194 -271 -161 -81 -236 -108 -336
-123 -38 -5 -611 -12 -1345 -14 -1390 -6 -1679 -11 -1856 -31 -211 -24 -440
-95 -524 -162 -32 -26 -45 -57 -27 -66 12 -6 264 11 477 33 351 36 438 40
1070 50 341 6 771 14 955 19 577 15 765 17 1200 13 283 -3 302 1 485 95 325
167 351 176 663 219 523 73 1473 69 2832 -11 471 -28 1614 -123 1684 -139 21
-5 56 10 56 24 0 15 -63 28 -310 65 -935 138 -1911 240 -2740 285 -188 11
-972 21 -1090 14z"/>
<path d="M9930 2257 c-3 -2 -126 -7 -275 -10 -168 -3 -336 -13 -445 -25 -96
-11 -224 -23 -285 -27 -220 -13 -371 -42 -572 -111 -216 -74 -189 -72 -1323
-83 -558 -6 -1114 -13 -1235 -16 -121 -3 -312 -8 -425 -11 -317 -8 -649 -47
-810 -94 -83 -25 -160 -73 -160 -100 0 -18 7 -20 83 -22 139 -4 300 3 597 24
234 16 449 22 1195 29 501 5 1020 13 1155 18 135 5 331 10 435 10 220 1 447
21 590 50 264 55 459 93 554 106 486 69 1985 120 2821 96 319 -10 485 -17 950
-41 113 -6 342 -17 510 -25 168 -9 317 -18 333 -21 32 -7 87 4 87 17 0 13 -22
17 -315 49 -499 55 -1232 112 -1610 125 -93 3 -222 10 -285 15 -299 26 -1554
63 -1570 47z"/>
<path d="M2118 1619 c-220 -30 -420 -154 -506 -317 -58 -110 -84 -211 -90
-356 -5 -155 7 -238 54 -355 53 -133 171 -273 275 -327 273 -141 731 -90 941
104 l58 54 0 218 c0 120 -4 230 -10 245 l-10 25 -292 -2 -293 -3 -3 -87 -3
-88 208 -2 208 -3 3 -116 3 -117 -43 -36 c-88 -75 -198 -109 -353 -109 -185 0
-324 49 -411 145 -110 122 -162 381 -119 587 21 100 50 156 120 226 197 201
543 186 735 -32 l41 -46 77 27 c110 38 110 39 58 117 -24 35 -60 77 -79 92
-19 15 -42 34 -51 42 -21 22 -139 73 -217 95 -83 23 -214 31 -301 19z"/>
<path d="M13939 1610 c-219 -54 -344 -174 -357 -341 -8 -117 47 -238 143 -310
60 -46 103 -65 188 -83 116 -26 373 -95 433 -117 71 -26 130 -83 140 -134 18
-100 -27 -203 -106 -242 -103 -50 -329 -57 -442 -14 -75 29 -167 98 -198 149
-34 56 -31 56 -190 23 -31 -6 -35 -11 -33 -35 6 -79 104 -197 210 -253 219
-116 542 -115 777 4 98 50 169 149 189 268 9 53 8 76 -7 139 -30 128 -95 201
-238 265 -83 38 -148 56 -292 81 -203 35 -287 71 -333 138 -55 82 -33 207 44
250 90 49 287 66 395 33 56 -18 129 -71 168 -123 39 -54 48 -56 157 -37 l63
11 0 37 c-1 51 -31 111 -81 160 -56 54 -184 117 -274 136 -97 20 -262 18 -356
-5z"/>
<path d="M10990 1597 c-202 -55 -343 -166 -432 -341 -67 -132 -83 -280 -52
-498 40 -292 211 -491 489 -574 72 -22 256 -24 325 -5 149 42 315 132 375 203
79 94 138 212 161 323 15 69 20 308 8 364 -15 70 -61 191 -90 236 -59 91 -168
190 -258 234 -110 54 -190 73 -326 77 -97 4 -128 1 -200 -19z m302 -148 c144
-29 271 -129 334 -263 l35 -74 -3 -224 -3 -223 -29 -58 c-48 -94 -132 -178
-223 -222 l-78 -39 -135 0 -136 -1 -78 39 c-99 48 -177 125 -231 226 l-40 75
0 225 0 225 31 65 c61 124 162 208 295 244 65 18 189 20 261 5z"/>
<path d="M3153 1594 c-18 -8 -19 -1364 -1 -1382 16 -16 170 -16 186 0 9 9 12
86 12 285 l0 273 208 0 208 0 56 -92 c121 -198 299 -473 311 -479 6 -4 56 -10
110 -13 83 -6 98 -5 103 8 7 17 -8 41 -223 372 -78 122 -143 226 -143 232 0 5
17 13 37 17 114 21 235 142 268 266 27 101 15 212 -35 308 -32 64 -120 147
-187 179 l-58 27 -420 2 c-231 1 -426 -1 -432 -3z m841 -197 c22 -12 53 -39
70 -60 62 -77 44 -236 -37 -319 -61 -63 -87 -68 -405 -71 l-272 -2 0 241 0
241 303 -4 c287 -4 304 -6 341 -26z"/>
<path d="M4738 1593 l-128 -4 0 -682 c0 -375 4 -688 8 -695 7 -10 124 -12 553
-10 l544 3 0 75 0 75 -450 5 -450 5 -3 215 c-1 118 0 225 3 238 l5 22 389 0
c323 0 391 2 400 14 7 9 11 40 9 78 l-3 63 -400 5 -400 5 0 215 0 215 419 2
c230 1 425 4 433 7 10 4 13 22 11 73 l-3 68 -60 6 c-60 7 -633 8 -877 2z"/>
<path d="M6378 1593 c-38 -6 -27 17 -146 -278 -23 -55 -77 -185 -120 -290
-353 -841 -338 -805 -321 -816 22 -14 186 -11 196 3 4 7 40 96 79 198 l71 185
315 3 315 2 79 -201 c43 -111 82 -201 87 -200 4 1 48 1 97 1 74 0 90 3 90 15
0 14 -405 1029 -509 1275 -30 73 -45 96 -63 101 -25 8 -127 8 -170 2z m95
-220 c8 -16 20 -46 26 -68 7 -22 19 -58 28 -80 8 -22 22 -58 30 -80 9 -22 21
-53 28 -70 69 -166 115 -299 108 -306 -5 -5 -113 -8 -244 -7 -201 3 -234 5
-232 18 2 22 131 370 168 455 33 77 43 102 49 133 9 39 21 41 39 5z"/>
<path d="M7176 1593 c-3 -3 -6 -39 -6 -80 l0 -73 226 0 c142 0 233 -4 245 -11
20 -10 20 -17 15 -272 -4 -144 -3 -419 1 -612 l8 -350 98 -3 97 -3 0 626 0
625 233 0 233 0 -4 68 c-2 37 -5 73 -7 79 -3 10 -128 13 -568 13 -310 -1 -567
-3 -571 -7z"/>
<path d="M9090 900 l0 -700 103 0 102 0 -3 320 -3 320 368 -2 368 -3 5 -315 5
-315 89 -3 c100 -3 126 2 108 20 -9 9 -12 187 -12 690 l0 678 -95 0 -95 0 -2
-287 -3 -288 -367 -3 -368 -2 -2 292 -3 293 -97 3 -98 3 0 -701z"/>
<path d="M13088 1593 c-16 -4 -18 -42 -20 -506 l-3 -502 -29 -53 c-38 -67 -82
-107 -166 -146 -84 -39 -217 -48 -301 -21 -106 34 -201 113 -240 199 -17 38
-19 73 -19 534 l0 493 -102 -3 -103 -3 0 -500 0 -500 33 -69 c46 -99 93 -158
171 -215 121 -90 239 -131 376 -131 173 0 311 58 429 180 87 89 123 157 137
258 5 37 8 274 7 527 l-3 460 -75 2 c-41 0 -83 -1 -92 -4z"/>
<path d="M15463 1592 l-523 -2 0 -689 c0 -541 3 -692 13 -698 18 -11 553 -15
842 -6 l250 8 3 76 3 76 -47 7 c-26 3 -231 6 -456 6 l-408 0 2 233 3 232 400
5 400 5 3 65 c1 36 -2 72 -8 80 -8 13 -66 15 -405 18 l-395 3 2 210 3 210 420
5 c231 3 426 7 433 9 8 3 12 27 12 74 0 46 -4 70 -12 72 -7 2 -248 3 -535 1z"/>
</g>
</svg>
