<svg width="77" height="65" viewBox="0 0 77 65" fill="none" xmlns="http://www.w3.org/2000/svg">
<path d="M45.1103 0.505115C42.9524 0.820905 41.1629 1.7788 40.0208 3.24196C39.6629 3.69985 39.2629 4.34722 38.9314 4.99985C38.6735 5.51038 38.1577 7.06827 37.8998 8.10512C37.6998 8.90512 37.405 10.5367 37.3419 11.2104C37.2629 12.0367 36.9893 13.1683 36.7314 13.7262C36.1156 15.0577 34.9419 15.9893 33.384 16.3788C32.9577 16.4841 32.784 16.4946 31.2892 16.4946C29.705 16.4999 28.184 16.4051 27.3682 16.2577C27.2103 16.2314 26.5103 16.1367 25.8156 16.0525C25.1208 15.9683 23.7366 15.7788 22.7366 15.6314C20.7366 15.3367 19.7787 15.2104 18.3892 15.0525C17.8787 14.9946 17.4471 14.9367 17.4261 14.9262C17.4103 14.9156 17.0524 14.863 16.6366 14.8156C15.6787 14.6999 13.6208 14.7262 12.8682 14.863C11.8998 15.042 11.0156 15.3841 10.605 15.742C10.2103 16.0946 10.0419 16.7104 10.1524 17.4367C10.2524 18.1104 10.5471 18.9367 10.9629 19.7156C11.0471 19.863 11.0419 19.8893 10.9471 20.142C10.7998 20.5367 10.7629 21.1051 10.8629 21.5788C10.9366 21.9367 11.2314 22.5999 11.5998 23.2472C11.7208 23.463 11.7208 23.463 11.6314 23.7472C11.4208 24.3683 11.4682 25.0051 11.7682 25.6262C12.0471 26.2156 12.1208 26.4999 12.084 26.8525C12.0471 27.2367 12.1366 28.1683 12.2682 28.6735C12.3892 29.1577 12.705 29.7577 12.9261 29.9367C13.0945 30.0683 13.0945 30.0735 13.0156 30.2314C12.7208 30.8051 12.7156 31.942 13.005 32.7209C13.1208 33.0262 13.3787 33.3472 13.4682 33.2946C13.4892 33.2788 13.5261 33.1209 13.5471 32.9472C13.6735 31.8314 14.3787 30.9525 15.3945 30.6367C16.6314 30.2525 19.0314 30.1104 21.6577 30.263C22.1524 30.2893 22.9261 30.3156 23.3787 30.3156C23.8314 30.3156 25.384 30.3999 26.8261 30.4999C29.3471 30.6735 30.2156 30.7314 33.2577 30.9262C34.5735 31.0104 34.6629 31.0104 35.0998 30.9209C36.0366 30.7262 36.7156 30.2104 37.1629 29.342C37.4471 28.7946 37.6945 28.1314 38.1577 26.6841C38.5524 25.4472 38.6261 25.2946 39.1208 24.6999C40.2156 23.3841 41.405 22.7788 43.584 22.4209C45.5103 22.1051 48.1524 22.1735 50.5524 22.6051C51.7577 22.8209 51.905 22.8525 52.2261 22.9314C52.3945 22.9683 52.6998 23.0367 52.9103 23.0735C53.1208 23.1156 53.4682 23.1999 53.684 23.2577C53.8998 23.3209 54.6261 23.5104 55.2892 23.6788C57.0787 24.1314 60.0892 25.1051 61.5524 25.7156C61.9892 25.8946 62.7682 26.2104 63.2892 26.4209C63.8103 26.6314 64.7682 27.0577 65.4208 27.3683C66.9735 28.1051 67.3945 28.2841 67.4945 28.2472C67.6366 28.1946 67.5892 28.1104 67.3314 27.942C66.9735 27.7104 62.4208 25.4472 61.605 25.0946C61.2314 24.9314 60.5524 24.6314 60.105 24.4262C59.3945 24.1051 58.1998 23.6156 57.0524 23.1735C56.3524 22.8999 53.7893 22.0367 53.0261 21.8156C50.8103 21.163 48.5314 20.7156 46.7735 20.5735C45.805 20.4999 43.9419 20.542 43.2893 20.6525C41.5787 20.9525 40.2945 21.5683 39.4103 22.5156C39.1156 22.8314 38.6945 23.4577 38.5629 23.7893C38.5103 23.9209 38.4208 24.1209 38.3682 24.2367C38.2629 24.4577 37.9208 25.4735 37.6314 26.4209C37.4366 27.0577 37.1208 27.7104 36.8524 28.0525C36.4893 28.5051 35.8682 29.0788 35.5261 29.2788C34.7893 29.7051 33.8998 29.8893 32.4471 29.9051C31.5893 29.9209 30.9735 29.8788 28.0787 29.6209C20.305 28.9262 20.3577 28.9262 18.1577 28.963C16.5314 28.9893 15.884 29.0472 14.9366 29.2577C14.5208 29.3472 13.8524 29.6051 13.5892 29.7788C13.405 29.8999 13.3471 29.7999 13.3471 29.3262C13.3471 28.2156 14.0735 27.4683 15.3419 27.263C16.6892 27.0472 20.2156 26.942 22.5261 27.0472C23.8208 27.1051 25.3577 27.2156 26.3419 27.3156C26.884 27.3735 29.6314 27.5999 32.105 27.7893C35.0419 28.0156 35.6261 27.9104 36.4629 27.0314C36.9103 26.5577 37.205 26.0156 37.5103 25.1051C37.6419 24.7156 37.8629 24.0841 37.9998 23.7104C38.1366 23.3314 38.3577 22.7051 38.4893 22.3156C38.9524 20.942 39.1471 20.5893 39.8261 19.942C40.8471 18.9525 42.4893 18.2735 44.4998 17.9999C45.1893 17.9051 47.205 17.8735 48.1314 17.942C50.3471 18.1051 52.9366 18.6156 55.4998 19.3946C56.1366 19.5893 56.7998 19.7893 56.9735 19.842C57.6366 20.042 58.2629 20.263 58.9471 20.5525C59.3366 20.7156 60.0629 21.0051 60.5524 21.1946C61.0471 21.3841 61.8998 21.7472 62.4471 21.9999C62.9998 22.2525 63.7892 22.6156 64.2103 22.8104C64.9261 23.1367 65.9366 23.663 67.2998 24.4104C67.6261 24.5893 67.905 24.7367 67.9208 24.7367C67.9419 24.7367 67.9471 24.6841 67.9366 24.6209C67.9208 24.4893 67.4577 24.1841 65.4998 23.0051C63.884 22.0367 63.3998 21.7577 61.9787 20.9999C58.3892 19.0893 54.8103 17.6156 51.6103 16.742C49.4314 16.142 46.784 15.7841 45.1577 15.8683C42.6735 15.9893 41.0419 16.5683 39.7682 17.7841C39.1577 18.3735 38.4471 19.5472 38.1103 20.5262C37.984 20.8893 37.405 22.8577 37.1524 23.7893C36.9261 24.6209 36.7471 24.9314 36.1945 25.4525C35.6261 25.9893 35.184 26.2893 34.8208 26.3946C33.4998 26.7735 30.8208 26.8735 28.3419 26.642C27.6787 26.5788 26.884 26.5051 26.5787 26.4735C26.2735 26.4472 25.6261 26.3735 25.1314 26.3156C24.6419 26.2577 23.8103 26.163 23.2892 26.1051C22.7682 26.0472 22.105 25.963 21.8208 25.9156C20.4261 25.6999 19.4682 25.6209 17.9419 25.5946C15.6682 25.5525 14.3471 25.7209 13.3787 26.1841C13.1629 26.2841 12.9682 26.3577 12.9471 26.342C12.8471 26.2788 12.7261 25.7735 12.7577 25.542C12.8366 24.9683 13.3682 24.2735 13.9208 24.0209C14.2787 23.8577 14.7577 23.7683 15.905 23.6577C17.0156 23.5525 18.2314 23.5525 19.7366 23.6525C20.3892 23.6999 22.3419 23.8209 24.0787 23.9209C25.8156 24.0209 27.5314 24.142 27.8945 24.1841C30.7892 24.5314 33.4208 24.7999 33.8945 24.7999C34.5471 24.7946 34.905 24.7104 35.5208 24.4209C36.584 23.9104 37.2471 22.7262 37.8893 20.1841C38.2471 18.763 38.6314 17.663 39.0577 16.8525C39.505 16.0051 39.8682 15.4472 40.2314 15.063C41.4577 13.763 43.7629 12.9999 46.4735 12.9999C48.9893 12.9999 52.3103 13.6262 55.2629 14.6577C55.6524 14.7946 56.1419 14.9577 56.3419 15.0262C57.6524 15.4525 60.6103 16.7525 62.2366 17.6156C64.3892 18.7577 64.8787 19.0209 65.0629 19.1367C65.1682 19.2051 65.6103 19.4683 66.0366 19.7156C66.4629 19.9683 67.0735 20.3367 67.384 20.542C67.8314 20.8314 67.9682 20.8946 68.0156 20.8472C68.084 20.7735 67.9156 20.6051 67.2629 20.0788C64.7156 18.0367 60.9419 15.742 57.5787 14.1841C55.1156 13.042 52.3208 12.0472 50.1314 11.5262C48.705 11.1893 46.784 10.9472 45.4893 10.9472C43.3893 10.9472 41.3208 11.7683 39.9682 13.1472C39.4787 13.6472 39.0314 14.2577 38.7682 14.7841C38.5103 15.2999 37.9682 16.9156 37.7577 17.7999C37.2735 19.8525 36.9945 20.8051 36.7261 21.342C36.4103 21.9683 35.9208 22.4893 35.3682 22.7841C34.3419 23.3314 32.5471 23.6209 31.0314 23.4788C30.6524 23.4472 29.2419 23.3104 27.8945 23.1841C26.5471 23.0577 25.2945 22.9367 25.105 22.9209C24.9156 22.8999 24.3156 22.8314 23.7629 22.763C21.7471 22.5051 19.1208 22.2946 17.1314 22.2314C14.9314 22.163 12.5629 22.4367 12.3471 22.7841C12.3261 22.8156 12.2892 22.842 12.2682 22.842C12.1945 22.842 12.0892 22.0735 12.1314 21.8577C12.2208 21.3577 12.6366 20.7262 13.0261 20.4946C13.4471 20.2472 14.705 20.0946 16.9208 20.0209C18.0998 19.9841 19.6471 20.0525 21.5787 20.2367C23.3524 20.3999 26.984 20.7209 27.605 20.763C27.8682 20.7788 28.484 20.8525 28.9735 20.9209C31.684 21.2999 31.784 21.3104 32.8893 21.3683C34.6629 21.4525 35.3314 21.263 36.1577 20.4262C36.8208 19.763 37.0524 19.2735 37.4524 17.6893C37.5208 17.4209 37.7103 16.7683 37.8682 16.2367C38.0261 15.7051 38.1577 15.2367 38.1577 15.1946C38.1577 14.9893 39.0156 12.5841 39.2366 12.1683C40.484 9.84722 42.8261 8.31038 45.6577 7.96827C47.3524 7.76301 49.4577 8.01038 52.2314 8.74722C54.3893 9.31564 57.0524 10.3525 59.6577 11.6314C61.9314 12.7525 64.084 13.942 65.2629 14.7367C65.4208 14.842 65.8261 15.1104 66.1577 15.3262C66.4892 15.542 67.1156 15.9735 67.5524 16.2788C68.3261 16.8314 68.4735 16.9104 68.4735 16.7735C68.4735 16.6946 67.6735 15.942 66.8945 15.2841C63.4471 12.3683 58.3945 9.36301 54.0787 7.65775C50.4314 6.2209 47.605 5.65775 45.205 5.89459C42.584 6.15248 40.7471 7.08933 39.4208 8.84722C38.6945 9.81564 38.2208 11.1156 37.7419 13.4735C37.3735 15.2893 37.0945 16.5209 36.9366 16.9999C36.7524 17.5735 36.2945 18.2841 35.7629 18.8209C35.105 19.4893 34.7314 19.6735 33.484 19.9262C32.484 20.1314 31.3103 20.1209 28.9471 19.8893C27.1735 19.7156 26.7787 19.6735 25.9208 19.5788C25.6314 19.5472 25.1208 19.4788 24.7892 19.4209C24.4577 19.3683 23.784 19.2841 23.2892 19.2367C22.7998 19.1893 22.2945 19.1314 22.1735 19.0999C21.9629 19.0577 21.5577 19.0156 20.105 18.8893C19.7419 18.8577 19.2366 18.7999 18.9735 18.7577C18.7156 18.7209 18.3524 18.6841 18.1787 18.6841C17.9998 18.6841 17.5156 18.6472 17.0998 18.5999C16.1156 18.4946 14.4629 18.4946 13.7524 18.5999C13.2471 18.6735 12.1314 18.9788 11.8998 19.1051C11.7471 19.1841 11.7419 19.1788 11.605 18.8788C11.4366 18.5209 11.4208 17.8314 11.5735 17.4893C11.6945 17.2262 12.0314 16.8841 12.2998 16.7472C12.9998 16.3946 14.6314 16.2735 17.3577 16.363C18.2735 16.3946 19.1366 16.4314 19.2735 16.4472C19.4103 16.463 19.9208 16.5104 20.405 16.5525C20.8892 16.5946 21.584 16.6683 21.9471 16.7104C23.1787 16.8577 24.3945 16.9946 24.7366 17.0262C24.9261 17.042 25.3419 17.0946 25.6577 17.1314C25.9787 17.1735 27.005 17.2788 27.9471 17.3683C28.8892 17.4525 30.3314 17.5893 31.1577 17.663C33.984 17.9314 34.4682 17.9209 35.1629 17.5946C35.9261 17.2367 36.4261 16.6683 37.0156 15.4999C37.284 14.9577 37.484 14.3472 37.605 13.6577C37.7314 12.9735 38.0419 11.5893 38.1261 11.342C38.1682 11.2262 38.3208 10.742 38.4629 10.263C38.6103 9.78406 38.8366 9.03669 38.9735 8.60512C39.2208 7.78933 39.6735 6.78933 40.0366 6.25248C40.7261 5.22617 41.984 4.21038 43.4471 3.49985C45.1945 2.64722 46.9156 2.34196 48.7629 2.54722C51.1366 2.81564 54.4945 3.91564 57.9735 5.56301C58.4945 5.81038 59.0892 6.08933 59.2892 6.18406C59.9208 6.47354 60.8261 6.98406 61.884 7.64722C62.4419 7.99985 63.2103 8.4788 63.584 8.71038C63.9577 8.94196 64.4577 9.27354 64.6998 9.44196C64.9366 9.61564 65.3103 9.87354 65.5261 10.0209C66.0524 10.3683 67.4735 11.442 67.8735 11.7946C68.3103 12.1788 68.9735 12.7367 69.105 12.8262C69.1998 12.8946 69.2103 12.8893 69.2103 12.8051C69.2103 12.6893 67.7524 11.2314 66.9735 10.5683C65.7366 9.51564 64.1419 8.30512 61.2366 6.21564C57.6366 3.63143 54.0419 1.83669 50.7366 0.984063C49.6893 0.715642 48.784 0.536694 48.1314 0.473536C47.3419 0.399852 45.7103 0.415642 45.1103 0.505115Z" fill="#FFA500"/>
<path d="M43.3681 24.9211C42.247 25.0632 41.1839 25.3474 40.5523 25.6737C40.147 25.8842 39.4418 26.4263 39.1681 26.7263C38.5891 27.379 38.047 28.3527 37.7576 29.2684C37.2891 30.7737 37.1944 30.979 36.7207 31.5316C36.1207 32.2316 35.4891 32.5684 34.4207 32.7579C34.147 32.8053 33.7944 32.8684 33.6365 32.8948C33.4786 32.9263 33.0102 32.9474 32.5997 32.9474C31.3102 32.9474 26.4154 32.6579 25.4207 32.5263C22.526 32.1369 21.9418 32.0895 19.8997 32.0948C18.9628 32.1 17.9049 32.1263 17.5575 32.1579C16.4049 32.2632 15.2681 32.4211 14.926 32.5263C14.5207 32.6527 13.8944 33.0842 13.647 33.4106C13.2207 33.9737 13.2102 34.8316 13.6312 35.4106C13.7944 35.6369 13.9997 35.7106 13.9997 35.5474C13.9997 35.4053 14.3102 34.8737 14.5154 34.6579C14.9839 34.1684 15.8312 33.7948 16.7628 33.6632C17.9891 33.4842 18.7154 33.4632 22.4207 33.4895C26.447 33.5158 27.7576 33.5737 30.7102 33.8369C32.2786 33.979 34.1681 34.0737 34.7576 34.0369C35.3049 34.0053 35.8049 33.8895 36.1733 33.7C36.7312 33.4211 37.3049 32.6158 37.6681 31.6053C38.126 30.3369 39.326 28.4211 40.0418 27.8263C40.7207 27.2579 41.7944 26.8842 43.2733 26.7C44.2891 26.579 46.7418 26.579 48.1049 26.7C52.426 27.0948 57.4997 28.2316 62.3418 29.8842C63.2681 30.2 64.2733 30.5579 64.5786 30.679C66.247 31.3527 66.9102 31.5895 67.0154 31.5474C67.0628 31.5316 67.1049 31.4948 67.1049 31.4684C67.1049 31.4421 66.826 31.2842 66.4891 31.1106C66.147 30.9369 65.7049 30.7158 65.4997 30.6106C62.1733 28.9053 57.7523 27.2158 53.9786 26.2053C51.1576 25.4527 49.2523 25.1053 46.8154 24.8948C45.9576 24.8263 44.047 24.8369 43.3681 24.9211Z" fill="#FFA500"/>
<path d="M44.5526 28.9999C42.9105 29.0473 42.2157 29.142 41.2894 29.4473C39.7894 29.9367 38.8999 30.7104 38.1578 32.1578C38.0315 32.4051 37.8368 32.7473 37.7315 32.9262C37.6263 33.0999 37.3947 33.5157 37.2105 33.8473C36.7736 34.6525 36.5736 34.9104 36.2052 35.163C35.3421 35.7473 34.3473 35.9104 31.8684 35.8683C29.8842 35.8315 29.3842 35.8104 27.7368 35.6578C26.9421 35.5894 25.8263 35.5051 25.2631 35.4736C24.6999 35.4473 23.8684 35.3999 23.421 35.3736C20.4736 35.1946 17.3947 35.242 16.0842 35.4788C15.621 35.563 14.8473 35.942 14.5263 36.242C14.0999 36.642 13.9789 36.8946 13.9736 37.3683C13.9736 37.7736 14.0789 38.3157 14.1631 38.3157C14.1842 38.3157 14.3157 38.1946 14.4526 38.0525C14.9315 37.5367 15.6315 37.0946 16.4105 36.8157C17.1684 36.542 19.3421 36.263 20.7105 36.263C21.0578 36.263 21.7105 36.2841 22.1578 36.3157C22.8947 36.363 23.9842 36.4104 28.0789 36.5788C29.3526 36.6315 31.7947 36.7473 33.6842 36.842C35.2526 36.9209 35.9684 36.7841 36.6421 36.2736C36.9736 36.0209 37.2263 35.6525 37.6684 34.763C38.6473 32.7999 38.9842 32.3051 39.6315 31.8736C40.7947 31.0894 42.1631 30.7473 44.5684 30.6315C47.7894 30.4788 52.7947 31.0894 57.4736 32.2104C59.1684 32.6157 60.8842 33.0683 61.9736 33.3999C62.5263 33.563 63.2473 33.7788 63.5789 33.8788C63.9105 33.9788 64.4947 34.163 64.8684 34.2894C65.9526 34.663 66.8842 34.8946 66.9526 34.8104C67.021 34.7262 66.8947 34.6578 65.8421 34.2209C60.7684 32.1104 55.6842 30.5315 51.3157 29.7104C50.7789 29.6104 50.1578 29.4946 49.9368 29.4525C49.121 29.2894 48.3315 29.1894 46.921 29.0525C46.0315 28.9683 45.8578 28.963 44.5526 28.9999Z" fill="#FFA500"/>
<path d="M43.2366 33.0053C42.9208 33.0316 42.3787 33.1001 42.0313 33.158C40.2734 33.4685 39.3155 33.979 38.6471 34.9474C38.4787 35.2001 37.9997 35.9948 37.9997 36.0316C37.9997 36.0948 37.3629 37.0737 37.1418 37.3527C36.5471 38.1001 35.6629 38.479 34.1103 38.658C33.0313 38.7843 30.4261 38.7001 26.9997 38.4264C25.5313 38.3053 21.4682 38.1211 20.4208 38.1211C19.3313 38.1211 17.9524 38.2632 16.7734 38.4948C15.3576 38.7737 14.3682 39.5316 14.3682 40.3422C14.3682 40.5737 14.5524 41.158 14.6261 41.158C14.6471 41.158 14.705 41.0632 14.7524 40.9527C14.9787 40.4422 15.7471 40.0632 17.4313 39.6369C18.4313 39.379 20.5734 39.2632 24.3261 39.2632C26.905 39.2632 28.3787 39.3211 31.4734 39.5369C35.1471 39.8001 35.5313 39.7895 36.2997 39.4159C36.9155 39.1211 37.2945 38.6895 37.8418 37.658C38.1524 37.0685 38.7313 36.158 38.9418 35.9264C39.1261 35.7264 39.6892 35.3632 40.1208 35.1632C41.6945 34.4527 45.3418 34.2632 49.7629 34.6632C50.6997 34.7474 52.484 34.9632 53.0261 35.0527C53.1997 35.0843 53.6997 35.158 54.1313 35.2159C56.3103 35.5106 60.7366 36.3632 61.9997 36.7369C62.1892 36.7895 62.5787 36.9053 62.8682 36.9948C63.1576 37.079 63.7524 37.2369 64.184 37.3422C64.6208 37.4422 65.1997 37.5948 65.4734 37.679C66.4576 37.9843 66.5313 38.0001 66.5629 37.9159C66.6103 37.7948 66.5419 37.7001 66.384 37.6632C66.305 37.6422 65.7629 37.4369 65.184 37.2159C64.1997 36.8316 61.4366 35.8895 60.2366 35.5316C57.9208 34.8422 55.2682 34.2106 52.8155 33.7685C48.9997 33.0737 45.7471 32.8159 43.2366 33.0053Z" fill="#FFA500"/>
<path d="M43.4475 36.6894C41.9633 36.7473 40.758 36.9684 40.0317 37.3157C39.4212 37.6052 38.8265 38.1368 38.237 38.921C38.0686 39.1526 37.8317 39.4684 37.7107 39.6263C37.5949 39.7842 37.3107 40.1052 37.0791 40.3421C36.4738 40.9631 35.9265 41.2105 34.7896 41.3736C33.7686 41.521 30.5633 41.4526 26.5528 41.1947C23.4633 40.9947 18.8949 41.0684 17.3475 41.3421C16.058 41.5684 14.958 42.2157 14.7896 42.8368C14.7054 43.1473 14.7422 43.6842 14.8475 43.7526C14.9159 43.7947 14.9738 43.7631 15.1317 43.5894C15.7317 42.921 17.0265 42.4631 18.9738 42.2315C19.5949 42.1578 20.2422 42.1473 23.1317 42.1473C26.8159 42.1526 30.8528 42.2263 32.4212 42.3157C33.4528 42.3789 35.6212 42.3421 36.1054 42.2578C36.637 42.1684 37.1212 41.7842 37.4738 41.1842C37.658 40.8631 38.8475 39.521 39.1686 39.2684C40.0686 38.5473 41.5633 38.2315 44.6791 38.0947C46.858 38.0052 50.0265 38.1315 52.0001 38.3894C52.3317 38.4368 53.0159 38.521 53.5212 38.5789C54.0265 38.6368 54.5265 38.7052 54.6265 38.7368C54.7896 38.7789 55.6791 38.9157 57.0528 39.1052C57.2422 39.1315 57.6001 39.1894 57.858 39.2368C58.1107 39.2789 58.537 39.3526 58.8054 39.3947C59.0686 39.4421 59.3738 39.5 59.4738 39.5263C59.5738 39.5526 59.9422 39.621 60.2896 39.6842C60.637 39.7421 60.9791 39.8105 61.0528 39.8368C61.1265 39.8631 61.4212 39.921 61.7107 39.9736C62.0001 40.021 62.358 40.0947 62.5001 40.1315C62.6475 40.1736 62.9317 40.2315 63.1317 40.2684C63.337 40.3 63.6686 40.3631 63.8686 40.4052C64.0738 40.4473 64.4738 40.5263 64.7633 40.5789C65.058 40.6368 65.4844 40.7368 65.7159 40.8052C66.1738 40.9368 66.2633 40.9368 66.2633 40.7947C66.2633 40.6947 66.237 40.6842 65.1317 40.3684C64.8422 40.2842 64.358 40.1421 64.0528 40.0526C63.7475 39.9631 63.3949 39.8631 63.2633 39.8368C63.1317 39.8105 62.8475 39.7421 62.6317 39.6789C62.4159 39.621 62.1054 39.5368 61.9475 39.4947C61.7896 39.4526 61.4791 39.3736 61.2633 39.3157C60.7001 39.1684 58.5896 38.6631 58.0001 38.5368C57.7265 38.4736 57.2738 38.3736 57.0001 38.3157C55.958 38.0789 55.5265 37.9947 54.6528 37.8421C54.158 37.7578 53.5738 37.6473 53.3633 37.6C53.1475 37.5578 52.858 37.5 52.7107 37.4736C52.5686 37.4526 52.1738 37.3842 51.8422 37.3263C51.5107 37.2684 51.0844 37.2052 50.8949 37.1894C50.7054 37.1684 50.3054 37.121 50.0001 37.0789C47.7844 36.7684 45.3001 36.621 43.4475 36.6894Z" fill="#FFA500"/>
<path d="M43.3683 40.2947C41.7209 40.3894 40.8367 40.5526 40.1157 40.8999C39.0946 41.3999 38.8367 41.5894 37.7893 42.6105C36.8893 43.4842 36.4314 43.7631 35.6051 43.9368C35.2472 44.0105 34.8314 44.021 32.842 44.0157C31.5525 44.0105 30.0472 43.9842 29.4999 43.9526C27.4051 43.8368 25.263 43.7736 23.0525 43.7684C21.0367 43.7631 20.6209 43.7789 19.5683 43.8842C17.2156 44.1157 16.1578 44.421 15.5209 45.0526C15.1841 45.3842 15.0735 45.6789 15.1683 45.9631C15.2472 46.1947 15.2367 46.1894 15.4472 46.0052C15.8841 45.621 16.4262 45.442 18.0209 45.1631C19.3946 44.9157 20.0051 44.8631 22.3946 44.7842C24.3683 44.7157 31.0841 44.7578 32.3157 44.842C33.5999 44.9368 35.2157 44.9631 35.7893 44.9052C36.6683 44.8157 36.9051 44.6684 38.0472 43.5263C39.0525 42.5263 39.2472 42.3842 40.0314 42.1052C41.2104 41.6894 42.3209 41.5736 45.1314 41.5736C48.2314 41.5789 50.5525 41.7157 54.4735 42.1315C57.1735 42.421 61.1367 42.9578 63.6157 43.3684C64.4893 43.5105 65.3735 43.6473 65.5788 43.6631C65.9209 43.6947 65.9472 43.6894 65.9472 43.5947C65.9472 43.5052 65.8209 43.4631 64.9367 43.2473C59.0051 41.7999 52.4157 40.6999 47.8157 40.3947C46.6525 40.321 44.0051 40.2578 43.3683 40.2947Z" fill="#FFA500"/>
<path d="M44.6578 43.7211C42.1789 43.779 40.1947 44.0632 39.3526 44.4842C39.0842 44.6158 38.5368 44.9842 37.9999 45.3947C37.1736 46.0211 36.9421 46.1684 36.5894 46.2842C35.6789 46.5947 34.9315 46.6211 29.5894 46.5684C24.0526 46.5053 20.1631 46.5369 19.1315 46.6526C17.8473 46.7895 16.921 47.0105 16.3157 47.3158C15.9473 47.5 15.4736 47.9369 15.4736 48.0895C15.4736 48.2474 15.521 48.2632 15.7631 48.2053C16.3105 48.079 17.8052 47.8369 18.6315 47.7421C21.6052 47.4 22.6105 47.3632 28.9947 47.4053C36.1526 47.4421 35.9789 47.4474 36.3421 47.3684C36.8315 47.2684 37.3368 47 38.021 46.4842C39.0842 45.679 39.8105 45.3369 40.7631 45.1842C43.2105 44.8 50.9473 44.8369 55.7105 45.2632C57.2315 45.4 58.4473 45.5158 58.9999 45.579C59.2473 45.6053 59.7105 45.6526 60.0263 45.6842C60.3473 45.7158 60.6631 45.7526 60.7368 45.7632C60.8105 45.779 61.1789 45.8263 61.5526 45.8684C61.9315 45.9105 62.5947 45.9947 63.0263 46.0526C63.4631 46.1158 64.0999 46.1947 64.4473 46.2369C64.7947 46.279 65.1894 46.3474 65.3263 46.3895C65.5421 46.4526 65.5842 46.4526 65.6368 46.3842C65.7789 46.2211 65.7105 46.2 63.4736 45.7421C61.4684 45.3263 57.3473 44.6632 54.9473 44.3684C51.4526 43.9421 47.1052 43.6684 44.6578 43.7211Z" fill="#FFA500"/>
<path d="M43.631 46.9789C40.3837 47.1579 39.3942 47.3842 37.3468 48.4052C36.4995 48.8315 36.1047 48.9737 35.5784 49.0526C35.3784 49.0789 32.3626 49.1158 28.4995 49.1263C21.1837 49.1579 19.6626 49.1842 18.731 49.2894C17.6205 49.4158 16.4152 49.7894 15.9731 50.1421C15.8047 50.2789 15.7363 50.4421 15.831 50.4894C15.8942 50.521 17.2205 50.4315 18.3416 50.3158C20.1889 50.1263 20.6468 50.1052 23.9731 50.0526C25.7679 50.021 28.031 49.9789 28.9995 49.9526C32.0363 49.8737 33.0258 49.8631 35.3152 49.8842C36.8047 49.9 36.9047 49.8789 37.8679 49.3842C39.5784 48.5052 39.7152 48.4579 41.3573 48.2315C44.11 47.8473 49.11 47.8684 56.2626 48.2894C58.7416 48.4368 64.7573 48.9368 65.1258 49.021C65.2363 49.0473 65.4205 48.9684 65.4205 48.8947C65.4205 48.8158 65.0889 48.7473 63.7889 48.5526C58.8679 47.8263 53.731 47.2894 49.3679 47.0526C48.3784 46.9947 44.2521 46.9421 43.631 46.9789Z" fill="#FFA500"/>
<path d="M45.2635 50.121C45.2477 50.1315 44.6003 50.1578 43.8161 50.1736C42.9319 50.1894 42.0477 50.242 41.474 50.3052C40.9687 50.3631 40.295 50.4262 39.974 50.4473C38.8161 50.5157 38.0214 50.6683 36.9635 51.0315C35.8266 51.421 35.9687 51.4104 30.0003 51.4683C27.0635 51.4999 24.1372 51.5368 23.5003 51.5525C22.8635 51.5683 21.8582 51.5946 21.2635 51.6104C19.595 51.6525 17.8477 51.8578 17.0003 52.1052C16.5635 52.2368 16.1582 52.4894 16.1582 52.6315C16.1582 52.7262 16.195 52.7368 16.595 52.7473C17.3266 52.7683 18.174 52.7315 19.7372 52.621C20.9687 52.5368 22.1003 52.5052 26.0266 52.4683C28.6635 52.442 31.395 52.3999 32.1056 52.3736C32.8161 52.3473 33.8477 52.321 34.395 52.321C35.5529 52.3157 36.7477 52.2104 37.5003 52.0578C38.8898 51.7683 39.9161 51.5683 40.4161 51.4999C42.974 51.1368 50.8635 50.8683 55.2635 50.9946C56.9424 51.0473 57.8161 51.0841 60.2635 51.2104C60.8582 51.242 62.0635 51.2999 62.9477 51.342C63.8319 51.3894 64.6161 51.4368 64.7003 51.4525C64.8687 51.4894 65.1582 51.4315 65.1582 51.3631C65.1582 51.2946 65.0424 51.2736 63.5003 51.1052C60.874 50.8157 57.0161 50.5157 55.0266 50.4473C54.5372 50.4315 53.8582 50.3946 53.5266 50.3683C51.9529 50.2315 45.3477 50.0368 45.2635 50.121Z" fill="#FFA500"/>
<path d="M3.14238 57.0511C1.98448 57.209 0.93185 57.8617 0.479218 58.7196C0.173955 59.2985 0.0371131 59.8301 0.0055342 60.5933C-0.0207816 61.409 0.0423763 61.8459 0.289745 62.4617C0.568692 63.1617 1.18974 63.8985 1.73711 64.1827C3.17396 64.9248 5.58448 64.6564 6.68975 63.6354L6.99501 63.3511V62.2038C6.99501 61.5722 6.97396 60.9933 6.94238 60.9143L6.88975 60.7827L5.3529 60.7933L3.8108 60.809L3.79501 61.2669L3.77922 61.7301L4.87396 61.7406L5.96869 61.7564L5.98448 62.3669L6.00027 62.9827L5.77396 63.1722C5.3108 63.5669 4.73185 63.7459 3.91606 63.7459C2.94238 63.7459 2.2108 63.488 1.7529 62.9827C1.17396 62.3406 0.900271 60.9775 1.12659 59.8933C1.23711 59.3669 1.38974 59.0722 1.75817 58.7038C2.79501 57.6459 4.61606 57.7248 5.62659 58.8722L5.84238 59.1143L6.24764 58.9722C6.82659 58.7722 6.82659 58.7669 6.5529 58.3564C6.42659 58.1722 6.23711 57.9511 6.13711 57.8722C6.03711 57.7933 5.91606 57.6933 5.86869 57.6511C5.75817 57.5354 5.13711 57.2669 4.72659 57.1511C4.28974 57.0301 3.60027 56.988 3.14238 57.0511Z" fill="#FFA500"/>
<path d="M65.3581 57.0986C64.2055 57.3829 63.5476 58.0144 63.4791 58.8934C63.437 59.5092 63.7265 60.146 64.2318 60.525C64.5476 60.7671 64.7739 60.8671 65.2212 60.9618C65.8318 61.0986 67.1844 61.4618 67.5002 61.5776C67.8739 61.7144 68.1844 62.0144 68.237 62.2829C68.3318 62.8092 68.0949 63.3513 67.6791 63.5565C67.137 63.8197 65.9476 63.8565 65.3528 63.6302C64.9581 63.4776 64.4739 63.1144 64.3107 62.846C64.1318 62.5513 64.1476 62.5513 63.3107 62.725C63.1476 62.7565 63.1265 62.7829 63.137 62.9092C63.1686 63.325 63.6844 63.946 64.2423 64.2407C65.3949 64.8513 67.0949 64.846 68.3318 64.2197C68.8476 63.9565 69.2212 63.4355 69.3265 62.8092C69.3739 62.5302 69.3686 62.4092 69.2897 62.0776C69.1318 61.4039 68.7897 61.0197 68.037 60.6829C67.6002 60.4829 67.2581 60.3881 66.5002 60.2565C65.4318 60.0723 64.9897 59.8829 64.7476 59.5302C64.4581 59.0986 64.5739 58.4407 64.9791 58.2144C65.4528 57.9565 66.4897 57.8671 67.0581 58.0407C67.3528 58.1355 67.737 58.4144 67.9423 58.6881C68.1476 58.9723 68.1949 58.9829 68.7686 58.8829L69.1002 58.825V58.6302C69.0949 58.3618 68.937 58.046 68.6739 57.7881C68.3791 57.5039 67.7055 57.1723 67.2318 57.0723C66.7212 56.9671 65.8528 56.9776 65.3581 57.0986Z" fill="#FFA500"/>
<path d="M49.8373 57.167C48.7741 57.4564 48.032 58.0407 47.5636 58.9617C47.211 59.6564 47.1268 60.4354 47.2899 61.5828C47.5005 63.1196 48.4005 64.167 49.8636 64.6038C50.2426 64.7196 51.211 64.7301 51.5741 64.6301C52.3584 64.4091 53.232 63.9354 53.5478 63.5617C53.9636 63.067 54.2741 62.4459 54.3952 61.8617C54.4741 61.4986 54.5005 60.2407 54.4373 59.9459C54.3584 59.5775 54.1162 58.9407 53.9636 58.7038C53.6531 58.2249 53.0794 57.7038 52.6057 57.4722C52.0268 57.188 51.6057 57.088 50.8899 57.067C50.3794 57.0459 50.2162 57.0617 49.8373 57.167ZM51.4268 57.9459C52.1847 58.0986 52.8531 58.6249 53.1847 59.3301L53.3689 59.7196L53.3531 60.8986L53.3373 62.0722L53.1847 62.3775C52.932 62.8722 52.4899 63.3143 52.011 63.5459L51.6005 63.7512H50.8899L50.1741 63.7564L49.7636 63.5512C49.2426 63.2986 48.832 62.8933 48.5478 62.3617L48.3373 61.967V60.7828V59.5986L48.5005 59.2564C48.8215 58.6038 49.3531 58.1617 50.0531 57.9722C50.3952 57.8775 51.0478 57.867 51.4268 57.9459Z" fill="#FFA500"/>
<path d="M8.58936 57.1827C8.49463 57.2248 8.48936 64.3616 8.5841 64.4564C8.66831 64.5406 9.47884 64.5406 9.56305 64.4564C9.61042 64.409 9.62621 64.0037 9.62621 62.9564V61.5195H10.7209H11.8157L12.1104 62.0037C12.7473 63.0459 13.6841 64.4932 13.7473 64.5248C13.7788 64.5459 14.042 64.5774 14.3262 64.5932C14.763 64.6248 14.842 64.6195 14.8683 64.5511C14.9052 64.4616 14.8262 64.3353 13.6946 62.5932C13.2841 61.9511 12.942 61.4037 12.942 61.3722C12.942 61.3459 13.0315 61.3037 13.1367 61.2827C13.7367 61.1722 14.3736 60.5353 14.5473 59.8827C14.6894 59.3511 14.6262 58.7669 14.363 58.2616C14.1946 57.9248 13.7315 57.488 13.3788 57.3195L13.0736 57.1774L10.863 57.1669C9.64726 57.1616 8.62094 57.1722 8.58936 57.1827ZM13.0157 58.2195C13.1315 58.2827 13.2946 58.4248 13.3841 58.5353C13.7104 58.9406 13.6157 59.7774 13.1894 60.2143C12.8683 60.5459 12.7315 60.5722 11.0578 60.588L9.62621 60.5985V59.3301V58.0616L11.2209 58.0827C12.7315 58.1037 12.8209 58.1143 13.0157 58.2195Z" fill="#FFA500"/>
<path d="M16.9315 57.188L16.2578 57.209V60.7985C16.2578 62.7722 16.2789 64.4196 16.2999 64.4564C16.3368 64.509 16.9525 64.5196 19.2104 64.509L22.0736 64.4932V64.0985V63.7038L19.7052 63.6774L17.3368 63.6511L17.321 62.5196C17.3157 61.8985 17.321 61.3353 17.3368 61.2669L17.3631 61.1511H19.4104C21.1104 61.1511 21.4683 61.1406 21.5157 61.0774C21.5525 61.0301 21.5736 60.8669 21.5631 60.6669L21.5473 60.3353L19.442 60.309L17.3368 60.2827V59.1511V58.0196L19.542 58.009C20.7525 58.0038 21.7789 57.988 21.821 57.9722C21.8736 57.9511 21.8894 57.8564 21.8789 57.588L21.8631 57.2301L21.5473 57.1985C21.2315 57.1617 18.2157 57.1564 16.9315 57.188Z" fill="#FFA500"/>
<path d="M25.5631 57.188C25.3631 57.2196 25.421 57.0985 24.7947 58.6512C24.6737 58.9406 24.3894 59.6249 24.1631 60.1775C22.3052 64.6038 22.3842 64.4143 22.4737 64.4722C22.5894 64.5459 23.4526 64.5301 23.5052 64.4564C23.5263 64.4196 23.7158 63.9512 23.921 63.4143L24.2947 62.4406L25.9526 62.4249L27.6105 62.4143L28.0263 63.4722C28.2526 64.0564 28.4579 64.5301 28.4842 64.5249C28.5052 64.5196 28.7368 64.5196 28.9947 64.5196C29.3842 64.5196 29.4684 64.5038 29.4684 64.4406C29.4684 64.367 27.3368 59.0249 26.7894 57.7301C26.6316 57.3459 26.5526 57.2249 26.4579 57.1985C26.3263 57.1564 25.7894 57.1564 25.5631 57.188ZM26.0631 58.3459C26.1052 58.4301 26.1684 58.588 26.2 58.7038C26.2368 58.8196 26.3 59.0091 26.3473 59.1249C26.3894 59.2406 26.4631 59.4301 26.5052 59.5459C26.5526 59.6617 26.6158 59.8249 26.6526 59.9143C27.0158 60.788 27.2579 61.488 27.221 61.5249C27.1947 61.5512 26.6263 61.567 25.9368 61.5617C24.8789 61.5459 24.7052 61.5354 24.7158 61.467C24.7263 61.3512 25.4052 59.5196 25.6 59.0722C25.7737 58.667 25.8263 58.5354 25.8579 58.3722C25.9052 58.167 25.9684 58.1564 26.0631 58.3459Z" fill="#FFA500"/>
<path d="M29.763 57.1879C29.7472 57.2037 29.7314 57.3932 29.7314 57.609V57.9932H30.9209C31.6683 57.9932 32.1472 58.0142 32.2104 58.0511C32.3157 58.1037 32.3157 58.1406 32.2893 59.4827C32.2683 60.2406 32.2736 61.6879 32.2946 62.7037L32.3367 64.5458L32.8525 64.5616L33.363 64.5774V61.2827V57.9932H34.5893H35.8157L35.7946 57.6353C35.7841 57.4406 35.7683 57.2511 35.7578 57.2195C35.742 57.1669 35.0841 57.1511 32.7683 57.1511C31.1367 57.1563 29.7841 57.1669 29.763 57.1879Z" fill="#FFA500"/>
<path d="M39.8369 60.8353V64.5195H40.379H40.9159L40.9001 62.8353L40.8843 61.1511L42.8211 61.1616L44.758 61.1774L44.7843 62.8353L44.8106 64.4932L45.279 64.509C45.8053 64.5248 45.9422 64.4985 45.8474 64.4037C45.8001 64.3564 45.7843 63.4195 45.7843 60.7722V57.2037H45.2843H44.7843L44.7738 58.7143L44.758 60.2301L42.8264 60.2458L40.8895 60.2564L40.879 58.7195L40.8632 57.1774L40.3527 57.1616L39.8369 57.1458V60.8353Z" fill="#FFA500"/>
<path d="M60.8788 57.188C60.7946 57.2091 60.784 57.4091 60.7735 59.8512L60.7577 62.4933L60.6051 62.7722C60.4051 63.1249 60.1735 63.3354 59.7314 63.5406C59.2893 63.7459 58.5893 63.7933 58.1472 63.6512C57.5893 63.4722 57.0893 63.0564 56.884 62.6038C56.7946 62.4038 56.784 62.2196 56.784 59.7933V57.1985L56.2472 57.2143L55.7051 57.2301V59.8617V62.4933L55.8788 62.8564C56.1209 63.3775 56.3682 63.688 56.7788 63.988C57.4156 64.4617 58.0367 64.6775 58.7577 64.6775C59.6682 64.6775 60.3946 64.3722 61.0156 63.7301C61.4735 63.2617 61.663 62.9038 61.7367 62.3722C61.763 62.1775 61.7788 60.9301 61.7735 59.5985L61.7577 57.1775L61.363 57.167C61.1472 57.167 60.9261 57.1722 60.8788 57.188Z" fill="#FFA500"/>
<path d="M73.3796 57.1933L70.627 57.2039V60.8302C70.627 63.6775 70.6427 64.4723 70.6954 64.5039C70.7901 64.5617 73.6059 64.5828 75.127 64.5354L76.4427 64.4933L76.4585 64.0933L76.4743 63.6933L76.227 63.6565C76.0901 63.6407 75.0112 63.6249 73.827 63.6249H71.6796L71.6901 62.3986L71.7059 61.1775L73.8112 61.1512L75.9164 61.1249L75.9322 60.7828C75.9375 60.5933 75.9217 60.4039 75.8901 60.3617C75.848 60.2933 75.5427 60.2828 73.7585 60.267L71.6796 60.2512L71.6901 59.146L71.7059 58.0407L73.9164 58.0144C75.1322 57.9986 76.1585 57.9775 76.1954 57.967C76.2375 57.9512 76.2585 57.8249 76.2585 57.5775C76.2585 57.3354 76.2375 57.2091 76.1954 57.1986C76.1585 57.1881 74.8901 57.1828 73.3796 57.1933Z" fill="#FFA500"/>
</svg>
