<svg width="4145" height="1199" viewBox="0 0 4145 1199" fill="none" xmlns="http://www.w3.org/2000/svg">
<path d="M1536 0.000976562H2660V604.001H1536V0.000976562Z" fill="#D9D9D9"/>
<rect x="554" y="604.001" width="3591" height="377" fill="#D9D9D9"/>
<rect x="3616" y="0.000976562" width="529" height="604" fill="#D9D9D9"/>
<rect x="1754" y="981.001" width="771" height="218" fill="#D9D9D9"/>
<rect x="1284" y="419.001" width="252" height="185" fill="#D9D9D9"/>
<rect y="0.000976562" width="554" height="981" fill="#D9D9D9"/>
<path d="M1456.39 846V825.759H1461.72C1469.29 825.759 1475.18 823.332 1479.39 818.479C1483.59 813.625 1486.61 805.783 1488.44 794.952C1490.33 784.121 1491.61 769.769 1492.26 751.895L1495.45 664.182H1606.25V846H1584.23V683.713H1516.41L1513.57 756.156C1512.86 775.214 1511.11 791.431 1508.33 804.807C1505.55 818.183 1500.66 828.392 1493.68 835.435C1486.7 842.478 1476.52 846 1463.14 846H1456.39ZM1647.1 846V709.636H1668.05V846H1647.1ZM1657.75 686.909C1653.67 686.909 1650.15 685.518 1647.19 682.737C1644.29 679.955 1642.84 676.611 1642.84 672.705C1642.84 668.798 1644.29 665.454 1647.19 662.673C1650.15 659.891 1653.67 658.5 1657.75 658.5C1661.84 658.5 1665.33 659.891 1668.23 662.673C1671.19 665.454 1672.67 668.798 1672.67 672.705C1672.67 676.611 1671.19 679.955 1668.23 682.737C1665.33 685.518 1661.84 686.909 1657.75 686.909ZM1813.37 709.636V826.469H1832.55V890.034H1811.59V846H1706.12V709.636H1727.08V826.469H1792.42V709.636H1813.37ZM1920.22 848.841C1907.09 848.841 1895.75 845.941 1886.22 840.141C1876.75 834.281 1869.44 826.114 1864.29 815.638C1859.2 805.103 1856.66 792.851 1856.66 778.884C1856.66 764.916 1859.2 752.605 1864.29 741.952C1869.44 731.239 1876.61 722.894 1885.78 716.916C1895.01 710.879 1905.78 707.861 1918.09 707.861C1925.2 707.861 1932.21 709.045 1939.13 711.412C1946.06 713.779 1952.36 717.626 1958.04 722.953C1963.73 728.221 1968.25 735.205 1971.63 743.905C1975 752.605 1976.69 763.318 1976.69 776.043V784.92H1871.57V766.81H1955.38C1955.38 759.116 1953.84 752.25 1950.76 746.213C1947.75 740.176 1943.43 735.412 1937.8 731.92C1932.24 728.428 1925.67 726.682 1918.09 726.682C1909.75 726.682 1902.53 728.753 1896.43 732.896C1890.4 736.98 1885.75 742.307 1882.49 748.876C1879.24 755.446 1877.61 762.489 1877.61 770.006V782.08C1877.61 792.378 1879.39 801.108 1882.94 808.269C1886.55 815.371 1891.55 820.787 1897.94 824.516C1904.33 828.185 1911.76 830.02 1920.22 830.02C1925.73 830.02 1930.7 829.25 1935.14 827.712C1939.64 826.114 1943.51 823.746 1946.77 820.609C1950.02 817.413 1952.54 813.448 1954.32 808.713L1974.56 814.395C1972.43 821.26 1968.85 827.297 1963.82 832.506C1958.78 837.655 1952.57 841.679 1945.17 844.58C1937.77 847.42 1929.46 848.841 1920.22 848.841ZM2029.21 815.105L2094.91 709.636H2119.05V846H2098.1V740.531L2032.76 846H2008.26V709.636H2029.21V815.105ZM2081.06 664.182H2100.59C2100.59 673.77 2097.27 681.612 2090.65 687.708C2084.02 693.804 2075.02 696.852 2063.66 696.852C2052.47 696.852 2043.56 693.804 2036.93 687.708C2030.37 681.612 2027.08 673.77 2027.08 664.182H2046.61C2046.61 668.798 2047.88 672.853 2050.43 676.344C2053.03 679.836 2057.44 681.582 2063.66 681.582C2069.87 681.582 2074.31 679.836 2076.97 676.344C2079.7 672.853 2081.06 668.798 2081.06 664.182ZM2229.98 846V664.182H2251.29L2332.97 803.741H2334.74V664.182H2356.4V846H2335.1L2253.78 707.506H2252V846H2229.98ZM2378.78 790.957V772.847H2456.19V790.957H2378.78ZM2417.48 757.222C2408.72 757.222 2401.15 755.476 2394.76 751.984C2388.42 748.492 2383.51 743.609 2380.02 737.335C2376.59 731.062 2374.87 723.723 2374.87 715.318V703.244C2374.87 694.84 2376.59 687.501 2380.02 681.227C2383.45 674.954 2388.33 670.071 2394.67 666.579C2401 663.087 2408.49 661.341 2417.13 661.341C2425.89 661.341 2433.4 663.087 2439.68 666.579C2446.01 670.071 2450.86 674.954 2454.24 681.227C2457.67 687.501 2459.39 694.84 2459.39 703.244V715.318C2459.39 723.723 2457.7 731.062 2454.33 737.335C2450.95 743.609 2446.13 748.492 2439.85 751.984C2433.58 755.476 2426.12 757.222 2417.48 757.222ZM2417.48 739.466C2424.41 739.466 2429.56 737.276 2432.93 732.896C2436.36 728.457 2438.08 722.598 2438.08 715.318V703.244C2438.08 696.142 2436.36 690.401 2432.93 686.021C2429.5 681.642 2424.23 679.452 2417.13 679.452C2410.03 679.452 2404.76 681.642 2401.33 686.021C2397.89 690.401 2396.18 696.142 2396.18 703.244V715.318C2396.18 722.598 2397.89 728.457 2401.33 732.896C2404.82 737.276 2410.2 739.466 2417.48 739.466ZM2562.38 664.182V846H2540.36V687.264H2539.3L2494.91 716.739V694.366L2540.36 664.182H2562.38ZM2614.37 846V830.02L2674.38 764.324C2681.43 756.63 2687.23 749.942 2691.78 744.26C2696.34 738.519 2699.72 733.133 2701.91 728.102C2704.15 723.012 2705.28 717.686 2705.28 712.122C2705.28 705.73 2703.74 700.196 2700.66 695.521C2697.64 690.845 2693.5 687.235 2688.23 684.69C2682.97 682.145 2677.05 680.872 2670.48 680.872C2663.49 680.872 2657.4 682.322 2652.19 685.222C2647.04 688.063 2643.05 692.058 2640.2 697.207C2637.42 702.357 2636.03 708.393 2636.03 715.318H2615.08C2615.08 704.665 2617.54 695.313 2622.45 687.264C2627.36 679.215 2634.05 672.941 2642.51 668.443C2651.04 663.945 2660.59 661.696 2671.19 661.696C2681.84 661.696 2691.28 663.945 2699.51 668.443C2707.74 672.941 2714.19 679.008 2718.86 686.643C2723.54 694.278 2725.88 702.771 2725.88 712.122C2725.88 718.81 2724.66 725.35 2722.24 731.742C2719.87 738.075 2715.73 745.148 2709.81 752.96C2703.95 760.714 2695.81 770.183 2685.39 781.369L2644.55 825.048V826.469H2729.07V846H2614.37Z" fill="#FFA500"/>
<path d="M1456.39 846H1453.39V849H1456.39V846ZM1456.39 825.759V822.759H1453.39V825.759H1456.39ZM1479.39 818.479L1477.12 816.515L1477.12 816.515L1479.39 818.479ZM1488.44 794.952L1485.49 794.436L1485.48 794.444L1485.48 794.451L1488.44 794.952ZM1492.26 751.895L1489.26 751.786L1489.26 751.786L1492.26 751.895ZM1495.45 664.182V661.182H1492.56L1492.46 664.073L1495.45 664.182ZM1606.25 664.182H1609.25V661.182H1606.25V664.182ZM1606.25 846V849H1609.25V846H1606.25ZM1584.23 846H1581.23V849H1584.23V846ZM1584.23 683.713H1587.23V680.713H1584.23V683.713ZM1516.41 683.713V680.713H1513.52L1513.41 683.596L1516.41 683.713ZM1513.57 756.156L1510.57 756.039L1510.57 756.045L1513.57 756.156ZM1508.33 804.807L1511.26 805.418L1511.26 805.418L1508.33 804.807ZM1493.68 835.435L1495.81 837.548L1495.81 837.548L1493.68 835.435ZM1459.39 846V825.759H1453.39V846H1459.39ZM1456.39 828.759H1461.72V822.759H1456.39V828.759ZM1461.72 828.759C1469.99 828.759 1476.78 826.074 1481.65 820.442L1477.12 816.515C1473.59 820.59 1468.6 822.759 1461.72 822.759V828.759ZM1481.65 820.442C1486.39 814.974 1489.53 806.487 1491.4 795.453L1485.48 794.451C1483.68 805.08 1480.79 812.277 1477.12 816.515L1481.65 820.442ZM1491.4 795.469C1493.32 784.447 1494.6 769.942 1495.26 752.004L1489.26 751.786C1488.61 769.596 1487.35 783.796 1485.49 794.436L1491.4 795.469ZM1495.26 752.004L1498.45 664.291L1492.46 664.073L1489.26 751.786L1495.26 752.004ZM1495.45 667.182H1606.25V661.182H1495.45V667.182ZM1603.25 664.182V846H1609.25V664.182H1603.25ZM1606.25 843H1584.23V849H1606.25V843ZM1587.23 846V683.713H1581.23V846H1587.23ZM1584.23 680.713H1516.41V686.713H1584.23V680.713ZM1513.41 683.596L1510.57 756.039L1516.56 756.274L1519.4 683.831L1513.41 683.596ZM1510.57 756.045C1509.86 774.995 1508.13 791.035 1505.39 804.196L1511.26 805.418C1514.09 791.827 1515.85 775.433 1516.56 756.268L1510.57 756.045ZM1505.39 804.196C1502.68 817.211 1498 826.82 1491.55 833.323L1495.81 837.548C1503.33 829.965 1508.41 819.154 1511.26 805.418L1505.39 804.196ZM1491.55 833.323C1485.3 839.622 1476 843 1463.14 843V849C1477.03 849 1488.09 845.335 1495.81 837.548L1491.55 833.323ZM1463.14 843H1456.39V849H1463.14V843ZM1647.1 846H1644.1V849H1647.1V846ZM1647.1 709.636V706.636H1644.1V709.636H1647.1ZM1668.05 709.636H1671.05V706.636H1668.05V709.636ZM1668.05 846V849H1671.05V846H1668.05ZM1647.19 682.737L1645.11 684.902L1645.12 684.912L1645.13 684.922L1647.19 682.737ZM1647.19 662.673L1645.13 660.487L1645.12 660.497L1645.11 660.508L1647.19 662.673ZM1668.23 662.673L1666.15 664.838L1666.16 664.848L1666.17 664.858L1668.23 662.673ZM1668.23 682.737L1666.17 680.551L1666.16 680.561L1666.15 680.571L1668.23 682.737ZM1650.1 846V709.636H1644.1V846H1650.1ZM1647.1 712.636H1668.05V706.636H1647.1V712.636ZM1665.05 709.636V846H1671.05V709.636H1665.05ZM1668.05 843H1647.1V849H1668.05V843ZM1657.75 683.909C1654.43 683.909 1651.64 682.806 1649.24 680.551L1645.13 684.922C1648.65 688.23 1652.91 689.909 1657.75 689.909V683.909ZM1649.26 680.571C1646.93 678.337 1645.84 675.767 1645.84 672.705H1639.84C1639.84 677.454 1641.64 681.572 1645.11 684.902L1649.26 680.571ZM1645.84 672.705C1645.84 669.642 1646.93 667.072 1649.26 664.838L1645.11 660.508C1641.64 663.837 1639.84 667.955 1639.84 672.705H1645.84ZM1649.24 664.858C1651.64 662.603 1654.43 661.5 1657.75 661.5V655.5C1652.91 655.5 1648.65 657.179 1645.13 660.487L1649.24 664.858ZM1657.75 661.5C1661.08 661.5 1663.82 662.601 1666.15 664.838L1670.3 660.508C1666.84 657.18 1662.6 655.5 1657.75 655.5V661.5ZM1666.17 664.858C1668.56 667.099 1669.67 669.662 1669.67 672.705H1675.67C1675.67 667.934 1673.82 663.81 1670.28 660.487L1666.17 664.858ZM1669.67 672.705C1669.67 675.747 1668.56 678.311 1666.17 680.551L1670.28 684.922C1673.82 681.599 1675.67 677.475 1675.67 672.705H1669.67ZM1666.15 680.571C1663.82 682.808 1661.08 683.909 1657.75 683.909V689.909C1662.6 689.909 1666.84 688.229 1670.3 684.902L1666.15 680.571ZM1813.37 709.636H1816.37V706.636H1813.37V709.636ZM1813.37 826.469H1810.37V829.469H1813.37V826.469ZM1832.55 826.469H1835.55V823.469H1832.55V826.469ZM1832.55 890.034V893.034H1835.55V890.034H1832.55ZM1811.59 890.034H1808.59V893.034H1811.59V890.034ZM1811.59 846H1814.59V843H1811.59V846ZM1706.12 846H1703.12V849H1706.12V846ZM1706.12 709.636V706.636H1703.12V709.636H1706.12ZM1727.08 709.636H1730.08V706.636H1727.08V709.636ZM1727.08 826.469H1724.08V829.469H1727.08V826.469ZM1792.42 826.469V829.469H1795.42V826.469H1792.42ZM1792.42 709.636V706.636H1789.42V709.636H1792.42ZM1810.37 709.636V826.469H1816.37V709.636H1810.37ZM1813.37 829.469H1832.55V823.469H1813.37V829.469ZM1829.55 826.469V890.034H1835.55V826.469H1829.55ZM1832.55 887.034H1811.59V893.034H1832.55V887.034ZM1814.59 890.034V846H1808.59V890.034H1814.59ZM1811.59 843H1706.12V849H1811.59V843ZM1709.12 846V709.636H1703.12V846H1709.12ZM1706.12 712.636H1727.08V706.636H1706.12V712.636ZM1724.08 709.636V826.469H1730.08V709.636H1724.08ZM1727.08 829.469H1792.42V823.469H1727.08V829.469ZM1795.42 826.469V709.636H1789.42V826.469H1795.42ZM1792.42 712.636H1813.37V706.636H1792.42V712.636ZM1886.22 840.141L1884.64 842.692L1884.65 842.698L1884.66 842.703L1886.22 840.141ZM1864.29 815.638L1861.59 816.943L1861.6 816.952L1861.6 816.961L1864.29 815.638ZM1864.29 741.952L1861.59 740.652L1861.59 740.658L1864.29 741.952ZM1885.78 716.916L1887.42 719.43L1887.42 719.427L1885.78 716.916ZM1939.13 711.412L1940.11 708.573L1940.11 708.573L1939.13 711.412ZM1958.04 722.953L1955.99 725.142L1956 725.147L1956 725.153L1958.04 722.953ZM1971.63 743.905L1974.42 742.82L1974.42 742.82L1971.63 743.905ZM1976.69 784.92V787.92H1979.69V784.92H1976.69ZM1871.57 784.92H1868.57V787.92H1871.57V784.92ZM1871.57 766.81V763.81H1868.57V766.81H1871.57ZM1955.38 766.81V769.81H1958.38V766.81H1955.38ZM1950.76 746.213L1948.08 747.555L1948.09 747.565L1948.09 747.576L1950.76 746.213ZM1937.8 731.92L1936.21 734.461L1936.21 734.464L1936.22 734.468L1937.8 731.92ZM1896.43 732.896L1898.11 735.381L1898.12 735.378L1896.43 732.896ZM1882.49 748.876L1879.81 747.544L1879.81 747.544L1882.49 748.876ZM1882.94 808.269L1880.25 809.602L1880.26 809.615L1880.26 809.629L1882.94 808.269ZM1897.94 824.516L1896.43 827.107L1896.44 827.112L1896.45 827.117L1897.94 824.516ZM1935.14 827.712L1936.12 830.546L1936.13 830.542L1936.14 830.539L1935.14 827.712ZM1946.77 820.609L1948.85 822.77L1948.86 822.76L1948.87 822.75L1946.77 820.609ZM1954.32 808.713L1955.13 805.825L1952.47 805.08L1951.51 807.66L1954.32 808.713ZM1974.56 814.395L1977.42 815.284L1978.34 812.34L1975.37 811.507L1974.56 814.395ZM1963.82 832.506L1965.96 834.602L1965.97 834.596L1965.97 834.59L1963.82 832.506ZM1945.17 844.58L1946.25 847.38L1946.26 847.376L1946.27 847.373L1945.17 844.58ZM1920.22 845.841C1907.54 845.841 1896.76 843.045 1887.78 837.578L1884.66 842.703C1894.74 848.837 1906.63 851.841 1920.22 851.841V845.841ZM1887.8 837.589C1878.83 832.041 1871.9 824.31 1866.99 814.314L1861.6 816.961C1866.99 827.917 1874.67 836.521 1884.64 842.692L1887.8 837.589ZM1867 814.333C1862.14 804.276 1859.66 792.486 1859.66 778.884H1853.66C1853.66 793.217 1856.27 805.929 1861.59 816.943L1867 814.333ZM1859.66 778.884C1859.66 765.282 1862.14 753.427 1867 743.245L1861.59 740.658C1856.27 751.783 1853.66 764.549 1853.66 778.884H1859.66ZM1867 743.251C1871.93 732.989 1878.74 725.082 1887.42 719.43L1884.14 714.403C1874.47 720.705 1866.96 729.489 1861.59 740.652L1867 743.251ZM1887.42 719.427C1896.11 713.746 1906.3 710.861 1918.09 710.861V704.861C1905.27 704.861 1893.91 708.013 1884.14 714.405L1887.42 719.427ZM1918.09 710.861C1924.86 710.861 1931.54 711.987 1938.16 714.251L1940.11 708.573C1932.88 706.102 1925.54 704.861 1918.09 704.861V710.861ZM1938.16 714.251C1944.66 716.472 1950.6 720.087 1955.99 725.142L1960.1 720.765C1954.12 715.166 1947.46 711.087 1940.11 708.573L1938.16 714.251ZM1956 725.153C1961.29 730.054 1965.59 736.628 1968.83 744.989L1974.42 742.82C1970.92 733.781 1966.16 726.387 1960.08 720.753L1956 725.153ZM1968.83 744.989C1972.03 753.243 1973.69 763.563 1973.69 776.043H1979.69C1979.69 763.073 1977.97 751.967 1974.42 742.82L1968.83 744.989ZM1973.69 776.043V784.92H1979.69V776.043H1973.69ZM1976.69 781.92H1871.57V787.92H1976.69V781.92ZM1874.57 784.92V766.81H1868.57V784.92H1874.57ZM1871.57 769.81H1955.38V763.81H1871.57V769.81ZM1958.38 766.81C1958.38 758.707 1956.76 751.363 1953.44 744.851L1948.09 747.576C1950.93 753.137 1952.38 759.525 1952.38 766.81H1958.38ZM1953.45 744.871C1950.19 738.348 1945.49 733.162 1939.39 729.371L1936.22 734.468C1941.36 737.661 1945.31 742.004 1948.08 747.555L1953.45 744.871ZM1939.4 729.379C1933.29 725.543 1926.15 723.682 1918.09 723.682V729.682C1925.19 729.682 1931.19 731.312 1936.21 734.461L1939.4 729.379ZM1918.09 723.682C1909.23 723.682 1901.4 725.891 1894.75 730.415L1898.12 735.378C1903.65 731.616 1910.27 729.682 1918.09 729.682V723.682ZM1894.75 730.411C1888.28 734.788 1883.29 740.513 1879.81 747.544L1885.18 750.208C1888.21 744.101 1892.51 739.172 1898.11 735.381L1894.75 730.411ZM1879.81 747.544C1876.34 754.539 1874.61 762.039 1874.61 770.006H1880.61C1880.61 762.939 1882.14 756.353 1885.18 750.208L1879.81 747.544ZM1874.61 770.006V782.08H1880.61V770.006H1874.61ZM1874.61 782.08C1874.61 792.711 1876.44 801.924 1880.25 809.602L1885.63 806.936C1882.33 800.291 1880.61 792.044 1880.61 782.08H1874.61ZM1880.26 809.629C1884.11 817.204 1889.5 823.065 1896.43 827.107L1899.45 821.924C1893.6 818.508 1888.98 813.539 1885.61 806.91L1880.26 809.629ZM1896.45 827.117C1903.36 831.084 1911.32 833.02 1920.22 833.02V827.02C1912.21 827.02 1905.31 825.286 1899.44 821.914L1896.45 827.117ZM1920.22 833.02C1926.01 833.02 1931.32 832.212 1936.12 830.546L1934.16 824.877C1930.08 826.289 1925.45 827.02 1920.22 827.02V833.02ZM1936.14 830.539C1941.02 828.806 1945.27 826.219 1948.85 822.77L1944.69 818.449C1941.76 821.273 1938.25 823.422 1934.14 824.885L1936.14 830.539ZM1948.87 822.75C1952.47 819.216 1955.21 814.866 1957.12 809.766L1951.51 807.66C1949.87 812.03 1947.58 815.611 1944.67 818.469L1948.87 822.75ZM1953.5 811.601L1973.75 817.283L1975.37 811.507L1955.13 805.825L1953.5 811.601ZM1971.69 813.506C1969.7 819.92 1966.36 825.548 1961.66 830.421L1965.97 834.59C1971.33 829.047 1975.15 822.601 1977.42 815.284L1971.69 813.506ZM1961.67 830.409C1956.97 835.224 1951.12 839.025 1944.08 841.786L1946.27 847.373C1954.02 844.334 1960.6 840.086 1965.96 834.602L1961.67 830.409ZM1944.1 841.779C1937.09 844.468 1929.15 845.841 1920.22 845.841V851.841C1929.77 851.841 1938.45 850.373 1946.25 847.38L1944.1 841.779ZM2029.21 815.105H2026.21V825.595L2031.76 816.691L2029.21 815.105ZM2094.91 709.636V706.636H2093.24L2092.36 708.05L2094.91 709.636ZM2119.05 709.636H2122.05V706.636H2119.05V709.636ZM2119.05 846V849H2122.05V846H2119.05ZM2098.1 846H2095.1V849H2098.1V846ZM2098.1 740.531H2101.1V729.992L2095.55 738.951L2098.1 740.531ZM2032.76 846V849H2034.43L2035.31 847.58L2032.76 846ZM2008.26 846H2005.26V849H2008.26V846ZM2008.26 709.636V706.636H2005.26V709.636H2008.26ZM2029.21 709.636H2032.21V706.636H2029.21V709.636ZM2081.06 664.182V661.182H2078.06V664.182H2081.06ZM2100.59 664.182H2103.59V661.182H2100.59V664.182ZM2090.65 687.708L2088.61 685.5L2088.61 685.5L2090.65 687.708ZM2036.93 687.708L2034.89 689.907L2034.9 689.916L2036.93 687.708ZM2027.08 664.182V661.182H2024.08V664.182H2027.08ZM2046.61 664.182H2049.61V661.182H2046.61V664.182ZM2050.43 676.344L2048 678.111L2048.01 678.125L2048.02 678.138L2050.43 676.344ZM2076.97 676.344L2074.61 674.5L2074.6 674.512L2074.59 674.525L2076.97 676.344ZM2031.76 816.691L2097.45 711.223L2092.36 708.05L2026.66 813.519L2031.76 816.691ZM2094.91 712.636H2119.05V706.636H2094.91V712.636ZM2116.05 709.636V846H2122.05V709.636H2116.05ZM2119.05 843H2098.1V849H2119.05V843ZM2101.1 846V740.531H2095.1V846H2101.1ZM2095.55 738.951L2030.21 844.42L2035.31 847.58L2100.65 742.111L2095.55 738.951ZM2032.76 843H2008.26V849H2032.76V843ZM2011.26 846V709.636H2005.26V846H2011.26ZM2008.26 712.636H2029.21V706.636H2008.26V712.636ZM2026.21 709.636V815.105H2032.21V709.636H2026.21ZM2081.06 667.182H2100.59V661.182H2081.06V667.182ZM2097.59 664.182C2097.59 672.992 2094.58 680.012 2088.61 685.5L2092.68 689.916C2099.97 683.212 2103.59 674.548 2103.59 664.182H2097.59ZM2088.61 685.5C2082.67 690.963 2074.47 693.852 2063.66 693.852V699.852C2075.57 699.852 2085.36 696.645 2092.68 689.916L2088.61 685.5ZM2063.66 693.852C2053.03 693.852 2044.91 690.971 2038.97 685.5L2034.9 689.916C2042.21 696.637 2051.91 699.852 2063.66 699.852V693.852ZM2038.98 685.509C2033.06 680.024 2030.08 673.001 2030.08 664.182H2024.08C2024.08 674.539 2027.67 683.2 2034.89 689.907L2038.98 685.509ZM2027.08 667.182H2046.61V661.182H2027.08V667.182ZM2043.61 664.182C2043.61 669.387 2045.06 674.07 2048 678.111L2052.85 674.577C2050.71 671.635 2049.61 668.209 2049.61 664.182H2043.61ZM2048.02 678.138C2051.41 682.677 2056.92 684.582 2063.66 684.582V678.582C2057.96 678.582 2054.66 676.996 2052.83 674.551L2048.02 678.138ZM2063.66 684.582C2070.4 684.582 2075.92 682.675 2079.36 678.164L2074.59 674.525C2072.7 676.998 2069.35 678.582 2063.66 678.582V684.582ZM2079.34 678.189C2082.49 674.146 2084.06 669.436 2084.06 664.182H2078.06C2078.06 668.161 2076.9 671.559 2074.61 674.5L2079.34 678.189ZM2229.98 846H2226.98V849H2229.98V846ZM2229.98 664.182V661.182H2226.98V664.182H2229.98ZM2251.29 664.182L2253.88 662.667L2253.01 661.182H2251.29V664.182ZM2332.97 803.741L2330.38 805.257L2331.25 806.741H2332.97V803.741ZM2334.74 803.741V806.741H2337.74V803.741H2334.74ZM2334.74 664.182V661.182H2331.74V664.182H2334.74ZM2356.4 664.182H2359.4V661.182H2356.4V664.182ZM2356.4 846V849H2359.4V846H2356.4ZM2335.1 846L2332.51 847.519L2333.38 849H2335.1V846ZM2253.78 707.506L2256.36 705.987L2255.49 704.506H2253.78V707.506ZM2252 707.506V704.506H2249V707.506H2252ZM2252 846V849H2255V846H2252ZM2378.78 790.957H2375.78V793.957H2378.78V790.957ZM2378.78 772.847V769.847H2375.78V772.847H2378.78ZM2456.19 772.847H2459.19V769.847H2456.19V772.847ZM2456.19 790.957V793.957H2459.19V790.957H2456.19ZM2394.76 751.984L2393.31 754.611L2393.32 754.616L2394.76 751.984ZM2380.02 737.335L2377.39 738.775L2377.39 738.785L2377.4 738.794L2380.02 737.335ZM2439.68 666.579L2438.22 669.2L2438.23 669.206L2439.68 666.579ZM2454.24 681.227L2451.59 682.648L2451.6 682.658L2451.61 682.667L2454.24 681.227ZM2454.33 737.335L2456.97 738.756L2456.97 738.756L2454.33 737.335ZM2439.85 751.984L2441.31 754.605L2441.31 754.605L2439.85 751.984ZM2432.93 732.896L2430.56 731.061L2430.55 731.066L2432.93 732.896ZM2432.93 686.021L2435.29 684.171L2435.29 684.171L2432.93 686.021ZM2401.33 686.021L2398.96 684.171L2398.96 684.171L2401.33 686.021ZM2401.33 732.896L2398.95 734.732L2398.97 734.749L2398.98 734.767L2401.33 732.896ZM2232.98 846V664.182H2226.98V846H2232.98ZM2229.98 667.182H2251.29V661.182H2229.98V667.182ZM2248.7 665.697L2330.38 805.257L2335.55 802.226L2253.88 662.667L2248.7 665.697ZM2332.97 806.741H2334.74V800.741H2332.97V806.741ZM2337.74 803.741V664.182H2331.74V803.741H2337.74ZM2334.74 667.182H2356.4V661.182H2334.74V667.182ZM2353.4 664.182V846H2359.4V664.182H2353.4ZM2356.4 843H2335.1V849H2356.4V843ZM2337.68 844.481L2256.36 705.987L2251.19 709.025L2332.51 847.519L2337.68 844.481ZM2253.78 704.506H2252V710.506H2253.78V704.506ZM2249 707.506V846H2255V707.506H2249ZM2252 843H2229.98V849H2252V843ZM2381.78 790.957V772.847H2375.78V790.957H2381.78ZM2378.78 775.847H2456.19V769.847H2378.78V775.847ZM2453.19 772.847V790.957H2459.19V772.847H2453.19ZM2456.19 787.957H2378.78V793.957H2456.19V787.957ZM2417.48 754.222C2409.12 754.222 2402.06 752.558 2396.19 749.351L2393.32 754.616C2400.23 758.394 2408.32 760.222 2417.48 760.222V754.222ZM2396.2 749.357C2390.36 746.134 2385.86 741.655 2382.64 735.876L2377.4 738.794C2381.16 745.563 2386.49 750.849 2393.31 754.611L2396.2 749.357ZM2382.65 735.895C2379.5 730.135 2377.87 723.308 2377.87 715.318H2371.87C2371.87 724.137 2373.67 731.988 2377.39 738.775L2382.65 735.895ZM2377.87 715.318V703.244H2371.87V715.318H2377.87ZM2377.87 703.244C2377.87 695.255 2379.5 688.428 2382.65 682.667L2377.39 679.787C2373.67 686.574 2371.87 694.425 2371.87 703.244H2377.87ZM2382.65 682.667C2385.81 676.9 2390.28 672.426 2396.12 669.206L2393.22 663.952C2386.39 667.716 2381.1 673.008 2377.39 679.787L2382.65 682.667ZM2396.12 669.206C2401.93 666.002 2408.89 664.341 2417.13 664.341V658.341C2408.08 658.341 2400.07 660.172 2393.22 663.952L2396.12 669.206ZM2417.13 664.341C2425.49 664.341 2432.48 666.006 2438.22 669.2L2441.14 663.958C2434.33 660.168 2426.29 658.341 2417.13 658.341V664.341ZM2438.23 669.206C2444.06 672.424 2448.5 676.891 2451.59 682.648L2456.88 679.806C2453.23 673.016 2447.96 667.718 2441.13 663.952L2438.23 669.206ZM2451.61 682.667C2454.76 688.428 2456.39 695.255 2456.39 703.244H2462.39C2462.39 694.425 2460.58 686.574 2456.87 679.787L2451.61 682.667ZM2456.39 703.244V715.318H2462.39V703.244H2456.39ZM2456.39 715.318C2456.39 723.316 2454.78 730.15 2451.68 735.914L2456.97 738.756C2460.62 731.973 2462.39 724.129 2462.39 715.318H2456.39ZM2451.68 735.914C2448.58 741.679 2444.17 746.147 2438.4 749.362L2441.31 754.605C2448.08 750.837 2453.32 745.539 2456.97 738.756L2451.68 735.914ZM2438.4 749.362C2432.65 752.56 2425.72 754.222 2417.48 754.222V760.222C2426.53 760.222 2434.51 758.391 2441.31 754.605L2438.4 749.362ZM2417.48 742.466C2425.08 742.466 2431.22 740.028 2435.31 734.727L2430.55 731.066C2427.89 734.524 2423.74 736.466 2417.48 736.466V742.466ZM2435.3 734.732C2439.25 729.629 2441.08 723.064 2441.08 715.318H2435.08C2435.08 722.132 2433.48 727.286 2430.56 731.061L2435.3 734.732ZM2441.08 715.318V703.244H2435.08V715.318H2441.08ZM2441.08 703.244C2441.08 695.659 2439.24 689.209 2435.29 684.171L2430.57 687.872C2433.49 691.593 2435.08 696.625 2435.08 703.244H2441.08ZM2435.29 684.171C2431.14 678.871 2424.87 676.452 2417.13 676.452V682.452C2423.59 682.452 2427.86 684.412 2430.57 687.872L2435.29 684.171ZM2417.13 676.452C2409.38 676.452 2403.12 678.871 2398.96 684.171L2403.69 687.872C2406.4 684.412 2410.67 682.452 2417.13 682.452V676.452ZM2398.96 684.171C2395.01 689.209 2393.18 695.659 2393.18 703.244H2399.18C2399.18 696.625 2400.77 691.593 2403.69 687.872L2398.96 684.171ZM2393.18 703.244V715.318H2399.18V703.244H2393.18ZM2393.18 715.318C2393.18 723.064 2395.01 729.629 2398.95 734.732L2403.7 731.061C2400.78 727.286 2399.18 722.132 2399.18 715.318H2393.18ZM2398.98 734.767C2403.2 740.063 2409.59 742.466 2417.48 742.466V736.466C2410.82 736.466 2406.43 734.489 2403.67 731.026L2398.98 734.767ZM2562.38 664.182H2565.38V661.182H2562.38V664.182ZM2562.38 846V849H2565.38V846H2562.38ZM2540.36 846H2537.36V849H2540.36V846ZM2540.36 687.264H2543.36V684.264H2540.36V687.264ZM2539.3 687.264V684.264H2538.39L2537.64 684.765L2539.3 687.264ZM2494.91 716.739H2491.91V722.332L2496.57 719.238L2494.91 716.739ZM2494.91 694.366L2493.25 691.867L2491.91 692.757V694.366H2494.91ZM2540.36 664.182V661.182H2539.46L2538.7 661.683L2540.36 664.182ZM2559.38 664.182V846H2565.38V664.182H2559.38ZM2562.38 843H2540.36V849H2562.38V843ZM2543.36 846V687.264H2537.36V846H2543.36ZM2540.36 684.264H2539.3V690.264H2540.36V684.264ZM2537.64 684.765L2493.25 714.239L2496.57 719.238L2540.96 689.763L2537.64 684.765ZM2497.91 716.739V694.366H2491.91V716.739H2497.91ZM2496.57 696.866L2542.02 666.681L2538.7 661.683L2493.25 691.867L2496.57 696.866ZM2540.36 667.182H2562.38V661.182H2540.36V667.182ZM2614.37 846H2611.37V849H2614.37V846ZM2614.37 830.02L2612.16 827.997L2611.37 828.856V830.02H2614.37ZM2674.38 764.324L2672.17 762.298L2672.17 762.3L2674.38 764.324ZM2691.78 744.26L2694.13 746.137L2694.13 746.131L2694.13 746.125L2691.78 744.26ZM2701.91 728.102L2699.16 726.89L2699.16 726.897L2699.16 726.905L2701.91 728.102ZM2700.66 695.521L2698.14 697.148L2698.15 697.159L2698.16 697.17L2700.66 695.521ZM2688.23 684.69L2689.54 681.988L2689.54 681.988L2688.23 684.69ZM2652.19 685.222L2653.64 687.849L2653.65 687.843L2652.19 685.222ZM2640.2 697.207L2637.58 695.758L2637.57 695.77L2637.57 695.781L2640.2 697.207ZM2636.03 715.318V718.318H2639.03V715.318H2636.03ZM2615.08 715.318H2612.08V718.318H2615.08V715.318ZM2622.45 687.264L2625.01 688.827L2625.01 688.827L2622.45 687.264ZM2642.51 668.443L2641.11 665.79L2641.11 665.794L2642.51 668.443ZM2699.51 668.443L2700.95 665.811L2700.95 665.811L2699.51 668.443ZM2718.86 686.643L2716.3 688.21L2718.86 686.643ZM2722.24 731.742L2719.43 730.677L2719.43 730.685L2719.43 730.692L2722.24 731.742ZM2709.81 752.96L2707.42 751.149L2707.41 751.151L2709.81 752.96ZM2685.39 781.369L2687.58 783.418L2687.59 783.414L2685.39 781.369ZM2644.55 825.048L2642.36 822.999L2641.55 823.864V825.048H2644.55ZM2644.55 826.469H2641.55V829.469H2644.55V826.469ZM2729.07 826.469H2732.07V823.469H2729.07V826.469ZM2729.07 846V849H2732.07V846H2729.07ZM2617.37 846V830.02H2611.37V846H2617.37ZM2616.59 832.043L2676.6 766.347L2672.17 762.3L2612.16 827.997L2616.59 832.043ZM2676.6 766.349C2683.67 758.626 2689.51 751.886 2694.13 746.137L2689.44 742.383C2684.94 747.997 2679.19 754.634 2672.17 762.298L2676.6 766.349ZM2694.13 746.125C2698.8 740.244 2702.33 734.634 2704.66 729.3L2699.16 726.905C2697.1 731.632 2693.88 736.794 2689.44 742.395L2694.13 746.125ZM2704.65 729.315C2707.07 723.843 2708.28 718.103 2708.28 712.122H2702.28C2702.28 717.268 2701.24 722.182 2699.16 726.89L2704.65 729.315ZM2708.28 712.122C2708.28 705.229 2706.61 699.103 2703.17 693.871L2698.16 697.17C2700.87 701.289 2702.28 706.231 2702.28 712.122H2708.28ZM2703.18 693.893C2699.85 688.731 2695.28 684.76 2689.54 681.988L2686.93 687.391C2691.73 689.709 2695.44 692.959 2698.14 697.148L2703.18 693.893ZM2689.54 681.988C2683.82 679.224 2677.44 677.872 2670.48 677.872V683.872C2676.65 683.872 2682.12 685.066 2686.93 687.391L2689.54 681.988ZM2670.48 677.872C2663.07 677.872 2656.46 679.413 2650.73 682.601L2653.65 687.843C2658.34 685.231 2663.92 683.872 2670.48 683.872V677.872ZM2650.74 682.596C2645.1 685.71 2640.69 690.113 2637.58 695.758L2642.83 698.657C2645.4 694.003 2648.99 690.416 2653.64 687.849L2650.74 682.596ZM2637.57 695.781C2634.51 701.442 2633.03 707.987 2633.03 715.318H2639.03C2639.03 708.8 2640.34 703.271 2642.84 698.633L2637.57 695.781ZM2636.03 712.318H2615.08V718.318H2636.03V712.318ZM2618.08 715.318C2618.08 705.143 2620.42 696.347 2625.01 688.827L2619.89 685.701C2614.65 694.28 2612.08 704.187 2612.08 715.318H2618.08ZM2625.01 688.827C2629.64 681.244 2635.92 675.342 2643.92 671.092L2641.11 665.794C2632.18 670.54 2625.09 677.185 2619.89 685.701L2625.01 688.827ZM2643.91 671.096C2651.96 666.848 2661.03 664.696 2671.19 664.696V658.696C2660.16 658.696 2650.11 661.042 2641.11 665.79L2643.91 671.096ZM2671.19 664.696C2681.41 664.696 2690.34 666.85 2698.07 671.075L2700.95 665.811C2692.22 661.04 2682.28 658.696 2671.19 658.696V664.696ZM2698.07 671.075C2705.86 675.335 2711.92 681.043 2716.3 688.21L2721.42 685.076C2716.46 676.973 2709.61 670.548 2700.95 665.811L2698.07 671.075ZM2716.3 688.21C2720.68 695.351 2722.88 703.298 2722.88 712.122H2728.88C2728.88 702.244 2726.4 693.204 2721.42 685.076L2716.3 688.21ZM2722.88 712.122C2722.88 718.438 2721.73 724.618 2719.43 730.677L2725.04 732.807C2727.59 726.082 2728.88 719.182 2728.88 712.122H2722.88ZM2719.43 730.692C2717.19 736.66 2713.23 743.474 2707.42 751.149L2712.2 754.772C2718.22 746.822 2722.54 739.491 2725.05 732.793L2719.43 730.692ZM2707.41 751.151C2701.64 758.79 2693.58 768.177 2683.2 779.325L2687.59 783.414C2698.04 772.19 2706.25 762.637 2712.2 754.769L2707.41 751.151ZM2683.2 779.32L2642.36 822.999L2646.75 827.097L2687.58 783.418L2683.2 779.32ZM2641.55 825.048V826.469H2647.55V825.048H2641.55ZM2644.55 829.469H2729.07V823.469H2644.55V829.469ZM2726.07 826.469V846H2732.07V826.469H2726.07ZM2729.07 843H2614.37V849H2729.07V843Z" fill="#FFA500"/>
</svg>
