<svg version="1.1" id="Layer_1" xmlns="http://www.w3.org/2000/svg" xmlns:xlink="http://www.w3.org/1999/xlink" x="0px" y="0px"
	 width="100%" viewBox="0 0 528 400" enable-background="new 0 0 528 400" xml:space="preserve">
<path fill="#000000" opacity="1.000000" stroke="none" 
	d="
M529.000000,331.536804 
	C519.487366,335.091370 509.529266,334.566833 499.791321,335.022858 
	C469.010468,336.464233 438.205322,337.849304 407.373230,336.979218 
	C367.596741,335.856750 327.876343,334.045959 288.791046,325.621887 
	C283.685638,324.521515 278.905334,325.856842 274.267548,328.003540 
	C248.878998,339.755096 223.510162,351.547852 197.367371,361.579285 
	C169.524017,372.263214 141.446426,382.176514 111.872719,386.960358 
	C101.005333,388.718231 90.017204,389.254883 79.055954,387.579224 
	C57.850739,384.337524 51.044186,371.509491 53.172974,351.160492 
	C55.074741,332.981537 60.376282,315.654358 66.713295,298.637207 
	C68.259010,294.486389 67.800972,292.270355 63.972404,289.692535 
	C52.060795,281.672333 40.967083,272.611206 31.660397,261.545868 
	C27.126230,256.154938 23.340919,250.325897 20.658398,243.780640 
	C17.358318,235.728607 18.020100,228.239441 23.261208,221.146439 
	C30.484123,211.371338 39.749321,203.764343 49.283848,196.464386 
	C54.836292,192.213272 60.578724,188.198273 66.375641,184.284348 
	C68.704063,182.712250 69.203354,181.305481 68.253288,178.536835 
	C63.774883,165.486145 58.132484,152.811432 55.320629,139.212524 
	C54.095383,133.286896 54.287380,127.321648 54.666950,121.333809 
	C55.421749,109.426636 55.496326,97.470154 62.155350,86.743721 
	C67.556122,78.044106 73.699944,70.020500 81.073494,62.952438 
	C83.407928,60.714718 85.078781,58.195724 86.439720,55.261868 
	C96.015709,34.618374 113.519028,24.950609 134.838898,20.744949 
	C137.923920,20.136385 141.099686,19.991693 144.231384,19.615110 
	C148.836807,19.061314 153.307205,18.436213 157.715805,16.478384 
	C173.540833,9.450600 190.107086,7.455143 206.970139,11.740419 
	C222.741104,15.748173 233.051743,25.895296 237.532791,41.670128 
	C239.012939,46.880722 236.703796,51.170662 231.840195,52.690151 
	C227.457184,54.059490 223.309021,52.059357 221.720657,47.041588 
	C215.856186,28.515116 201.452301,26.097233 186.063782,26.775419 
	C179.931046,27.045694 173.500320,27.529087 167.726746,31.730772 
	C173.881073,37.960815 180.989243,41.658718 188.948029,43.852509 
	C203.243301,47.792912 217.524399,51.768764 230.608170,59.017040 
	C249.853745,69.678894 253.893677,80.777451 251.879837,104.120117 
	C251.679306,106.444595 250.958618,108.589409 252.482224,110.805038 
	C261.859863,124.441963 259.715820,138.118973 252.436417,151.756134 
	C251.506775,153.497696 250.432953,155.162308 249.441971,156.835480 
	C250.778290,159.541046 253.042618,160.005478 255.412231,159.779800 
	C259.544952,159.386215 263.650574,158.716049 267.774994,158.224365 
	C269.916962,157.969009 272.077667,157.668243 274.225006,157.701706 
	C279.191406,157.779068 282.241943,160.454529 282.838104,164.997375 
	C283.365448,169.015411 280.446747,173.325424 275.995605,174.128891 
	C268.801636,175.427475 261.532867,176.322220 254.284058,177.301498 
	C251.226959,177.714462 248.378754,177.016434 245.655701,175.465591 
	C240.734894,172.663040 235.637878,170.164459 230.766129,167.282532 
	C224.476639,163.561920 223.914627,157.252716 229.467255,152.510788 
	C235.525421,147.337128 239.415787,141.037445 240.978439,133.179443 
	C242.464050,125.708717 240.808151,121.152641 234.294907,117.036705 
	C224.980286,111.150505 214.496338,108.450882 203.852005,106.336067 
	C183.289886,102.250801 162.340759,100.818184 141.679550,97.372055 
	C129.928635,95.412079 118.657448,92.100639 108.061226,86.648834 
	C102.774612,83.928848 100.921356,79.264206 103.070374,74.743553 
	C105.165443,70.336388 110.172844,68.648354 115.422264,71.405792 
	C130.996765,79.586807 148.118073,81.291573 165.067093,83.565987 
	C188.130249,86.660858 211.420120,88.471146 233.351044,97.197090 
	C233.763016,97.361008 234.297287,97.217636 234.737091,97.217636 
	C237.083679,91.333694 233.392593,80.893410 227.941574,77.358078 
	C217.724335,70.731514 206.545532,66.610977 194.997452,63.297283 
	C183.648209,60.040646 172.037323,57.571743 162.455612,49.945492 
	C158.386200,46.706577 154.594711,43.249992 151.420486,39.138859 
	C150.149994,37.493378 148.824249,36.065296 146.494843,36.345409 
	C133.610855,37.894691 121.193214,40.727425 111.169121,49.746529 
	C109.202438,51.516041 106.868401,53.395184 105.942520,55.717613 
	C100.796631,68.625191 89.960526,77.182907 81.968315,87.894569 
	C77.053101,94.482239 72.708710,101.447639 72.368004,109.992790 
	C72.038681,118.252159 75.705299,123.645660 83.344307,126.613937 
	C87.711601,128.310928 92.300774,129.344101 96.948669,129.596207 
	C112.610275,130.445694 128.205887,129.292435 143.830429,128.132843 
	C166.102707,126.479866 188.414352,125.900269 210.308167,131.706055 
	C214.473816,132.810699 218.588867,134.280685 222.523422,136.038391 
	C227.494827,138.259323 229.359879,142.728989 227.604385,147.003021 
	C225.703323,151.631470 221.131561,153.636002 215.987564,151.574753 
	C206.622406,147.822052 196.925476,145.916992 186.908585,144.993256 
	C170.239426,143.456085 153.615005,144.266342 137.027374,145.694138 
	C115.898399,147.512848 94.839813,149.357315 74.069954,141.616821 
	C73.670822,143.944443 74.616783,145.709930 75.249985,147.510101 
	C80.274879,161.795914 85.335121,176.069275 90.350136,190.358536 
	C93.144653,198.320984 92.943932,206.363922 90.844109,214.438965 
	C90.593330,215.403351 90.382576,216.381332 90.214622,217.363510 
	C89.599998,220.957764 88.139816,224.681137 88.631958,228.122192 
	C89.256958,232.492172 94.499367,231.549637 97.426178,233.468857 
	C99.818916,235.037872 102.353012,236.502426 103.818436,238.952866 
	C109.015068,247.642456 114.883461,255.981384 117.494789,266.020630 
	C119.602837,274.125061 121.709702,274.663910 128.253860,269.267609 
	C143.588058,256.623016 157.463425,242.505371 170.946930,227.923111 
	C175.945084,222.517670 176.454422,216.933594 175.144775,210.498734 
	C174.680908,208.219559 173.847336,206.015091 173.393845,203.734497 
	C172.570114,199.591858 174.909897,195.556274 178.768784,194.184723 
	C182.673431,192.796906 187.388062,194.308121 188.905777,198.265778 
	C193.693375,210.750153 196.347321,223.169022 186.868393,235.054810 
	C180.732681,242.748459 174.775848,250.552124 167.298080,257.039124 
	C166.317917,257.889435 165.175125,258.933746 164.849182,260.096130 
	C162.352234,269.000671 160.038956,277.956757 157.406326,287.885895 
	C176.930420,279.390625 194.559875,269.975189 210.274078,256.048126 
	C205.410141,254.340958 201.265884,256.323029 197.110367,256.269775 
	C190.271240,256.182129 186.185959,251.491287 187.757828,245.275116 
	C188.961594,240.514603 192.940811,239.446121 196.996490,238.997284 
	C205.261017,238.082657 213.544266,237.169708 221.843826,236.810226 
	C225.957748,236.632034 228.420227,235.074097 229.888245,231.451324 
	C231.013062,228.675476 232.096909,225.880554 233.311981,223.144318 
	C235.212540,218.864487 239.260712,216.707489 243.445343,217.933273 
	C247.972443,219.259369 249.780777,222.615189 249.290451,227.140457 
	C248.722870,232.378723 246.323776,236.998154 243.796341,241.497299 
	C233.045441,260.635345 217.022263,274.452972 198.654953,285.836121 
	C183.450195,295.259277 167.358582,302.839874 150.485046,308.791870 
	C146.528778,310.187439 142.680115,311.171478 139.270294,307.929993 
	C135.940826,304.764893 136.283798,300.812469 137.376816,296.758331 
	C138.717453,291.785614 139.919250,286.775452 141.362854,281.062012 
	C139.425659,282.435577 137.856628,283.428436 136.419876,284.585571 
	C123.852722,294.706573 108.104065,290.865387 102.950806,275.641266 
	C100.190681,267.487122 96.177170,260.153687 92.310959,252.624603 
	C90.818085,249.717361 88.868538,248.018524 85.769585,247.067535 
	C80.586449,245.476944 75.562683,243.146835 73.182060,237.940994 
	C70.221634,231.467285 71.398094,224.553741 72.412941,217.826569 
	C73.294189,211.985001 75.657722,206.379333 75.643074,200.725220 
	C74.616951,199.785690 73.924332,199.877563 73.383980,200.255264 
	C61.364750,208.656631 49.408901,217.161331 39.465145,228.067596 
	C34.492390,233.521698 34.472229,234.818451 38.140667,241.319290 
	C42.119690,248.370514 47.611645,254.204727 53.568714,259.569733 
	C60.207977,265.549164 66.972649,271.407532 74.662613,276.193573 
	C76.809853,273.701477 77.466789,270.896210 78.599419,268.353546 
	C81.494171,261.855133 85.413475,259.489624 90.346542,261.463013 
	C95.814079,263.650208 97.167091,268.300873 94.181145,275.217743 
	C86.650116,292.663147 80.102318,310.454987 74.875938,328.734222 
	C72.307793,337.716278 70.559029,346.842621 69.489281,356.107117 
	C68.525314,364.455383 71.820946,369.033234 80.232658,370.690033 
	C93.625046,373.327850 106.761353,370.829559 119.780899,368.078308 
	C156.803650,360.254730 191.656982,346.071442 226.235077,331.168152 
	C237.093079,326.488342 248.046066,321.905304 258.459961,316.349030 
	C272.486389,308.865326 286.466614,307.060181 302.198029,310.644440 
	C326.885223,316.269165 352.233917,317.455597 377.505219,318.773499 
	C402.821808,320.093750 428.143951,319.900757 453.460449,319.581329 
	C473.763489,319.325134 494.061249,318.446594 514.328186,316.979492 
	C519.021790,316.639709 524.003601,315.302368 528.689575,318.764160 
	C529.000000,323.024536 529.000000,327.049103 529.000000,331.536804 
z"/>
<path fill="#000000" opacity="1.000000" stroke="none" 
	d="
M529.000000,24.535349 
	C526.626526,26.010027 524.987183,27.940714 523.240234,29.701389 
	C483.691345,69.560524 444.157043,109.434052 404.640869,149.325607 
	C403.631714,150.344345 402.167999,151.101044 402.073212,152.840500 
	C402.917267,154.037308 404.195221,153.641281 405.285492,153.640686 
	C419.779999,153.632950 434.265198,153.934540 448.744598,154.633621 
	C454.677582,154.920074 458.396881,158.124283 458.268127,163.174698 
	C458.143463,168.065536 454.549469,171.269623 448.846405,171.325348 
	C431.684967,171.493088 414.527252,171.158997 397.390350,170.288025 
	C392.851013,170.057297 390.579803,171.447006 390.187134,176.098724 
	C389.611420,182.919388 386.092712,188.235764 381.190308,192.833160 
	C373.050568,200.466415 365.140076,208.347672 356.901825,215.871292 
	C348.437408,223.601456 336.302399,221.792297 330.183838,212.173630 
	C329.482574,211.071213 328.797791,209.958359 327.853485,208.447281 
	C319.187897,214.398468 310.505493,219.913422 301.047485,224.051575 
	C295.400116,226.522476 289.747253,228.961472 283.595581,229.933044 
	C273.526245,231.523361 265.472290,224.040588 266.241119,213.857666 
	C266.820007,206.190598 269.865784,199.378983 273.491547,192.782196 
	C287.429901,167.422195 309.234375,151.087845 335.056305,139.470078 
	C338.238770,138.038223 340.609070,136.074600 342.615021,133.282959 
	C369.927887,95.272438 397.300690,57.304970 424.649658,19.320337 
	C429.364288,12.772264 434.183502,10.935682 438.712921,14.026579 
	C443.508881,17.299358 443.506104,22.689272 438.738556,29.289970 
	C410.746246,68.045845 382.700684,106.763573 354.851440,145.621994 
	C351.652283,150.085785 347.564880,152.569901 342.774872,154.747437 
	C323.423035,163.544739 306.067596,175.065872 293.440308,192.627670 
	C289.466125,198.154892 286.381592,204.189285 284.303558,210.649918 
	C286.648926,212.302399 288.157532,210.695282 289.709106,210.041229 
	C305.196198,203.512863 319.068634,194.405640 331.839844,183.542709 
	C337.550323,178.685516 343.286804,173.856781 349.093658,169.115799 
	C353.635406,165.407730 358.320160,165.335846 361.653839,168.715866 
	C365.138519,172.248978 365.076935,176.481094 361.436493,181.319641 
	C356.592377,187.758011 351.730133,194.182755 347.230621,200.896912 
	C356.259125,194.190018 364.496735,186.657654 371.325165,177.867325 
	C374.940979,173.212662 374.702759,166.822876 375.519653,161.127441 
	C376.338623,155.417618 378.534637,150.943481 382.654480,146.818451 
	C426.923828,102.493652 471.043182,58.019077 515.222839,13.604607 
	C520.495117,8.304320 522.434998,7.927188 528.688843,10.799706 
	C529.000000,15.356899 529.000000,19.713799 529.000000,24.535349 
z"/>
<path fill="#000000" opacity="1.000000" stroke="none" 
	d="
M529.000000,199.536819 
	C517.827026,204.890976 507.777496,211.798203 497.233154,217.809692 
	C486.112946,224.149475 475.072388,230.559860 464.795898,238.367126 
	C449.662109,249.864624 431.940399,255.141083 413.109589,256.084747 
	C401.016113,256.690796 388.832520,257.951202 376.762970,255.379578 
	C372.092773,254.384521 367.715576,252.545364 364.451080,249.138428 
	C353.644958,237.860794 352.905701,228.793060 362.666199,218.698456 
	C375.629669,205.291153 390.786316,194.718140 406.864532,185.485001 
	C417.143311,179.582291 428.501709,179.165451 439.862000,181.178635 
	C446.783569,182.405273 452.029297,181.153061 457.361084,176.021240 
	C476.445374,157.652802 496.072937,139.849762 515.416870,121.749367 
	C519.371399,118.049072 523.378174,116.330193 528.674561,119.812988 
	C529.000000,124.024544 529.000000,128.049088 528.710815,132.699326 
	C507.387848,152.746216 486.025482,171.829391 465.505768,191.779282 
	C458.689880,198.405914 452.005493,200.570938 443.159180,198.660690 
	C428.959229,195.594391 415.780457,197.339645 404.205200,207.077225 
	C399.635345,210.921585 394.363007,213.918900 389.639618,217.596176 
	C385.049347,221.169830 380.601257,224.959946 376.369415,228.950562 
	C372.158051,232.921814 372.921814,234.565903 378.242462,238.012024 
	C379.150116,238.599915 380.457428,238.618103 381.596375,238.794266 
	C392.882599,240.540070 404.190887,239.947006 415.427216,238.575607 
	C429.432434,236.866272 442.836304,233.040573 454.676910,225.012970 
	C458.519257,222.407944 461.756195,218.856766 465.720459,216.493942 
	C482.880707,206.265930 500.203796,196.310989 517.476868,186.272491 
	C521.459900,183.957718 525.345886,183.799576 529.000000,187.000000 
	C529.000000,191.024551 529.000000,195.049088 529.000000,199.536819 
z"/>
</svg>