<svg version="1.1" id="Layer_1" xmlns="http://www.w3.org/2000/svg" xmlns:xlink="http://www.w3.org/1999/xlink" x="0px" y="0px"
	 width="100%" viewBox="0 0 784 768" enable-background="new 0 0 784 768" xml:space="preserve">
<path fill="#000000" opacity="1.000000" stroke="none" 
	d="
M504.468658,769.000000 
	C500.785339,763.035889 500.255798,756.336670 498.832458,749.892639 
	C495.580780,735.170715 492.394684,720.433899 489.283264,705.681702 
	C486.340973,691.731323 483.622589,677.733276 480.631348,663.793640 
	C477.709930,650.179626 474.544952,636.618042 471.533661,623.023071 
	C470.210297,617.048584 469.010254,611.046753 467.735809,605.061279 
	C467.496674,603.938049 467.498749,602.558044 466.832611,601.763428 
	C460.982361,594.784058 454.317200,588.628784 447.109039,581.980225 
	C443.381073,594.148132 439.104645,605.352417 436.608826,616.940186 
	C433.391388,631.878174 425.408508,643.368286 415.297211,654.381287 
	C384.319763,688.120972 353.923737,722.394165 323.266388,756.428284 
	C315.760773,764.760620 309.565857,765.220947 300.819397,758.230408 
	C282.471039,743.565430 264.140442,728.878235 245.816818,714.182312 
	C237.258881,707.318604 236.524841,700.671936 243.687485,692.447937 
	C268.850006,663.556580 293.940125,634.599182 319.420380,605.989807 
	C324.981842,599.745361 325.561218,592.172058 327.452118,584.977905 
	C331.495728,569.593750 334.813538,554.017395 338.350494,538.501953 
	C341.225342,525.890869 343.980255,513.252502 346.800842,500.628967 
	C347.885864,495.773041 348.676056,490.816437 350.224579,486.111053 
	C351.260834,482.962402 350.438812,480.895905 348.746887,478.365662 
	C341.037811,466.836761 334.666016,454.617340 330.663300,441.266846 
	C330.230194,439.822266 329.783600,438.416626 328.519012,437.105530 
	C326.371704,437.725128 325.244476,439.641998 323.893585,441.194122 
	C315.253784,451.121490 306.721436,461.142761 298.038818,471.032257 
	C291.917999,478.003815 284.025208,478.225281 277.555206,471.732574 
	C262.735535,456.860840 247.941711,441.963379 233.152710,427.061127 
	C225.066086,418.912628 224.768890,414.233063 231.958282,405.475922 
	C261.128510,369.944855 290.309235,334.422302 319.580963,298.974976 
	C321.738892,296.361786 322.673248,293.784576 322.751495,290.415894 
	C322.994720,279.946899 321.926575,269.454773 323.785339,259.006653 
	C328.373413,233.217194 342.003387,213.703293 364.119080,199.927505 
	C365.482025,199.078537 367.276581,198.793488 368.155060,196.797043 
	C345.875519,178.157074 333.467255,154.799316 334.936523,125.081116 
	C336.106537,101.415382 345.636322,81.641273 363.316010,66.015358 
	C396.608276,36.590443 446.234924,37.700520 478.963531,69.923073 
	C508.952240,99.448097 516.495300,159.094116 469.789825,197.058640 
	C471.529877,199.447800 474.386353,200.199417 476.647430,201.763382 
	C494.702576,214.252014 507.273102,230.565018 512.578369,252.217575 
	C514.376892,259.558105 515.226685,266.917969 515.254639,274.398438 
	C515.338745,296.895111 515.369751,319.392456 515.256958,341.888733 
	C515.239990,345.282654 516.257507,347.276917 519.272644,349.066803 
	C543.040894,363.176575 566.725769,377.427979 590.362244,391.758026 
	C599.664368,397.397614 601.017517,403.799194 595.418701,413.100739 
	C584.942078,430.506165 574.484314,447.923248 564.083008,465.373779 
	C556.788147,477.612488 552.136475,478.971588 539.781860,472.309540 
	C534.271118,469.337982 528.724365,466.433319 523.193970,463.498291 
	C522.847717,463.780273 522.501404,464.062256 522.155151,464.344238 
	C525.055115,470.926758 527.945801,477.513367 530.856750,484.091034 
	C540.952332,506.902832 551.252502,529.627014 561.059021,552.562317 
	C565.062561,561.925842 565.389465,572.282593 567.248535,582.214600 
	C569.352966,593.457703 571.403320,604.711548 573.385376,615.976868 
	C575.108826,625.772278 576.647949,635.600098 578.368286,645.396057 
	C581.410461,662.718994 584.573975,680.020630 587.601685,697.346069 
	C590.568665,714.324036 593.287354,731.346680 596.408020,748.295837 
	C597.638733,754.980530 599.896729,761.508240 597.147705,768.658813 
	C566.312439,769.000000 535.624878,769.000000 504.468658,769.000000 
M410.943054,401.610199 
	C408.979187,399.955505 407.779633,397.795898 406.751678,395.484192 
	C401.076447,382.721558 395.362274,369.976196 389.666687,357.222565 
	C380.104919,335.811798 370.589661,314.380096 360.939178,293.009430 
	C359.581879,290.003754 360.238586,288.450012 363.182556,287.252869 
	C367.652740,285.435120 372.036316,283.403198 376.445923,281.438141 
	C382.440887,278.766663 382.562134,278.801666 385.228271,284.792725 
	C399.285950,316.381683 413.359436,347.963684 427.359802,379.578033 
	C428.354431,381.824005 429.673004,383.362885 431.874359,384.559570 
	C468.294403,404.357056 504.692078,424.196136 541.014832,444.171356 
	C544.619141,446.153503 546.566528,445.641113 548.577698,442.154388 
	C553.985046,432.779877 559.647034,423.552338 565.195984,414.259338 
	C568.778809,408.259033 568.764709,408.261169 562.950989,404.773010 
	C529.530273,384.721161 496.119049,364.653503 462.682312,344.628387 
	C459.172668,342.526459 456.096741,340.182831 454.725739,336.081970 
	C447.151581,313.426697 439.579865,290.770203 431.865051,268.162689 
	C430.773254,264.963257 431.795685,263.500214 434.670197,262.548035 
	C440.192780,260.718658 445.714630,258.882141 451.192596,256.924957 
	C453.944244,255.941833 455.232971,257.134857 456.040680,259.569641 
	C462.414551,278.784088 469.202393,297.874023 475.001526,317.259918 
	C477.339844,325.076721 483.121948,327.237030 489.133881,330.434540 
	C489.534058,329.298523 489.845978,328.833313 489.838715,328.373138 
	C489.498322,306.744141 491.415558,285.078430 488.845734,263.486206 
	C486.038269,239.897736 467.583069,222.174713 448.185577,216.227295 
	C434.651245,212.077576 420.786163,213.468918 407.019501,213.378021 
	C396.315582,213.307312 386.241852,216.243423 377.135956,221.818604 
	C357.035461,234.125366 348.057434,252.547852 348.073029,275.786285 
	C348.099091,314.616608 348.135345,353.447235 348.017822,392.277252 
	C347.985901,402.819244 349.086761,413.254211 351.658875,423.373993 
	C357.288086,445.521729 367.448914,465.468475 383.640961,481.819458 
	C417.408752,515.918579 451.424591,549.772034 485.359619,583.705261 
	C487.868042,586.213501 490.245483,588.825256 491.058075,592.345886 
	C493.444580,602.685242 495.780853,613.038208 497.961975,623.422546 
	C501.879913,642.075500 505.552734,660.780457 509.544983,679.417175 
	C514.201538,701.154968 519.259827,722.808105 523.735657,744.581909 
	C524.629883,748.932068 526.436707,749.907593 530.375610,749.838867 
	C541.038269,749.653015 551.706604,749.815247 562.371826,749.733337 
	C564.974426,749.713318 567.691040,750.355347 570.415955,748.874817 
	C570.338440,741.416992 568.173889,734.240234 567.011169,726.940857 
	C564.871887,713.510864 562.146545,700.175354 559.815857,686.774292 
	C556.889465,669.947510 554.193054,653.080627 551.251892,636.256531 
	C548.224121,618.936890 545.004517,601.650818 541.902832,584.344055 
	C540.529297,576.680054 540.372864,568.589172 537.320923,561.477112 
	C525.189453,533.206970 512.404114,505.218170 500.080841,477.029022 
	C496.370056,468.540649 490.812378,460.556671 490.224823,451.084381 
	C489.912323,446.046448 487.762115,443.827271 483.789948,441.671234 
	C459.647308,428.566895 435.611694,415.265320 410.943054,401.610199 
M412.996857,605.740601 
	C416.869293,593.060120 420.561584,580.320312 424.710083,567.730713 
	C426.196869,563.218811 425.757080,560.002991 422.264801,556.582153 
	C408.467163,543.066895 394.877167,529.338806 381.270416,515.629883 
	C378.381500,512.719299 375.745483,509.557617 372.305969,505.751434 
	C371.327820,508.575958 370.722015,509.909668 370.403809,511.308716 
	C367.319977,524.866272 364.292053,538.436401 361.233063,551.999573 
	C357.841034,567.039673 354.735962,582.154114 350.893982,597.078674 
	C349.186462,603.711792 348.943390,610.976807 344.002563,616.590332 
	C324.430939,638.826904 304.926392,661.122559 285.411713,683.409180 
	C280.408844,689.122620 275.459686,694.883057 270.338074,700.792480 
	C271.845734,702.168152 272.881714,703.225098 274.029083,704.142883 
	C283.648346,711.837097 293.281891,719.513550 302.923706,727.179504 
	C309.990173,732.797852 310.092285,732.871521 316.238739,726.050598 
	C343.316284,696.001770 370.064362,665.649353 397.543762,635.973572 
	C405.576935,627.298340 410.556091,617.814453 412.996857,605.740601 
M398.176880,184.411301 
	C414.065460,189.913345 429.503113,189.319260 444.653992,181.690613 
	C443.778046,178.475937 441.882629,176.736954 440.543213,174.674652 
	C434.927368,166.028046 431.210388,156.778259 430.660370,146.332031 
	C430.424133,141.844681 432.007782,139.832108 436.599640,140.022232 
	C440.920563,140.201126 445.260712,140.159225 449.583344,139.986755 
	C454.213135,139.802048 455.979614,141.777832 456.298187,146.455826 
	C456.770172,153.386154 459.696289,159.407288 464.768890,164.124191 
	C466.936798,163.241501 467.763580,161.745636 468.629211,160.357941 
	C478.348663,144.776291 480.311646,128.311691 474.874359,110.710556 
	C467.300568,86.193375 440.695404,66.551117 410.936676,71.061806 
	C389.404572,74.325554 373.938324,85.663307 365.176361,105.256714 
	C351.231995,136.439209 366.306183,171.745163 398.176880,184.411301 
M272.678619,430.820892 
	C277.121246,435.492493 281.563843,440.164093 286.056030,444.887817 
	C287.577057,443.654053 288.296539,443.221527 288.823914,442.620453 
	C299.589996,430.349823 310.312500,418.040771 321.106140,405.794464 
	C322.710907,403.973724 322.781036,401.948059 322.775757,399.744904 
	C322.729279,380.415283 322.745758,361.085510 322.678223,341.756012 
	C322.672180,340.023651 323.263916,338.154419 321.861359,336.090363 
	C300.218475,362.464661 278.734467,388.645294 256.745270,415.441620 
	C262.138794,420.644012 267.156830,425.484283 272.678619,430.820892 
z"/>
<path fill="#000000" opacity="1.000000" stroke="none" 
	d="
M785.000000,122.531342 
	C781.061646,128.336029 775.732361,129.528412 769.274048,129.512527 
	C697.816040,129.336746 626.356567,129.237808 554.899780,129.579102 
	C544.111084,129.630630 539.673645,123.752258 538.417419,114.802338 
	C533.334045,78.587234 557.085571,45.070202 589.834961,35.686298 
	C605.183838,31.288290 620.352234,31.678516 635.182007,37.536625 
	C639.194092,39.121502 641.328491,38.557648 644.369446,35.390373 
	C662.710571,16.287275 685.500000,6.602624 711.756531,9.196420 
	C745.661438,12.545780 770.297913,30.221701 783.853638,62.139114 
	C784.047607,62.595703 784.335083,63.012562 784.789429,63.723980 
	C785.000000,83.354225 785.000000,102.708458 785.000000,122.531342 
M578.505554,104.039253 
	C603.162964,104.222237 627.820129,104.229393 652.478821,104.510902 
	C687.629761,104.912186 722.789185,104.794197 757.946411,104.307220 
	C763.073486,104.236198 764.382141,102.398659 764.666260,98.221321 
	C765.075745,92.200272 764.370972,86.326416 763.084351,80.403862 
	C757.436096,54.404751 733.197754,34.214947 706.763794,34.313530 
	C685.675598,34.392170 668.908691,43.135666 656.801575,60.634987 
	C649.945801,70.544083 644.937561,71.538620 634.550720,65.355713 
	C627.857666,61.371597 620.710938,58.788719 612.938049,58.359364 
	C588.422119,57.005161 566.183899,74.849739 563.624817,99.580254 
	C563.303772,102.682930 563.881653,104.019691 567.010742,104.004715 
	C570.509827,103.987968 574.009277,104.025398 578.505554,104.039253 
z"/>
<path fill="#000000" opacity="1.000000" stroke="none" 
	d="
M138.000000,321.149963 
	C106.668762,321.168335 75.837509,321.178925 45.006283,321.207672 
	C29.277155,321.222321 24.528555,317.110931 23.880163,301.469910 
	C22.529121,268.878998 40.469616,238.508636 74.692093,227.251755 
	C90.101189,222.183197 105.803612,222.352036 121.049675,228.574982 
	C125.183578,230.262329 127.955917,229.610168 131.106995,226.285492 
	C147.243256,209.260147 167.325989,200.401550 190.664505,200.134323 
	C229.900040,199.685043 263.873962,225.911179 273.510590,263.289642 
	C277.558563,278.990845 277.252014,294.472839 272.354919,309.903656 
	C269.729187,318.177277 265.693085,321.235626 256.992035,321.233246 
	C217.494690,321.222412 177.997345,321.180481 138.000000,321.149963 
M201.988525,226.295853 
	C199.659149,226.211121 197.326813,226.175415 195.000870,226.034012 
	C173.190598,224.708054 156.216370,233.535110 143.613235,250.971344 
	C135.979553,261.532410 131.593246,262.645111 120.437103,256.137787 
	C108.673584,249.276169 96.087173,247.308548 83.045197,251.520035 
	C65.300552,257.250092 54.229855,269.251465 50.303364,287.719757 
	C48.604153,295.712006 48.524746,295.899719 56.724659,295.901031 
	C112.168030,295.910004 167.611404,295.904816 223.054779,295.898285 
	C230.214096,295.897461 237.375900,295.744965 244.531631,295.895782 
	C247.854446,295.965790 249.569397,295.105530 250.263077,291.462494 
	C252.380295,280.343475 249.912552,269.914124 245.453171,260.005402 
	C237.146729,241.548477 222.326080,230.912567 201.988525,226.295853 
z"/>
<path fill="#000000" opacity="1.000000" stroke="none" 
	d="
M171.000031,737.697021 
	C188.145966,737.589844 204.793747,737.953186 221.436996,737.151489 
	C227.846710,736.842712 228.262939,737.489136 228.307205,743.830688 
	C228.339752,748.493042 228.136032,753.165344 228.378403,757.815552 
	C228.598358,762.035522 226.785263,763.255127 222.762222,763.230896 
	C197.951477,763.081543 173.139618,763.096558 148.328125,763.099976 
	C125.015305,763.103088 101.702484,763.168518 78.389648,763.185974 
	C72.347321,763.190491 71.868454,762.679138 71.848297,756.632446 
	C71.833305,752.136475 71.995605,747.632385 71.775253,743.146851 
	C71.564964,738.866211 73.359276,736.986145 77.603249,737.106995 
	C85.754150,737.338989 93.907394,737.595520 102.060448,737.625244 
	C124.873428,737.708313 147.686813,737.680969 171.000031,737.697021 
z"/>
<path fill="#000000" opacity="1.000000" stroke="none" 
	d="
M118.989059,706.870605 
	C118.985123,702.558105 119.047913,698.727051 118.965477,694.899109 
	C118.895813,691.664551 120.125847,689.875610 123.592117,689.879639 
	C149.234634,689.909302 174.877197,689.902649 200.519745,689.899048 
	C203.092209,689.898743 204.544052,690.785156 204.464584,693.717468 
	C204.311279,699.374451 204.303925,705.040222 204.426346,710.698120 
	C204.501862,714.188660 202.925385,715.341858 199.587494,715.332825 
	C174.444550,715.265076 149.300995,715.229492 124.158401,715.346008 
	C117.828140,715.375366 119.210098,710.979919 118.989059,706.870605 
z"/>
<path fill="#000000" opacity="1.000000" stroke="none" 
	d="
M36.999832,736.988159 
	C50.647579,737.053467 49.254639,736.083435 49.271431,748.795776 
	C49.290623,763.324158 49.267048,763.354004 34.941223,763.299133 
	C22.703573,763.252319 23.784771,764.617798 23.746899,752.030151 
	C23.738407,749.207275 23.937687,746.368164 23.701414,743.565186 
	C23.301224,738.817505 25.379173,736.785034 30.038036,737.005920 
	C32.191231,737.108032 34.354359,737.000488 36.999832,736.988159 
z"/>
<path fill="#000000" opacity="1.000000" stroke="none" 
	d="
M79.106415,715.319092 
	C71.879333,715.194885 71.860527,715.166931 71.858299,708.720276 
	C71.856689,704.073486 71.926567,699.423279 71.771378,694.781067 
	C71.660042,691.450439 72.956474,689.830627 76.378578,689.871948 
	C81.854324,689.937927 87.331635,689.893311 92.808159,689.868591 
	C95.800095,689.855103 97.447495,691.018311 97.375954,694.296936 
	C97.256500,699.771118 97.238899,705.251953 97.368309,710.725464 
	C97.450790,714.213867 95.842667,715.444702 92.535789,715.349304 
	C88.224373,715.224854 83.906647,715.318909 79.106415,715.319092 
z"/>
</svg>