<?xml version="1.0" encoding="iso-8859-1"?>
<!-- Uploaded to: SVG Repo, www.svgrepo.com, Generator: SVG Repo Mixer Tools -->
<!DOCTYPE svg PUBLIC "-//W3C//DTD SVG 1.1//EN" "http://www.w3.org/Graphics/SVG/1.1/DTD/svg11.dtd">
<svg fill="#000000" version="1.1" id="Capa_1" xmlns="http://www.w3.org/2000/svg" xmlns:xlink="http://www.w3.org/1999/xlink" 
	 width="800px" height="800px" viewBox="0 0 937.084 937.084"
	 xml:space="preserve">
<g>
	<g>
		<path d="M707.147,66V10c0-5.523-4.478-10-10-10H434.542c-5.523,0-10,4.477-10,10v46c0,5.523-4.477,10-10,10H239.937
			c-5.523,0-10,4.477-10,10v814.915H78.542c-5.523,0-10,4.477-10,10v26.169c0,5.523,4.477,10,10,10h780c5.523,0,10-4.477,10-10
			v-26.169c0-5.523-4.477-10-10-10H707.147V120V66z M336.665,647.643c0,5.523-4.477,10-10,10h-29.731c-5.522,0-10-4.477-10-10
			v-30.997c0-5.523,4.478-10,10-10h29.731c5.523,0,10,4.477,10,10V647.643z M336.665,556.148c0,5.522-4.477,10-10,10h-29.731
			c-5.522,0-10-4.478-10-10V525.15c0-5.523,4.478-10,10-10h29.731c5.523,0,10,4.477,10,10V556.148z M336.665,464.652
			c0,5.522-4.477,10-10,10h-29.731c-5.522,0-10-4.478-10-10v-30.997c0-5.523,4.478-10,10-10h29.731c5.523,0,10,4.477,10,10V464.652z
			 M336.665,373.157c0,5.522-4.477,10-10,10h-29.731c-5.522,0-10-4.478-10-10v-30.998c0-5.523,4.478-10,10-10h29.731
			c5.523,0,10,4.477,10,10V373.157z M336.665,281.661c0,5.523-4.477,10-10,10h-29.731c-5.522,0-10-4.477-10-10v-30.998
			c0-5.523,4.478-10,10-10h29.731c5.523,0,10,4.477,10,10V281.661z M336.665,190.166c0,5.523-4.477,10-10,10h-29.731
			c-5.522,0-10-4.477-10-10v-30.998c0-5.523,4.478-10,10-10h29.731c5.523,0,10,4.477,10,10V190.166z M570.542,890.915h-204V777.354
			c0-5.523,4.477-10,10-10h184c5.523,0,10,4.477,10,10V890.915z M650.15,647.643c0,5.523-4.478,10-10,10H390.542
			c-5.523,0-10-4.477-10-10v-30.997c0-5.523,4.477-10,10-10H640.15c5.522,0,10,4.477,10,10V647.643L650.15,647.643z M650.15,556.148
			c0,5.522-4.478,10-10,10H390.542c-5.523,0-10-4.478-10-10V525.15c0-5.523,4.477-10,10-10H640.15c5.522,0,10,4.477,10,10V556.148
			L650.15,556.148z M650.15,464.652c0,5.522-4.478,10-10,10H390.542c-5.523,0-10-4.478-10-10v-30.997c0-5.523,4.477-10,10-10H640.15
			c5.522,0,10,4.477,10,10V464.652L650.15,464.652z M650.15,373.157c0,5.522-4.478,10-10,10H390.542c-5.523,0-10-4.478-10-10
			v-30.998c0-5.523,4.477-10,10-10H640.15c5.522,0,10,4.477,10,10V373.157L650.15,373.157z M650.15,281.661c0,5.523-4.478,10-10,10
			H390.542c-5.523,0-10-4.477-10-10v-30.998c0-5.523,4.477-10,10-10H640.15c5.522,0,10,4.477,10,10V281.661L650.15,281.661z
			 M650.15,190.166c0,5.523-4.478,10-10,10H390.542c-5.523,0-10-4.477-10-10v-30.998c0-5.523,4.477-10,10-10H640.15
			c5.522,0,10,4.477,10,10V190.166L650.15,190.166z"/>
	</g>
</g>
</svg>