<?xml version="1.0" standalone="no"?>
<!DOCTYPE svg PUBLIC "-//W3C//DTD SVG 20010904//EN"
 "http://www.w3.org/TR/2001/REC-SVG-20010904/DTD/svg10.dtd">
<svg version="1.0" xmlns="http://www.w3.org/2000/svg"
 width="45" height="45" viewBox="0 0 256.000000 256.000000"
 preserveAspectRatio="xMidYMid meet">

<g transform="translate(0.000000,256.000000) scale(0.100000,-0.100000)"
fill="#ff0000" stroke="none">
<path d="M1125 2310 c-33 -5 -98 -21 -145 -36 -647 -198 -936 -941 -593 -1524
140 -239 363 -403 651 -482 111 -31 373 -31 484 0 396 108 662 374 770 770 31
111 31 373 0 484 -108 397 -379 667 -770 769 -89 23 -302 33 -397 19z m310
-165 c359 -63 647 -351 710 -710 50 -287 -40 -572 -244 -776 -343 -344 -899
-344 -1242 0 -344 343 -344 899 0 1242 204 204 489 294 776 244z"/>
<path d="M905 1655 c-16 -15 -25 -35 -25 -56 0 -28 18 -51 142 -176 l142 -143
-142 -143 c-124 -125 -142 -148 -142 -176 0 -43 38 -81 81 -81 28 0 51 18 176
142 l143 142 143 -142 c125 -124 148 -142 176 -142 43 0 81 38 81 81 0 28 -18
51 -142 176 l-142 143 142 143 c124 125 142 148 142 176 0 43 -38 81 -81 81
-28 0 -51 -18 -176 -142 l-143 -142 -143 142 c-125 124 -148 142 -176 142 -21
0 -41 -9 -56 -25z"/>
</g>
</svg>
